%TF.GenerationSoftware,KiCad,Pcbnew,9.0.5*%
%TF.CreationDate,2025-10-18T17:09:32-07:00*%
%TF.ProjectId,Flyback_CCM_Converter,466c7962-6163-46b5-9f43-434d5f436f6e,rev?*%
%TF.SameCoordinates,Original*%
%TF.FileFunction,Copper,L1,Top*%
%TF.FilePolarity,Positive*%
%FSLAX46Y46*%
G04 Gerber Fmt 4.6, Leading zero omitted, Abs format (unit mm)*
G04 Created by KiCad (PCBNEW 9.0.5) date 2025-10-18 17:09:32*
%MOMM*%
%LPD*%
G01*
G04 APERTURE LIST*
G04 Aperture macros list*
%AMRoundRect*
0 Rectangle with rounded corners*
0 $1 Rounding radius*
0 $2 $3 $4 $5 $6 $7 $8 $9 X,Y pos of 4 corners*
0 Add a 4 corners polygon primitive as box body*
4,1,4,$2,$3,$4,$5,$6,$7,$8,$9,$2,$3,0*
0 Add four circle primitives for the rounded corners*
1,1,$1+$1,$2,$3*
1,1,$1+$1,$4,$5*
1,1,$1+$1,$6,$7*
1,1,$1+$1,$8,$9*
0 Add four rect primitives between the rounded corners*
20,1,$1+$1,$2,$3,$4,$5,0*
20,1,$1+$1,$4,$5,$6,$7,0*
20,1,$1+$1,$6,$7,$8,$9,0*
20,1,$1+$1,$8,$9,$2,$3,0*%
G04 Aperture macros list end*
%TA.AperFunction,SMDPad,CuDef*%
%ADD10RoundRect,0.162500X-0.162500X0.447500X-0.162500X-0.447500X0.162500X-0.447500X0.162500X0.447500X0*%
%TD*%
%TA.AperFunction,ComponentPad*%
%ADD11C,1.828800*%
%TD*%
%TA.AperFunction,ComponentPad*%
%ADD12C,1.750000*%
%TD*%
%TA.AperFunction,ComponentPad*%
%ADD13R,2.000000X2.000000*%
%TD*%
%TA.AperFunction,SMDPad,CuDef*%
%ADD14RoundRect,0.250000X0.625000X-0.400000X0.625000X0.400000X-0.625000X0.400000X-0.625000X-0.400000X0*%
%TD*%
%TA.AperFunction,SMDPad,CuDef*%
%ADD15RoundRect,0.237500X-0.237500X0.250000X-0.237500X-0.250000X0.237500X-0.250000X0.237500X0.250000X0*%
%TD*%
%TA.AperFunction,SMDPad,CuDef*%
%ADD16RoundRect,0.250000X0.400000X0.625000X-0.400000X0.625000X-0.400000X-0.625000X0.400000X-0.625000X0*%
%TD*%
%TA.AperFunction,SMDPad,CuDef*%
%ADD17RoundRect,0.250000X0.650000X-0.412500X0.650000X0.412500X-0.650000X0.412500X-0.650000X-0.412500X0*%
%TD*%
%TA.AperFunction,SMDPad,CuDef*%
%ADD18R,1.200000X2.200000*%
%TD*%
%TA.AperFunction,SMDPad,CuDef*%
%ADD19R,5.800000X6.400000*%
%TD*%
%TA.AperFunction,SMDPad,CuDef*%
%ADD20RoundRect,0.250000X-0.475000X0.337500X-0.475000X-0.337500X0.475000X-0.337500X0.475000X0.337500X0*%
%TD*%
%TA.AperFunction,SMDPad,CuDef*%
%ADD21RoundRect,0.250000X0.412500X0.650000X-0.412500X0.650000X-0.412500X-0.650000X0.412500X-0.650000X0*%
%TD*%
%TA.AperFunction,SMDPad,CuDef*%
%ADD22RoundRect,0.237500X-0.250000X-0.237500X0.250000X-0.237500X0.250000X0.237500X-0.250000X0.237500X0*%
%TD*%
%TA.AperFunction,SMDPad,CuDef*%
%ADD23RoundRect,0.237500X0.237500X-0.250000X0.237500X0.250000X-0.237500X0.250000X-0.237500X-0.250000X0*%
%TD*%
%TA.AperFunction,SMDPad,CuDef*%
%ADD24RoundRect,0.237500X0.300000X0.237500X-0.300000X0.237500X-0.300000X-0.237500X0.300000X-0.237500X0*%
%TD*%
%TA.AperFunction,SMDPad,CuDef*%
%ADD25RoundRect,0.250000X-0.412500X-0.650000X0.412500X-0.650000X0.412500X0.650000X-0.412500X0.650000X0*%
%TD*%
%TA.AperFunction,SMDPad,CuDef*%
%ADD26R,1.981200X0.558800*%
%TD*%
%TA.AperFunction,SMDPad,CuDef*%
%ADD27RoundRect,0.250000X-0.400000X-0.625000X0.400000X-0.625000X0.400000X0.625000X-0.400000X0.625000X0*%
%TD*%
%TA.AperFunction,SMDPad,CuDef*%
%ADD28R,1.651000X2.184400*%
%TD*%
%TA.AperFunction,SMDPad,CuDef*%
%ADD29RoundRect,0.237500X0.250000X0.237500X-0.250000X0.237500X-0.250000X-0.237500X0.250000X-0.237500X0*%
%TD*%
%TA.AperFunction,SMDPad,CuDef*%
%ADD30RoundRect,0.250000X-0.650000X0.412500X-0.650000X-0.412500X0.650000X-0.412500X0.650000X0.412500X0*%
%TD*%
%TA.AperFunction,SMDPad,CuDef*%
%ADD31RoundRect,0.250000X-0.450000X0.350000X-0.450000X-0.350000X0.450000X-0.350000X0.450000X0.350000X0*%
%TD*%
%TA.AperFunction,SMDPad,CuDef*%
%ADD32RoundRect,0.250000X-0.600000X1.400000X-0.600000X-1.400000X0.600000X-1.400000X0.600000X1.400000X0*%
%TD*%
%TA.AperFunction,SMDPad,CuDef*%
%ADD33RoundRect,0.250000X0.350000X-0.850000X0.350000X0.850000X-0.350000X0.850000X-0.350000X-0.850000X0*%
%TD*%
%TA.AperFunction,SMDPad,CuDef*%
%ADD34RoundRect,0.249997X2.650003X-2.950003X2.650003X2.950003X-2.650003X2.950003X-2.650003X-2.950003X0*%
%TD*%
%TA.AperFunction,SMDPad,CuDef*%
%ADD35RoundRect,0.250000X-0.625000X0.400000X-0.625000X-0.400000X0.625000X-0.400000X0.625000X0.400000X0*%
%TD*%
%TA.AperFunction,ViaPad*%
%ADD36C,0.523800*%
%TD*%
%TA.AperFunction,ViaPad*%
%ADD37C,0.600000*%
%TD*%
%TA.AperFunction,Conductor*%
%ADD38C,0.254000*%
%TD*%
%TA.AperFunction,Conductor*%
%ADD39C,0.508000*%
%TD*%
%TA.AperFunction,Conductor*%
%ADD40C,1.016000*%
%TD*%
G04 APERTURE END LIST*
D10*
%TO.P,Q2,1,E*%
%TO.N,/COMP*%
X146150000Y-132890000D03*
%TO.P,Q2,2,B*%
%TO.N,Net-(Q2-B)*%
X144250000Y-132890000D03*
%TO.P,Q2,3,C*%
%TO.N,GND*%
X145200000Y-135510000D03*
%TD*%
D11*
%TO.P,+12V,1,1*%
%TO.N,VCC*%
X107043900Y-101885700D03*
%TO.P,+12V,2,2*%
X117203900Y-101885700D03*
%TD*%
%TO.P,+5V,1,1*%
%TO.N,+5V*%
X227000000Y-101800000D03*
%TO.P,+5V,2,2*%
X216840000Y-101800000D03*
%TD*%
D12*
%TO.P,T1,1,AA*%
%TO.N,VCC*%
X145800000Y-100600000D03*
%TO.P,T1,2,AB*%
%TO.N,Net-(Q1-D)*%
X145800000Y-105680000D03*
%TO.P,T1,3,SA*%
%TO.N,GND*%
X163300000Y-105600000D03*
X166040000Y-105670000D03*
%TO.P,T1,4,SB*%
%TO.N,Net-(T1-SB)*%
X163300000Y-100600000D03*
X166090000Y-100580000D03*
%TO.P,T1,NC1*%
%TO.N,N/C*%
X163300000Y-110600000D03*
X166070000Y-110730000D03*
%TO.P,T1,NC2*%
X163300000Y-95600000D03*
X166070000Y-95500000D03*
%TD*%
D13*
%TO.P,TP3,1,1*%
%TO.N,+5V*%
X227200000Y-108200000D03*
%TD*%
%TO.P,TP1,1,1*%
%TO.N,VCC*%
X107200000Y-108200000D03*
%TD*%
%TO.P,TP4,1,1*%
%TO.N,GND*%
X226600000Y-125200000D03*
%TD*%
%TO.P,TP2,1,1*%
%TO.N,GND*%
X106962500Y-125285700D03*
%TD*%
D11*
%TO.P,GND,2,2*%
%TO.N,GND*%
X216640000Y-131400000D03*
%TO.P,GND,1,1*%
X226800000Y-131400000D03*
%TD*%
%TO.P,GND,2,2*%
%TO.N,GND*%
X117003900Y-131485700D03*
%TO.P,GND,1,1*%
X106843900Y-131485700D03*
%TD*%
D14*
%TO.P,Rosc1,2*%
%TO.N,Net-(U1-VREF)*%
X145000000Y-117850000D03*
%TO.P,Rosc1,1*%
%TO.N,/RT{slash}CT*%
X145000000Y-120950000D03*
%TD*%
D13*
%TO.P,TP7,1,1*%
%TO.N,/ISENSE*%
X156800000Y-123200000D03*
%TD*%
D15*
%TO.P,Rcomp_2,2*%
%TO.N,Net-(Ccomp_1-Pad2)*%
X149800000Y-127300000D03*
%TO.P,Rcomp_2,1*%
%TO.N,/VFB*%
X149800000Y-125475000D03*
%TD*%
D16*
%TO.P,Rb1,2*%
%TO.N,/VFB*%
X151700000Y-128400000D03*
%TO.P,Rb1,1*%
%TO.N,GND*%
X154800000Y-128400000D03*
%TD*%
D14*
%TO.P,R_isense1,2*%
%TO.N,VCC*%
X147800000Y-120450000D03*
%TO.P,R_isense1,1*%
%TO.N,/ISENSE*%
X147800000Y-123550000D03*
%TD*%
D17*
%TO.P,C_isense1,2*%
%TO.N,GND*%
X150200000Y-120637500D03*
%TO.P,C_isense1,1*%
%TO.N,/ISENSE*%
X150200000Y-123762500D03*
%TD*%
%TO.P,Ccomp_3,2*%
%TO.N,/VFB*%
X147800000Y-125475000D03*
%TO.P,Ccomp_3,1*%
%TO.N,/COMP*%
X147800000Y-128600000D03*
%TD*%
D18*
%TO.P,Q1,3,S*%
%TO.N,GND*%
X140480000Y-116100000D03*
D19*
%TO.P,Q1,2,D*%
%TO.N,Net-(Q1-D)*%
X138200000Y-109800000D03*
D18*
%TO.P,Q1,1,G*%
%TO.N,/QG*%
X135920000Y-116100000D03*
%TD*%
D20*
%TO.P,C_ss1,2*%
%TO.N,GND*%
X142400000Y-137675000D03*
%TO.P,C_ss1,1*%
%TO.N,Net-(Q2-B)*%
X142400000Y-135600000D03*
%TD*%
D21*
%TO.P,Cosc1,2*%
%TO.N,GND*%
X139675000Y-120800000D03*
%TO.P,Cosc1,1*%
%TO.N,/RT{slash}CT*%
X142800000Y-120800000D03*
%TD*%
%TO.P,Ccomp_2,2*%
%TO.N,/VFB*%
X151637500Y-126000000D03*
%TO.P,Ccomp_2,1*%
%TO.N,Net-(Ccomp_2-Pad1)*%
X154762500Y-126000000D03*
%TD*%
D16*
%TO.P,R_ss1,2*%
%TO.N,Net-(U1-VREF)*%
X139237500Y-133400000D03*
%TO.P,R_ss1,1*%
%TO.N,Net-(Q2-B)*%
X142337500Y-133400000D03*
%TD*%
D22*
%TO.P,Rcomp_1,2*%
%TO.N,+5V*%
X158400000Y-127600000D03*
%TO.P,Rcomp_1,1*%
%TO.N,/VFB*%
X156575000Y-127600000D03*
%TD*%
D23*
%TO.P,Rdiv_3,2*%
%TO.N,VCC*%
X135237500Y-130175000D03*
%TO.P,Rdiv_3,1*%
%TO.N,Net-(Rdiv_2-Pad2)*%
X135237500Y-132000000D03*
%TD*%
D16*
%TO.P,Rdiv_1,2*%
%TO.N,VCC*%
X137137500Y-128600000D03*
%TO.P,Rdiv_1,1*%
%TO.N,Net-(U1-VREF)*%
X140237500Y-128600000D03*
%TD*%
D24*
%TO.P,C14,2*%
%TO.N,GND*%
X136137500Y-125400000D03*
%TO.P,C14,1*%
%TO.N,VCC*%
X137862500Y-125400000D03*
%TD*%
D25*
%TO.P,Ccomp_1,2*%
%TO.N,Net-(Ccomp_1-Pad2)*%
X149600000Y-130675000D03*
%TO.P,Ccomp_1,1*%
%TO.N,/COMP*%
X146475000Y-130675000D03*
%TD*%
D13*
%TO.P,TP6,1,1*%
%TO.N,Net-(U1-VREF)*%
X142637500Y-130400000D03*
%TD*%
D26*
%TO.P,U1,8,VREF*%
%TO.N,Net-(U1-VREF)*%
X140072400Y-126610000D03*
%TO.P,U1,7,VCC*%
%TO.N,VCC*%
X140072400Y-125340000D03*
%TO.P,U1,6,OUTPUT*%
%TO.N,/OUT*%
X140072400Y-124070000D03*
%TO.P,U1,5,GROUND*%
%TO.N,GND*%
X140072400Y-122800000D03*
%TO.P,U1,4,RT/CT*%
%TO.N,/RT{slash}CT*%
X145000000Y-122800000D03*
%TO.P,U1,3,ISENSE*%
%TO.N,/ISENSE*%
X145000000Y-124070000D03*
%TO.P,U1,2,VFB*%
%TO.N,/VFB*%
X145000000Y-125340000D03*
%TO.P,U1,1,COMP*%
%TO.N,/COMP*%
X145000000Y-126610000D03*
%TD*%
D16*
%TO.P,Rdiv_2,2*%
%TO.N,Net-(Rdiv_2-Pad2)*%
X137137500Y-131000000D03*
%TO.P,Rdiv_2,1*%
%TO.N,Net-(U1-VREF)*%
X140237500Y-131000000D03*
%TD*%
D27*
%TO.P,R_isense2,2*%
%TO.N,/OUT*%
X156200000Y-117200000D03*
%TO.P,R_isense2,1*%
%TO.N,Net-(CR1-Pad1)*%
X153100000Y-117200000D03*
%TD*%
D28*
%TO.P,CR1,2*%
%TO.N,/ISENSE*%
X153200000Y-123454200D03*
%TO.P,CR1,1*%
%TO.N,Net-(CR1-Pad1)*%
X153200000Y-119745800D03*
%TD*%
D29*
%TO.P,Rcomp_3,2*%
%TO.N,Net-(Ccomp_2-Pad1)*%
X156487500Y-126000000D03*
%TO.P,Rcomp_3,1*%
%TO.N,+5V*%
X158312500Y-126000000D03*
%TD*%
D14*
%TO.P,Rg_1,2*%
%TO.N,/QG*%
X135625000Y-119150000D03*
%TO.P,Rg_1,1*%
%TO.N,/OUT*%
X135625000Y-122250000D03*
%TD*%
%TO.P,Rg_2,2*%
%TO.N,/QG*%
X133225000Y-119200000D03*
%TO.P,Rg_2,1*%
%TO.N,/OUT*%
X133225000Y-122300000D03*
%TD*%
D17*
%TO.P,Cin_5,2*%
%TO.N,GND*%
X127400000Y-98437500D03*
%TO.P,Cin_5,1*%
%TO.N,VCC*%
X127400000Y-101562500D03*
%TD*%
%TO.P,Cin_1,2*%
%TO.N,GND*%
X122600000Y-98437500D03*
%TO.P,Cin_1,1*%
%TO.N,VCC*%
X122600000Y-101562500D03*
%TD*%
D30*
%TO.P,Cin_3,2*%
%TO.N,GND*%
X125000000Y-106562500D03*
%TO.P,Cin_3,1*%
%TO.N,VCC*%
X125000000Y-103437500D03*
%TD*%
D17*
%TO.P,Cin_4,2*%
%TO.N,GND*%
X125037500Y-98437500D03*
%TO.P,Cin_4,1*%
%TO.N,VCC*%
X125037500Y-101562500D03*
%TD*%
D30*
%TO.P,C17,2*%
%TO.N,GND*%
X127400000Y-106600000D03*
%TO.P,C17,1*%
%TO.N,VCC*%
X127400000Y-103475000D03*
%TD*%
D17*
%TO.P,Cout_1,1*%
%TO.N,+5V*%
X182400000Y-99825000D03*
%TO.P,Cout_1,2*%
%TO.N,GND*%
X182400000Y-96700000D03*
%TD*%
D31*
%TO.P,Rpreload16,1*%
%TO.N,Net-(Rpreload15-Pad2)*%
X202800000Y-113300000D03*
%TO.P,Rpreload16,2*%
%TO.N,GND*%
X202800000Y-115300000D03*
%TD*%
%TO.P,Rpreload17,1*%
%TO.N,+5V*%
X204800000Y-101900000D03*
%TO.P,Rpreload17,2*%
%TO.N,Net-(Rpreload17-Pad2)*%
X204800000Y-103900000D03*
%TD*%
D30*
%TO.P,Cout_9,1*%
%TO.N,+5V*%
X189800000Y-101737500D03*
%TO.P,Cout_9,2*%
%TO.N,GND*%
X189800000Y-104862500D03*
%TD*%
D31*
%TO.P,Rpreload18,1*%
%TO.N,Net-(Rpreload17-Pad2)*%
X204800000Y-105700000D03*
%TO.P,Rpreload18,2*%
%TO.N,Net-(Rpreload18-Pad2)*%
X204800000Y-107700000D03*
%TD*%
%TO.P,Rpreload9,1*%
%TO.N,+5V*%
X198800000Y-101900000D03*
%TO.P,Rpreload9,2*%
%TO.N,Net-(Rpreload10-Pad1)*%
X198800000Y-103900000D03*
%TD*%
D17*
%TO.P,Cout_5,1*%
%TO.N,+5V*%
X192200000Y-99862500D03*
%TO.P,Cout_5,2*%
%TO.N,GND*%
X192200000Y-96737500D03*
%TD*%
D30*
%TO.P,Cout_4,1*%
%TO.N,+5V*%
X185000000Y-101737500D03*
%TO.P,Cout_4,2*%
%TO.N,GND*%
X185000000Y-104862500D03*
%TD*%
D31*
%TO.P,Rpreload12,1*%
%TO.N,Net-(Rpreload11-Pad2)*%
X198800000Y-113300000D03*
%TO.P,Rpreload12,2*%
%TO.N,GND*%
X198800000Y-115300000D03*
%TD*%
D17*
%TO.P,C_snub1,1*%
%TO.N,Net-(Q1-D)*%
X137000000Y-104562500D03*
%TO.P,C_snub1,2*%
%TO.N,GND*%
X137000000Y-101437500D03*
%TD*%
D31*
%TO.P,Rpreload26,1*%
%TO.N,Net-(Rpreload25-Pad2)*%
X208800000Y-105700000D03*
%TO.P,Rpreload26,2*%
%TO.N,Net-(Rpreload26-Pad2)*%
X208800000Y-107700000D03*
%TD*%
D30*
%TO.P,Cout_8,1*%
%TO.N,+5V*%
X187400000Y-101737500D03*
%TO.P,Cout_8,2*%
%TO.N,GND*%
X187400000Y-104862500D03*
%TD*%
D31*
%TO.P,Rpreload30,1*%
%TO.N,Net-(Rpreload29-Pad2)*%
X210800000Y-105700000D03*
%TO.P,Rpreload30,2*%
%TO.N,Net-(Rpreload30-Pad2)*%
X210800000Y-107700000D03*
%TD*%
%TO.P,Rpreload14,1*%
%TO.N,Net-(Rpreload13-Pad2)*%
X202800000Y-105700000D03*
%TO.P,Rpreload14,2*%
%TO.N,Net-(Rpreload14-Pad2)*%
X202800000Y-107700000D03*
%TD*%
D32*
%TO.P,D4,1,K*%
%TO.N,+5V*%
X180600000Y-102750000D03*
%TO.P,D4,2,A*%
%TO.N,Net-(D4-A)*%
X180600000Y-108250000D03*
%TD*%
D13*
%TO.P,TP8,1,1*%
%TO.N,Net-(Q1-D)*%
X134200000Y-103800000D03*
%TD*%
D30*
%TO.P,Cout_10,1*%
%TO.N,+5V*%
X192200000Y-101737500D03*
%TO.P,Cout_10,2*%
%TO.N,GND*%
X192200000Y-104862500D03*
%TD*%
D31*
%TO.P,Rpreload24,1*%
%TO.N,Net-(Rpreload23-Pad2)*%
X206800000Y-113300000D03*
%TO.P,Rpreload24,2*%
%TO.N,GND*%
X206800000Y-115300000D03*
%TD*%
%TO.P,Rpreload31,1*%
%TO.N,Net-(Rpreload30-Pad2)*%
X210800000Y-109500000D03*
%TO.P,Rpreload31,2*%
%TO.N,Net-(Rpreload31-Pad2)*%
X210800000Y-111500000D03*
%TD*%
%TO.P,Rpreload19,1*%
%TO.N,Net-(Rpreload18-Pad2)*%
X204800000Y-109500000D03*
%TO.P,Rpreload19,2*%
%TO.N,Net-(Rpreload19-Pad2)*%
X204800000Y-111500000D03*
%TD*%
%TO.P,Rpreload10,1*%
%TO.N,Net-(Rpreload10-Pad1)*%
X198800000Y-105700000D03*
%TO.P,Rpreload10,2*%
%TO.N,Net-(Rpreload10-Pad2)*%
X198800000Y-107700000D03*
%TD*%
%TO.P,Rpreload32,1*%
%TO.N,Net-(Rpreload31-Pad2)*%
X210800000Y-113300000D03*
%TO.P,Rpreload32,2*%
%TO.N,GND*%
X210800000Y-115300000D03*
%TD*%
D30*
%TO.P,Cout_2,1*%
%TO.N,+5V*%
X194600000Y-101737500D03*
%TO.P,Cout_2,2*%
%TO.N,GND*%
X194600000Y-104862500D03*
%TD*%
D33*
%TO.P,R8,1,1*%
%TO.N,Net-(T1-SB)*%
X170395000Y-102475000D03*
D34*
%TO.P,R8,2,2*%
%TO.N,+5V*%
X172675000Y-96175000D03*
D33*
%TO.P,R8,3,3*%
%TO.N,Net-(T1-SB)*%
X174955000Y-102475000D03*
%TD*%
D17*
%TO.P,Cout_7,1*%
%TO.N,+5V*%
X187400000Y-99862500D03*
%TO.P,Cout_7,2*%
%TO.N,GND*%
X187400000Y-96737500D03*
%TD*%
D31*
%TO.P,Rpreload6,1*%
%TO.N,Net-(Rpreload5-Pad2)*%
X200800000Y-105700000D03*
%TO.P,Rpreload6,2*%
%TO.N,Net-(Rpreload6-Pad2)*%
X200800000Y-107700000D03*
%TD*%
%TO.P,Rpreload11,1*%
%TO.N,Net-(Rpreload10-Pad2)*%
X198800000Y-109500000D03*
%TO.P,Rpreload11,2*%
%TO.N,Net-(Rpreload11-Pad2)*%
X198800000Y-111500000D03*
%TD*%
%TO.P,Rpreload1,1*%
%TO.N,+5V*%
X196800000Y-101900000D03*
%TO.P,Rpreload1,2*%
%TO.N,Net-(Rpreload1-Pad2)*%
X196800000Y-103900000D03*
%TD*%
%TO.P,Rpreload8,1*%
%TO.N,Net-(Rpreload7-Pad2)*%
X200800000Y-113300000D03*
%TO.P,Rpreload8,2*%
%TO.N,GND*%
X200800000Y-115300000D03*
%TD*%
%TO.P,Rpreload21,1*%
%TO.N,+5V*%
X206800000Y-101900000D03*
%TO.P,Rpreload21,2*%
%TO.N,Net-(Rpreload21-Pad2)*%
X206800000Y-103900000D03*
%TD*%
D17*
%TO.P,Cout_6,1*%
%TO.N,+5V*%
X189800000Y-99862500D03*
%TO.P,Cout_6,2*%
%TO.N,GND*%
X189800000Y-96737500D03*
%TD*%
D35*
%TO.P,R_snub1,1*%
%TO.N,GND*%
X139600000Y-101450000D03*
%TO.P,R_snub1,2*%
%TO.N,Net-(Q1-D)*%
X139600000Y-104550000D03*
%TD*%
D17*
%TO.P,Cout_3,1*%
%TO.N,+5V*%
X185000000Y-99862500D03*
%TO.P,Cout_3,2*%
%TO.N,GND*%
X185000000Y-96737500D03*
%TD*%
D31*
%TO.P,Rpreload13,1*%
%TO.N,+5V*%
X202800000Y-101900000D03*
%TO.P,Rpreload13,2*%
%TO.N,Net-(Rpreload13-Pad2)*%
X202800000Y-103900000D03*
%TD*%
%TO.P,Rpreload20,1*%
%TO.N,Net-(Rpreload19-Pad2)*%
X204800000Y-113300000D03*
%TO.P,Rpreload20,2*%
%TO.N,GND*%
X204800000Y-115300000D03*
%TD*%
%TO.P,Rpreload15,1*%
%TO.N,Net-(Rpreload14-Pad2)*%
X202800000Y-109500000D03*
%TO.P,Rpreload15,2*%
%TO.N,Net-(Rpreload15-Pad2)*%
X202800000Y-111500000D03*
%TD*%
%TO.P,Rpreload4,1*%
%TO.N,Net-(Rpreload3-Pad2)*%
X196800000Y-113300000D03*
%TO.P,Rpreload4,2*%
%TO.N,GND*%
X196800000Y-115300000D03*
%TD*%
%TO.P,Rpreload27,1*%
%TO.N,Net-(Rpreload26-Pad2)*%
X208800000Y-109500000D03*
%TO.P,Rpreload27,2*%
%TO.N,Net-(Rpreload27-Pad2)*%
X208800000Y-111500000D03*
%TD*%
%TO.P,Rpreload5,1*%
%TO.N,+5V*%
X200800000Y-101900000D03*
%TO.P,Rpreload5,2*%
%TO.N,Net-(Rpreload5-Pad2)*%
X200800000Y-103900000D03*
%TD*%
%TO.P,Rpreload25,1*%
%TO.N,+5V*%
X208800000Y-101900000D03*
%TO.P,Rpreload25,2*%
%TO.N,Net-(Rpreload25-Pad2)*%
X208800000Y-103900000D03*
%TD*%
%TO.P,Rpreload3,1*%
%TO.N,Net-(Rpreload2-Pad2)*%
X196800000Y-109500000D03*
%TO.P,Rpreload3,2*%
%TO.N,Net-(Rpreload3-Pad2)*%
X196800000Y-111500000D03*
%TD*%
%TO.P,Rpreload28,1*%
%TO.N,Net-(Rpreload27-Pad2)*%
X208800000Y-113300000D03*
%TO.P,Rpreload28,2*%
%TO.N,GND*%
X208800000Y-115300000D03*
%TD*%
%TO.P,Rpreload2,1*%
%TO.N,Net-(Rpreload1-Pad2)*%
X196800000Y-105700000D03*
%TO.P,Rpreload2,2*%
%TO.N,Net-(Rpreload2-Pad2)*%
X196800000Y-107700000D03*
%TD*%
D14*
%TO.P,R11,1*%
%TO.N,GND*%
X180600000Y-114250000D03*
%TO.P,R11,2*%
%TO.N,Net-(D4-A)*%
X180600000Y-111150000D03*
%TD*%
D31*
%TO.P,Rpreload23,1*%
%TO.N,Net-(Rpreload22-Pad2)*%
X206800000Y-109500000D03*
%TO.P,Rpreload23,2*%
%TO.N,Net-(Rpreload23-Pad2)*%
X206800000Y-111500000D03*
%TD*%
%TO.P,Rpreload7,1*%
%TO.N,Net-(Rpreload6-Pad2)*%
X200800000Y-109500000D03*
%TO.P,Rpreload7,2*%
%TO.N,Net-(Rpreload7-Pad2)*%
X200800000Y-111500000D03*
%TD*%
D13*
%TO.P,TP5,1,1*%
%TO.N,/OUT*%
X130600000Y-121800000D03*
%TD*%
D31*
%TO.P,Rpreload29,1*%
%TO.N,+5V*%
X210800000Y-101900000D03*
%TO.P,Rpreload29,2*%
%TO.N,Net-(Rpreload29-Pad2)*%
X210800000Y-103900000D03*
%TD*%
%TO.P,Rpreload22,1*%
%TO.N,Net-(Rpreload21-Pad2)*%
X206800000Y-105700000D03*
%TO.P,Rpreload22,2*%
%TO.N,Net-(Rpreload22-Pad2)*%
X206800000Y-107700000D03*
%TD*%
D30*
%TO.P,Cin_2,2*%
%TO.N,GND*%
X122600000Y-106525000D03*
%TO.P,Cin_2,1*%
%TO.N,VCC*%
X122600000Y-103400000D03*
%TD*%
D36*
%TO.N,GND*%
X136000000Y-138600000D03*
X136000000Y-137800000D03*
X151200000Y-137800000D03*
D37*
X140200000Y-100000000D03*
X139200000Y-100000000D03*
X137600000Y-100000000D03*
X136600000Y-100000000D03*
X126800000Y-108200000D03*
X127800000Y-108200000D03*
X124400000Y-108200000D03*
X125400000Y-108200000D03*
X122000000Y-108200000D03*
X123000000Y-108200000D03*
%TO.N,VCC*%
X139400000Y-135427000D03*
X151600000Y-135427000D03*
X163000000Y-127200000D03*
X163000000Y-124800000D03*
%TO.N,Net-(U1-VREF)*%
X137600000Y-135800000D03*
X150000000Y-136200000D03*
X164600000Y-127200000D03*
X164600000Y-124800000D03*
%TO.N,/OUT*%
X132400000Y-127400000D03*
X132400000Y-130200000D03*
X136000000Y-134800000D03*
X150000000Y-134800000D03*
X161200000Y-124800000D03*
X161200000Y-127200000D03*
%TO.N,GND*%
X138200000Y-121200000D03*
X138200000Y-120200000D03*
X140000000Y-119000000D03*
X141000000Y-119000000D03*
X134837500Y-126000000D03*
X154237500Y-130000000D03*
X155237500Y-130000000D03*
X134837500Y-125000000D03*
X149637500Y-119200000D03*
X150637500Y-119200000D03*
X138237500Y-123400000D03*
X126800000Y-96837500D03*
X127800000Y-96837500D03*
X125400000Y-96837500D03*
X123000000Y-96837500D03*
X122000000Y-96837500D03*
X124400000Y-96837500D03*
X182000000Y-95100000D03*
X183000000Y-95100000D03*
X196200000Y-116700000D03*
X198200000Y-116700000D03*
X184400000Y-106300000D03*
X187800000Y-95100000D03*
X190200000Y-95100000D03*
X190200000Y-106300000D03*
X180000000Y-115700000D03*
X204200000Y-116700000D03*
X191600000Y-106300000D03*
X207200000Y-116700000D03*
X203200000Y-116700000D03*
X186800000Y-106300000D03*
X209200000Y-116700000D03*
X191800000Y-95100000D03*
X206200000Y-116700000D03*
X211400000Y-116700000D03*
X199200000Y-116700000D03*
X186800000Y-95100000D03*
X194000000Y-106300000D03*
X181000000Y-115700000D03*
X202200000Y-116700000D03*
X184400000Y-95100000D03*
X185400000Y-95100000D03*
X210400000Y-116700000D03*
X197200000Y-116700000D03*
X189200000Y-95100000D03*
X185400000Y-106300000D03*
X200200000Y-116700000D03*
X195000000Y-106300000D03*
X205200000Y-116700000D03*
X189200000Y-106300000D03*
X187800000Y-106300000D03*
X192800000Y-95100000D03*
X201200000Y-116700000D03*
X208200000Y-116700000D03*
X192600000Y-106300000D03*
D36*
X151200000Y-137200000D03*
%TD*%
D38*
%TO.N,GND*%
X142000000Y-138600000D02*
X136000000Y-138600000D01*
X142400000Y-138200000D02*
X142000000Y-138600000D01*
X142400000Y-137675000D02*
X142400000Y-138200000D01*
X136125000Y-137675000D02*
X136000000Y-137800000D01*
X142400000Y-137675000D02*
X136125000Y-137675000D01*
X145800000Y-137800000D02*
X151200000Y-137800000D01*
X145200000Y-137200000D02*
X145800000Y-137800000D01*
X145200000Y-135510000D02*
X145200000Y-137200000D01*
X145600000Y-135910000D02*
X145600000Y-137000000D01*
X145800000Y-137200000D02*
X151200000Y-137200000D01*
X145200000Y-135510000D02*
X145600000Y-135910000D01*
X145600000Y-137000000D02*
X145800000Y-137200000D01*
X142400000Y-137962500D02*
X142400000Y-137437500D01*
X142400000Y-137437500D02*
X142400000Y-138037500D01*
X145310000Y-135510000D02*
X145200000Y-135510000D01*
X145200000Y-135620000D02*
X145310000Y-135510000D01*
X145090000Y-135510000D02*
X145200000Y-135510000D01*
D39*
%TO.N,Net-(Q2-B)*%
X143940000Y-133200000D02*
X144250000Y-132890000D01*
D38*
%TO.N,GND*%
X154800000Y-128400000D02*
X154237500Y-128962500D01*
X154237500Y-128962500D02*
X154237500Y-130000000D01*
D40*
%TO.N,+5V*%
X227000000Y-108000000D02*
X227200000Y-108200000D01*
X227000000Y-101800000D02*
X227000000Y-108000000D01*
%TO.N,VCC*%
X107043900Y-108043900D02*
X107200000Y-108200000D01*
X107043900Y-101885700D02*
X107043900Y-108043900D01*
%TO.N,+5V*%
X217200000Y-126000000D02*
X158312500Y-126000000D01*
X218000000Y-125200000D02*
X217200000Y-126000000D01*
X218000000Y-102960000D02*
X218000000Y-125200000D01*
X216840000Y-101800000D02*
X218000000Y-102960000D01*
D38*
%TO.N,VCC*%
X162800000Y-135200000D02*
X162572000Y-135428000D01*
%TO.N,Net-(U1-VREF)*%
X164200000Y-135400000D02*
X163400000Y-136200000D01*
D40*
%TO.N,Net-(Q1-D)*%
X134962500Y-104562500D02*
X134200000Y-103800000D01*
X137000000Y-104562500D02*
X134962500Y-104562500D01*
D38*
%TO.N,GND*%
X140200000Y-100000000D02*
X140200000Y-101200000D01*
X139200000Y-100000000D02*
X139200000Y-101000000D01*
X137600000Y-100000000D02*
X137600000Y-101200000D01*
X136600000Y-100000000D02*
X136600000Y-101000000D01*
X126800000Y-107000000D02*
X126800000Y-108200000D01*
X127400000Y-106600000D02*
X127200000Y-106600000D01*
X127200000Y-106600000D02*
X126800000Y-107000000D01*
X127800000Y-107000000D02*
X127800000Y-108200000D01*
X127400000Y-106600000D02*
X127800000Y-107000000D01*
X124400000Y-107000000D02*
X124400000Y-108200000D01*
X124837500Y-106562500D02*
X124400000Y-107000000D01*
X125000000Y-106562500D02*
X124837500Y-106562500D01*
X125400000Y-106800000D02*
X125400000Y-108200000D01*
X125162500Y-106562500D02*
X125400000Y-106800000D01*
X125000000Y-106562500D02*
X125162500Y-106562500D01*
X122475000Y-106525000D02*
X122000000Y-107000000D01*
X122600000Y-106525000D02*
X122475000Y-106525000D01*
X122000000Y-107000000D02*
X122000000Y-108200000D01*
X123000000Y-106800000D02*
X123000000Y-108200000D01*
X122725000Y-106525000D02*
X123000000Y-106800000D01*
X122600000Y-106525000D02*
X122725000Y-106525000D01*
%TO.N,VCC*%
X132400000Y-136800000D02*
X131600000Y-136000000D01*
X139200000Y-136800000D02*
X132400000Y-136800000D01*
X139400000Y-135427000D02*
X139400000Y-136600000D01*
D40*
X131600000Y-128600000D02*
X135400000Y-128600000D01*
D38*
X131600000Y-136000000D02*
X131600000Y-128600000D01*
X151601000Y-135428000D02*
X151600000Y-135427000D01*
X162572000Y-135428000D02*
X151601000Y-135428000D01*
X139400000Y-136600000D02*
X139200000Y-136800000D01*
X163000000Y-115800000D02*
X163000000Y-124800000D01*
X163000000Y-127200000D02*
X163000000Y-135000000D01*
X148400000Y-115655000D02*
X162855000Y-115655000D01*
X147800000Y-116255000D02*
X148400000Y-115655000D01*
X147800000Y-120450000D02*
X147800000Y-116255000D01*
X162855000Y-115655000D02*
X163000000Y-115800000D01*
%TO.N,Net-(U1-VREF)*%
X137600000Y-133800000D02*
X138000000Y-133400000D01*
X137600000Y-135800000D02*
X137600000Y-133800000D01*
X138000000Y-133400000D02*
X139237500Y-133400000D01*
X163400000Y-136200000D02*
X150000000Y-136200000D01*
X164600000Y-127200000D02*
X164600000Y-135000000D01*
X145200000Y-115200000D02*
X164400000Y-115200000D01*
X164600000Y-115400000D02*
X164600000Y-124800000D01*
X145000000Y-115400000D02*
X145200000Y-115200000D01*
X145000000Y-117850000D02*
X145000000Y-115400000D01*
X164400000Y-115200000D02*
X164600000Y-115400000D01*
%TO.N,/OUT*%
X133225000Y-126575000D02*
X133225000Y-122300000D01*
X132400000Y-134200000D02*
X132400000Y-130200000D01*
X133000000Y-134800000D02*
X132400000Y-134200000D01*
X132400000Y-127400000D02*
X133225000Y-126575000D01*
X136000000Y-134800000D02*
X133000000Y-134800000D01*
X160600000Y-134800000D02*
X150000000Y-134800000D01*
X161200000Y-134200000D02*
X160600000Y-134800000D01*
X161200000Y-117600000D02*
X161200000Y-124800000D01*
X160800000Y-117200000D02*
X161200000Y-117600000D01*
X156200000Y-117200000D02*
X160800000Y-117200000D01*
X161200000Y-127200000D02*
X161200000Y-134200000D01*
D40*
%TO.N,VCC*%
X137862500Y-127875000D02*
X137862500Y-125400000D01*
X137137500Y-128600000D02*
X137862500Y-127875000D01*
D38*
%TO.N,GND*%
X139000000Y-121200000D02*
X138200000Y-121200000D01*
X139400000Y-120800000D02*
X139000000Y-121200000D01*
X139675000Y-120800000D02*
X139400000Y-120800000D01*
X139400000Y-120200000D02*
X138200000Y-120200000D01*
X139675000Y-120475000D02*
X139400000Y-120200000D01*
X139675000Y-120800000D02*
X139675000Y-120475000D01*
X140000000Y-117000000D02*
X140000000Y-119000000D01*
X140480000Y-116520000D02*
X140000000Y-117000000D01*
X140480000Y-116100000D02*
X140480000Y-116520000D01*
X141000000Y-116800000D02*
X141000000Y-119000000D01*
X140480000Y-116100000D02*
X140480000Y-116280000D01*
X140480000Y-116280000D02*
X141000000Y-116800000D01*
D40*
%TO.N,VCC*%
X143200000Y-100600000D02*
X145800000Y-100600000D01*
X142800000Y-95200000D02*
X142800000Y-100200000D01*
X142000000Y-94400000D02*
X142800000Y-95200000D01*
X131400000Y-94400000D02*
X142000000Y-94400000D01*
X130400000Y-95400000D02*
X131400000Y-94400000D01*
X142800000Y-100200000D02*
X143200000Y-100600000D01*
X130400000Y-103800000D02*
X130400000Y-95400000D01*
%TO.N,Net-(Q1-D)*%
X141800000Y-109800000D02*
X142600000Y-109000000D01*
X143320000Y-105680000D02*
X145800000Y-105680000D01*
X138200000Y-109800000D02*
X141800000Y-109800000D01*
X142600000Y-109000000D02*
X142600000Y-106400000D01*
X142600000Y-106400000D02*
X143320000Y-105680000D01*
D39*
%TO.N,Net-(T1-SB)*%
X163320000Y-100580000D02*
X163300000Y-100600000D01*
X166090000Y-100580000D02*
X163320000Y-100580000D01*
X168600000Y-102200000D02*
X168600000Y-101000000D01*
X168875000Y-102475000D02*
X168600000Y-102200000D01*
X168600000Y-101000000D02*
X168180000Y-100580000D01*
X170395000Y-102475000D02*
X168875000Y-102475000D01*
X168180000Y-100580000D02*
X166090000Y-100580000D01*
X174955000Y-102475000D02*
X170395000Y-102475000D01*
%TO.N,VCC*%
X135237500Y-128762500D02*
X135400000Y-128600000D01*
X135237500Y-130175000D02*
X135237500Y-128762500D01*
D40*
X135400000Y-128600000D02*
X137137500Y-128600000D01*
D39*
%TO.N,/OUT*%
X135625000Y-123825000D02*
X135625000Y-122250000D01*
X135955000Y-124155000D02*
X135625000Y-123825000D01*
X139987400Y-124155000D02*
X135955000Y-124155000D01*
X140072400Y-124070000D02*
X139987400Y-124155000D01*
D40*
%TO.N,VCC*%
X122600000Y-128600000D02*
X131600000Y-128600000D01*
X121400000Y-127400000D02*
X122600000Y-128600000D01*
X121400000Y-117600000D02*
X121400000Y-127400000D01*
X122000000Y-117000000D02*
X121400000Y-117600000D01*
X130000000Y-117000000D02*
X122000000Y-117000000D01*
X130400000Y-116600000D02*
X130000000Y-117000000D01*
X130400000Y-103800000D02*
X130400000Y-116600000D01*
X130075000Y-103475000D02*
X130400000Y-103800000D01*
X127400000Y-103475000D02*
X130075000Y-103475000D01*
%TO.N,Net-(Q1-D)*%
X139600000Y-108400000D02*
X139600000Y-104550000D01*
X138200000Y-109800000D02*
X139600000Y-108400000D01*
X137000000Y-108600000D02*
X137000000Y-104562500D01*
X138200000Y-109800000D02*
X137000000Y-108600000D01*
D39*
%TO.N,/QG*%
X135625000Y-116395000D02*
X135920000Y-116100000D01*
X135625000Y-119150000D02*
X135625000Y-116395000D01*
%TO.N,/OUT*%
X131100000Y-122300000D02*
X130600000Y-121800000D01*
X133225000Y-122300000D02*
X131100000Y-122300000D01*
%TO.N,Net-(Rdiv_2-Pad2)*%
X135237500Y-132000000D02*
X136137500Y-132000000D01*
X136137500Y-132000000D02*
X137137500Y-131000000D01*
%TO.N,Net-(U1-VREF)*%
X139237500Y-133400000D02*
X139237500Y-132000000D01*
X139237500Y-132000000D02*
X140237500Y-131000000D01*
X140237500Y-131000000D02*
X140237500Y-128600000D01*
X140237500Y-128600000D02*
X140237500Y-126775100D01*
X140237500Y-126775100D02*
X140072400Y-126610000D01*
X140237500Y-131000000D02*
X141437500Y-131000000D01*
X141437500Y-131000000D02*
X142637500Y-129800000D01*
D40*
%TO.N,+5V*%
X158400000Y-126087500D02*
X158312500Y-126000000D01*
D39*
%TO.N,Net-(Ccomp_1-Pad2)*%
X149600000Y-127500000D02*
X149800000Y-127300000D01*
%TO.N,/COMP*%
X147800000Y-128600000D02*
X145237500Y-128600000D01*
X146150000Y-131000000D02*
X146475000Y-130675000D01*
X145000000Y-128362500D02*
X145000000Y-126610000D01*
X146437500Y-129400000D02*
X147237500Y-128600000D01*
X145237500Y-128600000D02*
X145000000Y-128362500D01*
X146475000Y-130675000D02*
X146475000Y-129437500D01*
X146475000Y-129437500D02*
X146437500Y-129400000D01*
%TO.N,/VFB*%
X150325000Y-126000000D02*
X149800000Y-125475000D01*
X147800000Y-125475000D02*
X145135000Y-125475000D01*
D38*
%TO.N,GND*%
X154800000Y-129162500D02*
X155237500Y-129600000D01*
%TO.N,/VFB*%
X151700000Y-131262500D02*
X151700000Y-128400000D01*
X156575000Y-131462500D02*
X156437500Y-131600000D01*
D39*
%TO.N,Net-(Ccomp_1-Pad2)*%
X149600000Y-130675000D02*
X149600000Y-127500000D01*
%TO.N,/COMP*%
X146150000Y-132890000D02*
X146150000Y-131000000D01*
D38*
%TO.N,GND*%
X154800000Y-128400000D02*
X154800000Y-129162500D01*
D40*
%TO.N,+5V*%
X158400000Y-127600000D02*
X158400000Y-126087500D01*
D39*
%TO.N,/COMP*%
X147237500Y-128600000D02*
X147800000Y-128600000D01*
D38*
%TO.N,/ISENSE*%
X152376720Y-124471200D02*
X150908700Y-124471200D01*
D39*
%TO.N,Net-(Q2-B)*%
X142400000Y-135362500D02*
X142400000Y-133350000D01*
D38*
%TO.N,Net-(CR1-Pad1)*%
X153200000Y-119745800D02*
X153200000Y-117400000D01*
D39*
%TO.N,/ISENSE*%
X148012500Y-123762500D02*
X147800000Y-123550000D01*
%TO.N,/VFB*%
X149800000Y-125475000D02*
X147800000Y-125475000D01*
%TO.N,/ISENSE*%
X145130000Y-124200000D02*
X145000000Y-124070000D01*
D38*
X155528800Y-124471200D02*
X156800000Y-123200000D01*
D39*
%TO.N,/VFB*%
X151700000Y-128400000D02*
X151700000Y-126062500D01*
D38*
X156575000Y-127600000D02*
X156575000Y-131462500D01*
%TO.N,/ISENSE*%
X150908700Y-124471200D02*
X150200000Y-123762500D01*
X153200000Y-123454200D02*
X153200000Y-123762500D01*
X152451700Y-123800000D02*
X152451700Y-124396220D01*
%TO.N,/RT{slash}CT*%
X144850000Y-120800000D02*
X145000000Y-120950000D01*
%TO.N,/ISENSE*%
X152451700Y-124396220D02*
X152376720Y-124471200D01*
X153200000Y-123762500D02*
X153908700Y-124471200D01*
D39*
%TO.N,/VFB*%
X145135000Y-125475000D02*
X145000000Y-125340000D01*
X151700000Y-126062500D02*
X151637500Y-126000000D01*
D38*
%TO.N,/ISENSE*%
X153908700Y-124471200D02*
X155528800Y-124471200D01*
D39*
%TO.N,Net-(Q2-B)*%
X142400000Y-133350000D02*
X142550000Y-133200000D01*
D38*
%TO.N,/VFB*%
X152037500Y-131600000D02*
X151700000Y-131262500D01*
D39*
%TO.N,/ISENSE*%
X150200000Y-123762500D02*
X148012500Y-123762500D01*
X147150000Y-124200000D02*
X145130000Y-124200000D01*
%TO.N,Net-(Ccomp_2-Pad1)*%
X156487500Y-126000000D02*
X154762500Y-126000000D01*
D38*
%TO.N,/RT{slash}CT*%
X145000000Y-120950000D02*
X145000000Y-122800000D01*
%TO.N,/ISENSE*%
X153200000Y-123647920D02*
X153047920Y-123800000D01*
X153047920Y-123800000D02*
X152451700Y-123800000D01*
%TO.N,/VFB*%
X156437500Y-131600000D02*
X152037500Y-131600000D01*
%TO.N,/ISENSE*%
X153200000Y-123454200D02*
X153200000Y-123647920D01*
D39*
X147800000Y-123550000D02*
X147150000Y-124200000D01*
D38*
%TO.N,/RT{slash}CT*%
X142800000Y-120800000D02*
X144850000Y-120800000D01*
%TO.N,Net-(CR1-Pad1)*%
X153200000Y-117400000D02*
X153000000Y-117200000D01*
D39*
%TO.N,/VFB*%
X151637500Y-126000000D02*
X150325000Y-126000000D01*
D38*
%TO.N,VCC*%
X140012400Y-125400000D02*
X140072400Y-125340000D01*
%TO.N,GND*%
X135237500Y-125400000D02*
X135237500Y-125600000D01*
X150637500Y-120200000D02*
X150637500Y-119200000D01*
X140072400Y-123365100D02*
X140037500Y-123400000D01*
%TO.N,VCC*%
X137862500Y-125400000D02*
X140012400Y-125400000D01*
%TO.N,GND*%
X135237500Y-125600000D02*
X134837500Y-126000000D01*
X154800000Y-128400000D02*
X154800000Y-129037500D01*
X149962500Y-120400000D02*
X149637500Y-120400000D01*
X140072400Y-122800000D02*
X140072400Y-123365100D01*
X140037500Y-123400000D02*
X138237500Y-123400000D01*
X155237500Y-129600000D02*
X155237500Y-130000000D01*
X150200000Y-120637500D02*
X150637500Y-120200000D01*
X136137500Y-125400000D02*
X135237500Y-125400000D01*
X149637500Y-120400000D02*
X149637500Y-119200000D01*
X150200000Y-120637500D02*
X149962500Y-120400000D01*
X135237500Y-125400000D02*
X134837500Y-125000000D01*
X126800000Y-97837500D02*
X127400000Y-98437500D01*
X127800000Y-98037500D02*
X127400000Y-98437500D01*
X126800000Y-96837500D02*
X126800000Y-97837500D01*
X127800000Y-96837500D02*
X127800000Y-98037500D01*
X125037500Y-98075000D02*
X124400000Y-97437500D01*
X122600000Y-98437500D02*
X122600000Y-97837500D01*
X122600000Y-98437500D02*
X122600000Y-98037500D01*
X123000000Y-97637500D02*
X123000000Y-96837500D01*
X124400000Y-97437500D02*
X124400000Y-96837500D01*
X125037500Y-98437500D02*
X125037500Y-98000000D01*
X122600000Y-98037500D02*
X123000000Y-97637500D01*
X122000000Y-97237500D02*
X122000000Y-96837500D01*
X122600000Y-97837500D02*
X122000000Y-97237500D01*
X125037500Y-98000000D02*
X125400000Y-97637500D01*
X125037500Y-98437500D02*
X125037500Y-98075000D01*
X125400000Y-97637500D02*
X125400000Y-96837500D01*
X183000000Y-96100000D02*
X183000000Y-95100000D01*
X182400000Y-96700000D02*
X183000000Y-96100000D01*
X182400000Y-96700000D02*
X182000000Y-96300000D01*
X182000000Y-96300000D02*
X182000000Y-95100000D01*
X189200000Y-105462500D02*
X189800000Y-104862500D01*
X197200000Y-116700000D02*
X197200000Y-115700000D01*
X186800000Y-96100000D02*
X186800000Y-95100000D01*
X195000000Y-105262500D02*
X194600000Y-104862500D01*
X180000000Y-115700000D02*
X180000000Y-114850000D01*
X187800000Y-106300000D02*
X187800000Y-105262500D01*
X201200000Y-116700000D02*
X201200000Y-115700000D01*
X195000000Y-106300000D02*
X195000000Y-105262500D01*
X192600000Y-106300000D02*
X192600000Y-105262500D01*
X202200000Y-116700000D02*
X202200000Y-115900000D01*
X200200000Y-116700000D02*
X200200000Y-115900000D01*
X198200000Y-115900000D02*
X198800000Y-115300000D01*
X210400000Y-115700000D02*
X210800000Y-115300000D01*
X201200000Y-115700000D02*
X200800000Y-115300000D01*
X191600000Y-105462500D02*
X192200000Y-104862500D01*
X200200000Y-115900000D02*
X200800000Y-115300000D01*
X194000000Y-105462500D02*
X194600000Y-104862500D01*
X211400000Y-116700000D02*
X211400000Y-115900000D01*
X186800000Y-105462500D02*
X187400000Y-104862500D01*
X209200000Y-116700000D02*
X209200000Y-115700000D01*
X204200000Y-115900000D02*
X204800000Y-115300000D01*
X207200000Y-116700000D02*
X207200000Y-115700000D01*
X199200000Y-116700000D02*
X199200000Y-115700000D01*
X189200000Y-96100000D02*
X189200000Y-95100000D01*
X203200000Y-116700000D02*
X203200000Y-115700000D01*
X196200000Y-115900000D02*
X196800000Y-115300000D01*
X187400000Y-96500000D02*
X187800000Y-96100000D01*
X187400000Y-96737500D02*
X187400000Y-96700000D01*
X208200000Y-115900000D02*
X208800000Y-115300000D01*
X197200000Y-115700000D02*
X196800000Y-115300000D01*
X187800000Y-105262500D02*
X187400000Y-104862500D01*
X185000000Y-96737500D02*
X185000000Y-96500000D01*
X184400000Y-96300000D02*
X184400000Y-95100000D01*
X190200000Y-106300000D02*
X190200000Y-105262500D01*
X192600000Y-105262500D02*
X192200000Y-104862500D01*
X192200000Y-96737500D02*
X192200000Y-96500000D01*
X210400000Y-116700000D02*
X210400000Y-115700000D01*
X196200000Y-116700000D02*
X196200000Y-115900000D01*
X189800000Y-96700000D02*
X189200000Y-96100000D01*
X206200000Y-115900000D02*
X206800000Y-115300000D01*
X203200000Y-115700000D02*
X202800000Y-115300000D01*
X190200000Y-96100000D02*
X190200000Y-95100000D01*
X187400000Y-96737500D02*
X187400000Y-96500000D01*
X190200000Y-105262500D02*
X189800000Y-104862500D01*
X191800000Y-96100000D02*
X191800000Y-95100000D01*
X206200000Y-116700000D02*
X206200000Y-115900000D01*
X185400000Y-105262500D02*
X185000000Y-104862500D01*
X199200000Y-115700000D02*
X198800000Y-115300000D01*
X185400000Y-106300000D02*
X185400000Y-105262500D01*
X187400000Y-96700000D02*
X186800000Y-96100000D01*
X189800000Y-96737500D02*
X189800000Y-96700000D01*
X209200000Y-115700000D02*
X208800000Y-115300000D01*
X192200000Y-96500000D02*
X192800000Y-95900000D01*
X205200000Y-115700000D02*
X204800000Y-115300000D01*
X184400000Y-105462500D02*
X185000000Y-104862500D01*
X184400000Y-106300000D02*
X184400000Y-105462500D01*
X207200000Y-115700000D02*
X206800000Y-115300000D01*
X185000000Y-96737500D02*
X184837500Y-96737500D01*
X191600000Y-106300000D02*
X191600000Y-105462500D01*
X186800000Y-106300000D02*
X186800000Y-105462500D01*
X180000000Y-114850000D02*
X180600000Y-114250000D01*
X194000000Y-106300000D02*
X194000000Y-105462500D01*
X189800000Y-96500000D02*
X190200000Y-96100000D01*
X185000000Y-96500000D02*
X185400000Y-96100000D01*
X192800000Y-95900000D02*
X192800000Y-95100000D01*
X205200000Y-116700000D02*
X205200000Y-115700000D01*
X184837500Y-96737500D02*
X184400000Y-96300000D01*
X181000000Y-115700000D02*
X181000000Y-114650000D01*
X189800000Y-96737500D02*
X189800000Y-96500000D01*
X192200000Y-96500000D02*
X191800000Y-96100000D01*
X185400000Y-96100000D02*
X185400000Y-95100000D01*
X187800000Y-96100000D02*
X187800000Y-95100000D01*
X208200000Y-116700000D02*
X208200000Y-115900000D01*
X198200000Y-116700000D02*
X198200000Y-115900000D01*
X189200000Y-106300000D02*
X189200000Y-105462500D01*
X181000000Y-114650000D02*
X180600000Y-114250000D01*
X211400000Y-115900000D02*
X210800000Y-115300000D01*
X204200000Y-116700000D02*
X204200000Y-115900000D01*
X202200000Y-115900000D02*
X202800000Y-115300000D01*
D40*
%TO.N,+5V*%
X179675000Y-96175000D02*
X180600000Y-97100000D01*
X172675000Y-96175000D02*
X179675000Y-96175000D01*
X180600000Y-97100000D02*
X180600000Y-102750000D01*
D39*
%TO.N,/QG*%
X135575000Y-119200000D02*
X135625000Y-119150000D01*
X133225000Y-119200000D02*
X135575000Y-119200000D01*
%TO.N,/OUT*%
X135625000Y-122250000D02*
X133275000Y-122250000D01*
X133275000Y-122250000D02*
X133225000Y-122300000D01*
D40*
%TO.N,Net-(D4-A)*%
X180600000Y-108250000D02*
X180600000Y-111150000D01*
D39*
%TO.N,Net-(Rpreload1-Pad2)*%
X196800000Y-103900000D02*
X196800000Y-105700000D01*
%TO.N,Net-(Rpreload2-Pad2)*%
X196800000Y-107700000D02*
X196800000Y-109500000D01*
%TO.N,Net-(Rpreload3-Pad2)*%
X196800000Y-111500000D02*
X196800000Y-113300000D01*
%TO.N,Net-(Rpreload5-Pad2)*%
X200800000Y-103900000D02*
X200800000Y-105700000D01*
%TO.N,Net-(Rpreload6-Pad2)*%
X200800000Y-107700000D02*
X200800000Y-109500000D01*
%TO.N,Net-(Rpreload7-Pad2)*%
X200800000Y-111500000D02*
X200800000Y-113300000D01*
%TO.N,Net-(Rpreload10-Pad1)*%
X198800000Y-103900000D02*
X198800000Y-105700000D01*
%TO.N,Net-(Rpreload10-Pad2)*%
X198800000Y-107700000D02*
X198800000Y-109500000D01*
%TO.N,Net-(Rpreload11-Pad2)*%
X198800000Y-111500000D02*
X198800000Y-113300000D01*
%TO.N,Net-(Rpreload13-Pad2)*%
X202800000Y-103900000D02*
X202800000Y-105700000D01*
%TO.N,Net-(Rpreload14-Pad2)*%
X202800000Y-107700000D02*
X202800000Y-109500000D01*
%TO.N,Net-(Rpreload15-Pad2)*%
X202800000Y-111500000D02*
X202800000Y-113300000D01*
%TO.N,Net-(Rpreload17-Pad2)*%
X204800000Y-103900000D02*
X204800000Y-105700000D01*
%TO.N,Net-(Rpreload18-Pad2)*%
X204800000Y-107700000D02*
X204800000Y-109500000D01*
%TO.N,Net-(Rpreload19-Pad2)*%
X204800000Y-111500000D02*
X204800000Y-113300000D01*
%TO.N,Net-(Rpreload21-Pad2)*%
X206800000Y-103900000D02*
X206800000Y-105700000D01*
%TO.N,Net-(Rpreload22-Pad2)*%
X206800000Y-107700000D02*
X206800000Y-109500000D01*
%TO.N,Net-(Rpreload23-Pad2)*%
X206800000Y-111500000D02*
X206800000Y-113300000D01*
%TO.N,Net-(Rpreload25-Pad2)*%
X208800000Y-103900000D02*
X208800000Y-105700000D01*
%TO.N,Net-(Rpreload26-Pad2)*%
X208800000Y-107700000D02*
X208800000Y-109500000D01*
%TO.N,Net-(Rpreload27-Pad2)*%
X208800000Y-113300000D02*
X208800000Y-111500000D01*
%TO.N,Net-(Rpreload29-Pad2)*%
X210800000Y-103900000D02*
X210800000Y-105700000D01*
%TO.N,Net-(Rpreload30-Pad2)*%
X210800000Y-107700000D02*
X210800000Y-109500000D01*
%TO.N,Net-(Rpreload31-Pad2)*%
X210800000Y-111500000D02*
X210800000Y-113300000D01*
D38*
%TO.N,GND*%
X139675000Y-120800000D02*
X139675000Y-120925000D01*
X139675000Y-120925000D02*
X139400000Y-121200000D01*
D39*
%TO.N,Net-(T1-SB)*%
X174845000Y-102585000D02*
X174955000Y-102475000D01*
D38*
%TO.N,GND*%
X125000000Y-106562500D02*
X125000000Y-107037500D01*
%TO.N,Net-(U1-VREF)*%
X164600000Y-135000000D02*
X164200000Y-135400000D01*
%TO.N,VCC*%
X163000000Y-135000000D02*
X162800000Y-135200000D01*
D39*
%TO.N,Net-(Q2-B)*%
X142550000Y-133200000D02*
X143940000Y-133200000D01*
%TD*%
%TA.AperFunction,Conductor*%
%TO.N,VCC*%
G36*
X116554808Y-100419685D02*
G01*
X116600563Y-100472489D01*
X116610507Y-100541647D01*
X116581482Y-100605203D01*
X116544064Y-100634485D01*
X116462591Y-100675997D01*
X116396076Y-100724322D01*
X116396075Y-100724323D01*
X116948451Y-101276698D01*
X116891083Y-101300461D01*
X116782920Y-101372734D01*
X116690934Y-101464720D01*
X116618661Y-101572883D01*
X116594898Y-101630251D01*
X116042523Y-101077875D01*
X116042522Y-101077876D01*
X115994197Y-101144391D01*
X115893125Y-101342754D01*
X115824326Y-101554493D01*
X115789500Y-101774378D01*
X115789500Y-101997021D01*
X115824326Y-102216906D01*
X115893125Y-102428645D01*
X115994196Y-102627007D01*
X116042523Y-102693522D01*
X116042523Y-102693523D01*
X116594898Y-102141148D01*
X116618661Y-102198517D01*
X116690934Y-102306680D01*
X116782920Y-102398666D01*
X116891083Y-102470939D01*
X116948450Y-102494701D01*
X116396075Y-103047075D01*
X116462592Y-103095403D01*
X116660954Y-103196474D01*
X116872693Y-103265273D01*
X117092579Y-103300100D01*
X117315221Y-103300100D01*
X117535106Y-103265273D01*
X117746845Y-103196474D01*
X117945207Y-103095403D01*
X118011722Y-103047075D01*
X118011723Y-103047075D01*
X117986693Y-103022045D01*
X117902161Y-102937513D01*
X121200000Y-102937513D01*
X121200000Y-103150000D01*
X122350000Y-103150000D01*
X122850000Y-103150000D01*
X124041138Y-103150000D01*
X124108177Y-103169685D01*
X124128819Y-103186319D01*
X124130000Y-103187500D01*
X124750000Y-103187500D01*
X124750000Y-102855000D01*
X125250000Y-102855000D01*
X125250000Y-103187500D01*
X126441138Y-103187500D01*
X126508177Y-103207185D01*
X126528819Y-103223819D01*
X126530000Y-103225000D01*
X127150000Y-103225000D01*
X127150000Y-101812500D01*
X125287500Y-101812500D01*
X125287500Y-102766138D01*
X125278855Y-102795578D01*
X125272332Y-102825565D01*
X125268577Y-102830580D01*
X125267815Y-102833177D01*
X125251181Y-102853819D01*
X125250000Y-102855000D01*
X124750000Y-102855000D01*
X124750000Y-102233862D01*
X124769685Y-102166823D01*
X124786319Y-102146181D01*
X124787500Y-102145000D01*
X124787500Y-101812500D01*
X122850000Y-101812500D01*
X122850000Y-103150000D01*
X122350000Y-103150000D01*
X122350000Y-101812500D01*
X121200001Y-101812500D01*
X121200001Y-102024986D01*
X121210494Y-102127697D01*
X121265641Y-102294119D01*
X121265645Y-102294128D01*
X121340911Y-102416154D01*
X121359351Y-102483546D01*
X121340911Y-102546346D01*
X121265645Y-102668371D01*
X121265641Y-102668380D01*
X121210494Y-102834802D01*
X121210493Y-102834809D01*
X121200000Y-102937513D01*
X117902161Y-102937513D01*
X117459348Y-102494701D01*
X117516717Y-102470939D01*
X117624880Y-102398666D01*
X117716866Y-102306680D01*
X117789139Y-102198517D01*
X117812901Y-102141149D01*
X118365275Y-102693523D01*
X118365275Y-102693522D01*
X118413603Y-102627007D01*
X118514674Y-102428645D01*
X118583473Y-102216906D01*
X118618300Y-101997021D01*
X118618300Y-101774378D01*
X118583473Y-101554493D01*
X118514674Y-101342754D01*
X118413603Y-101144392D01*
X118365275Y-101077876D01*
X118365275Y-101077875D01*
X117812901Y-101630250D01*
X117789139Y-101572883D01*
X117716866Y-101464720D01*
X117624880Y-101372734D01*
X117516717Y-101300461D01*
X117459347Y-101276698D01*
X118011723Y-100724323D01*
X117945207Y-100675996D01*
X117863737Y-100634485D01*
X117812941Y-100586510D01*
X117796146Y-100518689D01*
X117818683Y-100452554D01*
X117873399Y-100409103D01*
X117920032Y-100400000D01*
X121339977Y-100400000D01*
X121407016Y-100419685D01*
X121452771Y-100472489D01*
X121462715Y-100541647D01*
X121433690Y-100605203D01*
X121427658Y-100611681D01*
X121357684Y-100681654D01*
X121265643Y-100830875D01*
X121265641Y-100830880D01*
X121210494Y-100997302D01*
X121210493Y-100997309D01*
X121200000Y-101100013D01*
X121200000Y-101312500D01*
X127276000Y-101312500D01*
X127343039Y-101332185D01*
X127388794Y-101384989D01*
X127400000Y-101436500D01*
X127400000Y-101562500D01*
X127526000Y-101562500D01*
X127593039Y-101582185D01*
X127638794Y-101634989D01*
X127650000Y-101686500D01*
X127650000Y-103351000D01*
X127630315Y-103418039D01*
X127577511Y-103463794D01*
X127526000Y-103475000D01*
X127400000Y-103475000D01*
X127400000Y-103601000D01*
X127380315Y-103668039D01*
X127327511Y-103713794D01*
X127276000Y-103725000D01*
X125958862Y-103725000D01*
X125891823Y-103705315D01*
X125871181Y-103688681D01*
X125870000Y-103687500D01*
X123558862Y-103687500D01*
X123491823Y-103667815D01*
X123471181Y-103651181D01*
X123470000Y-103650000D01*
X121200001Y-103650000D01*
X121200001Y-103862486D01*
X121210494Y-103965197D01*
X121234286Y-104036996D01*
X121236688Y-104106824D01*
X121200956Y-104166866D01*
X121138436Y-104198059D01*
X121116580Y-104200000D01*
X108800000Y-104200000D01*
X105729343Y-104200000D01*
X105662304Y-104180315D01*
X105616549Y-104127511D01*
X105605343Y-104076180D01*
X105605032Y-103862486D01*
X105603328Y-102690114D01*
X105622915Y-102623048D01*
X105675653Y-102577217D01*
X105744797Y-102567173D01*
X105808395Y-102596105D01*
X105831304Y-102623084D01*
X105831332Y-102623065D01*
X105831593Y-102623424D01*
X105833055Y-102625146D01*
X105834191Y-102627001D01*
X105882523Y-102693522D01*
X105882523Y-102693523D01*
X106434898Y-102141148D01*
X106458661Y-102198517D01*
X106530934Y-102306680D01*
X106622920Y-102398666D01*
X106731083Y-102470939D01*
X106788450Y-102494701D01*
X106236075Y-103047075D01*
X106302592Y-103095403D01*
X106500954Y-103196474D01*
X106712693Y-103265273D01*
X106932579Y-103300100D01*
X107155221Y-103300100D01*
X107375106Y-103265273D01*
X107586845Y-103196474D01*
X107785207Y-103095403D01*
X107851722Y-103047075D01*
X107299348Y-102494701D01*
X107356717Y-102470939D01*
X107464880Y-102398666D01*
X107556866Y-102306680D01*
X107629139Y-102198517D01*
X107652901Y-102141148D01*
X108205275Y-102693522D01*
X108253603Y-102627007D01*
X108354674Y-102428645D01*
X108423473Y-102216906D01*
X108458300Y-101997021D01*
X108458300Y-101774378D01*
X108423473Y-101554493D01*
X108354674Y-101342754D01*
X108253603Y-101144392D01*
X108205275Y-101077876D01*
X108205275Y-101077875D01*
X107652901Y-101630250D01*
X107629139Y-101572883D01*
X107556866Y-101464720D01*
X107464880Y-101372734D01*
X107356717Y-101300461D01*
X107299347Y-101276698D01*
X107851723Y-100724323D01*
X107785207Y-100675996D01*
X107703737Y-100634485D01*
X107652941Y-100586510D01*
X107636146Y-100518689D01*
X107658683Y-100452554D01*
X107713399Y-100409103D01*
X107760032Y-100400000D01*
X116487769Y-100400000D01*
X116554808Y-100419685D01*
G37*
%TD.AperFunction*%
%TA.AperFunction,Conductor*%
G36*
X106394808Y-100419685D02*
G01*
X106440563Y-100472489D01*
X106450507Y-100541647D01*
X106421482Y-100605203D01*
X106384064Y-100634485D01*
X106302591Y-100675997D01*
X106236076Y-100724322D01*
X106236075Y-100724323D01*
X106788451Y-101276698D01*
X106731083Y-101300461D01*
X106622920Y-101372734D01*
X106530934Y-101464720D01*
X106458661Y-101572883D01*
X106434898Y-101630251D01*
X105882523Y-101077875D01*
X105882522Y-101077876D01*
X105834193Y-101144396D01*
X105831651Y-101148546D01*
X105830094Y-101147592D01*
X105787451Y-101192698D01*
X105719621Y-101209458D01*
X105653498Y-101186886D01*
X105610075Y-101132149D01*
X105600996Y-101085758D01*
X105600180Y-100524178D01*
X105619767Y-100457112D01*
X105672505Y-100411281D01*
X105724180Y-100400000D01*
X106327769Y-100400000D01*
X106394808Y-100419685D01*
G37*
%TD.AperFunction*%
%TD*%
%TA.AperFunction,Conductor*%
%TO.N,+5V*%
G36*
X181091464Y-98819685D02*
G01*
X181137219Y-98872489D01*
X181147163Y-98941647D01*
X181129963Y-98989097D01*
X181065646Y-99093369D01*
X181065641Y-99093380D01*
X181010494Y-99259802D01*
X181010493Y-99259809D01*
X181000000Y-99362513D01*
X181000000Y-99575000D01*
X183841138Y-99575000D01*
X183908177Y-99594685D01*
X183928819Y-99611319D01*
X183930000Y-99612500D01*
X192076000Y-99612500D01*
X192143039Y-99632185D01*
X192188794Y-99684989D01*
X192200000Y-99736500D01*
X192200000Y-99862500D01*
X192326000Y-99862500D01*
X192393039Y-99882185D01*
X192438794Y-99934989D01*
X192450000Y-99986500D01*
X192450000Y-101487500D01*
X196006000Y-101487500D01*
X196073039Y-101507185D01*
X196118794Y-101559989D01*
X196130000Y-101611500D01*
X196130000Y-101650000D01*
X211999999Y-101650000D01*
X211999999Y-101500028D01*
X211999998Y-101500013D01*
X211989505Y-101397302D01*
X211934358Y-101230880D01*
X211934356Y-101230875D01*
X211842315Y-101081654D01*
X211718343Y-100957682D01*
X211665025Y-100924795D01*
X211618301Y-100872847D01*
X211607080Y-100803884D01*
X211634923Y-100739802D01*
X211692993Y-100700947D01*
X211729404Y-100695260D01*
X216064044Y-100670491D01*
X216584551Y-101190998D01*
X216527183Y-101214761D01*
X216419020Y-101287034D01*
X216327034Y-101379020D01*
X216254761Y-101487183D01*
X216230998Y-101544551D01*
X215678623Y-100992175D01*
X215678622Y-100992176D01*
X215630297Y-101058691D01*
X215529225Y-101257054D01*
X215460426Y-101468793D01*
X215425600Y-101688678D01*
X215425600Y-101911321D01*
X215460426Y-102131206D01*
X215529225Y-102342945D01*
X215630296Y-102541307D01*
X215678623Y-102607822D01*
X215678623Y-102607823D01*
X216230998Y-102055448D01*
X216254761Y-102112817D01*
X216327034Y-102220980D01*
X216419020Y-102312966D01*
X216527183Y-102385239D01*
X216584550Y-102409001D01*
X216032175Y-102961375D01*
X216098692Y-103009703D01*
X216297054Y-103110774D01*
X216508793Y-103179573D01*
X216728679Y-103214400D01*
X216951321Y-103214400D01*
X217171206Y-103179573D01*
X217382945Y-103110774D01*
X217581307Y-103009703D01*
X217647822Y-102961375D01*
X217095448Y-102409001D01*
X217152817Y-102385239D01*
X217260980Y-102312966D01*
X217352966Y-102220980D01*
X217425239Y-102112817D01*
X217449001Y-102055448D01*
X218001375Y-102607822D01*
X218049703Y-102541307D01*
X218150774Y-102342945D01*
X218219573Y-102131206D01*
X218254400Y-101911321D01*
X218254400Y-101688678D01*
X218219573Y-101468793D01*
X218150774Y-101257054D01*
X218049703Y-101058692D01*
X218001375Y-100992176D01*
X218001375Y-100992175D01*
X217449001Y-101544550D01*
X217425239Y-101487183D01*
X217352966Y-101379020D01*
X217260980Y-101287034D01*
X217152817Y-101214761D01*
X217095447Y-101190997D01*
X217624873Y-100661572D01*
X226162963Y-100612783D01*
X226172401Y-100618848D01*
X226744551Y-101190998D01*
X226687183Y-101214761D01*
X226579020Y-101287034D01*
X226487034Y-101379020D01*
X226414761Y-101487183D01*
X226390998Y-101544551D01*
X225838623Y-100992175D01*
X225838622Y-100992176D01*
X225790297Y-101058691D01*
X225689225Y-101257054D01*
X225620426Y-101468793D01*
X225585600Y-101688678D01*
X225585600Y-101911321D01*
X225620426Y-102131206D01*
X225689225Y-102342945D01*
X225790296Y-102541307D01*
X225838623Y-102607822D01*
X225838623Y-102607823D01*
X226390998Y-102055448D01*
X226414761Y-102112817D01*
X226487034Y-102220980D01*
X226579020Y-102312966D01*
X226687183Y-102385239D01*
X226744550Y-102409001D01*
X226192175Y-102961375D01*
X226258692Y-103009703D01*
X226457054Y-103110774D01*
X226668793Y-103179573D01*
X226888679Y-103214400D01*
X227111321Y-103214400D01*
X227331206Y-103179573D01*
X227542945Y-103110774D01*
X227741307Y-103009703D01*
X227807822Y-102961375D01*
X227255448Y-102409001D01*
X227312817Y-102385239D01*
X227420980Y-102312966D01*
X227512966Y-102220980D01*
X227585239Y-102112817D01*
X227609001Y-102055448D01*
X228161375Y-102607822D01*
X228209705Y-102541305D01*
X228212251Y-102537151D01*
X228213535Y-102537938D01*
X228256914Y-102492005D01*
X228324734Y-102475207D01*
X228390870Y-102497741D01*
X228434324Y-102552455D01*
X228443400Y-102596398D01*
X228457457Y-103243039D01*
X228475507Y-104073305D01*
X228457284Y-104140756D01*
X228405487Y-104187648D01*
X228351536Y-104200000D01*
X225600000Y-104200000D01*
X212124500Y-104200000D01*
X212057461Y-104180315D01*
X212011706Y-104127511D01*
X212000500Y-104076000D01*
X212000499Y-103499998D01*
X212000498Y-103499980D01*
X211989999Y-103397203D01*
X211989998Y-103397200D01*
X211957789Y-103300000D01*
X211934814Y-103230666D01*
X211842712Y-103081344D01*
X211836319Y-103074951D01*
X211821615Y-103048023D01*
X211805023Y-103022205D01*
X211804131Y-103016004D01*
X211802834Y-103013628D01*
X211800000Y-102987270D01*
X211800000Y-102812023D01*
X211819685Y-102744984D01*
X211836319Y-102724342D01*
X211842315Y-102718345D01*
X211934356Y-102569124D01*
X211934358Y-102569119D01*
X211989505Y-102402697D01*
X211989506Y-102402690D01*
X211999999Y-102299986D01*
X212000000Y-102299973D01*
X212000000Y-102150000D01*
X195594000Y-102150000D01*
X195526961Y-102130315D01*
X195481206Y-102077511D01*
X195470000Y-102026000D01*
X195470000Y-101987500D01*
X194850000Y-101987500D01*
X194850000Y-102899999D01*
X195299972Y-102899999D01*
X195299986Y-102899998D01*
X195402695Y-102889506D01*
X195436995Y-102878140D01*
X195506823Y-102875738D01*
X195566866Y-102911469D01*
X195598059Y-102973989D01*
X195600000Y-102995846D01*
X195600000Y-103176000D01*
X195580315Y-103243039D01*
X195527511Y-103288794D01*
X195476000Y-103300000D01*
X182074000Y-103300000D01*
X182006961Y-103280315D01*
X181961206Y-103227511D01*
X181950000Y-103176000D01*
X181950000Y-103000000D01*
X180724000Y-103000000D01*
X180656961Y-102980315D01*
X180611206Y-102927511D01*
X180600000Y-102876000D01*
X180600000Y-102750000D01*
X180474000Y-102750000D01*
X180406961Y-102730315D01*
X180361206Y-102677511D01*
X180350000Y-102626000D01*
X180350000Y-100632710D01*
X180850000Y-100632710D01*
X180850000Y-102500000D01*
X181949999Y-102500000D01*
X181950000Y-102499999D01*
X181950000Y-102199986D01*
X183600001Y-102199986D01*
X183610494Y-102302697D01*
X183665641Y-102469119D01*
X183665643Y-102469124D01*
X183757684Y-102618345D01*
X183881654Y-102742315D01*
X184030875Y-102834356D01*
X184030880Y-102834358D01*
X184197302Y-102889505D01*
X184197309Y-102889506D01*
X184300019Y-102899999D01*
X184749999Y-102899999D01*
X185250000Y-102899999D01*
X185699972Y-102899999D01*
X185699986Y-102899998D01*
X185802697Y-102889505D01*
X185969119Y-102834358D01*
X185969124Y-102834356D01*
X186118343Y-102742316D01*
X186123084Y-102738568D01*
X186187877Y-102712424D01*
X186256520Y-102725460D01*
X186276916Y-102738568D01*
X186281656Y-102742316D01*
X186430875Y-102834356D01*
X186430880Y-102834358D01*
X186597302Y-102889505D01*
X186597309Y-102889506D01*
X186700019Y-102899999D01*
X187149999Y-102899999D01*
X187650000Y-102899999D01*
X188099972Y-102899999D01*
X188099986Y-102899998D01*
X188202697Y-102889505D01*
X188369119Y-102834358D01*
X188369124Y-102834356D01*
X188518343Y-102742316D01*
X188523084Y-102738568D01*
X188587877Y-102712424D01*
X188656520Y-102725460D01*
X188676916Y-102738568D01*
X188681656Y-102742316D01*
X188830875Y-102834356D01*
X188830880Y-102834358D01*
X188997302Y-102889505D01*
X188997309Y-102889506D01*
X189100019Y-102899999D01*
X189549999Y-102899999D01*
X190050000Y-102899999D01*
X190499972Y-102899999D01*
X190499986Y-102899998D01*
X190602697Y-102889505D01*
X190769119Y-102834358D01*
X190769124Y-102834356D01*
X190918343Y-102742316D01*
X190923084Y-102738568D01*
X190987877Y-102712424D01*
X191056520Y-102725460D01*
X191076916Y-102738568D01*
X191081656Y-102742316D01*
X191230875Y-102834356D01*
X191230880Y-102834358D01*
X191397302Y-102889505D01*
X191397309Y-102889506D01*
X191500019Y-102899999D01*
X191949999Y-102899999D01*
X192450000Y-102899999D01*
X192899972Y-102899999D01*
X192899986Y-102899998D01*
X193002697Y-102889505D01*
X193169119Y-102834358D01*
X193169124Y-102834356D01*
X193318343Y-102742316D01*
X193323084Y-102738568D01*
X193387877Y-102712424D01*
X193456520Y-102725460D01*
X193476916Y-102738568D01*
X193481656Y-102742316D01*
X193630875Y-102834356D01*
X193630880Y-102834358D01*
X193797302Y-102889505D01*
X193797309Y-102889506D01*
X193900019Y-102899999D01*
X194349999Y-102899999D01*
X194350000Y-102899998D01*
X194350000Y-101987500D01*
X192450000Y-101987500D01*
X192450000Y-102899999D01*
X191949999Y-102899999D01*
X191950000Y-102899998D01*
X191950000Y-101987500D01*
X190050000Y-101987500D01*
X190050000Y-102899999D01*
X189549999Y-102899999D01*
X189550000Y-102899998D01*
X189550000Y-101987500D01*
X187650000Y-101987500D01*
X187650000Y-102899999D01*
X187149999Y-102899999D01*
X187150000Y-102899998D01*
X187150000Y-101987500D01*
X185250000Y-101987500D01*
X185250000Y-102899999D01*
X184749999Y-102899999D01*
X184750000Y-102899998D01*
X184750000Y-101987500D01*
X183600001Y-101987500D01*
X183600001Y-102199986D01*
X181950000Y-102199986D01*
X181950000Y-101936138D01*
X181949999Y-101300028D01*
X181949998Y-101300012D01*
X181939505Y-101197302D01*
X181923998Y-101150503D01*
X181921596Y-101080674D01*
X181957328Y-101020633D01*
X182019848Y-100989440D01*
X182041704Y-100987499D01*
X182150000Y-100987499D01*
X182650000Y-100987499D01*
X183099972Y-100987499D01*
X183099986Y-100987498D01*
X183202697Y-100977005D01*
X183369119Y-100921858D01*
X183369130Y-100921853D01*
X183487837Y-100848634D01*
X183555229Y-100830193D01*
X183621893Y-100851115D01*
X183666663Y-100904757D01*
X183675324Y-100974088D01*
X183667669Y-100998941D01*
X183667914Y-100999023D01*
X183610494Y-101172302D01*
X183610493Y-101172309D01*
X183600000Y-101275013D01*
X183600000Y-101487500D01*
X184750000Y-101487500D01*
X185250000Y-101487500D01*
X187150000Y-101487500D01*
X187650000Y-101487500D01*
X189550000Y-101487500D01*
X190050000Y-101487500D01*
X191950000Y-101487500D01*
X191950000Y-100112500D01*
X190050000Y-100112500D01*
X190050000Y-101487500D01*
X189550000Y-101487500D01*
X189550000Y-100112500D01*
X187650000Y-100112500D01*
X187650000Y-101487500D01*
X187150000Y-101487500D01*
X187150000Y-100112500D01*
X185250000Y-100112500D01*
X185250000Y-101487500D01*
X184750000Y-101487500D01*
X184750000Y-100112500D01*
X183558862Y-100112500D01*
X183491823Y-100092815D01*
X183471181Y-100076181D01*
X183470000Y-100075000D01*
X182650000Y-100075000D01*
X182650000Y-100987499D01*
X182150000Y-100987499D01*
X182150000Y-100075000D01*
X181000001Y-100075000D01*
X181000001Y-100287486D01*
X181010493Y-100390195D01*
X181026002Y-100436995D01*
X181026185Y-100442332D01*
X181028848Y-100446961D01*
X181027373Y-100476880D01*
X181028404Y-100506824D01*
X181025672Y-100511413D01*
X181025410Y-100516746D01*
X181007995Y-100541117D01*
X180992673Y-100566866D01*
X180987894Y-100569250D01*
X180984790Y-100573595D01*
X180954196Y-100591192D01*
X180850000Y-100632710D01*
X180350000Y-100632710D01*
X180350000Y-100600000D01*
X179950028Y-100600000D01*
X179950012Y-100600001D01*
X179847302Y-100610494D01*
X179680880Y-100665641D01*
X179680875Y-100665643D01*
X179531654Y-100757684D01*
X179411681Y-100877658D01*
X179350358Y-100911143D01*
X179280666Y-100906159D01*
X179224733Y-100864287D01*
X179200316Y-100798823D01*
X179200000Y-100789977D01*
X179200000Y-98924000D01*
X179219685Y-98856961D01*
X179272489Y-98811206D01*
X179324000Y-98800000D01*
X181024425Y-98800000D01*
X181091464Y-98819685D01*
G37*
%TD.AperFunction*%
%TA.AperFunction,Conductor*%
G36*
X228345124Y-100619998D02*
G01*
X228391179Y-100672540D01*
X228402652Y-100722000D01*
X228407536Y-100946698D01*
X228389313Y-101014150D01*
X228337515Y-101061041D01*
X228268589Y-101072485D01*
X228204418Y-101044848D01*
X228183247Y-101022279D01*
X228161375Y-100992176D01*
X228161375Y-100992175D01*
X227609001Y-101544550D01*
X227585239Y-101487183D01*
X227512966Y-101379020D01*
X227420980Y-101287034D01*
X227312817Y-101214761D01*
X227255447Y-101190997D01*
X227827597Y-100618848D01*
X227856425Y-100603106D01*
X228277974Y-100600697D01*
X228345124Y-100619998D01*
G37*
%TD.AperFunction*%
%TD*%
M02*
