%TF.GenerationSoftware,KiCad,Pcbnew,9.0.5*%
%TF.CreationDate,2025-10-18T17:09:32-07:00*%
%TF.ProjectId,Flyback_CCM_Converter,466c7962-6163-46b5-9f43-434d5f436f6e,rev?*%
%TF.SameCoordinates,Original*%
%TF.FileFunction,Copper,L2,Bot*%
%TF.FilePolarity,Positive*%
%FSLAX46Y46*%
G04 Gerber Fmt 4.6, Leading zero omitted, Abs format (unit mm)*
G04 Created by KiCad (PCBNEW 9.0.5) date 2025-10-18 17:09:32*
%MOMM*%
%LPD*%
G01*
G04 APERTURE LIST*
G04 Aperture macros list*
%AMRoundRect*
0 Rectangle with rounded corners*
0 $1 Rounding radius*
0 $2 $3 $4 $5 $6 $7 $8 $9 X,Y pos of 4 corners*
0 Add a 4 corners polygon primitive as box body*
4,1,4,$2,$3,$4,$5,$6,$7,$8,$9,$2,$3,0*
0 Add four circle primitives for the rounded corners*
1,1,$1+$1,$2,$3*
1,1,$1+$1,$4,$5*
1,1,$1+$1,$6,$7*
1,1,$1+$1,$8,$9*
0 Add four rect primitives between the rounded corners*
20,1,$1+$1,$2,$3,$4,$5,0*
20,1,$1+$1,$4,$5,$6,$7,0*
20,1,$1+$1,$6,$7,$8,$9,0*
20,1,$1+$1,$8,$9,$2,$3,0*%
G04 Aperture macros list end*
%TA.AperFunction,ComponentPad*%
%ADD10C,1.828800*%
%TD*%
%TA.AperFunction,ComponentPad*%
%ADD11C,1.750000*%
%TD*%
%TA.AperFunction,ComponentPad*%
%ADD12R,2.000000X2.000000*%
%TD*%
%TA.AperFunction,SMDPad,CuDef*%
%ADD13R,1.651000X2.184400*%
%TD*%
%TA.AperFunction,SMDPad,CuDef*%
%ADD14RoundRect,0.250000X0.600000X-1.400000X0.600000X1.400000X-0.600000X1.400000X-0.600000X-1.400000X0*%
%TD*%
%TA.AperFunction,ViaPad*%
%ADD15C,0.523800*%
%TD*%
%TA.AperFunction,ViaPad*%
%ADD16C,0.600000*%
%TD*%
%TA.AperFunction,Conductor*%
%ADD17C,1.016000*%
%TD*%
%TA.AperFunction,Conductor*%
%ADD18C,0.254000*%
%TD*%
%TA.AperFunction,Conductor*%
%ADD19C,0.508000*%
%TD*%
G04 APERTURE END LIST*
D10*
%TO.P,+12V,1,1*%
%TO.N,VCC*%
X107043900Y-101885700D03*
%TO.P,+12V,2,2*%
X117203900Y-101885700D03*
%TD*%
%TO.P,+5V,1,1*%
%TO.N,+5V*%
X227000000Y-101800000D03*
%TO.P,+5V,2,2*%
X216840000Y-101800000D03*
%TD*%
D11*
%TO.P,T1,1,AA*%
%TO.N,VCC*%
X145800000Y-100600000D03*
%TO.P,T1,2,AB*%
%TO.N,Net-(Q1-D)*%
X145800000Y-105680000D03*
%TO.P,T1,3,SA*%
%TO.N,GND*%
X163300000Y-105600000D03*
X166040000Y-105670000D03*
%TO.P,T1,4,SB*%
%TO.N,Net-(T1-SB)*%
X163300000Y-100600000D03*
X166090000Y-100580000D03*
%TO.P,T1,NC1*%
%TO.N,N/C*%
X163300000Y-110600000D03*
X166070000Y-110730000D03*
%TO.P,T1,NC2*%
X163300000Y-95600000D03*
X166070000Y-95500000D03*
%TD*%
D12*
%TO.P,TP3,1,1*%
%TO.N,+5V*%
X227200000Y-108200000D03*
%TD*%
%TO.P,TP1,1,1*%
%TO.N,VCC*%
X107200000Y-108200000D03*
%TD*%
%TO.P,TP4,1,1*%
%TO.N,GND*%
X226600000Y-125200000D03*
%TD*%
%TO.P,TP2,1,1*%
%TO.N,GND*%
X106962500Y-125285700D03*
%TD*%
D10*
%TO.P,GND,2,2*%
%TO.N,GND*%
X216640000Y-131400000D03*
%TO.P,GND,1,1*%
X226800000Y-131400000D03*
%TD*%
%TO.P,GND,2,2*%
%TO.N,GND*%
X117003900Y-131485700D03*
%TO.P,GND,1,1*%
X106843900Y-131485700D03*
%TD*%
D12*
%TO.P,TP7,1,1*%
%TO.N,/ISENSE*%
X156800000Y-123200000D03*
%TD*%
%TO.P,TP6,1,1*%
%TO.N,Net-(U1-VREF)*%
X142637500Y-130400000D03*
%TD*%
D13*
%TO.P,CR4,2*%
%TO.N,Net-(Q1-D)*%
X150200000Y-108708400D03*
%TO.P,CR4,1*%
%TO.N,Net-(D3-K)*%
X150200000Y-105000000D03*
%TD*%
%TO.P,CR3,1*%
%TO.N,Net-(D2-K)*%
X154000000Y-105000000D03*
%TO.P,CR3,2*%
%TO.N,Net-(Q1-D)*%
X154000000Y-108708400D03*
%TD*%
D14*
%TO.P,D3,1,K*%
%TO.N,Net-(D3-K)*%
X150340000Y-101426600D03*
%TO.P,D3,2,A*%
%TO.N,VCC*%
X150340000Y-95926600D03*
%TD*%
D12*
%TO.P,TP8,1,1*%
%TO.N,Net-(Q1-D)*%
X134200000Y-103800000D03*
%TD*%
D14*
%TO.P,D2,1,K*%
%TO.N,Net-(D2-K)*%
X153940000Y-101426600D03*
%TO.P,D2,2,A*%
%TO.N,VCC*%
X153940000Y-95926600D03*
%TD*%
%TO.P,D1,1,K*%
%TO.N,Net-(D1-K)*%
X157540000Y-101595000D03*
%TO.P,D1,2,A*%
%TO.N,VCC*%
X157540000Y-96095000D03*
%TD*%
D13*
%TO.P,CR2,1*%
%TO.N,Net-(D1-K)*%
X157600000Y-105000000D03*
%TO.P,CR2,2*%
%TO.N,Net-(Q1-D)*%
X157600000Y-108708400D03*
%TD*%
D12*
%TO.P,TP5,1,1*%
%TO.N,/OUT*%
X130600000Y-121800000D03*
%TD*%
D15*
%TO.N,GND*%
X136000000Y-138600000D03*
X136000000Y-137800000D03*
X151200000Y-137800000D03*
D16*
X140200000Y-100000000D03*
X139200000Y-100000000D03*
X137600000Y-100000000D03*
X136600000Y-100000000D03*
X126800000Y-108200000D03*
X127800000Y-108200000D03*
X124400000Y-108200000D03*
X125400000Y-108200000D03*
X122000000Y-108200000D03*
X123000000Y-108200000D03*
%TO.N,VCC*%
X139400000Y-135427000D03*
X151600000Y-135427000D03*
X163000000Y-127200000D03*
X163000000Y-124800000D03*
%TO.N,Net-(U1-VREF)*%
X137600000Y-135800000D03*
X150000000Y-136200000D03*
X164600000Y-127200000D03*
X164600000Y-124800000D03*
%TO.N,/OUT*%
X132400000Y-127400000D03*
X132400000Y-130200000D03*
X136000000Y-134800000D03*
X150000000Y-134800000D03*
X161200000Y-124800000D03*
X161200000Y-127200000D03*
%TO.N,GND*%
X138200000Y-121200000D03*
X138200000Y-120200000D03*
X140000000Y-119000000D03*
X141000000Y-119000000D03*
X134837500Y-126000000D03*
X154237500Y-130000000D03*
X155237500Y-130000000D03*
X134837500Y-125000000D03*
X149637500Y-119200000D03*
X150637500Y-119200000D03*
X138237500Y-123400000D03*
X126800000Y-96837500D03*
X127800000Y-96837500D03*
X125400000Y-96837500D03*
X123000000Y-96837500D03*
X122000000Y-96837500D03*
X124400000Y-96837500D03*
X182000000Y-95100000D03*
X183000000Y-95100000D03*
X196200000Y-116700000D03*
X198200000Y-116700000D03*
X184400000Y-106300000D03*
X187800000Y-95100000D03*
X190200000Y-95100000D03*
X190200000Y-106300000D03*
X180000000Y-115700000D03*
X204200000Y-116700000D03*
X191600000Y-106300000D03*
X207200000Y-116700000D03*
X203200000Y-116700000D03*
X186800000Y-106300000D03*
X209200000Y-116700000D03*
X191800000Y-95100000D03*
X206200000Y-116700000D03*
X211400000Y-116700000D03*
X199200000Y-116700000D03*
X186800000Y-95100000D03*
X194000000Y-106300000D03*
X181000000Y-115700000D03*
X202200000Y-116700000D03*
X184400000Y-95100000D03*
X185400000Y-95100000D03*
X210400000Y-116700000D03*
X197200000Y-116700000D03*
X189200000Y-95100000D03*
X185400000Y-106300000D03*
X200200000Y-116700000D03*
X195000000Y-106300000D03*
X205200000Y-116700000D03*
X189200000Y-106300000D03*
X187800000Y-106300000D03*
X192800000Y-95100000D03*
X201200000Y-116700000D03*
X208200000Y-116700000D03*
X192600000Y-106300000D03*
D15*
X151200000Y-137200000D03*
%TD*%
D17*
%TO.N,Net-(Q1-D)*%
X156934536Y-110106400D02*
X157600000Y-109440936D01*
X154665464Y-110106400D02*
X156934536Y-110106400D01*
X154000000Y-109440936D02*
X154665464Y-110106400D01*
X157600000Y-109440936D02*
X157600000Y-108708400D01*
X154000000Y-108708400D02*
X154000000Y-109440936D01*
X154000000Y-109800000D02*
X154000000Y-108708400D01*
X153693600Y-110106400D02*
X154000000Y-109800000D01*
X150865464Y-110106400D02*
X153693600Y-110106400D01*
X150200000Y-108708400D02*
X150200000Y-109440936D01*
X150200000Y-109440936D02*
X150865464Y-110106400D01*
X149534536Y-110106400D02*
X150200000Y-109440936D01*
X148106400Y-110106400D02*
X149534536Y-110106400D01*
X145800000Y-107800000D02*
X148106400Y-110106400D01*
D18*
%TO.N,VCC*%
X151600000Y-135427000D02*
X139400000Y-135427000D01*
X163000000Y-124800000D02*
X163000000Y-127200000D01*
%TO.N,Net-(U1-VREF)*%
X164600000Y-124800000D02*
X164600000Y-127200000D01*
%TO.N,/OUT*%
X132400000Y-130200000D02*
X132400000Y-127400000D01*
X150000000Y-134800000D02*
X136000000Y-134800000D01*
X161200000Y-124800000D02*
X161200000Y-127200000D01*
D17*
%TO.N,Net-(Q1-D)*%
X157540000Y-109167536D02*
X157540000Y-108435000D01*
X153940000Y-108435000D02*
X153940000Y-109167536D01*
X150340000Y-108435000D02*
X150340000Y-109167536D01*
X145800000Y-105680000D02*
X145800000Y-107800000D01*
%TO.N,VCC*%
X147105000Y-96095000D02*
X157540000Y-96095000D01*
X145800000Y-100600000D02*
X145800000Y-97400000D01*
X145800000Y-97400000D02*
X147105000Y-96095000D01*
%TO.N,Net-(D1-K)*%
X157540000Y-101595000D02*
X157540000Y-104726600D01*
%TO.N,Net-(D2-K)*%
X153940000Y-101426600D02*
X153940000Y-104726600D01*
%TO.N,Net-(D3-K)*%
X150340000Y-101426600D02*
X150340000Y-104726600D01*
D19*
%TO.N,Net-(Q1-D)*%
X149800000Y-109200000D02*
X150200000Y-108800000D01*
D18*
%TO.N,Net-(U1-VREF)*%
X137600000Y-139200000D02*
X137600000Y-135800000D01*
X138000000Y-139600000D02*
X137600000Y-139200000D01*
X149600000Y-139600000D02*
X138000000Y-139600000D01*
X150000000Y-136200000D02*
X150000000Y-139200000D01*
X150000000Y-139200000D02*
X149600000Y-139600000D01*
%TD*%
%TA.AperFunction,Conductor*%
%TO.N,GND*%
G36*
X229942539Y-90120185D02*
G01*
X229988294Y-90172989D01*
X229999500Y-90224500D01*
X229999500Y-139775500D01*
X229979815Y-139842539D01*
X229927011Y-139888294D01*
X229875500Y-139899500D01*
X150487282Y-139899500D01*
X150420243Y-139879815D01*
X150374488Y-139827011D01*
X150364544Y-139757853D01*
X150393569Y-139694297D01*
X150399601Y-139687819D01*
X150487408Y-139600011D01*
X150487411Y-139600008D01*
X150556083Y-139497233D01*
X150603385Y-139383035D01*
X150611276Y-139343360D01*
X150627500Y-139261806D01*
X150627500Y-136739356D01*
X150647185Y-136672317D01*
X150648398Y-136670465D01*
X150709394Y-136579179D01*
X150769737Y-136433497D01*
X150800500Y-136278842D01*
X150800500Y-136178500D01*
X150803050Y-136169814D01*
X150801762Y-136160853D01*
X150812740Y-136136812D01*
X150820185Y-136111461D01*
X150827025Y-136105533D01*
X150830787Y-136097297D01*
X150853021Y-136083007D01*
X150872989Y-136065706D01*
X150883503Y-136063418D01*
X150889565Y-136059523D01*
X150924500Y-136054500D01*
X151060643Y-136054500D01*
X151127682Y-136074185D01*
X151129534Y-136075398D01*
X151220814Y-136136390D01*
X151220827Y-136136397D01*
X151366498Y-136196735D01*
X151366503Y-136196737D01*
X151521153Y-136227499D01*
X151521156Y-136227500D01*
X151521158Y-136227500D01*
X151678844Y-136227500D01*
X151678845Y-136227499D01*
X151833497Y-136196737D01*
X151979179Y-136136394D01*
X152110289Y-136048789D01*
X152221789Y-135937289D01*
X152309394Y-135806179D01*
X152369737Y-135660497D01*
X152400500Y-135505842D01*
X152400500Y-135348158D01*
X152400500Y-135348155D01*
X152400499Y-135348153D01*
X152369738Y-135193510D01*
X152369737Y-135193503D01*
X152363801Y-135179172D01*
X152309397Y-135047827D01*
X152309390Y-135047814D01*
X152221789Y-134916711D01*
X152221786Y-134916707D01*
X152110292Y-134805213D01*
X152110288Y-134805210D01*
X151979185Y-134717609D01*
X151979172Y-134717602D01*
X151833501Y-134657264D01*
X151833489Y-134657261D01*
X151678845Y-134626500D01*
X151678842Y-134626500D01*
X151521158Y-134626500D01*
X151521155Y-134626500D01*
X151366510Y-134657261D01*
X151366498Y-134657264D01*
X151220827Y-134717602D01*
X151220814Y-134717609D01*
X151129534Y-134778602D01*
X151111487Y-134784252D01*
X151095578Y-134794477D01*
X151064618Y-134798928D01*
X151062857Y-134799480D01*
X151060643Y-134799500D01*
X150917848Y-134799500D01*
X150850809Y-134779815D01*
X150805054Y-134727011D01*
X150796231Y-134699692D01*
X150769738Y-134566508D01*
X150769737Y-134566507D01*
X150769737Y-134566503D01*
X150769735Y-134566498D01*
X150709397Y-134420827D01*
X150709390Y-134420814D01*
X150621789Y-134289711D01*
X150621786Y-134289707D01*
X150510292Y-134178213D01*
X150510288Y-134178210D01*
X150379185Y-134090609D01*
X150379172Y-134090602D01*
X150233501Y-134030264D01*
X150233489Y-134030261D01*
X150078845Y-133999500D01*
X150078842Y-133999500D01*
X149921158Y-133999500D01*
X149921155Y-133999500D01*
X149766510Y-134030261D01*
X149766498Y-134030264D01*
X149620827Y-134090602D01*
X149620814Y-134090609D01*
X149529534Y-134151602D01*
X149462857Y-134172480D01*
X149460643Y-134172500D01*
X136539357Y-134172500D01*
X136472318Y-134152815D01*
X136470466Y-134151602D01*
X136379185Y-134090609D01*
X136379172Y-134090602D01*
X136233501Y-134030264D01*
X136233489Y-134030261D01*
X136078845Y-133999500D01*
X136078842Y-133999500D01*
X135921158Y-133999500D01*
X135921155Y-133999500D01*
X135766510Y-134030261D01*
X135766498Y-134030264D01*
X135620827Y-134090602D01*
X135620814Y-134090609D01*
X135489711Y-134178210D01*
X135489707Y-134178213D01*
X135378213Y-134289707D01*
X135378210Y-134289711D01*
X135290609Y-134420814D01*
X135290602Y-134420827D01*
X135230264Y-134566498D01*
X135230261Y-134566510D01*
X135199500Y-134721153D01*
X135199500Y-134878846D01*
X135230261Y-135033489D01*
X135230264Y-135033501D01*
X135290602Y-135179172D01*
X135290609Y-135179185D01*
X135378210Y-135310288D01*
X135378213Y-135310292D01*
X135489707Y-135421786D01*
X135489711Y-135421789D01*
X135620814Y-135509390D01*
X135620827Y-135509397D01*
X135766498Y-135569735D01*
X135766503Y-135569737D01*
X135921153Y-135600499D01*
X135921156Y-135600500D01*
X135921158Y-135600500D01*
X136078844Y-135600500D01*
X136078845Y-135600499D01*
X136233497Y-135569737D01*
X136379179Y-135509394D01*
X136470466Y-135448398D01*
X136488512Y-135442747D01*
X136504422Y-135432523D01*
X136535381Y-135428071D01*
X136537143Y-135427520D01*
X136539357Y-135427500D01*
X136706818Y-135427500D01*
X136773857Y-135447185D01*
X136819612Y-135499989D01*
X136829556Y-135569147D01*
X136828435Y-135575692D01*
X136799500Y-135721155D01*
X136799500Y-135878846D01*
X136830261Y-136033489D01*
X136830264Y-136033501D01*
X136890603Y-136179174D01*
X136890604Y-136179175D01*
X136890606Y-136179179D01*
X136951602Y-136270465D01*
X136972480Y-136337142D01*
X136972500Y-136339356D01*
X136972500Y-139261807D01*
X136996612Y-139383028D01*
X136996613Y-139383032D01*
X136996614Y-139383035D01*
X137010668Y-139416964D01*
X137010669Y-139416966D01*
X137043913Y-139497226D01*
X137043920Y-139497239D01*
X137112588Y-139600007D01*
X137112591Y-139600011D01*
X137200399Y-139687819D01*
X137233884Y-139749142D01*
X137228900Y-139818834D01*
X137187028Y-139874767D01*
X137121564Y-139899184D01*
X137112718Y-139899500D01*
X104124500Y-139899500D01*
X104057461Y-139879815D01*
X104011706Y-139827011D01*
X104000500Y-139775500D01*
X104000500Y-131374378D01*
X105429500Y-131374378D01*
X105429500Y-131597021D01*
X105464326Y-131816906D01*
X105533125Y-132028645D01*
X105634196Y-132227007D01*
X105682523Y-132293522D01*
X105682523Y-132293523D01*
X106234898Y-131741148D01*
X106258661Y-131798517D01*
X106330934Y-131906680D01*
X106422920Y-131998666D01*
X106531083Y-132070939D01*
X106588450Y-132094701D01*
X106036075Y-132647075D01*
X106102592Y-132695403D01*
X106300954Y-132796474D01*
X106512693Y-132865273D01*
X106732579Y-132900100D01*
X106955221Y-132900100D01*
X107175106Y-132865273D01*
X107386845Y-132796474D01*
X107585207Y-132695403D01*
X107651722Y-132647075D01*
X107099348Y-132094701D01*
X107156717Y-132070939D01*
X107264880Y-131998666D01*
X107356866Y-131906680D01*
X107429139Y-131798517D01*
X107452901Y-131741148D01*
X108005275Y-132293522D01*
X108053603Y-132227007D01*
X108154674Y-132028645D01*
X108223473Y-131816906D01*
X108258300Y-131597021D01*
X108258300Y-131374378D01*
X115589500Y-131374378D01*
X115589500Y-131597021D01*
X115624326Y-131816906D01*
X115693125Y-132028645D01*
X115794196Y-132227007D01*
X115842523Y-132293522D01*
X115842523Y-132293523D01*
X116394898Y-131741148D01*
X116418661Y-131798517D01*
X116490934Y-131906680D01*
X116582920Y-131998666D01*
X116691083Y-132070939D01*
X116748450Y-132094701D01*
X116196075Y-132647075D01*
X116262592Y-132695403D01*
X116460954Y-132796474D01*
X116672693Y-132865273D01*
X116892579Y-132900100D01*
X117115221Y-132900100D01*
X117335106Y-132865273D01*
X117546845Y-132796474D01*
X117745207Y-132695403D01*
X117811722Y-132647075D01*
X117811723Y-132647075D01*
X117766445Y-132601797D01*
X117259348Y-132094701D01*
X117316717Y-132070939D01*
X117424880Y-131998666D01*
X117516866Y-131906680D01*
X117589139Y-131798517D01*
X117612901Y-131741148D01*
X118165275Y-132293522D01*
X118213603Y-132227007D01*
X118314674Y-132028645D01*
X118383473Y-131816906D01*
X118418300Y-131597021D01*
X118418300Y-131374378D01*
X118383473Y-131154493D01*
X118314674Y-130942754D01*
X118213603Y-130744392D01*
X118165275Y-130677876D01*
X118165275Y-130677875D01*
X117612901Y-131230250D01*
X117589139Y-131172883D01*
X117516866Y-131064720D01*
X117424880Y-130972734D01*
X117316717Y-130900461D01*
X117259347Y-130876698D01*
X117811723Y-130324323D01*
X117745207Y-130275996D01*
X117546845Y-130174925D01*
X117335106Y-130106126D01*
X117115221Y-130071300D01*
X116892579Y-130071300D01*
X116672693Y-130106126D01*
X116460954Y-130174925D01*
X116262591Y-130275997D01*
X116196076Y-130324322D01*
X116196075Y-130324323D01*
X116748451Y-130876698D01*
X116691083Y-130900461D01*
X116582920Y-130972734D01*
X116490934Y-131064720D01*
X116418661Y-131172883D01*
X116394898Y-131230251D01*
X115842523Y-130677875D01*
X115842522Y-130677876D01*
X115794197Y-130744391D01*
X115693125Y-130942754D01*
X115624326Y-131154493D01*
X115589500Y-131374378D01*
X108258300Y-131374378D01*
X108223473Y-131154493D01*
X108154674Y-130942754D01*
X108053603Y-130744392D01*
X108005275Y-130677876D01*
X108005275Y-130677875D01*
X107452901Y-131230250D01*
X107429139Y-131172883D01*
X107356866Y-131064720D01*
X107264880Y-130972734D01*
X107156717Y-130900461D01*
X107099347Y-130876698D01*
X107651723Y-130324323D01*
X107585207Y-130275996D01*
X107386845Y-130174925D01*
X107175106Y-130106126D01*
X106955221Y-130071300D01*
X106732579Y-130071300D01*
X106512693Y-130106126D01*
X106300954Y-130174925D01*
X106102591Y-130275997D01*
X106036076Y-130324322D01*
X106036075Y-130324323D01*
X106588451Y-130876698D01*
X106531083Y-130900461D01*
X106422920Y-130972734D01*
X106330934Y-131064720D01*
X106258661Y-131172883D01*
X106234898Y-131230251D01*
X105682523Y-130677875D01*
X105682522Y-130677876D01*
X105634197Y-130744391D01*
X105533125Y-130942754D01*
X105464326Y-131154493D01*
X105429500Y-131374378D01*
X104000500Y-131374378D01*
X104000500Y-127321153D01*
X131599500Y-127321153D01*
X131599500Y-127478846D01*
X131630261Y-127633489D01*
X131630264Y-127633501D01*
X131690603Y-127779174D01*
X131690604Y-127779175D01*
X131690606Y-127779179D01*
X131751602Y-127870465D01*
X131772480Y-127937142D01*
X131772500Y-127939356D01*
X131772500Y-129660642D01*
X131752815Y-129727681D01*
X131751602Y-129729533D01*
X131690609Y-129820814D01*
X131690602Y-129820827D01*
X131630264Y-129966498D01*
X131630261Y-129966510D01*
X131599500Y-130121153D01*
X131599500Y-130278846D01*
X131630261Y-130433489D01*
X131630264Y-130433501D01*
X131690602Y-130579172D01*
X131690609Y-130579185D01*
X131778210Y-130710288D01*
X131778213Y-130710292D01*
X131889707Y-130821786D01*
X131889711Y-130821789D01*
X132020814Y-130909390D01*
X132020827Y-130909397D01*
X132166498Y-130969735D01*
X132166503Y-130969737D01*
X132321153Y-131000499D01*
X132321156Y-131000500D01*
X132321158Y-131000500D01*
X132478844Y-131000500D01*
X132478845Y-131000499D01*
X132633497Y-130969737D01*
X132779179Y-130909394D01*
X132910289Y-130821789D01*
X133021789Y-130710289D01*
X133109394Y-130579179D01*
X133169737Y-130433497D01*
X133200500Y-130278842D01*
X133200500Y-130121158D01*
X133200500Y-130121155D01*
X133200499Y-130121153D01*
X133194148Y-130089225D01*
X133169737Y-129966503D01*
X133169735Y-129966498D01*
X133109397Y-129820827D01*
X133109390Y-129820814D01*
X133048398Y-129729533D01*
X133027520Y-129662855D01*
X133027500Y-129660642D01*
X133027500Y-129352135D01*
X141137000Y-129352135D01*
X141137000Y-131447870D01*
X141137001Y-131447876D01*
X141143408Y-131507483D01*
X141193702Y-131642328D01*
X141193706Y-131642335D01*
X141279952Y-131757544D01*
X141279955Y-131757547D01*
X141395164Y-131843793D01*
X141395171Y-131843797D01*
X141530017Y-131894091D01*
X141530016Y-131894091D01*
X141536944Y-131894835D01*
X141589627Y-131900500D01*
X143685372Y-131900499D01*
X143744983Y-131894091D01*
X143879831Y-131843796D01*
X143995046Y-131757546D01*
X144081296Y-131642331D01*
X144131591Y-131507483D01*
X144138000Y-131447873D01*
X144138000Y-131288678D01*
X215225600Y-131288678D01*
X215225600Y-131511321D01*
X215260426Y-131731206D01*
X215329225Y-131942945D01*
X215430296Y-132141307D01*
X215478623Y-132207822D01*
X215478623Y-132207823D01*
X216030998Y-131655448D01*
X216054761Y-131712817D01*
X216127034Y-131820980D01*
X216219020Y-131912966D01*
X216327183Y-131985239D01*
X216384550Y-132009001D01*
X215832175Y-132561375D01*
X215898692Y-132609703D01*
X216097054Y-132710774D01*
X216308793Y-132779573D01*
X216528679Y-132814400D01*
X216751321Y-132814400D01*
X216971206Y-132779573D01*
X217182945Y-132710774D01*
X217381307Y-132609703D01*
X217447822Y-132561375D01*
X216895448Y-132009001D01*
X216952817Y-131985239D01*
X217060980Y-131912966D01*
X217152966Y-131820980D01*
X217225239Y-131712817D01*
X217249001Y-131655448D01*
X217801375Y-132207822D01*
X217849703Y-132141307D01*
X217950774Y-131942945D01*
X218019573Y-131731206D01*
X218054400Y-131511321D01*
X218054400Y-131288678D01*
X225385600Y-131288678D01*
X225385600Y-131511321D01*
X225420426Y-131731206D01*
X225489225Y-131942945D01*
X225590296Y-132141307D01*
X225638623Y-132207822D01*
X225638623Y-132207823D01*
X226190998Y-131655448D01*
X226214761Y-131712817D01*
X226287034Y-131820980D01*
X226379020Y-131912966D01*
X226487183Y-131985239D01*
X226544550Y-132009001D01*
X225992175Y-132561375D01*
X226058692Y-132609703D01*
X226257054Y-132710774D01*
X226468793Y-132779573D01*
X226688679Y-132814400D01*
X226911321Y-132814400D01*
X227131206Y-132779573D01*
X227342945Y-132710774D01*
X227541307Y-132609703D01*
X227607822Y-132561375D01*
X227055448Y-132009001D01*
X227112817Y-131985239D01*
X227220980Y-131912966D01*
X227312966Y-131820980D01*
X227385239Y-131712817D01*
X227409001Y-131655448D01*
X227961375Y-132207822D01*
X228009703Y-132141307D01*
X228110774Y-131942945D01*
X228179573Y-131731206D01*
X228214400Y-131511321D01*
X228214400Y-131288678D01*
X228179573Y-131068793D01*
X228110774Y-130857054D01*
X228009703Y-130658692D01*
X227961375Y-130592176D01*
X227961375Y-130592175D01*
X227409001Y-131144550D01*
X227385239Y-131087183D01*
X227312966Y-130979020D01*
X227220980Y-130887034D01*
X227112817Y-130814761D01*
X227055447Y-130790998D01*
X227607823Y-130238623D01*
X227541307Y-130190296D01*
X227342945Y-130089225D01*
X227131206Y-130020426D01*
X226911321Y-129985600D01*
X226688679Y-129985600D01*
X226468793Y-130020426D01*
X226257054Y-130089225D01*
X226058691Y-130190297D01*
X225992176Y-130238622D01*
X225992175Y-130238623D01*
X226544551Y-130790998D01*
X226487183Y-130814761D01*
X226379020Y-130887034D01*
X226287034Y-130979020D01*
X226214761Y-131087183D01*
X226190998Y-131144551D01*
X225638623Y-130592175D01*
X225638622Y-130592176D01*
X225590297Y-130658691D01*
X225489225Y-130857054D01*
X225420426Y-131068793D01*
X225385600Y-131288678D01*
X218054400Y-131288678D01*
X218019573Y-131068793D01*
X217950774Y-130857054D01*
X217849703Y-130658692D01*
X217801375Y-130592176D01*
X217801375Y-130592175D01*
X217249001Y-131144550D01*
X217225239Y-131087183D01*
X217152966Y-130979020D01*
X217060980Y-130887034D01*
X216952817Y-130814761D01*
X216895447Y-130790998D01*
X217447823Y-130238623D01*
X217381307Y-130190296D01*
X217182945Y-130089225D01*
X216971206Y-130020426D01*
X216751321Y-129985600D01*
X216528679Y-129985600D01*
X216308793Y-130020426D01*
X216097054Y-130089225D01*
X215898691Y-130190297D01*
X215832176Y-130238622D01*
X215832175Y-130238623D01*
X216384551Y-130790998D01*
X216327183Y-130814761D01*
X216219020Y-130887034D01*
X216127034Y-130979020D01*
X216054761Y-131087183D01*
X216030998Y-131144551D01*
X215478623Y-130592175D01*
X215478622Y-130592176D01*
X215430297Y-130658691D01*
X215329225Y-130857054D01*
X215260426Y-131068793D01*
X215225600Y-131288678D01*
X144138000Y-131288678D01*
X144137999Y-129352128D01*
X144131591Y-129292517D01*
X144081296Y-129157669D01*
X144081295Y-129157668D01*
X144081293Y-129157664D01*
X143995047Y-129042455D01*
X143995044Y-129042452D01*
X143879835Y-128956206D01*
X143879828Y-128956202D01*
X143744982Y-128905908D01*
X143744983Y-128905908D01*
X143685383Y-128899501D01*
X143685381Y-128899500D01*
X143685373Y-128899500D01*
X143685364Y-128899500D01*
X141589629Y-128899500D01*
X141589623Y-128899501D01*
X141530016Y-128905908D01*
X141395171Y-128956202D01*
X141395164Y-128956206D01*
X141279955Y-129042452D01*
X141279952Y-129042455D01*
X141193706Y-129157664D01*
X141193702Y-129157671D01*
X141143408Y-129292517D01*
X141137001Y-129352116D01*
X141137001Y-129352123D01*
X141137000Y-129352135D01*
X133027500Y-129352135D01*
X133027500Y-127939356D01*
X133047185Y-127872317D01*
X133048398Y-127870465D01*
X133109394Y-127779179D01*
X133169737Y-127633497D01*
X133200500Y-127478842D01*
X133200500Y-127321158D01*
X133200500Y-127321155D01*
X133200499Y-127321153D01*
X133192583Y-127281355D01*
X133169737Y-127166503D01*
X133150955Y-127121158D01*
X133109397Y-127020827D01*
X133109390Y-127020814D01*
X133021789Y-126889711D01*
X133021786Y-126889707D01*
X132910292Y-126778213D01*
X132910288Y-126778210D01*
X132779185Y-126690609D01*
X132779172Y-126690602D01*
X132633501Y-126630264D01*
X132633489Y-126630261D01*
X132478845Y-126599500D01*
X132478842Y-126599500D01*
X132321158Y-126599500D01*
X132321155Y-126599500D01*
X132166510Y-126630261D01*
X132166498Y-126630264D01*
X132020827Y-126690602D01*
X132020814Y-126690609D01*
X131889711Y-126778210D01*
X131889707Y-126778213D01*
X131778213Y-126889707D01*
X131778210Y-126889711D01*
X131690609Y-127020814D01*
X131690602Y-127020827D01*
X131630264Y-127166498D01*
X131630261Y-127166510D01*
X131599500Y-127321153D01*
X104000500Y-127321153D01*
X104000500Y-124237855D01*
X105462500Y-124237855D01*
X105462500Y-125035700D01*
X106529488Y-125035700D01*
X106496575Y-125092707D01*
X106462500Y-125219874D01*
X106462500Y-125351526D01*
X106496575Y-125478693D01*
X106529488Y-125535700D01*
X105462500Y-125535700D01*
X105462500Y-126333544D01*
X105468901Y-126393072D01*
X105468903Y-126393079D01*
X105519145Y-126527786D01*
X105519149Y-126527793D01*
X105605309Y-126642887D01*
X105605312Y-126642890D01*
X105720406Y-126729050D01*
X105720413Y-126729054D01*
X105855120Y-126779296D01*
X105855127Y-126779298D01*
X105914655Y-126785699D01*
X105914672Y-126785700D01*
X106712500Y-126785700D01*
X106712500Y-125718712D01*
X106769507Y-125751625D01*
X106896674Y-125785700D01*
X107028326Y-125785700D01*
X107155493Y-125751625D01*
X107212500Y-125718712D01*
X107212500Y-126785700D01*
X108010328Y-126785700D01*
X108010344Y-126785699D01*
X108069872Y-126779298D01*
X108069879Y-126779296D01*
X108204586Y-126729054D01*
X108204593Y-126729050D01*
X108319687Y-126642890D01*
X108319690Y-126642887D01*
X108405850Y-126527793D01*
X108405854Y-126527786D01*
X108456096Y-126393079D01*
X108456098Y-126393072D01*
X108462499Y-126333544D01*
X108462500Y-126333527D01*
X108462500Y-125535700D01*
X107395512Y-125535700D01*
X107428425Y-125478693D01*
X107462500Y-125351526D01*
X107462500Y-125219874D01*
X107428425Y-125092707D01*
X107395512Y-125035700D01*
X108462500Y-125035700D01*
X108462500Y-124721153D01*
X160399500Y-124721153D01*
X160399500Y-124878846D01*
X160430261Y-125033489D01*
X160430264Y-125033501D01*
X160490603Y-125179174D01*
X160490604Y-125179175D01*
X160490606Y-125179179D01*
X160503102Y-125197880D01*
X160551602Y-125270465D01*
X160572480Y-125337142D01*
X160572500Y-125339356D01*
X160572500Y-126660642D01*
X160552815Y-126727681D01*
X160551602Y-126729533D01*
X160490609Y-126820814D01*
X160490602Y-126820827D01*
X160430264Y-126966498D01*
X160430261Y-126966510D01*
X160399500Y-127121153D01*
X160399500Y-127278846D01*
X160430261Y-127433489D01*
X160430264Y-127433501D01*
X160490602Y-127579172D01*
X160490609Y-127579185D01*
X160578210Y-127710288D01*
X160578213Y-127710292D01*
X160689707Y-127821786D01*
X160689711Y-127821789D01*
X160820814Y-127909390D01*
X160820827Y-127909397D01*
X160893156Y-127939356D01*
X160966503Y-127969737D01*
X161121153Y-128000499D01*
X161121156Y-128000500D01*
X161121158Y-128000500D01*
X161278844Y-128000500D01*
X161278845Y-128000499D01*
X161433497Y-127969737D01*
X161579179Y-127909394D01*
X161710289Y-127821789D01*
X161821789Y-127710289D01*
X161909394Y-127579179D01*
X161969737Y-127433497D01*
X161978383Y-127390033D01*
X162010768Y-127328122D01*
X162071483Y-127293548D01*
X162141253Y-127297287D01*
X162197925Y-127338154D01*
X162221617Y-127390033D01*
X162230261Y-127433489D01*
X162230264Y-127433501D01*
X162290602Y-127579172D01*
X162290609Y-127579185D01*
X162378210Y-127710288D01*
X162378213Y-127710292D01*
X162489707Y-127821786D01*
X162489711Y-127821789D01*
X162620814Y-127909390D01*
X162620827Y-127909397D01*
X162693156Y-127939356D01*
X162766503Y-127969737D01*
X162921153Y-128000499D01*
X162921156Y-128000500D01*
X162921158Y-128000500D01*
X163078844Y-128000500D01*
X163078845Y-128000499D01*
X163233497Y-127969737D01*
X163379179Y-127909394D01*
X163510289Y-127821789D01*
X163621789Y-127710289D01*
X163696898Y-127597881D01*
X163750510Y-127553076D01*
X163819835Y-127544369D01*
X163882863Y-127574523D01*
X163903102Y-127597881D01*
X163978210Y-127710288D01*
X163978213Y-127710292D01*
X164089707Y-127821786D01*
X164089711Y-127821789D01*
X164220814Y-127909390D01*
X164220827Y-127909397D01*
X164293156Y-127939356D01*
X164366503Y-127969737D01*
X164521153Y-128000499D01*
X164521156Y-128000500D01*
X164521158Y-128000500D01*
X164678844Y-128000500D01*
X164678845Y-128000499D01*
X164833497Y-127969737D01*
X164979179Y-127909394D01*
X165110289Y-127821789D01*
X165221789Y-127710289D01*
X165309394Y-127579179D01*
X165369737Y-127433497D01*
X165400500Y-127278842D01*
X165400500Y-127121158D01*
X165400500Y-127121155D01*
X165400499Y-127121153D01*
X165396831Y-127102712D01*
X165369737Y-126966503D01*
X165337929Y-126889711D01*
X165309397Y-126820827D01*
X165309390Y-126820814D01*
X165248398Y-126729533D01*
X165227520Y-126662855D01*
X165227500Y-126660642D01*
X165227500Y-125339356D01*
X165247185Y-125272317D01*
X165248398Y-125270465D01*
X165251498Y-125265826D01*
X165309394Y-125179179D01*
X165369737Y-125033497D01*
X165400500Y-124878842D01*
X165400500Y-124721158D01*
X165400500Y-124721155D01*
X165400499Y-124721153D01*
X165395116Y-124694091D01*
X165369737Y-124566503D01*
X165366026Y-124557544D01*
X165309397Y-124420827D01*
X165309390Y-124420814D01*
X165221789Y-124289711D01*
X165221786Y-124289707D01*
X165110292Y-124178213D01*
X165110288Y-124178210D01*
X165071294Y-124152155D01*
X225100000Y-124152155D01*
X225100000Y-124950000D01*
X226166988Y-124950000D01*
X226134075Y-125007007D01*
X226100000Y-125134174D01*
X226100000Y-125265826D01*
X226134075Y-125392993D01*
X226166988Y-125450000D01*
X225100000Y-125450000D01*
X225100000Y-126247844D01*
X225106401Y-126307372D01*
X225106403Y-126307379D01*
X225156645Y-126442086D01*
X225156649Y-126442093D01*
X225242809Y-126557187D01*
X225242812Y-126557190D01*
X225357906Y-126643350D01*
X225357913Y-126643354D01*
X225492620Y-126693596D01*
X225492627Y-126693598D01*
X225552155Y-126699999D01*
X225552172Y-126700000D01*
X226350000Y-126700000D01*
X226350000Y-125633012D01*
X226407007Y-125665925D01*
X226534174Y-125700000D01*
X226665826Y-125700000D01*
X226792993Y-125665925D01*
X226850000Y-125633012D01*
X226850000Y-126700000D01*
X227647828Y-126700000D01*
X227647844Y-126699999D01*
X227707372Y-126693598D01*
X227707379Y-126693596D01*
X227842086Y-126643354D01*
X227842093Y-126643350D01*
X227957187Y-126557190D01*
X227957190Y-126557187D01*
X228043350Y-126442093D01*
X228043354Y-126442086D01*
X228093596Y-126307379D01*
X228093598Y-126307372D01*
X228099999Y-126247844D01*
X228100000Y-126247827D01*
X228100000Y-125450000D01*
X227033012Y-125450000D01*
X227065925Y-125392993D01*
X227100000Y-125265826D01*
X227100000Y-125134174D01*
X227065925Y-125007007D01*
X227033012Y-124950000D01*
X228100000Y-124950000D01*
X228100000Y-124152172D01*
X228099999Y-124152155D01*
X228093598Y-124092627D01*
X228093596Y-124092620D01*
X228043354Y-123957913D01*
X228043350Y-123957906D01*
X227957190Y-123842812D01*
X227957187Y-123842809D01*
X227842093Y-123756649D01*
X227842086Y-123756645D01*
X227707379Y-123706403D01*
X227707372Y-123706401D01*
X227647844Y-123700000D01*
X226850000Y-123700000D01*
X226850000Y-124766988D01*
X226792993Y-124734075D01*
X226665826Y-124700000D01*
X226534174Y-124700000D01*
X226407007Y-124734075D01*
X226350000Y-124766988D01*
X226350000Y-123700000D01*
X225552155Y-123700000D01*
X225492627Y-123706401D01*
X225492620Y-123706403D01*
X225357913Y-123756645D01*
X225357906Y-123756649D01*
X225242812Y-123842809D01*
X225242809Y-123842812D01*
X225156649Y-123957906D01*
X225156645Y-123957913D01*
X225106403Y-124092620D01*
X225106401Y-124092627D01*
X225100000Y-124152155D01*
X165071294Y-124152155D01*
X164979185Y-124090609D01*
X164979172Y-124090602D01*
X164833501Y-124030264D01*
X164833489Y-124030261D01*
X164678845Y-123999500D01*
X164678842Y-123999500D01*
X164521158Y-123999500D01*
X164521155Y-123999500D01*
X164366510Y-124030261D01*
X164366498Y-124030264D01*
X164220827Y-124090602D01*
X164220814Y-124090609D01*
X164089711Y-124178210D01*
X164089707Y-124178213D01*
X163978213Y-124289707D01*
X163978210Y-124289711D01*
X163903102Y-124402118D01*
X163849490Y-124446923D01*
X163780165Y-124455630D01*
X163717137Y-124425475D01*
X163696898Y-124402118D01*
X163621789Y-124289711D01*
X163621786Y-124289707D01*
X163510292Y-124178213D01*
X163510288Y-124178210D01*
X163379185Y-124090609D01*
X163379172Y-124090602D01*
X163233501Y-124030264D01*
X163233489Y-124030261D01*
X163078845Y-123999500D01*
X163078842Y-123999500D01*
X162921158Y-123999500D01*
X162921155Y-123999500D01*
X162766510Y-124030261D01*
X162766498Y-124030264D01*
X162620827Y-124090602D01*
X162620814Y-124090609D01*
X162489711Y-124178210D01*
X162489707Y-124178213D01*
X162378213Y-124289707D01*
X162378210Y-124289711D01*
X162290609Y-124420814D01*
X162290602Y-124420827D01*
X162230264Y-124566498D01*
X162230261Y-124566508D01*
X162221617Y-124609967D01*
X162189232Y-124671878D01*
X162128516Y-124706452D01*
X162058747Y-124702712D01*
X162002075Y-124661845D01*
X161978383Y-124609967D01*
X161969738Y-124566508D01*
X161969737Y-124566507D01*
X161969737Y-124566503D01*
X161966026Y-124557544D01*
X161909397Y-124420827D01*
X161909390Y-124420814D01*
X161821789Y-124289711D01*
X161821786Y-124289707D01*
X161710292Y-124178213D01*
X161710288Y-124178210D01*
X161579185Y-124090609D01*
X161579172Y-124090602D01*
X161433501Y-124030264D01*
X161433489Y-124030261D01*
X161278845Y-123999500D01*
X161278842Y-123999500D01*
X161121158Y-123999500D01*
X161121155Y-123999500D01*
X160966510Y-124030261D01*
X160966498Y-124030264D01*
X160820827Y-124090602D01*
X160820814Y-124090609D01*
X160689711Y-124178210D01*
X160689707Y-124178213D01*
X160578213Y-124289707D01*
X160578210Y-124289711D01*
X160490609Y-124420814D01*
X160490602Y-124420827D01*
X160430264Y-124566498D01*
X160430261Y-124566510D01*
X160399500Y-124721153D01*
X108462500Y-124721153D01*
X108462500Y-124237872D01*
X108462499Y-124237855D01*
X108456098Y-124178327D01*
X108456096Y-124178320D01*
X108405854Y-124043613D01*
X108405850Y-124043606D01*
X108319690Y-123928512D01*
X108319687Y-123928509D01*
X108204593Y-123842349D01*
X108204586Y-123842345D01*
X108069879Y-123792103D01*
X108069872Y-123792101D01*
X108010344Y-123785700D01*
X107212500Y-123785700D01*
X107212500Y-124852688D01*
X107155493Y-124819775D01*
X107028326Y-124785700D01*
X106896674Y-124785700D01*
X106769507Y-124819775D01*
X106712500Y-124852688D01*
X106712500Y-123785700D01*
X105914655Y-123785700D01*
X105855127Y-123792101D01*
X105855120Y-123792103D01*
X105720413Y-123842345D01*
X105720406Y-123842349D01*
X105605312Y-123928509D01*
X105605309Y-123928512D01*
X105519149Y-124043606D01*
X105519145Y-124043613D01*
X105468903Y-124178320D01*
X105468901Y-124178327D01*
X105462500Y-124237855D01*
X104000500Y-124237855D01*
X104000500Y-120752135D01*
X129099500Y-120752135D01*
X129099500Y-122847870D01*
X129099501Y-122847876D01*
X129105908Y-122907483D01*
X129156202Y-123042328D01*
X129156206Y-123042335D01*
X129242452Y-123157544D01*
X129242455Y-123157547D01*
X129357664Y-123243793D01*
X129357671Y-123243797D01*
X129492517Y-123294091D01*
X129492516Y-123294091D01*
X129499444Y-123294835D01*
X129552127Y-123300500D01*
X131647872Y-123300499D01*
X131707483Y-123294091D01*
X131842331Y-123243796D01*
X131957546Y-123157546D01*
X132043796Y-123042331D01*
X132094091Y-122907483D01*
X132100500Y-122847873D01*
X132100499Y-122152135D01*
X155299500Y-122152135D01*
X155299500Y-124247870D01*
X155299501Y-124247876D01*
X155305908Y-124307483D01*
X155356202Y-124442328D01*
X155356206Y-124442335D01*
X155442452Y-124557544D01*
X155442455Y-124557547D01*
X155557664Y-124643793D01*
X155557671Y-124643797D01*
X155692517Y-124694091D01*
X155692516Y-124694091D01*
X155699444Y-124694835D01*
X155752127Y-124700500D01*
X157847872Y-124700499D01*
X157907483Y-124694091D01*
X158042331Y-124643796D01*
X158079730Y-124615798D01*
X158079732Y-124615798D01*
X158114669Y-124589643D01*
X158157546Y-124557546D01*
X158243796Y-124442331D01*
X158294091Y-124307483D01*
X158300500Y-124247873D01*
X158300499Y-122152128D01*
X158294091Y-122092517D01*
X158243796Y-121957669D01*
X158243795Y-121957668D01*
X158243793Y-121957664D01*
X158157547Y-121842455D01*
X158157544Y-121842452D01*
X158042335Y-121756206D01*
X158042328Y-121756202D01*
X157907482Y-121705908D01*
X157907483Y-121705908D01*
X157847883Y-121699501D01*
X157847881Y-121699500D01*
X157847873Y-121699500D01*
X157847864Y-121699500D01*
X155752129Y-121699500D01*
X155752123Y-121699501D01*
X155692516Y-121705908D01*
X155557671Y-121756202D01*
X155557664Y-121756206D01*
X155442455Y-121842452D01*
X155442452Y-121842455D01*
X155356206Y-121957664D01*
X155356202Y-121957671D01*
X155305908Y-122092517D01*
X155299857Y-122148806D01*
X155299501Y-122152123D01*
X155299500Y-122152135D01*
X132100499Y-122152135D01*
X132100499Y-121756206D01*
X132100499Y-120752129D01*
X132100498Y-120752123D01*
X132100497Y-120752116D01*
X132094091Y-120692517D01*
X132043796Y-120557669D01*
X132043795Y-120557668D01*
X132043793Y-120557664D01*
X131957547Y-120442455D01*
X131957544Y-120442452D01*
X131842335Y-120356206D01*
X131842328Y-120356202D01*
X131707482Y-120305908D01*
X131707483Y-120305908D01*
X131647883Y-120299501D01*
X131647881Y-120299500D01*
X131647873Y-120299500D01*
X131647864Y-120299500D01*
X129552129Y-120299500D01*
X129552123Y-120299501D01*
X129492516Y-120305908D01*
X129357671Y-120356202D01*
X129357664Y-120356206D01*
X129242455Y-120442452D01*
X129242452Y-120442455D01*
X129156206Y-120557664D01*
X129156202Y-120557671D01*
X129105908Y-120692517D01*
X129099501Y-120752116D01*
X129099501Y-120752123D01*
X129099500Y-120752135D01*
X104000500Y-120752135D01*
X104000500Y-107152135D01*
X105699500Y-107152135D01*
X105699500Y-109247870D01*
X105699501Y-109247876D01*
X105705908Y-109307483D01*
X105756202Y-109442328D01*
X105756206Y-109442335D01*
X105842452Y-109557544D01*
X105842455Y-109557547D01*
X105957664Y-109643793D01*
X105957671Y-109643797D01*
X106092517Y-109694091D01*
X106092516Y-109694091D01*
X106099444Y-109694835D01*
X106152127Y-109700500D01*
X108247872Y-109700499D01*
X108307483Y-109694091D01*
X108442331Y-109643796D01*
X108557546Y-109557546D01*
X108643796Y-109442331D01*
X108694091Y-109307483D01*
X108700500Y-109247873D01*
X108700499Y-107152128D01*
X108694091Y-107092517D01*
X108676368Y-107045000D01*
X108643797Y-106957671D01*
X108643793Y-106957664D01*
X108557547Y-106842455D01*
X108557544Y-106842452D01*
X108442335Y-106756206D01*
X108442328Y-106756202D01*
X108307482Y-106705908D01*
X108307483Y-106705908D01*
X108247883Y-106699501D01*
X108247881Y-106699500D01*
X108247873Y-106699500D01*
X108247864Y-106699500D01*
X106152129Y-106699500D01*
X106152123Y-106699501D01*
X106092516Y-106705908D01*
X105957671Y-106756202D01*
X105957664Y-106756206D01*
X105842455Y-106842452D01*
X105842452Y-106842455D01*
X105756206Y-106957664D01*
X105756202Y-106957671D01*
X105705908Y-107092517D01*
X105699501Y-107152116D01*
X105699501Y-107152123D01*
X105699500Y-107152135D01*
X104000500Y-107152135D01*
X104000500Y-105571746D01*
X144424500Y-105571746D01*
X144424500Y-105788253D01*
X144458370Y-106002098D01*
X144525272Y-106208006D01*
X144525273Y-106208009D01*
X144618338Y-106390656D01*
X144623567Y-106400919D01*
X144750828Y-106576078D01*
X144750830Y-106576080D01*
X144755181Y-106580431D01*
X144788666Y-106641754D01*
X144791500Y-106668112D01*
X144791500Y-107899333D01*
X144830254Y-108094160D01*
X144830256Y-108094168D01*
X144906277Y-108277701D01*
X144906282Y-108277710D01*
X145016646Y-108442880D01*
X145016649Y-108442884D01*
X147463515Y-110889750D01*
X147463519Y-110889753D01*
X147628689Y-111000117D01*
X147628695Y-111000120D01*
X147628696Y-111000121D01*
X147812231Y-111076144D01*
X147999867Y-111113467D01*
X148007066Y-111114899D01*
X148007070Y-111114900D01*
X148007071Y-111114900D01*
X149633866Y-111114900D01*
X149633867Y-111114899D01*
X149828705Y-111076144D01*
X150012240Y-111000121D01*
X150131109Y-110920694D01*
X150197786Y-110899817D01*
X150265166Y-110918301D01*
X150268887Y-110920692D01*
X150387760Y-111000121D01*
X150571295Y-111076144D01*
X150758931Y-111113467D01*
X150766130Y-111114899D01*
X150766134Y-111114900D01*
X150766135Y-111114900D01*
X153792930Y-111114900D01*
X153792931Y-111114899D01*
X153987769Y-111076144D01*
X154132080Y-111016367D01*
X154201548Y-111008899D01*
X154226980Y-111016366D01*
X154371295Y-111076144D01*
X154558931Y-111113467D01*
X154566130Y-111114899D01*
X154566134Y-111114900D01*
X154566135Y-111114900D01*
X157033866Y-111114900D01*
X157033867Y-111114899D01*
X157228705Y-111076144D01*
X157412240Y-111000121D01*
X157577417Y-110889753D01*
X157717889Y-110749281D01*
X157975423Y-110491746D01*
X161924500Y-110491746D01*
X161924500Y-110708253D01*
X161958370Y-110922098D01*
X162025272Y-111128006D01*
X162025273Y-111128009D01*
X162123567Y-111320919D01*
X162250828Y-111496078D01*
X162403922Y-111649172D01*
X162579081Y-111776433D01*
X162584457Y-111779172D01*
X162771990Y-111874726D01*
X162771993Y-111874727D01*
X162869573Y-111906432D01*
X162977903Y-111941630D01*
X163191746Y-111975500D01*
X163191747Y-111975500D01*
X163408253Y-111975500D01*
X163408254Y-111975500D01*
X163622097Y-111941630D01*
X163828009Y-111874726D01*
X164020919Y-111776433D01*
X164196078Y-111649172D01*
X164349172Y-111496078D01*
X164476433Y-111320919D01*
X164547696Y-111181057D01*
X164595671Y-111130262D01*
X164663492Y-111113467D01*
X164729627Y-111136005D01*
X164773078Y-111190720D01*
X164776112Y-111199035D01*
X164795272Y-111258006D01*
X164795273Y-111258009D01*
X164827328Y-111320919D01*
X164893567Y-111450919D01*
X165020828Y-111626078D01*
X165173922Y-111779172D01*
X165349081Y-111906433D01*
X165418157Y-111941629D01*
X165541990Y-112004726D01*
X165541993Y-112004727D01*
X165644947Y-112038178D01*
X165747903Y-112071630D01*
X165961746Y-112105500D01*
X165961747Y-112105500D01*
X166178253Y-112105500D01*
X166178254Y-112105500D01*
X166392097Y-112071630D01*
X166598009Y-112004726D01*
X166790919Y-111906433D01*
X166966078Y-111779172D01*
X167119172Y-111626078D01*
X167246433Y-111450919D01*
X167344726Y-111258009D01*
X167411630Y-111052097D01*
X167445500Y-110838254D01*
X167445500Y-110621746D01*
X167411630Y-110407903D01*
X167369390Y-110277901D01*
X167344727Y-110201993D01*
X167344726Y-110201990D01*
X167278487Y-110071990D01*
X167246433Y-110009081D01*
X167119172Y-109833922D01*
X166966078Y-109680828D01*
X166790919Y-109553567D01*
X166785543Y-109550828D01*
X166598009Y-109455273D01*
X166598006Y-109455272D01*
X166392098Y-109388370D01*
X166285175Y-109371435D01*
X166178254Y-109354500D01*
X165961746Y-109354500D01*
X165890465Y-109365790D01*
X165747901Y-109388370D01*
X165541993Y-109455272D01*
X165541990Y-109455273D01*
X165349080Y-109553567D01*
X165249145Y-109626174D01*
X165173922Y-109680828D01*
X165173920Y-109680830D01*
X165173919Y-109680830D01*
X165020830Y-109833919D01*
X165020830Y-109833920D01*
X165020828Y-109833922D01*
X165010263Y-109848464D01*
X164893565Y-110009083D01*
X164822302Y-110148942D01*
X164774327Y-110199737D01*
X164706506Y-110216532D01*
X164640371Y-110193994D01*
X164596921Y-110139278D01*
X164593887Y-110130963D01*
X164574728Y-110071996D01*
X164574726Y-110071990D01*
X164491210Y-109908083D01*
X164476433Y-109879081D01*
X164349172Y-109703922D01*
X164196078Y-109550828D01*
X164020919Y-109423567D01*
X163828009Y-109325273D01*
X163828006Y-109325272D01*
X163622098Y-109258370D01*
X163515175Y-109241435D01*
X163408254Y-109224500D01*
X163191746Y-109224500D01*
X163120465Y-109235790D01*
X162977901Y-109258370D01*
X162771993Y-109325272D01*
X162771990Y-109325273D01*
X162579080Y-109423567D01*
X162535440Y-109455274D01*
X162403922Y-109550828D01*
X162403920Y-109550830D01*
X162403919Y-109550830D01*
X162250830Y-109703919D01*
X162250830Y-109703920D01*
X162250828Y-109703922D01*
X162196174Y-109779145D01*
X162123567Y-109879080D01*
X162025273Y-110071990D01*
X162025272Y-110071993D01*
X161958370Y-110277901D01*
X161924500Y-110491746D01*
X157975423Y-110491746D01*
X158129751Y-110337417D01*
X158191074Y-110303933D01*
X158217432Y-110301099D01*
X158473371Y-110301099D01*
X158473372Y-110301099D01*
X158532983Y-110294691D01*
X158667831Y-110244396D01*
X158783046Y-110158146D01*
X158869296Y-110042931D01*
X158919591Y-109908083D01*
X158926000Y-109848473D01*
X158926000Y-109721400D01*
X158945685Y-109654361D01*
X158998489Y-109608606D01*
X159014726Y-109605073D01*
X159022400Y-109597400D01*
X159022400Y-107152135D01*
X225699500Y-107152135D01*
X225699500Y-109247870D01*
X225699501Y-109247876D01*
X225705908Y-109307483D01*
X225756202Y-109442328D01*
X225756206Y-109442335D01*
X225842452Y-109557544D01*
X225842455Y-109557547D01*
X225957664Y-109643793D01*
X225957671Y-109643797D01*
X226092517Y-109694091D01*
X226092516Y-109694091D01*
X226099444Y-109694835D01*
X226152127Y-109700500D01*
X228247872Y-109700499D01*
X228307483Y-109694091D01*
X228442331Y-109643796D01*
X228557546Y-109557546D01*
X228643796Y-109442331D01*
X228694091Y-109307483D01*
X228700500Y-109247873D01*
X228700499Y-107152128D01*
X228694091Y-107092517D01*
X228676368Y-107045000D01*
X228643797Y-106957671D01*
X228643793Y-106957664D01*
X228557547Y-106842455D01*
X228557544Y-106842452D01*
X228442335Y-106756206D01*
X228442328Y-106756202D01*
X228307482Y-106705908D01*
X228307483Y-106705908D01*
X228247883Y-106699501D01*
X228247881Y-106699500D01*
X228247873Y-106699500D01*
X228247864Y-106699500D01*
X226152129Y-106699500D01*
X226152123Y-106699501D01*
X226092516Y-106705908D01*
X225957671Y-106756202D01*
X225957664Y-106756206D01*
X225842455Y-106842452D01*
X225842452Y-106842455D01*
X225756206Y-106957664D01*
X225756202Y-106957671D01*
X225705908Y-107092517D01*
X225699501Y-107152116D01*
X225699501Y-107152123D01*
X225699500Y-107152135D01*
X159022400Y-107152135D01*
X159022400Y-105491779D01*
X161925000Y-105491779D01*
X161925000Y-105708220D01*
X161958857Y-105921981D01*
X162025735Y-106127814D01*
X162025736Y-106127817D01*
X162123996Y-106320660D01*
X162166829Y-106379615D01*
X162166830Y-106379616D01*
X162817037Y-105729409D01*
X162834075Y-105792993D01*
X162899901Y-105907007D01*
X162992993Y-106000099D01*
X163107007Y-106065925D01*
X163170590Y-106082962D01*
X162520382Y-106733168D01*
X162579342Y-106776005D01*
X162772182Y-106874263D01*
X162772185Y-106874264D01*
X162978018Y-106941142D01*
X163191780Y-106975000D01*
X163408220Y-106975000D01*
X163621981Y-106941142D01*
X163827814Y-106874264D01*
X163827817Y-106874263D01*
X164020656Y-106776006D01*
X164079615Y-106733168D01*
X164079616Y-106733168D01*
X163429409Y-106082962D01*
X163492993Y-106065925D01*
X163607007Y-106000099D01*
X163700099Y-105907007D01*
X163765925Y-105792993D01*
X163782962Y-105729410D01*
X164433168Y-106379616D01*
X164433168Y-106379615D01*
X164476007Y-106320653D01*
X164541771Y-106191585D01*
X164589745Y-106140788D01*
X164657566Y-106123993D01*
X164723701Y-106146530D01*
X164761917Y-106194295D01*
X164763525Y-106193476D01*
X164863996Y-106390660D01*
X164906829Y-106449615D01*
X164906830Y-106449616D01*
X165557037Y-105799409D01*
X165574075Y-105862993D01*
X165639901Y-105977007D01*
X165732993Y-106070099D01*
X165847007Y-106135925D01*
X165910590Y-106152962D01*
X165260382Y-106803168D01*
X165319342Y-106846005D01*
X165512182Y-106944263D01*
X165512185Y-106944264D01*
X165718018Y-107011142D01*
X165931780Y-107045000D01*
X166148220Y-107045000D01*
X166266077Y-107026333D01*
X166361981Y-107011142D01*
X166567814Y-106944264D01*
X166567817Y-106944263D01*
X166760656Y-106846006D01*
X166819615Y-106803168D01*
X166819616Y-106803168D01*
X166169409Y-106152962D01*
X166232993Y-106135925D01*
X166347007Y-106070099D01*
X166440099Y-105977007D01*
X166505925Y-105862993D01*
X166522962Y-105799410D01*
X167173168Y-106449616D01*
X167173168Y-106449615D01*
X167216006Y-106390656D01*
X167314263Y-106197817D01*
X167314264Y-106197814D01*
X167381142Y-105991981D01*
X167415000Y-105778220D01*
X167415000Y-105561779D01*
X167381142Y-105348018D01*
X167314264Y-105142185D01*
X167314263Y-105142182D01*
X167216005Y-104949342D01*
X167173168Y-104890383D01*
X167173168Y-104890382D01*
X166522962Y-105540589D01*
X166505925Y-105477007D01*
X166440099Y-105362993D01*
X166347007Y-105269901D01*
X166232993Y-105204075D01*
X166169408Y-105187037D01*
X166819616Y-104536830D01*
X166819615Y-104536829D01*
X166760660Y-104493996D01*
X166567817Y-104395736D01*
X166567814Y-104395735D01*
X166361981Y-104328857D01*
X166148220Y-104295000D01*
X165931780Y-104295000D01*
X165718018Y-104328857D01*
X165512185Y-104395735D01*
X165512182Y-104395736D01*
X165319346Y-104493992D01*
X165260383Y-104536830D01*
X165910591Y-105187037D01*
X165847007Y-105204075D01*
X165732993Y-105269901D01*
X165639901Y-105362993D01*
X165574075Y-105477007D01*
X165557037Y-105540590D01*
X164906830Y-104890383D01*
X164863992Y-104949346D01*
X164798228Y-105078415D01*
X164750253Y-105129211D01*
X164682432Y-105146006D01*
X164616297Y-105123468D01*
X164578089Y-105075701D01*
X164576475Y-105076524D01*
X164476005Y-104879342D01*
X164433168Y-104820383D01*
X164433168Y-104820382D01*
X163782962Y-105470589D01*
X163765925Y-105407007D01*
X163700099Y-105292993D01*
X163607007Y-105199901D01*
X163492993Y-105134075D01*
X163429408Y-105117037D01*
X164050039Y-104496408D01*
X164079616Y-104466830D01*
X164079615Y-104466829D01*
X164020660Y-104423996D01*
X163827817Y-104325736D01*
X163827814Y-104325735D01*
X163621981Y-104258857D01*
X163408220Y-104225000D01*
X163191780Y-104225000D01*
X162978018Y-104258857D01*
X162772185Y-104325735D01*
X162772182Y-104325736D01*
X162579346Y-104423992D01*
X162520383Y-104466830D01*
X163170591Y-105117037D01*
X163107007Y-105134075D01*
X162992993Y-105199901D01*
X162899901Y-105292993D01*
X162834075Y-105407007D01*
X162817037Y-105470590D01*
X162166830Y-104820383D01*
X162123992Y-104879346D01*
X162025736Y-105072182D01*
X162025735Y-105072185D01*
X161958857Y-105278018D01*
X161925000Y-105491779D01*
X159022400Y-105491779D01*
X159022400Y-104111000D01*
X159010927Y-104099527D01*
X158982960Y-104091315D01*
X158937205Y-104038511D01*
X158925999Y-103987000D01*
X158925999Y-103859929D01*
X158925998Y-103859923D01*
X158925997Y-103859916D01*
X158919591Y-103800317D01*
X158869296Y-103665469D01*
X158869295Y-103665468D01*
X158869293Y-103665464D01*
X158777732Y-103543155D01*
X158780415Y-103541146D01*
X158754721Y-103494091D01*
X158759705Y-103424399D01*
X158770349Y-103402636D01*
X158784515Y-103379670D01*
X158824814Y-103314334D01*
X158879999Y-103147797D01*
X158890500Y-103045009D01*
X158890499Y-100491746D01*
X161924500Y-100491746D01*
X161924500Y-100708254D01*
X161940057Y-100806475D01*
X161958370Y-100922098D01*
X162025272Y-101128006D01*
X162025273Y-101128009D01*
X162113376Y-101300919D01*
X162123567Y-101320919D01*
X162250828Y-101496078D01*
X162403922Y-101649172D01*
X162579081Y-101776433D01*
X162673697Y-101824642D01*
X162771990Y-101874726D01*
X162771993Y-101874727D01*
X162874947Y-101908178D01*
X162977903Y-101941630D01*
X163191746Y-101975500D01*
X163191747Y-101975500D01*
X163408253Y-101975500D01*
X163408254Y-101975500D01*
X163622097Y-101941630D01*
X163828009Y-101874726D01*
X164020919Y-101776433D01*
X164196078Y-101649172D01*
X164349172Y-101496078D01*
X164476433Y-101320919D01*
X164574726Y-101128009D01*
X164580317Y-101110800D01*
X164619753Y-101053124D01*
X164684111Y-101025925D01*
X164752958Y-101037837D01*
X164804435Y-101085080D01*
X164812939Y-101103703D01*
X164813410Y-101103509D01*
X164815273Y-101108009D01*
X164891121Y-101256867D01*
X164913567Y-101300919D01*
X165040828Y-101476078D01*
X165193922Y-101629172D01*
X165369081Y-101756433D01*
X165463697Y-101804642D01*
X165561990Y-101854726D01*
X165561993Y-101854727D01*
X165664947Y-101888178D01*
X165767903Y-101921630D01*
X165981746Y-101955500D01*
X165981747Y-101955500D01*
X166198253Y-101955500D01*
X166198254Y-101955500D01*
X166412097Y-101921630D01*
X166618009Y-101854726D01*
X166810919Y-101756433D01*
X166904221Y-101688645D01*
X215425100Y-101688645D01*
X215425100Y-101911355D01*
X215429895Y-101941629D01*
X215459940Y-102131324D01*
X215459940Y-102131327D01*
X215528759Y-102343130D01*
X215572427Y-102428833D01*
X215629869Y-102541569D01*
X215760775Y-102721745D01*
X215918255Y-102879225D01*
X216098431Y-103010131D01*
X216166897Y-103045016D01*
X216296869Y-103111240D01*
X216508673Y-103180059D01*
X216508674Y-103180059D01*
X216508677Y-103180060D01*
X216728645Y-103214900D01*
X216728646Y-103214900D01*
X216951354Y-103214900D01*
X216951355Y-103214900D01*
X217171323Y-103180060D01*
X217171326Y-103180059D01*
X217171327Y-103180059D01*
X217383130Y-103111240D01*
X217383130Y-103111239D01*
X217383133Y-103111239D01*
X217581569Y-103010131D01*
X217761745Y-102879225D01*
X217919225Y-102721745D01*
X218050131Y-102541569D01*
X218151239Y-102343133D01*
X218192214Y-102217024D01*
X218220059Y-102131327D01*
X218220059Y-102131326D01*
X218220060Y-102131323D01*
X218254900Y-101911355D01*
X218254900Y-101688645D01*
X225585100Y-101688645D01*
X225585100Y-101911355D01*
X225589895Y-101941629D01*
X225619940Y-102131324D01*
X225619940Y-102131327D01*
X225688759Y-102343130D01*
X225732427Y-102428833D01*
X225789869Y-102541569D01*
X225920775Y-102721745D01*
X226078255Y-102879225D01*
X226258431Y-103010131D01*
X226326897Y-103045016D01*
X226456869Y-103111240D01*
X226668673Y-103180059D01*
X226668674Y-103180059D01*
X226668677Y-103180060D01*
X226888645Y-103214900D01*
X226888646Y-103214900D01*
X227111354Y-103214900D01*
X227111355Y-103214900D01*
X227331323Y-103180060D01*
X227331326Y-103180059D01*
X227331327Y-103180059D01*
X227543130Y-103111240D01*
X227543130Y-103111239D01*
X227543133Y-103111239D01*
X227741569Y-103010131D01*
X227921745Y-102879225D01*
X228079225Y-102721745D01*
X228210131Y-102541569D01*
X228311239Y-102343133D01*
X228352214Y-102217024D01*
X228380059Y-102131327D01*
X228380059Y-102131326D01*
X228380060Y-102131323D01*
X228414900Y-101911355D01*
X228414900Y-101688645D01*
X228380060Y-101468677D01*
X228380059Y-101468673D01*
X228380059Y-101468672D01*
X228311240Y-101256869D01*
X228253797Y-101144131D01*
X228210131Y-101058431D01*
X228079225Y-100878255D01*
X227921745Y-100720775D01*
X227741569Y-100589869D01*
X227711325Y-100574459D01*
X227543130Y-100488759D01*
X227331326Y-100419940D01*
X227166347Y-100393810D01*
X227111355Y-100385100D01*
X226888645Y-100385100D01*
X226815322Y-100396713D01*
X226668675Y-100419940D01*
X226668672Y-100419940D01*
X226456869Y-100488759D01*
X226258430Y-100589869D01*
X226155633Y-100664556D01*
X226078255Y-100720775D01*
X226078253Y-100720777D01*
X226078252Y-100720777D01*
X225920777Y-100878252D01*
X225920777Y-100878253D01*
X225920775Y-100878255D01*
X225903453Y-100902097D01*
X225789869Y-101058430D01*
X225688759Y-101256869D01*
X225619940Y-101468672D01*
X225619940Y-101468675D01*
X225606366Y-101554377D01*
X225585100Y-101688645D01*
X218254900Y-101688645D01*
X218220060Y-101468677D01*
X218220059Y-101468673D01*
X218220059Y-101468672D01*
X218151240Y-101256869D01*
X218093797Y-101144131D01*
X218050131Y-101058431D01*
X217919225Y-100878255D01*
X217761745Y-100720775D01*
X217581569Y-100589869D01*
X217551325Y-100574459D01*
X217383130Y-100488759D01*
X217171326Y-100419940D01*
X217006347Y-100393810D01*
X216951355Y-100385100D01*
X216728645Y-100385100D01*
X216655322Y-100396713D01*
X216508675Y-100419940D01*
X216508672Y-100419940D01*
X216296869Y-100488759D01*
X216098430Y-100589869D01*
X215995633Y-100664556D01*
X215918255Y-100720775D01*
X215918253Y-100720777D01*
X215918252Y-100720777D01*
X215760777Y-100878252D01*
X215760777Y-100878253D01*
X215760775Y-100878255D01*
X215743453Y-100902097D01*
X215629869Y-101058430D01*
X215528759Y-101256869D01*
X215459940Y-101468672D01*
X215459940Y-101468675D01*
X215446366Y-101554377D01*
X215425100Y-101688645D01*
X166904221Y-101688645D01*
X166986078Y-101629172D01*
X167139172Y-101476078D01*
X167266433Y-101300919D01*
X167364726Y-101108009D01*
X167431630Y-100902097D01*
X167465500Y-100688254D01*
X167465500Y-100471746D01*
X167431630Y-100257903D01*
X167394945Y-100144998D01*
X167364727Y-100051993D01*
X167364726Y-100051990D01*
X167314642Y-99953697D01*
X167266433Y-99859081D01*
X167139172Y-99683922D01*
X166986078Y-99530828D01*
X166810919Y-99403567D01*
X166618009Y-99305273D01*
X166618006Y-99305272D01*
X166412098Y-99238370D01*
X166305175Y-99221435D01*
X166198254Y-99204500D01*
X165981746Y-99204500D01*
X165910465Y-99215790D01*
X165767901Y-99238370D01*
X165561993Y-99305272D01*
X165561990Y-99305273D01*
X165369080Y-99403567D01*
X165312740Y-99444501D01*
X165193922Y-99530828D01*
X165193920Y-99530830D01*
X165193919Y-99530830D01*
X165040830Y-99683919D01*
X165040830Y-99683920D01*
X165040828Y-99683922D01*
X164986174Y-99759145D01*
X164913567Y-99859080D01*
X164815273Y-100051990D01*
X164815273Y-100051992D01*
X164809680Y-100069205D01*
X164770240Y-100126879D01*
X164705881Y-100154075D01*
X164637035Y-100142159D01*
X164585561Y-100094913D01*
X164577062Y-100076295D01*
X164576590Y-100076491D01*
X164574726Y-100071990D01*
X164476432Y-99879080D01*
X164473952Y-99875666D01*
X164349172Y-99703922D01*
X164196078Y-99550828D01*
X164020919Y-99423567D01*
X163981667Y-99403567D01*
X163828009Y-99325273D01*
X163828006Y-99325272D01*
X163622098Y-99258370D01*
X163495824Y-99238370D01*
X163408254Y-99224500D01*
X163191746Y-99224500D01*
X163120465Y-99235790D01*
X162977901Y-99258370D01*
X162771993Y-99325272D01*
X162771990Y-99325273D01*
X162579080Y-99423567D01*
X162479145Y-99496174D01*
X162403922Y-99550828D01*
X162403920Y-99550830D01*
X162403919Y-99550830D01*
X162250830Y-99703919D01*
X162250830Y-99703920D01*
X162250828Y-99703922D01*
X162196174Y-99779145D01*
X162123567Y-99879080D01*
X162025273Y-100071990D01*
X162025272Y-100071993D01*
X161958370Y-100277901D01*
X161958370Y-100277903D01*
X161924500Y-100491746D01*
X158890499Y-100491746D01*
X158890499Y-100144992D01*
X158879999Y-100042203D01*
X158824814Y-99875666D01*
X158732712Y-99726344D01*
X158608656Y-99602288D01*
X158515888Y-99545069D01*
X158459336Y-99510187D01*
X158459331Y-99510185D01*
X158457862Y-99509698D01*
X158292797Y-99455001D01*
X158292795Y-99455000D01*
X158190010Y-99444500D01*
X156889998Y-99444500D01*
X156889981Y-99444501D01*
X156787203Y-99455000D01*
X156787200Y-99455001D01*
X156620668Y-99510185D01*
X156620663Y-99510187D01*
X156471342Y-99602289D01*
X156347289Y-99726342D01*
X156255187Y-99875663D01*
X156255185Y-99875668D01*
X156254054Y-99879081D01*
X156200001Y-100042203D01*
X156200001Y-100042204D01*
X156200000Y-100042204D01*
X156189500Y-100144983D01*
X156189500Y-103045001D01*
X156189501Y-103045018D01*
X156200000Y-103147796D01*
X156200001Y-103147799D01*
X156248864Y-103295256D01*
X156255186Y-103314334D01*
X156342822Y-103456416D01*
X156347289Y-103463657D01*
X156348226Y-103464594D01*
X156348663Y-103465395D01*
X156351766Y-103469319D01*
X156351095Y-103469849D01*
X156381711Y-103525917D01*
X156376727Y-103595609D01*
X156359812Y-103626586D01*
X156330703Y-103665469D01*
X156330702Y-103665471D01*
X156280408Y-103800317D01*
X156274001Y-103859916D01*
X156274001Y-103859923D01*
X156274000Y-103859935D01*
X156274000Y-103987000D01*
X156254315Y-104054039D01*
X156201511Y-104099794D01*
X156185273Y-104103326D01*
X156177600Y-104111000D01*
X156177600Y-108973900D01*
X156157915Y-109040939D01*
X156105111Y-109086694D01*
X156053600Y-109097900D01*
X155546400Y-109097900D01*
X155479361Y-109078215D01*
X155433606Y-109025411D01*
X155422400Y-108973900D01*
X155422400Y-104111000D01*
X155410927Y-104099527D01*
X155382960Y-104091315D01*
X155337205Y-104038511D01*
X155325999Y-103987000D01*
X155325999Y-103859929D01*
X155325998Y-103859923D01*
X155325997Y-103859916D01*
X155319591Y-103800317D01*
X155269296Y-103665469D01*
X155269295Y-103665468D01*
X155269293Y-103665464D01*
X155216999Y-103595609D01*
X155183046Y-103550254D01*
X155122987Y-103505294D01*
X155081118Y-103449362D01*
X155076134Y-103379670D01*
X155109616Y-103318351D01*
X155132712Y-103295256D01*
X155224814Y-103145934D01*
X155279999Y-102979397D01*
X155290500Y-102876609D01*
X155290499Y-99976592D01*
X155279999Y-99873803D01*
X155224814Y-99707266D01*
X155132712Y-99557944D01*
X155008656Y-99433888D01*
X154859334Y-99341786D01*
X154692797Y-99286601D01*
X154692795Y-99286600D01*
X154590010Y-99276100D01*
X153289998Y-99276100D01*
X153289981Y-99276101D01*
X153187203Y-99286600D01*
X153187200Y-99286601D01*
X153020668Y-99341785D01*
X153020663Y-99341787D01*
X152871342Y-99433889D01*
X152747289Y-99557942D01*
X152655187Y-99707263D01*
X152655186Y-99707266D01*
X152600001Y-99873803D01*
X152600001Y-99873804D01*
X152600000Y-99873804D01*
X152589500Y-99976583D01*
X152589500Y-102876601D01*
X152589501Y-102876618D01*
X152600000Y-102979396D01*
X152600001Y-102979399D01*
X152655185Y-103145931D01*
X152655187Y-103145936D01*
X152747289Y-103295257D01*
X152821938Y-103369906D01*
X152855423Y-103431229D01*
X152850439Y-103500921D01*
X152821946Y-103545260D01*
X152816955Y-103550250D01*
X152730706Y-103665464D01*
X152730702Y-103665471D01*
X152680408Y-103800317D01*
X152674001Y-103859916D01*
X152674001Y-103859923D01*
X152674000Y-103859935D01*
X152674000Y-103987000D01*
X152654315Y-104054039D01*
X152601511Y-104099794D01*
X152585273Y-104103326D01*
X152577600Y-104111000D01*
X152577600Y-108973900D01*
X152557915Y-109040939D01*
X152505111Y-109086694D01*
X152453600Y-109097900D01*
X151746400Y-109097900D01*
X151679361Y-109078215D01*
X151633606Y-109025411D01*
X151622400Y-108973900D01*
X151622400Y-104111000D01*
X151610927Y-104099527D01*
X151582960Y-104091315D01*
X151537205Y-104038511D01*
X151525999Y-103987000D01*
X151525999Y-103859929D01*
X151525998Y-103859923D01*
X151525997Y-103859916D01*
X151519591Y-103800317D01*
X151469296Y-103665469D01*
X151469295Y-103665468D01*
X151469293Y-103665464D01*
X151402343Y-103576031D01*
X151377925Y-103510567D01*
X151392776Y-103442294D01*
X151413922Y-103414045D01*
X151532712Y-103295256D01*
X151624814Y-103145934D01*
X151679999Y-102979397D01*
X151690500Y-102876609D01*
X151690499Y-99976592D01*
X151679999Y-99873803D01*
X151624814Y-99707266D01*
X151532712Y-99557944D01*
X151408656Y-99433888D01*
X151259334Y-99341786D01*
X151092797Y-99286601D01*
X151092795Y-99286600D01*
X150990010Y-99276100D01*
X149689998Y-99276100D01*
X149689981Y-99276101D01*
X149587203Y-99286600D01*
X149587200Y-99286601D01*
X149420668Y-99341785D01*
X149420663Y-99341787D01*
X149271342Y-99433889D01*
X149147289Y-99557942D01*
X149055187Y-99707263D01*
X149055186Y-99707266D01*
X149000001Y-99873803D01*
X149000001Y-99873804D01*
X149000000Y-99873804D01*
X148989500Y-99976583D01*
X148989500Y-102876601D01*
X148989501Y-102876618D01*
X149000000Y-102979396D01*
X149000001Y-102979399D01*
X149055185Y-103145931D01*
X149055186Y-103145934D01*
X149129094Y-103265759D01*
X149151080Y-103301403D01*
X149149724Y-103302239D01*
X149172651Y-103359065D01*
X149159613Y-103427707D01*
X149123557Y-103470450D01*
X149016952Y-103550255D01*
X148930706Y-103665464D01*
X148930702Y-103665471D01*
X148880408Y-103800317D01*
X148874001Y-103859916D01*
X148874001Y-103859923D01*
X148874000Y-103859935D01*
X148874000Y-103987000D01*
X148854315Y-104054039D01*
X148801511Y-104099794D01*
X148785273Y-104103326D01*
X148777600Y-104111000D01*
X148777600Y-108973900D01*
X148775049Y-108982585D01*
X148776338Y-108991547D01*
X148765359Y-109015587D01*
X148757915Y-109040939D01*
X148751074Y-109046866D01*
X148747313Y-109055103D01*
X148725078Y-109069392D01*
X148705111Y-109086694D01*
X148694596Y-109088981D01*
X148688535Y-109092877D01*
X148653600Y-109097900D01*
X148575496Y-109097900D01*
X148508457Y-109078215D01*
X148487815Y-109061581D01*
X146844819Y-107418585D01*
X146811334Y-107357262D01*
X146808500Y-107330904D01*
X146808500Y-106668112D01*
X146828185Y-106601073D01*
X146844819Y-106580431D01*
X146849172Y-106576078D01*
X146976433Y-106400919D01*
X147074726Y-106208009D01*
X147141630Y-106002097D01*
X147175500Y-105788254D01*
X147175500Y-105571746D01*
X147141630Y-105357903D01*
X147090293Y-105199901D01*
X147074727Y-105151993D01*
X147074726Y-105151990D01*
X146976432Y-104959080D01*
X146969357Y-104949342D01*
X146849172Y-104783922D01*
X146696078Y-104630828D01*
X146520919Y-104503567D01*
X146502127Y-104493992D01*
X146328009Y-104405273D01*
X146328006Y-104405272D01*
X146122098Y-104338370D01*
X146015175Y-104321435D01*
X145908254Y-104304500D01*
X145691746Y-104304500D01*
X145620465Y-104315790D01*
X145477901Y-104338370D01*
X145271993Y-104405272D01*
X145271990Y-104405273D01*
X145079080Y-104503567D01*
X144979145Y-104576174D01*
X144903922Y-104630828D01*
X144903920Y-104630830D01*
X144903919Y-104630830D01*
X144750830Y-104783919D01*
X144750830Y-104783920D01*
X144750828Y-104783922D01*
X144704371Y-104847864D01*
X144623567Y-104959080D01*
X144525273Y-105151990D01*
X144525272Y-105151993D01*
X144458370Y-105357901D01*
X144424500Y-105571746D01*
X104000500Y-105571746D01*
X104000500Y-101774345D01*
X105629000Y-101774345D01*
X105629000Y-101997054D01*
X105663840Y-102217024D01*
X105663840Y-102217027D01*
X105732659Y-102428830D01*
X105798306Y-102557669D01*
X105833769Y-102627269D01*
X105964675Y-102807445D01*
X106122155Y-102964925D01*
X106302331Y-103095831D01*
X106467638Y-103180059D01*
X106500769Y-103196940D01*
X106712573Y-103265759D01*
X106712574Y-103265759D01*
X106712577Y-103265760D01*
X106932545Y-103300600D01*
X106932546Y-103300600D01*
X107155254Y-103300600D01*
X107155255Y-103300600D01*
X107375223Y-103265760D01*
X107375226Y-103265759D01*
X107375227Y-103265759D01*
X107587030Y-103196940D01*
X107587030Y-103196939D01*
X107587033Y-103196939D01*
X107785469Y-103095831D01*
X107965645Y-102964925D01*
X108123125Y-102807445D01*
X108254031Y-102627269D01*
X108355139Y-102428833D01*
X108382985Y-102343133D01*
X108423959Y-102217027D01*
X108423959Y-102217026D01*
X108423960Y-102217023D01*
X108458800Y-101997055D01*
X108458800Y-101774345D01*
X115789000Y-101774345D01*
X115789000Y-101997054D01*
X115823840Y-102217024D01*
X115823840Y-102217027D01*
X115892659Y-102428830D01*
X115958306Y-102557669D01*
X115993769Y-102627269D01*
X116124675Y-102807445D01*
X116282155Y-102964925D01*
X116462331Y-103095831D01*
X116627638Y-103180059D01*
X116660769Y-103196940D01*
X116872573Y-103265759D01*
X116872574Y-103265759D01*
X116872577Y-103265760D01*
X117092545Y-103300600D01*
X117092546Y-103300600D01*
X117315254Y-103300600D01*
X117315255Y-103300600D01*
X117535223Y-103265760D01*
X117535226Y-103265759D01*
X117535227Y-103265759D01*
X117747030Y-103196940D01*
X117747030Y-103196939D01*
X117747033Y-103196939D01*
X117945469Y-103095831D01*
X118125645Y-102964925D01*
X118283125Y-102807445D01*
X118323310Y-102752135D01*
X132699500Y-102752135D01*
X132699500Y-104847870D01*
X132699501Y-104847876D01*
X132705908Y-104907483D01*
X132756202Y-105042328D01*
X132756206Y-105042335D01*
X132842452Y-105157544D01*
X132842455Y-105157547D01*
X132957664Y-105243793D01*
X132957671Y-105243797D01*
X133092517Y-105294091D01*
X133092516Y-105294091D01*
X133099444Y-105294835D01*
X133152127Y-105300500D01*
X135247872Y-105300499D01*
X135307483Y-105294091D01*
X135442331Y-105243796D01*
X135557546Y-105157546D01*
X135643796Y-105042331D01*
X135694091Y-104907483D01*
X135700500Y-104847873D01*
X135700499Y-102752128D01*
X135694091Y-102692517D01*
X135669756Y-102627272D01*
X135643797Y-102557671D01*
X135643793Y-102557664D01*
X135557547Y-102442455D01*
X135557544Y-102442452D01*
X135442335Y-102356206D01*
X135442328Y-102356202D01*
X135307482Y-102305908D01*
X135307483Y-102305908D01*
X135247883Y-102299501D01*
X135247881Y-102299500D01*
X135247873Y-102299500D01*
X135247864Y-102299500D01*
X133152129Y-102299500D01*
X133152123Y-102299501D01*
X133092516Y-102305908D01*
X132957671Y-102356202D01*
X132957664Y-102356206D01*
X132842455Y-102442452D01*
X132842452Y-102442455D01*
X132756206Y-102557664D01*
X132756202Y-102557671D01*
X132705908Y-102692517D01*
X132702766Y-102721746D01*
X132699501Y-102752123D01*
X132699500Y-102752135D01*
X118323310Y-102752135D01*
X118414031Y-102627269D01*
X118515139Y-102428833D01*
X118542985Y-102343133D01*
X118583959Y-102217027D01*
X118583959Y-102217026D01*
X118583960Y-102217023D01*
X118618800Y-101997055D01*
X118618800Y-101774345D01*
X118583960Y-101554377D01*
X118583959Y-101554373D01*
X118583959Y-101554372D01*
X118515140Y-101342569D01*
X118414030Y-101144130D01*
X118283125Y-100963955D01*
X118125645Y-100806475D01*
X117945469Y-100675569D01*
X117777273Y-100589869D01*
X117747030Y-100574459D01*
X117535226Y-100505640D01*
X117447502Y-100491746D01*
X144424500Y-100491746D01*
X144424500Y-100708254D01*
X144440057Y-100806475D01*
X144458370Y-100922098D01*
X144525272Y-101128006D01*
X144525273Y-101128009D01*
X144613376Y-101300919D01*
X144623567Y-101320919D01*
X144750828Y-101496078D01*
X144903922Y-101649172D01*
X145079081Y-101776433D01*
X145173697Y-101824642D01*
X145271990Y-101874726D01*
X145271993Y-101874727D01*
X145374947Y-101908178D01*
X145477903Y-101941630D01*
X145691746Y-101975500D01*
X145691747Y-101975500D01*
X145908253Y-101975500D01*
X145908254Y-101975500D01*
X146122097Y-101941630D01*
X146328009Y-101874726D01*
X146520919Y-101776433D01*
X146696078Y-101649172D01*
X146849172Y-101496078D01*
X146976433Y-101320919D01*
X147074726Y-101128009D01*
X147141630Y-100922097D01*
X147175500Y-100708254D01*
X147175500Y-100491746D01*
X147141630Y-100277903D01*
X147076188Y-100076491D01*
X147074727Y-100071993D01*
X147074726Y-100071990D01*
X146976432Y-99879080D01*
X146973952Y-99875666D01*
X146849172Y-99703922D01*
X146844819Y-99699569D01*
X146811334Y-99638246D01*
X146808500Y-99611888D01*
X146808500Y-97869096D01*
X146828185Y-97802057D01*
X146844819Y-97781415D01*
X147486416Y-97139819D01*
X147547739Y-97106334D01*
X147574097Y-97103500D01*
X148865501Y-97103500D01*
X148932540Y-97123185D01*
X148978295Y-97175989D01*
X148989501Y-97227500D01*
X148989501Y-97376618D01*
X149000000Y-97479396D01*
X149000001Y-97479399D01*
X149055185Y-97645931D01*
X149055186Y-97645934D01*
X149147288Y-97795256D01*
X149271344Y-97919312D01*
X149420666Y-98011414D01*
X149587203Y-98066599D01*
X149689991Y-98077100D01*
X150990008Y-98077099D01*
X151092797Y-98066599D01*
X151259334Y-98011414D01*
X151408656Y-97919312D01*
X151532712Y-97795256D01*
X151624814Y-97645934D01*
X151679999Y-97479397D01*
X151690500Y-97376609D01*
X151690500Y-97227500D01*
X151710185Y-97160461D01*
X151762989Y-97114706D01*
X151814500Y-97103500D01*
X152465501Y-97103500D01*
X152532540Y-97123185D01*
X152578295Y-97175989D01*
X152589501Y-97227500D01*
X152589501Y-97376618D01*
X152600000Y-97479396D01*
X152600001Y-97479399D01*
X152655185Y-97645931D01*
X152655186Y-97645934D01*
X152747288Y-97795256D01*
X152871344Y-97919312D01*
X153020666Y-98011414D01*
X153187203Y-98066599D01*
X153289991Y-98077100D01*
X154590008Y-98077099D01*
X154692797Y-98066599D01*
X154859334Y-98011414D01*
X155008656Y-97919312D01*
X155132712Y-97795256D01*
X155224814Y-97645934D01*
X155279999Y-97479397D01*
X155290500Y-97376609D01*
X155290500Y-97227500D01*
X155310185Y-97160461D01*
X155362989Y-97114706D01*
X155414500Y-97103500D01*
X156065501Y-97103500D01*
X156132540Y-97123185D01*
X156178295Y-97175989D01*
X156189501Y-97227500D01*
X156189501Y-97545018D01*
X156200000Y-97647796D01*
X156200001Y-97647799D01*
X156244278Y-97781415D01*
X156255186Y-97814334D01*
X156347288Y-97963656D01*
X156471344Y-98087712D01*
X156620666Y-98179814D01*
X156787203Y-98234999D01*
X156889991Y-98245500D01*
X158190008Y-98245499D01*
X158292797Y-98234999D01*
X158459334Y-98179814D01*
X158608656Y-98087712D01*
X158732712Y-97963656D01*
X158824814Y-97814334D01*
X158879999Y-97647797D01*
X158890500Y-97545009D01*
X158890499Y-95491746D01*
X161924500Y-95491746D01*
X161924500Y-95708253D01*
X161958370Y-95922098D01*
X162025272Y-96128006D01*
X162025273Y-96128009D01*
X162072614Y-96220919D01*
X162123567Y-96320919D01*
X162250828Y-96496078D01*
X162403922Y-96649172D01*
X162579081Y-96776433D01*
X162673697Y-96824642D01*
X162771990Y-96874726D01*
X162771993Y-96874727D01*
X162874947Y-96908178D01*
X162977903Y-96941630D01*
X163191746Y-96975500D01*
X163191747Y-96975500D01*
X163408253Y-96975500D01*
X163408254Y-96975500D01*
X163622097Y-96941630D01*
X163828009Y-96874726D01*
X164020919Y-96776433D01*
X164196078Y-96649172D01*
X164349172Y-96496078D01*
X164476433Y-96320919D01*
X164574726Y-96128009D01*
X164587935Y-96087353D01*
X164627370Y-96029679D01*
X164691728Y-96002480D01*
X164760575Y-96014392D01*
X164812052Y-96061635D01*
X164816350Y-96069376D01*
X164893563Y-96220914D01*
X164893567Y-96220919D01*
X165020828Y-96396078D01*
X165173922Y-96549172D01*
X165349081Y-96676433D01*
X165443697Y-96724642D01*
X165541990Y-96774726D01*
X165541993Y-96774727D01*
X165644947Y-96808178D01*
X165747903Y-96841630D01*
X165961746Y-96875500D01*
X165961747Y-96875500D01*
X166178253Y-96875500D01*
X166178254Y-96875500D01*
X166392097Y-96841630D01*
X166598009Y-96774726D01*
X166790919Y-96676433D01*
X166966078Y-96549172D01*
X167119172Y-96396078D01*
X167246433Y-96220919D01*
X167344726Y-96028009D01*
X167411630Y-95822097D01*
X167445500Y-95608254D01*
X167445500Y-95391746D01*
X167411630Y-95177903D01*
X167366291Y-95038361D01*
X167344727Y-94971993D01*
X167344726Y-94971990D01*
X167246432Y-94779080D01*
X167119172Y-94603922D01*
X166966078Y-94450828D01*
X166790919Y-94323567D01*
X166598009Y-94225273D01*
X166598006Y-94225272D01*
X166392098Y-94158370D01*
X166285175Y-94141435D01*
X166178254Y-94124500D01*
X165961746Y-94124500D01*
X165890465Y-94135790D01*
X165747901Y-94158370D01*
X165541993Y-94225272D01*
X165541990Y-94225273D01*
X165349080Y-94323567D01*
X165279941Y-94373800D01*
X165173922Y-94450828D01*
X165173920Y-94450830D01*
X165173919Y-94450830D01*
X165020830Y-94603919D01*
X165020830Y-94603920D01*
X165020828Y-94603922D01*
X164966174Y-94679145D01*
X164893567Y-94779080D01*
X164795273Y-94971990D01*
X164795272Y-94971993D01*
X164782064Y-95012646D01*
X164742626Y-95070322D01*
X164678268Y-95097520D01*
X164609422Y-95085605D01*
X164557946Y-95038361D01*
X164553648Y-95030623D01*
X164476432Y-94879080D01*
X164349172Y-94703922D01*
X164196078Y-94550828D01*
X164020919Y-94423567D01*
X163828009Y-94325273D01*
X163828006Y-94325272D01*
X163622098Y-94258370D01*
X163515175Y-94241435D01*
X163408254Y-94224500D01*
X163191746Y-94224500D01*
X163180104Y-94226344D01*
X162977901Y-94258370D01*
X162771993Y-94325272D01*
X162771990Y-94325273D01*
X162579080Y-94423567D01*
X162506090Y-94476598D01*
X162403922Y-94550828D01*
X162403920Y-94550830D01*
X162403919Y-94550830D01*
X162250830Y-94703919D01*
X162250830Y-94703920D01*
X162250828Y-94703922D01*
X162196222Y-94779080D01*
X162123567Y-94879080D01*
X162025273Y-95071990D01*
X162025272Y-95071993D01*
X161958370Y-95277901D01*
X161924500Y-95491746D01*
X158890499Y-95491746D01*
X158890499Y-94644992D01*
X158886303Y-94603920D01*
X158879999Y-94542203D01*
X158879998Y-94542200D01*
X158824814Y-94375666D01*
X158732712Y-94226344D01*
X158608656Y-94102288D01*
X158459334Y-94010186D01*
X158292797Y-93955001D01*
X158292795Y-93955000D01*
X158190010Y-93944500D01*
X156889998Y-93944500D01*
X156889981Y-93944501D01*
X156787203Y-93955000D01*
X156787200Y-93955001D01*
X156620668Y-94010185D01*
X156620663Y-94010187D01*
X156471342Y-94102289D01*
X156347289Y-94226342D01*
X156255187Y-94375663D01*
X156255186Y-94375666D01*
X156200001Y-94542203D01*
X156200001Y-94542204D01*
X156200000Y-94542204D01*
X156189500Y-94644983D01*
X156189500Y-94962500D01*
X156169815Y-95029539D01*
X156117011Y-95075294D01*
X156065500Y-95086500D01*
X155414499Y-95086500D01*
X155347460Y-95066815D01*
X155301705Y-95014011D01*
X155290499Y-94962500D01*
X155290499Y-94476598D01*
X155290498Y-94476581D01*
X155279999Y-94373803D01*
X155279998Y-94373800D01*
X155241748Y-94258370D01*
X155224814Y-94207266D01*
X155132712Y-94057944D01*
X155008656Y-93933888D01*
X154859334Y-93841786D01*
X154692797Y-93786601D01*
X154692795Y-93786600D01*
X154590010Y-93776100D01*
X153289998Y-93776100D01*
X153289981Y-93776101D01*
X153187203Y-93786600D01*
X153187200Y-93786601D01*
X153020668Y-93841785D01*
X153020663Y-93841787D01*
X152871342Y-93933889D01*
X152747289Y-94057942D01*
X152655187Y-94207263D01*
X152655185Y-94207268D01*
X152648865Y-94226342D01*
X152600001Y-94373803D01*
X152600001Y-94373804D01*
X152600000Y-94373804D01*
X152589500Y-94476583D01*
X152589500Y-94962500D01*
X152569815Y-95029539D01*
X152517011Y-95075294D01*
X152465500Y-95086500D01*
X151814499Y-95086500D01*
X151747460Y-95066815D01*
X151701705Y-95014011D01*
X151690499Y-94962500D01*
X151690499Y-94476598D01*
X151690498Y-94476581D01*
X151679999Y-94373803D01*
X151679998Y-94373800D01*
X151641748Y-94258370D01*
X151624814Y-94207266D01*
X151532712Y-94057944D01*
X151408656Y-93933888D01*
X151259334Y-93841786D01*
X151092797Y-93786601D01*
X151092795Y-93786600D01*
X150990010Y-93776100D01*
X149689998Y-93776100D01*
X149689981Y-93776101D01*
X149587203Y-93786600D01*
X149587200Y-93786601D01*
X149420668Y-93841785D01*
X149420663Y-93841787D01*
X149271342Y-93933889D01*
X149147289Y-94057942D01*
X149055187Y-94207263D01*
X149055185Y-94207268D01*
X149048865Y-94226342D01*
X149000001Y-94373803D01*
X149000001Y-94373804D01*
X149000000Y-94373804D01*
X148989500Y-94476583D01*
X148989500Y-94962500D01*
X148969815Y-95029539D01*
X148917011Y-95075294D01*
X148865500Y-95086500D01*
X147005666Y-95086500D01*
X146810838Y-95125253D01*
X146810838Y-95125254D01*
X146810835Y-95125255D01*
X146810831Y-95125256D01*
X146734809Y-95156745D01*
X146734807Y-95156745D01*
X146627294Y-95201278D01*
X146462123Y-95311642D01*
X146462115Y-95311648D01*
X145277688Y-96496078D01*
X145157119Y-96616647D01*
X145097334Y-96676432D01*
X145016645Y-96757120D01*
X144906282Y-96922289D01*
X144906277Y-96922298D01*
X144830256Y-97105830D01*
X144830254Y-97105838D01*
X144791500Y-97300666D01*
X144791500Y-99611888D01*
X144771815Y-99678927D01*
X144755181Y-99699569D01*
X144750830Y-99703919D01*
X144750830Y-99703920D01*
X144750828Y-99703922D01*
X144696174Y-99779145D01*
X144623567Y-99879080D01*
X144525273Y-100071990D01*
X144525272Y-100071993D01*
X144458370Y-100277901D01*
X144458370Y-100277903D01*
X144424500Y-100491746D01*
X117447502Y-100491746D01*
X117370247Y-100479510D01*
X117315255Y-100470800D01*
X117092545Y-100470800D01*
X117019222Y-100482413D01*
X116872575Y-100505640D01*
X116872572Y-100505640D01*
X116660769Y-100574459D01*
X116462330Y-100675569D01*
X116359533Y-100750256D01*
X116282155Y-100806475D01*
X116282153Y-100806477D01*
X116282152Y-100806477D01*
X116124677Y-100963952D01*
X116124677Y-100963953D01*
X116124675Y-100963955D01*
X116079651Y-101025925D01*
X115993769Y-101144130D01*
X115892659Y-101342569D01*
X115823840Y-101554372D01*
X115823840Y-101554375D01*
X115789000Y-101774345D01*
X108458800Y-101774345D01*
X108423960Y-101554377D01*
X108423959Y-101554373D01*
X108423959Y-101554372D01*
X108355140Y-101342569D01*
X108254030Y-101144130D01*
X108123125Y-100963955D01*
X107965645Y-100806475D01*
X107785469Y-100675569D01*
X107587030Y-100574459D01*
X107375226Y-100505640D01*
X107210247Y-100479510D01*
X107155255Y-100470800D01*
X106932545Y-100470800D01*
X106859222Y-100482413D01*
X106712575Y-100505640D01*
X106712572Y-100505640D01*
X106500769Y-100574459D01*
X106302330Y-100675569D01*
X106199533Y-100750256D01*
X106122155Y-100806475D01*
X106122153Y-100806477D01*
X106122152Y-100806477D01*
X105964677Y-100963952D01*
X105964677Y-100963953D01*
X105964675Y-100963955D01*
X105919651Y-101025925D01*
X105833769Y-101144130D01*
X105732659Y-101342569D01*
X105663840Y-101554372D01*
X105663840Y-101554375D01*
X105629000Y-101774345D01*
X104000500Y-101774345D01*
X104000500Y-90337354D01*
X104020185Y-90270315D01*
X104072989Y-90224560D01*
X104124309Y-90213355D01*
X179173020Y-90100500D01*
X229875500Y-90100500D01*
X229942539Y-90120185D01*
G37*
%TD.AperFunction*%
%TD*%
M02*
