%TF.GenerationSoftware,KiCad,Pcbnew,9.0.5*%
%TF.CreationDate,2025-10-30T21:41:21-07:00*%
%TF.ProjectId,Flyback_CCM_Converter,466c7962-6163-46b5-9f43-434d5f436f6e,rev?*%
%TF.SameCoordinates,Original*%
%TF.FileFunction,Copper,L1,Top*%
%TF.FilePolarity,Positive*%
%FSLAX46Y46*%
G04 Gerber Fmt 4.6, Leading zero omitted, Abs format (unit mm)*
G04 Created by KiCad (PCBNEW 9.0.5) date 2025-10-30 21:41:21*
%MOMM*%
%LPD*%
G01*
G04 APERTURE LIST*
G04 Aperture macros list*
%AMRoundRect*
0 Rectangle with rounded corners*
0 $1 Rounding radius*
0 $2 $3 $4 $5 $6 $7 $8 $9 X,Y pos of 4 corners*
0 Add a 4 corners polygon primitive as box body*
4,1,4,$2,$3,$4,$5,$6,$7,$8,$9,$2,$3,0*
0 Add four circle primitives for the rounded corners*
1,1,$1+$1,$2,$3*
1,1,$1+$1,$4,$5*
1,1,$1+$1,$6,$7*
1,1,$1+$1,$8,$9*
0 Add four rect primitives between the rounded corners*
20,1,$1+$1,$2,$3,$4,$5,0*
20,1,$1+$1,$4,$5,$6,$7,0*
20,1,$1+$1,$6,$7,$8,$9,0*
20,1,$1+$1,$8,$9,$2,$3,0*%
G04 Aperture macros list end*
%TA.AperFunction,SMDPad,CuDef*%
%ADD10RoundRect,0.250000X0.650000X-0.412500X0.650000X0.412500X-0.650000X0.412500X-0.650000X-0.412500X0*%
%TD*%
%TA.AperFunction,SMDPad,CuDef*%
%ADD11RoundRect,0.250000X-0.475000X0.337500X-0.475000X-0.337500X0.475000X-0.337500X0.475000X0.337500X0*%
%TD*%
%TA.AperFunction,SMDPad,CuDef*%
%ADD12RoundRect,0.250000X0.412500X0.650000X-0.412500X0.650000X-0.412500X-0.650000X0.412500X-0.650000X0*%
%TD*%
%TA.AperFunction,ComponentPad*%
%ADD13R,2.000000X2.000000*%
%TD*%
%TA.AperFunction,SMDPad,CuDef*%
%ADD14RoundRect,0.250000X0.625000X-0.400000X0.625000X0.400000X-0.625000X0.400000X-0.625000X-0.400000X0*%
%TD*%
%TA.AperFunction,SMDPad,CuDef*%
%ADD15RoundRect,0.162500X0.447500X0.162500X-0.447500X0.162500X-0.447500X-0.162500X0.447500X-0.162500X0*%
%TD*%
%TA.AperFunction,SMDPad,CuDef*%
%ADD16RoundRect,0.250000X-0.412500X-0.650000X0.412500X-0.650000X0.412500X0.650000X-0.412500X0.650000X0*%
%TD*%
%TA.AperFunction,SMDPad,CuDef*%
%ADD17RoundRect,0.237500X-0.237500X0.250000X-0.237500X-0.250000X0.237500X-0.250000X0.237500X0.250000X0*%
%TD*%
%TA.AperFunction,SMDPad,CuDef*%
%ADD18RoundRect,0.237500X-0.237500X0.300000X-0.237500X-0.300000X0.237500X-0.300000X0.237500X0.300000X0*%
%TD*%
%TA.AperFunction,SMDPad,CuDef*%
%ADD19RoundRect,0.250000X0.400000X0.625000X-0.400000X0.625000X-0.400000X-0.625000X0.400000X-0.625000X0*%
%TD*%
%TA.AperFunction,SMDPad,CuDef*%
%ADD20RoundRect,0.237500X-0.250000X-0.237500X0.250000X-0.237500X0.250000X0.237500X-0.250000X0.237500X0*%
%TD*%
%TA.AperFunction,SMDPad,CuDef*%
%ADD21R,1.651000X2.184400*%
%TD*%
%TA.AperFunction,SMDPad,CuDef*%
%ADD22RoundRect,0.237500X0.250000X0.237500X-0.250000X0.237500X-0.250000X-0.237500X0.250000X-0.237500X0*%
%TD*%
%TA.AperFunction,SMDPad,CuDef*%
%ADD23R,1.981200X0.558800*%
%TD*%
%TA.AperFunction,SMDPad,CuDef*%
%ADD24R,1.200000X2.200000*%
%TD*%
%TA.AperFunction,SMDPad,CuDef*%
%ADD25R,5.800000X6.400000*%
%TD*%
%TA.AperFunction,SMDPad,CuDef*%
%ADD26RoundRect,0.250000X0.600000X-1.400000X0.600000X1.400000X-0.600000X1.400000X-0.600000X-1.400000X0*%
%TD*%
%TA.AperFunction,SMDPad,CuDef*%
%ADD27RoundRect,0.250000X-0.600000X1.400000X-0.600000X-1.400000X0.600000X-1.400000X0.600000X1.400000X0*%
%TD*%
%TA.AperFunction,SMDPad,CuDef*%
%ADD28RoundRect,0.250000X-0.625000X0.400000X-0.625000X-0.400000X0.625000X-0.400000X0.625000X0.400000X0*%
%TD*%
%TA.AperFunction,SMDPad,CuDef*%
%ADD29RoundRect,0.250000X-0.650000X0.412500X-0.650000X-0.412500X0.650000X-0.412500X0.650000X0.412500X0*%
%TD*%
%TA.AperFunction,SMDPad,CuDef*%
%ADD30RoundRect,0.162500X0.162500X-0.837500X0.162500X0.837500X-0.162500X0.837500X-0.162500X-0.837500X0*%
%TD*%
%TA.AperFunction,ComponentPad*%
%ADD31C,1.750000*%
%TD*%
%TA.AperFunction,ComponentPad*%
%ADD32C,1.828800*%
%TD*%
%TA.AperFunction,SMDPad,CuDef*%
%ADD33RoundRect,0.250000X0.350000X-0.850000X0.350000X0.850000X-0.350000X0.850000X-0.350000X-0.850000X0*%
%TD*%
%TA.AperFunction,SMDPad,CuDef*%
%ADD34RoundRect,0.249997X2.650003X-2.950003X2.650003X2.950003X-2.650003X2.950003X-2.650003X-2.950003X0*%
%TD*%
%TA.AperFunction,SMDPad,CuDef*%
%ADD35RoundRect,0.250000X-0.400000X-0.625000X0.400000X-0.625000X0.400000X0.625000X-0.400000X0.625000X0*%
%TD*%
%TA.AperFunction,SMDPad,CuDef*%
%ADD36RoundRect,0.250000X0.450000X-0.350000X0.450000X0.350000X-0.450000X0.350000X-0.450000X-0.350000X0*%
%TD*%
%TA.AperFunction,ViaPad*%
%ADD37C,0.600000*%
%TD*%
%TA.AperFunction,Conductor*%
%ADD38C,0.254000*%
%TD*%
%TA.AperFunction,Conductor*%
%ADD39C,1.016000*%
%TD*%
%TA.AperFunction,Conductor*%
%ADD40C,0.508000*%
%TD*%
%TA.AperFunction,Conductor*%
%ADD41C,2.540000*%
%TD*%
G04 APERTURE END LIST*
D10*
%TO.P,Ccomp_3,1*%
%TO.N,/COMP*%
X147800000Y-128600000D03*
%TO.P,Ccomp_3,2*%
%TO.N,/VFB*%
X147800000Y-125475000D03*
%TD*%
D11*
%TO.P,C_ss1,1*%
%TO.N,Net-(Q2-B)*%
X142400000Y-135600000D03*
%TO.P,C_ss1,2*%
%TO.N,GND*%
X142400000Y-137675000D03*
%TD*%
D10*
%TO.P,C_isense1,1*%
%TO.N,/ISENSE*%
X150200000Y-123762500D03*
%TO.P,C_isense1,2*%
%TO.N,GND*%
X150200000Y-120637500D03*
%TD*%
D12*
%TO.P,Ccomp_2,1*%
%TO.N,Net-(Ccomp_2-Pad1)*%
X154762500Y-126000000D03*
%TO.P,Ccomp_2,2*%
%TO.N,/VFB*%
X151637500Y-126000000D03*
%TD*%
D13*
%TO.P,TP9,1,1*%
%TO.N,/COMP*%
X151600000Y-133500000D03*
%TD*%
D12*
%TO.P,Cosc1,2*%
%TO.N,GND*%
X139675000Y-120800000D03*
%TO.P,Cosc1,1*%
%TO.N,/RT{slash}CT*%
X142800000Y-120800000D03*
%TD*%
D14*
%TO.P,Rosc1,2*%
%TO.N,Net-(U1-VREF)*%
X145000000Y-117850000D03*
%TO.P,Rosc1,1*%
%TO.N,/RT{slash}CT*%
X145000000Y-120950000D03*
%TD*%
D15*
%TO.P,Q2,1,B*%
%TO.N,Net-(Q2-B)*%
X147710000Y-135050000D03*
%TO.P,Q2,2,E*%
%TO.N,/COMP*%
X147710000Y-133150000D03*
%TO.P,Q2,3,C*%
%TO.N,GND*%
X145090000Y-134100000D03*
%TD*%
D16*
%TO.P,Ccomp_1,1*%
%TO.N,/COMP*%
X146475000Y-130675000D03*
%TO.P,Ccomp_1,2*%
%TO.N,Net-(Ccomp_1-Pad2)*%
X149600000Y-130675000D03*
%TD*%
D13*
%TO.P,TP6,1,1*%
%TO.N,Net-(U1-VREF)*%
X142637500Y-130400000D03*
%TD*%
D17*
%TO.P,Rcomp_2,1*%
%TO.N,/VFB*%
X149800000Y-125475000D03*
%TO.P,Rcomp_2,2*%
%TO.N,Net-(Ccomp_1-Pad2)*%
X149800000Y-127300000D03*
%TD*%
D18*
%TO.P,C14,1*%
%TO.N,Net-(U1-VREF)*%
X138000000Y-127037500D03*
%TO.P,C14,2*%
%TO.N,GND*%
X138000000Y-128762500D03*
%TD*%
D13*
%TO.P,TP7,1,1*%
%TO.N,/ISENSE*%
X156800000Y-123200000D03*
%TD*%
D19*
%TO.P,R_ss1,1*%
%TO.N,Net-(Q2-B)*%
X142337500Y-133400000D03*
%TO.P,R_ss1,2*%
%TO.N,Net-(U1-VREF)*%
X139237500Y-133400000D03*
%TD*%
D20*
%TO.P,Rcomp_1,1*%
%TO.N,/VFB*%
X156575000Y-127600000D03*
%TO.P,Rcomp_1,2*%
%TO.N,+5V*%
X158400000Y-127600000D03*
%TD*%
D18*
%TO.P,C17,1*%
%TO.N,VCC*%
X136500000Y-125337500D03*
%TO.P,C17,2*%
%TO.N,GND*%
X136500000Y-127062500D03*
%TD*%
D19*
%TO.P,R_isense2,1*%
%TO.N,Net-(CR1-Pad1)*%
X153100000Y-117100000D03*
%TO.P,R_isense2,2*%
%TO.N,/OUT*%
X150000000Y-117100000D03*
%TD*%
D21*
%TO.P,CR1,1*%
%TO.N,Net-(CR1-Pad1)*%
X153200000Y-119745800D03*
%TO.P,CR1,2*%
%TO.N,/ISENSE*%
X153200000Y-123454200D03*
%TD*%
D19*
%TO.P,Rb1,1*%
%TO.N,GND*%
X154800000Y-128400000D03*
%TO.P,Rb1,2*%
%TO.N,/VFB*%
X151700000Y-128400000D03*
%TD*%
D22*
%TO.P,Rcomp_3,1*%
%TO.N,+5V*%
X158312500Y-126000000D03*
%TO.P,Rcomp_3,2*%
%TO.N,Net-(Ccomp_2-Pad1)*%
X156487500Y-126000000D03*
%TD*%
D14*
%TO.P,R_isense1,1*%
%TO.N,/ISENSE*%
X147800000Y-123550000D03*
%TO.P,R_isense1,2*%
%TO.N,VCC*%
X147800000Y-120450000D03*
%TD*%
D23*
%TO.P,U1,1,COMP*%
%TO.N,/COMP*%
X145000000Y-126610000D03*
%TO.P,U1,2,VFB*%
%TO.N,/VFB*%
X145000000Y-125340000D03*
%TO.P,U1,3,ISENSE*%
%TO.N,/ISENSE*%
X145000000Y-124070000D03*
%TO.P,U1,4,RT/CT*%
%TO.N,/RT{slash}CT*%
X145000000Y-122800000D03*
%TO.P,U1,5,GROUND*%
%TO.N,GND*%
X140072400Y-122800000D03*
%TO.P,U1,6,OUTPUT*%
%TO.N,/OUT*%
X140072400Y-124070000D03*
%TO.P,U1,7,VCC*%
%TO.N,VCC*%
X140072400Y-125340000D03*
%TO.P,U1,8,VREF*%
%TO.N,Net-(U1-VREF)*%
X140072400Y-126610000D03*
%TD*%
D14*
%TO.P,Rg_1,2*%
%TO.N,/QG*%
X135600000Y-118250000D03*
%TO.P,Rg_1,1*%
%TO.N,Net-(Q3-E)*%
X135600000Y-121350000D03*
%TD*%
D24*
%TO.P,Q1,3,S*%
%TO.N,GND*%
X140380000Y-115200000D03*
D25*
%TO.P,Q1,2,D*%
%TO.N,Net-(Q1-D)*%
X138100000Y-108900000D03*
D24*
%TO.P,Q1,1,G*%
%TO.N,/QG*%
X135820000Y-115200000D03*
%TD*%
D26*
%TO.P,D5,2,A*%
%TO.N,/OUT*%
X127400000Y-124505000D03*
%TO.P,D5,1,K*%
%TO.N,VCC*%
X127400000Y-130005000D03*
%TD*%
D27*
%TO.P,D6,1,K*%
%TO.N,/OUT*%
X129700000Y-124550000D03*
%TO.P,D6,2,A*%
%TO.N,GND*%
X129700000Y-130050000D03*
%TD*%
D28*
%TO.P,Rpreload33,1*%
%TO.N,Net-(Rpreload33-Pad1)*%
X197100000Y-121350000D03*
%TO.P,Rpreload33,2*%
%TO.N,GND*%
X197100000Y-124450000D03*
%TD*%
D29*
%TO.P,Cout_9,1*%
%TO.N,+5V*%
X189800000Y-101737500D03*
%TO.P,Cout_9,2*%
%TO.N,GND*%
X189800000Y-104862500D03*
%TD*%
D28*
%TO.P,Rpreload16,1*%
%TO.N,Net-(Rpreload15-Pad2)*%
X208300000Y-106550000D03*
%TO.P,Rpreload16,2*%
%TO.N,Net-(Rpreload16-Pad2)*%
X208300000Y-109650000D03*
%TD*%
D30*
%TO.P,Q3,1,B*%
%TO.N,Net-(Q3-B)*%
X120550000Y-118810000D03*
%TO.P,Q3,2,E*%
%TO.N,Net-(Q3-E)*%
X122450000Y-118810000D03*
%TO.P,Q3,3,C*%
%TO.N,VCC*%
X121500000Y-115390000D03*
%TD*%
D28*
%TO.P,Rpreload9,1*%
%TO.N,Net-(Rpreload8-Pad2)*%
X200700000Y-121250000D03*
%TO.P,Rpreload9,2*%
%TO.N,GND*%
X200700000Y-124350000D03*
%TD*%
%TO.P,Rpreload14,1*%
%TO.N,Net-(Rpreload13-Pad2)*%
X204600000Y-121250000D03*
%TO.P,Rpreload14,2*%
%TO.N,GND*%
X204600000Y-124350000D03*
%TD*%
D31*
%TO.P,T1,1,AA*%
%TO.N,VCC*%
X145800000Y-100600000D03*
%TO.P,T1,2,AB*%
%TO.N,Net-(Q1-D)*%
X145800000Y-105680000D03*
%TO.P,T1,3,SA*%
%TO.N,GND*%
X163300000Y-105600000D03*
X166040000Y-105670000D03*
%TO.P,T1,4,SB*%
%TO.N,Net-(T1-SB)*%
X163300000Y-100600000D03*
X166090000Y-100580000D03*
%TO.P,T1,NC1*%
%TO.N,N/C*%
X163300000Y-110600000D03*
X166070000Y-110730000D03*
%TO.P,T1,NC2*%
X163300000Y-95600000D03*
X166070000Y-95500000D03*
%TD*%
D28*
%TO.P,Rpreload12,1*%
%TO.N,Net-(Rpreload11-Pad2)*%
X204600000Y-111450000D03*
%TO.P,Rpreload12,2*%
%TO.N,Net-(Rpreload12-Pad2)*%
X204600000Y-114550000D03*
%TD*%
%TO.P,Rpreload21,1*%
%TO.N,Net-(Rpreload20-Pad2)*%
X212400000Y-106550000D03*
%TO.P,Rpreload21,2*%
%TO.N,Net-(Rpreload21-Pad2)*%
X212400000Y-109650000D03*
%TD*%
D10*
%TO.P,Cout_5,1*%
%TO.N,+5V*%
X192200000Y-99862500D03*
%TO.P,Cout_5,2*%
%TO.N,GND*%
X192200000Y-96737500D03*
%TD*%
D13*
%TO.P,TP4,1,1*%
%TO.N,GND*%
X226600000Y-125200000D03*
%TD*%
D28*
%TO.P,Rpreload5,1*%
%TO.N,+5V*%
X200700000Y-101550000D03*
%TO.P,Rpreload5,2*%
%TO.N,Net-(Rpreload5-Pad2)*%
X200700000Y-104650000D03*
%TD*%
D29*
%TO.P,Cout_4,1*%
%TO.N,+5V*%
X185000000Y-101737500D03*
%TO.P,Cout_4,2*%
%TO.N,GND*%
X185000000Y-104862500D03*
%TD*%
D14*
%TO.P,Rg_2,1*%
%TO.N,Net-(Q3-E)*%
X133200000Y-121400000D03*
%TO.P,Rg_2,2*%
%TO.N,/QG*%
X133200000Y-118300000D03*
%TD*%
D12*
%TO.P,C_snub1,1*%
%TO.N,Net-(C_snub1-Pad1)*%
X127712500Y-108900000D03*
%TO.P,C_snub1,2*%
%TO.N,GND*%
X124587500Y-108900000D03*
%TD*%
D29*
%TO.P,Cout_8,1*%
%TO.N,+5V*%
X187400000Y-101737500D03*
%TO.P,Cout_8,2*%
%TO.N,GND*%
X187400000Y-104862500D03*
%TD*%
D28*
%TO.P,Rpreload6,1*%
%TO.N,Net-(Rpreload5-Pad2)*%
X200700000Y-106450000D03*
%TO.P,Rpreload6,2*%
%TO.N,Net-(Rpreload6-Pad2)*%
X200700000Y-109550000D03*
%TD*%
D30*
%TO.P,Q4,1,B*%
%TO.N,Net-(Q3-B)*%
X126150000Y-118810000D03*
%TO.P,Q4,2,E*%
%TO.N,Net-(Q3-E)*%
X128050000Y-118810000D03*
%TO.P,Q4,3,C*%
%TO.N,GND*%
X127100000Y-115390000D03*
%TD*%
D28*
%TO.P,Rpreload10,1*%
%TO.N,+5V*%
X204600000Y-101650000D03*
%TO.P,Rpreload10,2*%
%TO.N,Net-(Rpreload10-Pad2)*%
X204600000Y-104750000D03*
%TD*%
D32*
%TO.P,J4,1,1*%
%TO.N,GND*%
X226800000Y-131400000D03*
%TO.P,J4,2,2*%
X216640000Y-131400000D03*
%TD*%
D27*
%TO.P,D4,1,K*%
%TO.N,+5V*%
X180600000Y-102750000D03*
%TO.P,D4,2,A*%
%TO.N,Net-(D4-A)*%
X180600000Y-108250000D03*
%TD*%
D13*
%TO.P,TP8,1,1*%
%TO.N,Net-(Q1-D)*%
X132100000Y-111800000D03*
%TD*%
D10*
%TO.P,Cin_1,1*%
%TO.N,VCC*%
X137418750Y-96681250D03*
%TO.P,Cin_1,2*%
%TO.N,GND*%
X137418750Y-93556250D03*
%TD*%
D28*
%TO.P,Rpreload20,1*%
%TO.N,+5V*%
X212400000Y-101650000D03*
%TO.P,Rpreload20,2*%
%TO.N,Net-(Rpreload20-Pad2)*%
X212400000Y-104750000D03*
%TD*%
D29*
%TO.P,Cin_3,1*%
%TO.N,VCC*%
X139818750Y-98556250D03*
%TO.P,Cin_3,2*%
%TO.N,GND*%
X139818750Y-101681250D03*
%TD*%
%TO.P,Cout_10,1*%
%TO.N,+5V*%
X192200000Y-101737500D03*
%TO.P,Cout_10,2*%
%TO.N,GND*%
X192200000Y-104862500D03*
%TD*%
D28*
%TO.P,Rpreload24,1*%
%TO.N,Net-(Rpreload23-Pad2)*%
X212400000Y-121250000D03*
%TO.P,Rpreload24,2*%
%TO.N,GND*%
X212400000Y-124350000D03*
%TD*%
D29*
%TO.P,Cout_2,1*%
%TO.N,+5V*%
X194600000Y-101737500D03*
%TO.P,Cout_2,2*%
%TO.N,GND*%
X194600000Y-104862500D03*
%TD*%
D33*
%TO.P,R8,1,1*%
%TO.N,Net-(T1-SB)*%
X170395000Y-102475000D03*
D34*
%TO.P,R8,2,2*%
%TO.N,+5V*%
X172675000Y-96175000D03*
D33*
%TO.P,R8,3,3*%
%TO.N,Net-(T1-SB)*%
X174955000Y-102475000D03*
%TD*%
D10*
%TO.P,Cout_7,1*%
%TO.N,+5V*%
X187400000Y-99862500D03*
%TO.P,Cout_7,2*%
%TO.N,GND*%
X187400000Y-96737500D03*
%TD*%
D32*
%TO.P,+5V1,1,1*%
%TO.N,+5V*%
X227000000Y-101800000D03*
%TO.P,+5V1,2,2*%
X216840000Y-101800000D03*
%TD*%
D13*
%TO.P,TP1,1,1*%
%TO.N,VCC*%
X107200000Y-108200000D03*
%TD*%
D28*
%TO.P,Rpreload15,1*%
%TO.N,+5V*%
X208300000Y-101650000D03*
%TO.P,Rpreload15,2*%
%TO.N,Net-(Rpreload15-Pad2)*%
X208300000Y-104750000D03*
%TD*%
D32*
%TO.P,+12,1,1*%
%TO.N,VCC*%
X107043900Y-101885700D03*
%TO.P,+12,2,2*%
X117203900Y-101885700D03*
%TD*%
D28*
%TO.P,Rpreload1,1*%
%TO.N,+5V*%
X197100000Y-101650000D03*
%TO.P,Rpreload1,2*%
%TO.N,Net-(Rpreload1-Pad2)*%
X197100000Y-104750000D03*
%TD*%
D10*
%TO.P,Cout_1,1*%
%TO.N,+5V*%
X182400000Y-99825000D03*
%TO.P,Cout_1,2*%
%TO.N,GND*%
X182400000Y-96700000D03*
%TD*%
D28*
%TO.P,Rpreload23,1*%
%TO.N,Net-(Rpreload22-Pad2)*%
X212400000Y-116350000D03*
%TO.P,Rpreload23,2*%
%TO.N,Net-(Rpreload23-Pad2)*%
X212400000Y-119450000D03*
%TD*%
%TO.P,Rpreload13,1*%
%TO.N,Net-(Rpreload12-Pad2)*%
X204600000Y-116350000D03*
%TO.P,Rpreload13,2*%
%TO.N,Net-(Rpreload13-Pad2)*%
X204600000Y-119450000D03*
%TD*%
D10*
%TO.P,Cin_4,1*%
%TO.N,VCC*%
X139856250Y-96681250D03*
%TO.P,Cin_4,2*%
%TO.N,GND*%
X139856250Y-93556250D03*
%TD*%
%TO.P,Cout_6,1*%
%TO.N,+5V*%
X189800000Y-99862500D03*
%TO.P,Cout_6,2*%
%TO.N,GND*%
X189800000Y-96737500D03*
%TD*%
D28*
%TO.P,Rpreload19,1*%
%TO.N,Net-(Rpreload18-Pad2)*%
X208300000Y-121250000D03*
%TO.P,Rpreload19,2*%
%TO.N,GND*%
X208300000Y-124350000D03*
%TD*%
%TO.P,Rpreload22,1*%
%TO.N,Net-(Rpreload21-Pad2)*%
X212400000Y-111450000D03*
%TO.P,Rpreload22,2*%
%TO.N,Net-(Rpreload22-Pad2)*%
X212400000Y-114550000D03*
%TD*%
%TO.P,Rpreload8,1*%
%TO.N,Net-(Rpreload7-Pad2)*%
X200700000Y-116350000D03*
%TO.P,Rpreload8,2*%
%TO.N,Net-(Rpreload8-Pad2)*%
X200700000Y-119450000D03*
%TD*%
D35*
%TO.P,R_snub1,1*%
%TO.N,Net-(C_snub1-Pad1)*%
X129600000Y-108900000D03*
%TO.P,R_snub1,2*%
%TO.N,Net-(Q1-D)*%
X132700000Y-108900000D03*
%TD*%
D10*
%TO.P,Cout_3,1*%
%TO.N,+5V*%
X185000000Y-99862500D03*
%TO.P,Cout_3,2*%
%TO.N,GND*%
X185000000Y-96737500D03*
%TD*%
D13*
%TO.P,TP3,1,1*%
%TO.N,+5V*%
X227200000Y-108200000D03*
%TD*%
D28*
%TO.P,Rpreload4,1*%
%TO.N,Net-(Rpreload3-Pad2)*%
X197100000Y-116450000D03*
%TO.P,Rpreload4,2*%
%TO.N,Net-(Rpreload33-Pad1)*%
X197100000Y-119550000D03*
%TD*%
%TO.P,Rpreload11,1*%
%TO.N,Net-(Rpreload10-Pad2)*%
X204600000Y-106550000D03*
%TO.P,Rpreload11,2*%
%TO.N,Net-(Rpreload11-Pad2)*%
X204600000Y-109650000D03*
%TD*%
D36*
%TO.P,Rb2,1*%
%TO.N,/OUT*%
X123400000Y-124300000D03*
%TO.P,Rb2,2*%
%TO.N,Net-(Q3-B)*%
X123400000Y-122300000D03*
%TD*%
D32*
%TO.P,J3,1,1*%
%TO.N,GND*%
X106843900Y-131485700D03*
%TO.P,J3,2,2*%
X117003900Y-131485700D03*
%TD*%
D28*
%TO.P,Rpreload3,1*%
%TO.N,Net-(Rpreload2-Pad2)*%
X197100000Y-111550000D03*
%TO.P,Rpreload3,2*%
%TO.N,Net-(Rpreload3-Pad2)*%
X197100000Y-114650000D03*
%TD*%
%TO.P,Rpreload2,1*%
%TO.N,Net-(Rpreload1-Pad2)*%
X197100000Y-106600000D03*
%TO.P,Rpreload2,2*%
%TO.N,Net-(Rpreload2-Pad2)*%
X197100000Y-109700000D03*
%TD*%
D14*
%TO.P,R11,1*%
%TO.N,GND*%
X180600000Y-114250000D03*
%TO.P,R11,2*%
%TO.N,Net-(D4-A)*%
X180600000Y-111150000D03*
%TD*%
D13*
%TO.P,TP5,1,1*%
%TO.N,Net-(Q3-E)*%
X121000000Y-112400000D03*
%TD*%
D28*
%TO.P,Rpreload17,1*%
%TO.N,Net-(Rpreload16-Pad2)*%
X208300000Y-111450000D03*
%TO.P,Rpreload17,2*%
%TO.N,Net-(Rpreload17-Pad2)*%
X208300000Y-114550000D03*
%TD*%
%TO.P,Rpreload7,1*%
%TO.N,Net-(Rpreload6-Pad2)*%
X200700000Y-111350000D03*
%TO.P,Rpreload7,2*%
%TO.N,Net-(Rpreload7-Pad2)*%
X200700000Y-114450000D03*
%TD*%
%TO.P,Rpreload18,1*%
%TO.N,Net-(Rpreload17-Pad2)*%
X208300000Y-116350000D03*
%TO.P,Rpreload18,2*%
%TO.N,Net-(Rpreload18-Pad2)*%
X208300000Y-119450000D03*
%TD*%
D13*
%TO.P,TP2,1,1*%
%TO.N,GND*%
X106962500Y-125285700D03*
%TD*%
D10*
%TO.P,Cin_5,1*%
%TO.N,VCC*%
X142218750Y-96681250D03*
%TO.P,Cin_5,2*%
%TO.N,GND*%
X142218750Y-93556250D03*
%TD*%
D29*
%TO.P,Cin_2,1*%
%TO.N,VCC*%
X137418750Y-98518750D03*
%TO.P,Cin_2,2*%
%TO.N,GND*%
X137418750Y-101643750D03*
%TD*%
D37*
%TO.N,GND*%
X141800000Y-115900000D03*
X141800000Y-114100000D03*
X130200000Y-132600000D03*
X129200000Y-132600000D03*
X143800000Y-133000000D03*
%TO.N,Net-(U1-VREF)*%
X141600000Y-118700000D03*
X141200000Y-128100000D03*
%TO.N,GND*%
X155237500Y-130000000D03*
X154237500Y-130000000D03*
X138200000Y-120200000D03*
X143800000Y-134000000D03*
X136600000Y-128300000D03*
X140800000Y-137200000D03*
X150637500Y-119200000D03*
X149637500Y-119200000D03*
X138200000Y-122800000D03*
X138200000Y-121200000D03*
X140800000Y-138200000D03*
X136600000Y-129300000D03*
X142900000Y-114900000D03*
X126600000Y-113700000D03*
X206500000Y-123800000D03*
X194800000Y-124800000D03*
X142900000Y-114100000D03*
X206500000Y-124800000D03*
X182000000Y-95100000D03*
X184400000Y-106300000D03*
X140218750Y-91956250D03*
X187800000Y-95100000D03*
X135300000Y-126800000D03*
X190200000Y-95100000D03*
X190200000Y-106300000D03*
X180000000Y-115700000D03*
X191600000Y-106300000D03*
X186800000Y-106300000D03*
X191800000Y-95100000D03*
X136818750Y-103318750D03*
X198900000Y-123800000D03*
X137818750Y-91956250D03*
X136818750Y-91956250D03*
X198900000Y-124800000D03*
X183000000Y-95100000D03*
X186800000Y-95100000D03*
X127600000Y-113700000D03*
X194000000Y-106300000D03*
X123150000Y-108300000D03*
X181000000Y-115700000D03*
X184400000Y-95100000D03*
X185400000Y-95100000D03*
X142618750Y-91956250D03*
X139218750Y-103318750D03*
X194800000Y-123800000D03*
X135300000Y-127800000D03*
X189200000Y-95100000D03*
X185400000Y-106300000D03*
X123150000Y-109300000D03*
X195000000Y-106300000D03*
X189200000Y-106300000D03*
X187800000Y-106300000D03*
X202700000Y-123800000D03*
X192800000Y-95100000D03*
X210300000Y-124800000D03*
X192600000Y-106300000D03*
X210300000Y-123800000D03*
X140218750Y-103318750D03*
X137818750Y-103318750D03*
X202700000Y-124800000D03*
X141618750Y-91956250D03*
X139218750Y-91956250D03*
%TD*%
D38*
%TO.N,GND*%
X141800000Y-115200000D02*
X141800000Y-115900000D01*
X141800000Y-115200000D02*
X141800000Y-114100000D01*
D39*
%TO.N,VCC*%
X140069900Y-125337500D02*
X140072400Y-125340000D01*
X136500000Y-125337500D02*
X140069900Y-125337500D01*
D38*
%TO.N,GND*%
X129700000Y-132100000D02*
X130200000Y-132600000D01*
X129700000Y-130050000D02*
X129700000Y-132100000D01*
X129700000Y-132100000D02*
X129200000Y-132600000D01*
X136037500Y-127062500D02*
X135300000Y-127800000D01*
X136500000Y-127062500D02*
X136037500Y-127062500D01*
X135562500Y-127062500D02*
X135300000Y-126800000D01*
X136500000Y-127062500D02*
X135562500Y-127062500D01*
D39*
%TO.N,VCC*%
X136137500Y-125700000D02*
X136500000Y-125337500D01*
X133500000Y-126200000D02*
X134000000Y-125700000D01*
X132900000Y-135900000D02*
X133500000Y-135300000D01*
X134000000Y-125700000D02*
X136137500Y-125700000D01*
X133500000Y-135300000D02*
X133500000Y-126200000D01*
X128000000Y-135900000D02*
X132900000Y-135900000D01*
X127400000Y-135300000D02*
X128000000Y-135900000D01*
X127400000Y-130005000D02*
X127400000Y-135300000D01*
D40*
%TO.N,/OUT*%
X123605000Y-124505000D02*
X123400000Y-124300000D01*
X127400000Y-124505000D02*
X123605000Y-124505000D01*
X127445000Y-124550000D02*
X127400000Y-124505000D01*
X129700000Y-124550000D02*
X127445000Y-124550000D01*
X134770000Y-124070000D02*
X137200000Y-124070000D01*
X134290000Y-124550000D02*
X134770000Y-124070000D01*
X129700000Y-124550000D02*
X134290000Y-124550000D01*
D39*
%TO.N,VCC*%
X120305000Y-130005000D02*
X127400000Y-130005000D01*
X115100000Y-124800000D02*
X120305000Y-130005000D01*
X115100000Y-115500000D02*
X115100000Y-124800000D01*
D38*
%TO.N,GND*%
X150637500Y-120200000D02*
X150637500Y-119200000D01*
X139400000Y-120800000D02*
X139000000Y-121200000D01*
%TO.N,VCC*%
X140012400Y-125400000D02*
X140072400Y-125340000D01*
D39*
%TO.N,Net-(U1-VREF)*%
X139644900Y-127037500D02*
X140072400Y-126610000D01*
D40*
X139237500Y-132000000D02*
X140237500Y-131000000D01*
X140237500Y-128600000D02*
X140237500Y-128000000D01*
X140237500Y-131000000D02*
X141437500Y-131000000D01*
X139237500Y-133400000D02*
X139237500Y-132000000D01*
X140237500Y-126775100D02*
X140072400Y-126610000D01*
X140237500Y-131000000D02*
X140237500Y-128600000D01*
%TO.N,/OUT*%
X140072400Y-124070000D02*
X139987400Y-124155000D01*
%TO.N,Net-(U1-VREF)*%
X141437500Y-131000000D02*
X142637500Y-129800000D01*
D39*
X138000000Y-127037500D02*
X139644900Y-127037500D01*
D40*
%TO.N,Net-(Ccomp_1-Pad2)*%
X149600000Y-127500000D02*
X149800000Y-127300000D01*
%TO.N,Net-(Ccomp_2-Pad1)*%
X156487500Y-126000000D02*
X154762500Y-126000000D01*
%TO.N,Net-(Ccomp_1-Pad2)*%
X149600000Y-130675000D02*
X149600000Y-127500000D01*
D38*
%TO.N,/ISENSE*%
X150908700Y-124471200D02*
X150200000Y-123762500D01*
%TO.N,/VFB*%
X156575000Y-127600000D02*
X156575000Y-131462500D01*
%TO.N,/ISENSE*%
X153200000Y-123454200D02*
X153200000Y-123647920D01*
D39*
%TO.N,Net-(Q2-B)*%
X147710000Y-135050000D02*
X147160000Y-135600000D01*
D40*
%TO.N,/ISENSE*%
X147150000Y-124200000D02*
X145130000Y-124200000D01*
D38*
X153200000Y-123454200D02*
X153200000Y-123762500D01*
D40*
X148012500Y-123762500D02*
X147800000Y-123550000D01*
%TO.N,/VFB*%
X149800000Y-125475000D02*
X147800000Y-125475000D01*
D38*
X156575000Y-131462500D02*
X156437500Y-131600000D01*
%TO.N,/ISENSE*%
X153200000Y-123647920D02*
X153047920Y-123800000D01*
%TO.N,/VFB*%
X156437500Y-131600000D02*
X152037500Y-131600000D01*
%TO.N,/ISENSE*%
X153200000Y-123762500D02*
X153908700Y-124471200D01*
D40*
%TO.N,/VFB*%
X147800000Y-125475000D02*
X145135000Y-125475000D01*
D38*
%TO.N,/ISENSE*%
X153047920Y-123800000D02*
X152451700Y-123800000D01*
X155528800Y-124471200D02*
X156800000Y-123200000D01*
%TO.N,/VFB*%
X151700000Y-131262500D02*
X151700000Y-128400000D01*
D40*
X145135000Y-125475000D02*
X145000000Y-125340000D01*
D38*
%TO.N,/ISENSE*%
X152376720Y-124471200D02*
X150908700Y-124471200D01*
D40*
X147800000Y-123550000D02*
X147150000Y-124200000D01*
D38*
X152451700Y-123800000D02*
X152451700Y-124396220D01*
D40*
%TO.N,/VFB*%
X151700000Y-126062500D02*
X151637500Y-126000000D01*
D38*
%TO.N,/ISENSE*%
X152451700Y-124396220D02*
X152376720Y-124471200D01*
D40*
%TO.N,Net-(Q2-B)*%
X142400000Y-135362500D02*
X142400000Y-133350000D01*
X142400000Y-133350000D02*
X142550000Y-133200000D01*
%TO.N,/VFB*%
X150325000Y-126000000D02*
X149800000Y-125475000D01*
D38*
X152037500Y-131600000D02*
X151700000Y-131262500D01*
%TO.N,/ISENSE*%
X153908700Y-124471200D02*
X155528800Y-124471200D01*
D39*
%TO.N,Net-(Q2-B)*%
X147160000Y-135600000D02*
X142400000Y-135600000D01*
D38*
%TO.N,/RT{slash}CT*%
X144850000Y-120800000D02*
X145000000Y-120950000D01*
X142800000Y-120800000D02*
X144850000Y-120800000D01*
X145000000Y-120950000D02*
X145000000Y-122800000D01*
%TO.N,Net-(CR1-Pad1)*%
X153200000Y-117400000D02*
X153000000Y-117200000D01*
X153200000Y-119745800D02*
X153200000Y-117400000D01*
D40*
%TO.N,/VFB*%
X151700000Y-128400000D02*
X151700000Y-126062500D01*
X151637500Y-126000000D02*
X150325000Y-126000000D01*
%TO.N,/ISENSE*%
X145130000Y-124200000D02*
X145000000Y-124070000D01*
X150200000Y-123762500D02*
X148012500Y-123762500D01*
D38*
%TO.N,GND*%
X149637500Y-120400000D02*
X149637500Y-119200000D01*
X138000000Y-128762500D02*
X137062500Y-128762500D01*
X142400000Y-137675000D02*
X141325000Y-137675000D01*
X145090000Y-134100000D02*
X144900000Y-134100000D01*
X139000000Y-121200000D02*
X138200000Y-121200000D01*
X144900000Y-134100000D02*
X143800000Y-133000000D01*
X154800000Y-129162500D02*
X155237500Y-129600000D01*
X142400000Y-137437500D02*
X142400000Y-138037500D01*
X139675000Y-120800000D02*
X139675000Y-120925000D01*
X150200000Y-120637500D02*
X149962500Y-120400000D01*
X138200000Y-122800000D02*
X140072400Y-122800000D01*
D39*
%TO.N,+5V*%
X158400000Y-127600000D02*
X158400000Y-126087500D01*
D38*
%TO.N,GND*%
X154800000Y-128400000D02*
X154800000Y-129162500D01*
X137137500Y-128762500D02*
X136600000Y-129300000D01*
D40*
%TO.N,/COMP*%
X145237500Y-128600000D02*
X145000000Y-128362500D01*
X146475000Y-131915000D02*
X147710000Y-133150000D01*
X146437500Y-129400000D02*
X147237500Y-128600000D01*
X147710000Y-133150000D02*
X150850000Y-133150000D01*
X146475000Y-129437500D02*
X146437500Y-129400000D01*
X146475000Y-130675000D02*
X146475000Y-131915000D01*
X146475000Y-130675000D02*
X146475000Y-129437500D01*
D39*
%TO.N,+5V*%
X217200000Y-126000000D02*
X158312500Y-126000000D01*
D40*
%TO.N,/COMP*%
X146150000Y-131000000D02*
X146475000Y-130675000D01*
X150850000Y-133150000D02*
X151400000Y-133700000D01*
X145000000Y-128362500D02*
X145000000Y-126610000D01*
X147237500Y-128600000D02*
X147800000Y-128600000D01*
X147800000Y-128600000D02*
X145237500Y-128600000D01*
D39*
%TO.N,+5V*%
X158400000Y-126087500D02*
X158312500Y-126000000D01*
D38*
%TO.N,Net-(U1-VREF)*%
X144150000Y-118700000D02*
X141600000Y-118700000D01*
%TO.N,VCC*%
X146300000Y-121950000D02*
X146300000Y-122192600D01*
%TO.N,Net-(U1-VREF)*%
X140783600Y-126610000D02*
X140072400Y-126610000D01*
%TO.N,VCC*%
X146318600Y-122192600D02*
X146318600Y-123407400D01*
D40*
%TO.N,Net-(U1-VREF)*%
X140237500Y-128000000D02*
X140237500Y-126775100D01*
D38*
X141200000Y-128100000D02*
X141100000Y-128000000D01*
%TO.N,VCC*%
X146300000Y-122192600D02*
X146318600Y-122192600D01*
X142692600Y-123407400D02*
X140760000Y-125340000D01*
X140760000Y-125340000D02*
X140072400Y-125340000D01*
X147800000Y-120450000D02*
X146300000Y-121950000D01*
%TO.N,Net-(U1-VREF)*%
X145000000Y-117850000D02*
X144150000Y-118700000D01*
X141100000Y-128000000D02*
X140237500Y-128000000D01*
%TO.N,VCC*%
X146318600Y-123407400D02*
X142692600Y-123407400D01*
%TO.N,GND*%
X154800000Y-128400000D02*
X154237500Y-128962500D01*
X139675000Y-120800000D02*
X139400000Y-120800000D01*
X139675000Y-120475000D02*
X139400000Y-120200000D01*
X154800000Y-128400000D02*
X154800000Y-129037500D01*
X141275000Y-137675000D02*
X140800000Y-137200000D01*
X144990000Y-134000000D02*
X145090000Y-134100000D01*
X155237500Y-129600000D02*
X155237500Y-130000000D01*
X139400000Y-120200000D02*
X138200000Y-120200000D01*
X137062500Y-128762500D02*
X136600000Y-128300000D01*
X142400000Y-137675000D02*
X141275000Y-137675000D01*
X149962500Y-120400000D02*
X149637500Y-120400000D01*
X138000000Y-128762500D02*
X137137500Y-128762500D01*
X142400000Y-137962500D02*
X142400000Y-137437500D01*
X139675000Y-120925000D02*
X139400000Y-121200000D01*
X139675000Y-120800000D02*
X139675000Y-120475000D01*
X141325000Y-137675000D02*
X140800000Y-138200000D01*
X143800000Y-134000000D02*
X144990000Y-134000000D01*
X150200000Y-120637500D02*
X150637500Y-120200000D01*
X154237500Y-128962500D02*
X154237500Y-130000000D01*
D40*
%TO.N,/OUT*%
X137200000Y-124070000D02*
X140072400Y-124070000D01*
D38*
X137700000Y-117800000D02*
X137200000Y-118300000D01*
X142800000Y-117600000D02*
X142600000Y-117800000D01*
X143700000Y-115400000D02*
X142800000Y-116300000D01*
X142800000Y-116300000D02*
X142800000Y-117600000D01*
X150000000Y-117100000D02*
X150000000Y-115800000D01*
X137200000Y-118300000D02*
X137200000Y-124070000D01*
X142600000Y-117800000D02*
X137700000Y-117800000D01*
%TO.N,GND*%
X141800000Y-115200000D02*
X142900000Y-114100000D01*
D39*
%TO.N,Net-(Q1-D)*%
X138100000Y-108900000D02*
X142580000Y-108900000D01*
D38*
%TO.N,GND*%
X142900000Y-114900000D02*
X142600000Y-115200000D01*
X142600000Y-115200000D02*
X140380000Y-115200000D01*
X140380000Y-115200000D02*
X141800000Y-115200000D01*
%TO.N,/OUT*%
X150000000Y-115800000D02*
X149600000Y-115400000D01*
X149600000Y-115400000D02*
X143700000Y-115400000D01*
D40*
%TO.N,VCC*%
X115210000Y-115390000D02*
X115100000Y-115500000D01*
D39*
X107043900Y-108043900D02*
X107200000Y-108200000D01*
X117203900Y-110996100D02*
X115100000Y-113100000D01*
X107043900Y-101885700D02*
X107043900Y-108043900D01*
X117203900Y-101885700D02*
X117203900Y-110996100D01*
D40*
X121500000Y-115390000D02*
X115210000Y-115390000D01*
D39*
X115100000Y-113100000D02*
X115100000Y-115500000D01*
D38*
%TO.N,GND*%
X189200000Y-105462500D02*
X189800000Y-104862500D01*
X137418750Y-101643750D02*
X137543750Y-101643750D01*
D40*
X198900000Y-124800000D02*
X200250000Y-124800000D01*
D38*
X137293750Y-101643750D02*
X136818750Y-102118750D01*
X186800000Y-96100000D02*
X186800000Y-95100000D01*
X139218750Y-92556250D02*
X139218750Y-91956250D01*
X195000000Y-105262500D02*
X194600000Y-104862500D01*
X180000000Y-115700000D02*
X180000000Y-114850000D01*
X187800000Y-106300000D02*
X187800000Y-105262500D01*
X139818750Y-101681250D02*
X139656250Y-101681250D01*
X183000000Y-96100000D02*
X183000000Y-95100000D01*
X137543750Y-101643750D02*
X137818750Y-101918750D01*
X195000000Y-106300000D02*
X195000000Y-105262500D01*
X192600000Y-106300000D02*
X192600000Y-105262500D01*
D40*
X200250000Y-124800000D02*
X200700000Y-124350000D01*
D38*
X139656250Y-101681250D02*
X139218750Y-102118750D01*
D40*
X210300000Y-123800000D02*
X211850000Y-123800000D01*
X194800000Y-124800000D02*
X196750000Y-124800000D01*
D38*
X191600000Y-105462500D02*
X192200000Y-104862500D01*
X123150000Y-109300000D02*
X124150000Y-109300000D01*
X141618750Y-92956250D02*
X142218750Y-93556250D01*
X194000000Y-105462500D02*
X194600000Y-104862500D01*
X137418750Y-92956250D02*
X136818750Y-92356250D01*
X186800000Y-105462500D02*
X187400000Y-104862500D01*
X182400000Y-96700000D02*
X183000000Y-96100000D01*
D40*
X194800000Y-123800000D02*
X196450000Y-123800000D01*
D38*
X182000000Y-96300000D02*
X182000000Y-95100000D01*
X137418750Y-93156250D02*
X137818750Y-92756250D01*
X139856250Y-93556250D02*
X139856250Y-93193750D01*
X139818750Y-101681250D02*
X139818750Y-102156250D01*
X136818750Y-92356250D02*
X136818750Y-91956250D01*
X189200000Y-96100000D02*
X189200000Y-95100000D01*
X139856250Y-93556250D02*
X139856250Y-93118750D01*
D40*
X127700000Y-113800000D02*
X127663000Y-113763000D01*
D38*
X187400000Y-96500000D02*
X187800000Y-96100000D01*
X139981250Y-101681250D02*
X140218750Y-101918750D01*
X187400000Y-96737500D02*
X187400000Y-96700000D01*
X187800000Y-105262500D02*
X187400000Y-104862500D01*
X185000000Y-96737500D02*
X185000000Y-96500000D01*
D40*
X210300000Y-124800000D02*
X211950000Y-124800000D01*
X204150000Y-124800000D02*
X204600000Y-124350000D01*
D38*
X139856250Y-93118750D02*
X140218750Y-92756250D01*
X184400000Y-96300000D02*
X184400000Y-95100000D01*
D40*
X196750000Y-124800000D02*
X197100000Y-124450000D01*
D38*
X140218750Y-101918750D02*
X140218750Y-103318750D01*
X190200000Y-106300000D02*
X190200000Y-105262500D01*
D40*
X206500000Y-124800000D02*
X207850000Y-124800000D01*
D38*
X192600000Y-105262500D02*
X192200000Y-104862500D01*
X192200000Y-96737500D02*
X192200000Y-96500000D01*
X142618750Y-91956250D02*
X142618750Y-93156250D01*
X182400000Y-96700000D02*
X182000000Y-96300000D01*
X189800000Y-96700000D02*
X189200000Y-96100000D01*
X190200000Y-96100000D02*
X190200000Y-95100000D01*
D40*
X202700000Y-124800000D02*
X204150000Y-124800000D01*
D38*
X187400000Y-96737500D02*
X187400000Y-96500000D01*
X139218750Y-102118750D02*
X139218750Y-103318750D01*
D40*
X207850000Y-124800000D02*
X208300000Y-124350000D01*
D38*
X190200000Y-105262500D02*
X189800000Y-104862500D01*
X191800000Y-96100000D02*
X191800000Y-95100000D01*
X141618750Y-91956250D02*
X141618750Y-92956250D01*
D40*
X200150000Y-123800000D02*
X200700000Y-124350000D01*
X126600000Y-114890000D02*
X126600000Y-113763000D01*
D38*
X185400000Y-105262500D02*
X185000000Y-104862500D01*
X139818750Y-101681250D02*
X139981250Y-101681250D01*
X185400000Y-106300000D02*
X185400000Y-105262500D01*
X187400000Y-96700000D02*
X186800000Y-96100000D01*
X189800000Y-96737500D02*
X189800000Y-96700000D01*
D40*
X127100000Y-115390000D02*
X126600000Y-114890000D01*
D38*
X192200000Y-96500000D02*
X192800000Y-95900000D01*
X184400000Y-105462500D02*
X185000000Y-104862500D01*
X140218750Y-92756250D02*
X140218750Y-91956250D01*
X184400000Y-106300000D02*
X184400000Y-105462500D01*
X185000000Y-96737500D02*
X184837500Y-96737500D01*
D40*
X127663000Y-113763000D02*
X127600000Y-113763000D01*
D38*
X191600000Y-106300000D02*
X191600000Y-105462500D01*
X186800000Y-106300000D02*
X186800000Y-105462500D01*
X180000000Y-114850000D02*
X180600000Y-114250000D01*
X194000000Y-106300000D02*
X194000000Y-105462500D01*
X189800000Y-96500000D02*
X190200000Y-96100000D01*
D40*
X198900000Y-123800000D02*
X200150000Y-123800000D01*
D38*
X185000000Y-96500000D02*
X185400000Y-96100000D01*
X137418750Y-101643750D02*
X137293750Y-101643750D01*
X192800000Y-95900000D02*
X192800000Y-95100000D01*
X137818750Y-92756250D02*
X137818750Y-91956250D01*
X136818750Y-102118750D02*
X136818750Y-103318750D01*
X139856250Y-93193750D02*
X139218750Y-92556250D01*
D40*
X196450000Y-123800000D02*
X197100000Y-124450000D01*
D38*
X184837500Y-96737500D02*
X184400000Y-96300000D01*
X181000000Y-115700000D02*
X181000000Y-114650000D01*
X189800000Y-96737500D02*
X189800000Y-96500000D01*
D40*
X206500000Y-123800000D02*
X207750000Y-123800000D01*
X127100000Y-115390000D02*
X127700000Y-114790000D01*
D38*
X192200000Y-96500000D02*
X191800000Y-96100000D01*
X185400000Y-96100000D02*
X185400000Y-95100000D01*
D40*
X127700000Y-114790000D02*
X127700000Y-113800000D01*
D38*
X187800000Y-96100000D02*
X187800000Y-95100000D01*
X137818750Y-101918750D02*
X137818750Y-103318750D01*
X142618750Y-93156250D02*
X142218750Y-93556250D01*
D40*
X207750000Y-123800000D02*
X208300000Y-124350000D01*
D38*
X189200000Y-106300000D02*
X189200000Y-105462500D01*
X181000000Y-114650000D02*
X180600000Y-114250000D01*
D40*
X211950000Y-124800000D02*
X212400000Y-124350000D01*
X204050000Y-123800000D02*
X204600000Y-124350000D01*
D38*
X137418750Y-93556250D02*
X137418750Y-92956250D01*
D40*
X202700000Y-123800000D02*
X204050000Y-123800000D01*
D38*
X137418750Y-93556250D02*
X137418750Y-93156250D01*
X123150000Y-108300000D02*
X124350000Y-108300000D01*
D40*
X211850000Y-123800000D02*
X212400000Y-124350000D01*
D39*
%TO.N,+5V*%
X227000000Y-101800000D02*
X227000000Y-108000000D01*
X227000000Y-108000000D02*
X227200000Y-108200000D01*
D41*
X178200000Y-102200000D02*
X180050000Y-102200000D01*
X172675000Y-96175000D02*
X177275000Y-96175000D01*
X178200000Y-97100000D02*
X178200000Y-102200000D01*
D39*
X216840000Y-101800000D02*
X218000000Y-102960000D01*
X218000000Y-102960000D02*
X218000000Y-125200000D01*
X218000000Y-125200000D02*
X217200000Y-126000000D01*
D41*
X177275000Y-96175000D02*
X178200000Y-97100000D01*
X180050000Y-102200000D02*
X180600000Y-102750000D01*
D39*
%TO.N,Net-(Q1-D)*%
X132700000Y-108900000D02*
X138100000Y-108900000D01*
X132700000Y-108900000D02*
X132700000Y-111200000D01*
X132700000Y-111200000D02*
X132100000Y-111800000D01*
X142580000Y-108900000D02*
X145800000Y-105680000D01*
%TO.N,/QG*%
X135600000Y-118250000D02*
X135600000Y-115420000D01*
X135600000Y-115420000D02*
X135820000Y-115200000D01*
X133200000Y-118300000D02*
X135550000Y-118300000D01*
X135550000Y-118300000D02*
X135600000Y-118250000D01*
D40*
%TO.N,Net-(T1-SB)*%
X174845000Y-102585000D02*
X174955000Y-102475000D01*
D41*
X163320000Y-100580000D02*
X163300000Y-100600000D01*
X166090000Y-100580000D02*
X163320000Y-100580000D01*
X170395000Y-102475000D02*
X174955000Y-102475000D01*
X170395000Y-102475000D02*
X167985000Y-102475000D01*
X167985000Y-102475000D02*
X166090000Y-100580000D01*
D39*
%TO.N,Net-(D4-A)*%
X180600000Y-108250000D02*
X180600000Y-111150000D01*
%TO.N,Net-(Rpreload1-Pad2)*%
X197100000Y-104750000D02*
X197100000Y-106600000D01*
%TO.N,Net-(Rpreload2-Pad2)*%
X197100000Y-109700000D02*
X197100000Y-111550000D01*
%TO.N,Net-(Rpreload3-Pad2)*%
X197100000Y-114650000D02*
X197100000Y-116450000D01*
%TO.N,Net-(Rpreload5-Pad2)*%
X200700000Y-104650000D02*
X200700000Y-106450000D01*
%TO.N,Net-(Rpreload6-Pad2)*%
X200700000Y-109550000D02*
X200700000Y-111350000D01*
%TO.N,Net-(Rpreload7-Pad2)*%
X200700000Y-114450000D02*
X200700000Y-116350000D01*
%TO.N,Net-(Rpreload11-Pad2)*%
X204600000Y-109650000D02*
X204600000Y-111450000D01*
%TO.N,Net-(Rpreload10-Pad2)*%
X204600000Y-104750000D02*
X204600000Y-106550000D01*
%TO.N,Net-(C_snub1-Pad1)*%
X127712500Y-108900000D02*
X129600000Y-108900000D01*
%TO.N,Net-(Rpreload13-Pad2)*%
X204600000Y-119450000D02*
X204600000Y-121250000D01*
%TO.N,Net-(Rpreload22-Pad2)*%
X212400000Y-114550000D02*
X212400000Y-116350000D01*
%TO.N,Net-(Rpreload15-Pad2)*%
X208300000Y-104750000D02*
X208300000Y-106550000D01*
%TO.N,Net-(Rpreload17-Pad2)*%
X208300000Y-114550000D02*
X208300000Y-116350000D01*
%TO.N,Net-(Rpreload18-Pad2)*%
X208300000Y-119450000D02*
X208300000Y-121250000D01*
%TO.N,Net-(Rpreload23-Pad2)*%
X212400000Y-119450000D02*
X212400000Y-121250000D01*
%TO.N,Net-(Rpreload21-Pad2)*%
X212400000Y-109650000D02*
X212400000Y-111450000D01*
%TO.N,Net-(Q3-E)*%
X129630000Y-121400000D02*
X133200000Y-121400000D01*
D40*
X133250000Y-121350000D02*
X133200000Y-121400000D01*
X135550000Y-121400000D02*
X135600000Y-121350000D01*
D39*
X128400000Y-112500000D02*
X124600000Y-112500000D01*
X130100000Y-118600000D02*
X130100000Y-114200000D01*
X124200000Y-112900000D02*
X123700000Y-112400000D01*
X123700000Y-112400000D02*
X121000000Y-112400000D01*
X128050000Y-118810000D02*
X129890000Y-118810000D01*
X128050000Y-119820000D02*
X128050000Y-118810000D01*
X129630000Y-121400000D02*
X128050000Y-119820000D01*
X124600000Y-112500000D02*
X124200000Y-112900000D01*
X124200000Y-117060000D02*
X122450000Y-118810000D01*
X129890000Y-118810000D02*
X130100000Y-118600000D01*
X124200000Y-112900000D02*
X124200000Y-117060000D01*
D40*
X133200000Y-121400000D02*
X135550000Y-121400000D01*
D39*
X130100000Y-114200000D02*
X128400000Y-112500000D01*
%TO.N,Net-(Q3-B)*%
X125500000Y-122000000D02*
X121300000Y-122000000D01*
X120550000Y-121250000D02*
X120550000Y-118810000D01*
X126150000Y-118810000D02*
X126150000Y-121350000D01*
X126150000Y-121350000D02*
X125500000Y-122000000D01*
X121300000Y-122000000D02*
X120550000Y-121250000D01*
%TO.N,Net-(Rpreload33-Pad1)*%
X197100000Y-119550000D02*
X197100000Y-121350000D01*
%TO.N,Net-(Rpreload8-Pad2)*%
X200700000Y-119450000D02*
X200700000Y-121250000D01*
%TO.N,Net-(Rpreload12-Pad2)*%
X204600000Y-114550000D02*
X204600000Y-116350000D01*
%TO.N,Net-(Rpreload16-Pad2)*%
X208300000Y-109650000D02*
X208300000Y-111450000D01*
%TO.N,Net-(Rpreload20-Pad2)*%
X212400000Y-104750000D02*
X212400000Y-106550000D01*
%TD*%
%TA.AperFunction,Conductor*%
%TO.N,+5V*%
G36*
X228290931Y-98127159D02*
G01*
X228336987Y-98179701D01*
X228348460Y-98229161D01*
X228407537Y-100946699D01*
X228389314Y-101014150D01*
X228337517Y-101061042D01*
X228268591Y-101072486D01*
X228204419Y-101044850D01*
X228183248Y-101022280D01*
X228161375Y-100992176D01*
X228161375Y-100992175D01*
X227609001Y-101544550D01*
X227585239Y-101487183D01*
X227512966Y-101379020D01*
X227420980Y-101287034D01*
X227312817Y-101214761D01*
X227255447Y-101190998D01*
X227807823Y-100638623D01*
X227741307Y-100590296D01*
X227542945Y-100489225D01*
X227331206Y-100420426D01*
X227111321Y-100385600D01*
X226888679Y-100385600D01*
X226668793Y-100420426D01*
X226457054Y-100489225D01*
X226258691Y-100590297D01*
X226192176Y-100638622D01*
X226192175Y-100638623D01*
X226744551Y-101190998D01*
X226687183Y-101214761D01*
X226579020Y-101287034D01*
X226487034Y-101379020D01*
X226414761Y-101487183D01*
X226390998Y-101544551D01*
X225838623Y-100992175D01*
X225838622Y-100992176D01*
X225790297Y-101058691D01*
X225689225Y-101257054D01*
X225620426Y-101468793D01*
X225585600Y-101688678D01*
X225585600Y-101911321D01*
X225620426Y-102131206D01*
X225689225Y-102342945D01*
X225790296Y-102541307D01*
X225838623Y-102607822D01*
X225838623Y-102607823D01*
X226390998Y-102055448D01*
X226414761Y-102112817D01*
X226487034Y-102220980D01*
X226579020Y-102312966D01*
X226687183Y-102385239D01*
X226744550Y-102409001D01*
X226192175Y-102961375D01*
X226258692Y-103009703D01*
X226457054Y-103110774D01*
X226668793Y-103179573D01*
X226888679Y-103214400D01*
X227111321Y-103214400D01*
X227331206Y-103179573D01*
X227542945Y-103110774D01*
X227741307Y-103009703D01*
X227807822Y-102961375D01*
X227255448Y-102409001D01*
X227312817Y-102385239D01*
X227420980Y-102312966D01*
X227512966Y-102220980D01*
X227585239Y-102112817D01*
X227609001Y-102055448D01*
X228161375Y-102607822D01*
X228209705Y-102541305D01*
X228212251Y-102537151D01*
X228213535Y-102537938D01*
X228256914Y-102492005D01*
X228324734Y-102475207D01*
X228390870Y-102497741D01*
X228434324Y-102552455D01*
X228443400Y-102596398D01*
X228475400Y-104068417D01*
X228457177Y-104135868D01*
X228405380Y-104182760D01*
X228346740Y-104195023D01*
X225704974Y-104095062D01*
X213511329Y-103748620D01*
X213449755Y-103730209D01*
X213344340Y-103665189D01*
X213344335Y-103665187D01*
X213344334Y-103665186D01*
X213177797Y-103610001D01*
X213177795Y-103610000D01*
X213075016Y-103599500D01*
X211924000Y-103599500D01*
X211856961Y-103579815D01*
X211811206Y-103527011D01*
X211800000Y-103475500D01*
X211800000Y-102923999D01*
X211819685Y-102856960D01*
X211872489Y-102811205D01*
X211924000Y-102799999D01*
X212149999Y-102799999D01*
X212650000Y-102799999D01*
X213074972Y-102799999D01*
X213074986Y-102799998D01*
X213165440Y-102790758D01*
X213165441Y-102790757D01*
X213177696Y-102789506D01*
X213344119Y-102734358D01*
X213344124Y-102734356D01*
X213493345Y-102642315D01*
X213617315Y-102518345D01*
X213709356Y-102369124D01*
X213709358Y-102369119D01*
X213764505Y-102202697D01*
X213764506Y-102202690D01*
X213774999Y-102099986D01*
X213775000Y-102099973D01*
X213775000Y-101900000D01*
X212650000Y-101900000D01*
X212650000Y-102799999D01*
X212149999Y-102799999D01*
X212150000Y-102799998D01*
X212150000Y-101900000D01*
X211025001Y-101900000D01*
X211025001Y-102099986D01*
X211035494Y-102202697D01*
X211090641Y-102369119D01*
X211090643Y-102369124D01*
X211182684Y-102518345D01*
X211252658Y-102588319D01*
X211286143Y-102649642D01*
X211281159Y-102719334D01*
X211239287Y-102775267D01*
X211173823Y-102799684D01*
X211164977Y-102800000D01*
X209535023Y-102800000D01*
X209467984Y-102780315D01*
X209422229Y-102727511D01*
X209412285Y-102658353D01*
X209441310Y-102594797D01*
X209447342Y-102588319D01*
X209517315Y-102518345D01*
X209609356Y-102369124D01*
X209609358Y-102369119D01*
X209664505Y-102202697D01*
X209664506Y-102202690D01*
X209674999Y-102099986D01*
X209675000Y-102099973D01*
X209675000Y-101900000D01*
X206925001Y-101900000D01*
X206925001Y-102099986D01*
X206935494Y-102202697D01*
X206990641Y-102369119D01*
X206990643Y-102369124D01*
X207082684Y-102518345D01*
X207152658Y-102588319D01*
X207186143Y-102649642D01*
X207181159Y-102719334D01*
X207139287Y-102775267D01*
X207073823Y-102799684D01*
X207064977Y-102800000D01*
X205835023Y-102800000D01*
X205767984Y-102780315D01*
X205722229Y-102727511D01*
X205712285Y-102658353D01*
X205741310Y-102594797D01*
X205747342Y-102588319D01*
X205817315Y-102518345D01*
X205909356Y-102369124D01*
X205909358Y-102369119D01*
X205964505Y-102202697D01*
X205964506Y-102202690D01*
X205974999Y-102099986D01*
X205975000Y-102099973D01*
X205975000Y-101900000D01*
X203225001Y-101900000D01*
X203225001Y-102099986D01*
X203235494Y-102202697D01*
X203290641Y-102369119D01*
X203290643Y-102369124D01*
X203382684Y-102518345D01*
X203452658Y-102588319D01*
X203486143Y-102649642D01*
X203481159Y-102719334D01*
X203439287Y-102775267D01*
X203373823Y-102799684D01*
X203364977Y-102800000D01*
X201812812Y-102800000D01*
X201745773Y-102780315D01*
X201700018Y-102727511D01*
X201690074Y-102658353D01*
X201719099Y-102594797D01*
X201747715Y-102570462D01*
X201793340Y-102542319D01*
X201793344Y-102542316D01*
X201917315Y-102418345D01*
X202009356Y-102269124D01*
X202009358Y-102269119D01*
X202064505Y-102102697D01*
X202064506Y-102102690D01*
X202074999Y-101999986D01*
X202075000Y-101999973D01*
X202075000Y-101800000D01*
X199325001Y-101800000D01*
X199325001Y-101999986D01*
X199335494Y-102102697D01*
X199390641Y-102269119D01*
X199390643Y-102269124D01*
X199482684Y-102418345D01*
X199606655Y-102542316D01*
X199606659Y-102542319D01*
X199652285Y-102570462D01*
X199699010Y-102622410D01*
X199710231Y-102691372D01*
X199682388Y-102755454D01*
X199624319Y-102794310D01*
X199587188Y-102800000D01*
X198335023Y-102800000D01*
X198267984Y-102780315D01*
X198222229Y-102727511D01*
X198212285Y-102658353D01*
X198241310Y-102594797D01*
X198247342Y-102588319D01*
X198317315Y-102518345D01*
X198409356Y-102369124D01*
X198409358Y-102369119D01*
X198464505Y-102202697D01*
X198464506Y-102202690D01*
X198474999Y-102099986D01*
X198475000Y-102099973D01*
X198475000Y-101900000D01*
X196130000Y-101900000D01*
X196114826Y-101915173D01*
X196110315Y-101930539D01*
X196057511Y-101976294D01*
X196006000Y-101987500D01*
X194850000Y-101987500D01*
X194850000Y-102899999D01*
X195299972Y-102899999D01*
X195299986Y-102899998D01*
X195402695Y-102889506D01*
X195436995Y-102878140D01*
X195506823Y-102875738D01*
X195566866Y-102911469D01*
X195598059Y-102973989D01*
X195600000Y-102995846D01*
X195600000Y-103176000D01*
X195580315Y-103243039D01*
X195527511Y-103288794D01*
X195476000Y-103300000D01*
X182074000Y-103300000D01*
X182006961Y-103280315D01*
X181961206Y-103227511D01*
X181950000Y-103176000D01*
X181950000Y-103000000D01*
X180724000Y-103000000D01*
X180656961Y-102980315D01*
X180611206Y-102927511D01*
X180600000Y-102876000D01*
X180600000Y-102750000D01*
X180474000Y-102750000D01*
X180406961Y-102730315D01*
X180361206Y-102677511D01*
X180350000Y-102626000D01*
X180350000Y-100632710D01*
X180850000Y-100632710D01*
X180850000Y-102500000D01*
X181949999Y-102500000D01*
X181950000Y-102499999D01*
X181950000Y-102199986D01*
X183600001Y-102199986D01*
X183610494Y-102302697D01*
X183665641Y-102469119D01*
X183665643Y-102469124D01*
X183757684Y-102618345D01*
X183881654Y-102742315D01*
X184030875Y-102834356D01*
X184030880Y-102834358D01*
X184197302Y-102889505D01*
X184197309Y-102889506D01*
X184300019Y-102899999D01*
X184749999Y-102899999D01*
X185250000Y-102899999D01*
X185699972Y-102899999D01*
X185699986Y-102899998D01*
X185802697Y-102889505D01*
X185969119Y-102834358D01*
X185969124Y-102834356D01*
X186118343Y-102742316D01*
X186123084Y-102738568D01*
X186187877Y-102712424D01*
X186256520Y-102725460D01*
X186276916Y-102738568D01*
X186281656Y-102742316D01*
X186430875Y-102834356D01*
X186430880Y-102834358D01*
X186597302Y-102889505D01*
X186597309Y-102889506D01*
X186700019Y-102899999D01*
X187149999Y-102899999D01*
X187650000Y-102899999D01*
X188099972Y-102899999D01*
X188099986Y-102899998D01*
X188202697Y-102889505D01*
X188369119Y-102834358D01*
X188369124Y-102834356D01*
X188518343Y-102742316D01*
X188523084Y-102738568D01*
X188587877Y-102712424D01*
X188656520Y-102725460D01*
X188676916Y-102738568D01*
X188681656Y-102742316D01*
X188830875Y-102834356D01*
X188830880Y-102834358D01*
X188997302Y-102889505D01*
X188997309Y-102889506D01*
X189100019Y-102899999D01*
X189549999Y-102899999D01*
X190050000Y-102899999D01*
X190499972Y-102899999D01*
X190499986Y-102899998D01*
X190602697Y-102889505D01*
X190769119Y-102834358D01*
X190769124Y-102834356D01*
X190918343Y-102742316D01*
X190923084Y-102738568D01*
X190987877Y-102712424D01*
X191056520Y-102725460D01*
X191076916Y-102738568D01*
X191081656Y-102742316D01*
X191230875Y-102834356D01*
X191230880Y-102834358D01*
X191397302Y-102889505D01*
X191397309Y-102889506D01*
X191500019Y-102899999D01*
X191949999Y-102899999D01*
X192450000Y-102899999D01*
X192899972Y-102899999D01*
X192899986Y-102899998D01*
X193002697Y-102889505D01*
X193169119Y-102834358D01*
X193169124Y-102834356D01*
X193318343Y-102742316D01*
X193323084Y-102738568D01*
X193387877Y-102712424D01*
X193456520Y-102725460D01*
X193476916Y-102738568D01*
X193481656Y-102742316D01*
X193630875Y-102834356D01*
X193630880Y-102834358D01*
X193797302Y-102889505D01*
X193797309Y-102889506D01*
X193900019Y-102899999D01*
X194349999Y-102899999D01*
X194350000Y-102899998D01*
X194350000Y-101987500D01*
X192450000Y-101987500D01*
X192450000Y-102899999D01*
X191949999Y-102899999D01*
X191950000Y-102899998D01*
X191950000Y-101987500D01*
X190050000Y-101987500D01*
X190050000Y-102899999D01*
X189549999Y-102899999D01*
X189550000Y-102899998D01*
X189550000Y-101987500D01*
X187650000Y-101987500D01*
X187650000Y-102899999D01*
X187149999Y-102899999D01*
X187150000Y-102899998D01*
X187150000Y-101987500D01*
X185250000Y-101987500D01*
X185250000Y-102899999D01*
X184749999Y-102899999D01*
X184750000Y-102899998D01*
X184750000Y-101987500D01*
X183600001Y-101987500D01*
X183600001Y-102199986D01*
X181950000Y-102199986D01*
X181950000Y-101936138D01*
X181950000Y-101688678D01*
X215425600Y-101688678D01*
X215425600Y-101911321D01*
X215460426Y-102131206D01*
X215529225Y-102342945D01*
X215630296Y-102541307D01*
X215678623Y-102607822D01*
X215678623Y-102607823D01*
X216230998Y-102055448D01*
X216254761Y-102112817D01*
X216327034Y-102220980D01*
X216419020Y-102312966D01*
X216527183Y-102385239D01*
X216584550Y-102409001D01*
X216032175Y-102961375D01*
X216098692Y-103009703D01*
X216297054Y-103110774D01*
X216508793Y-103179573D01*
X216728679Y-103214400D01*
X216951321Y-103214400D01*
X217171206Y-103179573D01*
X217382945Y-103110774D01*
X217581307Y-103009703D01*
X217647822Y-102961375D01*
X217095448Y-102409001D01*
X217152817Y-102385239D01*
X217260980Y-102312966D01*
X217352966Y-102220980D01*
X217425239Y-102112817D01*
X217449001Y-102055448D01*
X218001375Y-102607822D01*
X218049703Y-102541307D01*
X218150774Y-102342945D01*
X218219573Y-102131206D01*
X218254400Y-101911321D01*
X218254400Y-101688678D01*
X218219573Y-101468793D01*
X218150774Y-101257054D01*
X218049703Y-101058692D01*
X218001375Y-100992176D01*
X218001375Y-100992175D01*
X217449001Y-101544550D01*
X217425239Y-101487183D01*
X217352966Y-101379020D01*
X217260980Y-101287034D01*
X217152817Y-101214761D01*
X217095447Y-101190998D01*
X217647823Y-100638623D01*
X217581307Y-100590296D01*
X217382945Y-100489225D01*
X217171206Y-100420426D01*
X216951321Y-100385600D01*
X216728679Y-100385600D01*
X216508793Y-100420426D01*
X216297054Y-100489225D01*
X216098691Y-100590297D01*
X216032176Y-100638622D01*
X216032175Y-100638623D01*
X216584551Y-101190998D01*
X216527183Y-101214761D01*
X216419020Y-101287034D01*
X216327034Y-101379020D01*
X216254761Y-101487183D01*
X216230998Y-101544551D01*
X215678623Y-100992175D01*
X215678622Y-100992176D01*
X215630297Y-101058691D01*
X215529225Y-101257054D01*
X215460426Y-101468793D01*
X215425600Y-101688678D01*
X181950000Y-101688678D01*
X181949999Y-101300028D01*
X181949998Y-101300012D01*
X181939505Y-101197302D01*
X181923998Y-101150503D01*
X181921596Y-101080674D01*
X181957328Y-101020633D01*
X182019848Y-100989440D01*
X182041704Y-100987499D01*
X182150000Y-100987499D01*
X182650000Y-100987499D01*
X183099972Y-100987499D01*
X183099986Y-100987498D01*
X183202697Y-100977005D01*
X183369119Y-100921858D01*
X183369130Y-100921853D01*
X183487837Y-100848634D01*
X183555229Y-100830193D01*
X183621893Y-100851115D01*
X183666663Y-100904757D01*
X183675324Y-100974088D01*
X183667669Y-100998941D01*
X183667914Y-100999023D01*
X183610494Y-101172302D01*
X183610493Y-101172309D01*
X183600000Y-101275013D01*
X183600000Y-101487500D01*
X184750000Y-101487500D01*
X185250000Y-101487500D01*
X187150000Y-101487500D01*
X187650000Y-101487500D01*
X189550000Y-101487500D01*
X190050000Y-101487500D01*
X191950000Y-101487500D01*
X192450000Y-101487500D01*
X194350000Y-101487500D01*
X194350000Y-100575000D01*
X194850000Y-100575000D01*
X194850000Y-101487500D01*
X195595000Y-101487500D01*
X195610173Y-101472326D01*
X195614685Y-101456961D01*
X195667489Y-101411206D01*
X195719000Y-101400000D01*
X196850000Y-101400000D01*
X197350000Y-101400000D01*
X198474999Y-101400000D01*
X198474999Y-101200028D01*
X198474998Y-101200013D01*
X198465748Y-101109466D01*
X198465748Y-101109463D01*
X198464783Y-101100013D01*
X199325000Y-101100013D01*
X199325000Y-101300000D01*
X200450000Y-101300000D01*
X200950000Y-101300000D01*
X202074999Y-101300000D01*
X202074999Y-101200013D01*
X203225000Y-101200013D01*
X203225000Y-101400000D01*
X204350000Y-101400000D01*
X204850000Y-101400000D01*
X205974999Y-101400000D01*
X205974999Y-101200029D01*
X205974998Y-101200013D01*
X206925000Y-101200013D01*
X206925000Y-101400000D01*
X208050000Y-101400000D01*
X208550000Y-101400000D01*
X209674999Y-101400000D01*
X209674999Y-101200029D01*
X209674998Y-101200013D01*
X211025000Y-101200013D01*
X211025000Y-101400000D01*
X212150000Y-101400000D01*
X212650000Y-101400000D01*
X213774999Y-101400000D01*
X213774999Y-101200028D01*
X213774998Y-101200013D01*
X213764505Y-101097302D01*
X213709358Y-100930880D01*
X213709356Y-100930875D01*
X213617315Y-100781654D01*
X213493345Y-100657684D01*
X213344124Y-100565643D01*
X213344119Y-100565641D01*
X213177697Y-100510494D01*
X213177690Y-100510493D01*
X213074986Y-100500000D01*
X212650000Y-100500000D01*
X212650000Y-101400000D01*
X212150000Y-101400000D01*
X212150000Y-100500000D01*
X211725028Y-100500000D01*
X211725012Y-100500001D01*
X211622302Y-100510494D01*
X211455880Y-100565641D01*
X211455875Y-100565643D01*
X211306654Y-100657684D01*
X211182684Y-100781654D01*
X211090643Y-100930875D01*
X211090641Y-100930880D01*
X211035494Y-101097302D01*
X211035493Y-101097309D01*
X211025000Y-101200013D01*
X209674998Y-101200013D01*
X209674998Y-101200012D01*
X209664505Y-101097302D01*
X209609358Y-100930880D01*
X209609356Y-100930875D01*
X209517315Y-100781654D01*
X209393345Y-100657684D01*
X209244124Y-100565643D01*
X209244119Y-100565641D01*
X209077697Y-100510494D01*
X209077690Y-100510493D01*
X208974986Y-100500000D01*
X208550000Y-100500000D01*
X208550000Y-101400000D01*
X208050000Y-101400000D01*
X208050000Y-100500000D01*
X207625028Y-100500000D01*
X207625012Y-100500001D01*
X207522302Y-100510494D01*
X207355880Y-100565641D01*
X207355875Y-100565643D01*
X207206654Y-100657684D01*
X207082684Y-100781654D01*
X206990643Y-100930875D01*
X206990641Y-100930880D01*
X206935494Y-101097302D01*
X206935493Y-101097309D01*
X206925000Y-101200013D01*
X205974998Y-101200013D01*
X205974998Y-101200012D01*
X205964505Y-101097302D01*
X205909358Y-100930880D01*
X205909356Y-100930875D01*
X205817315Y-100781654D01*
X205693345Y-100657684D01*
X205544124Y-100565643D01*
X205544119Y-100565641D01*
X205377697Y-100510494D01*
X205377690Y-100510493D01*
X205274986Y-100500000D01*
X204850000Y-100500000D01*
X204850000Y-101400000D01*
X204350000Y-101400000D01*
X204350000Y-100500000D01*
X203925028Y-100500000D01*
X203925012Y-100500001D01*
X203822302Y-100510494D01*
X203655880Y-100565641D01*
X203655875Y-100565643D01*
X203506654Y-100657684D01*
X203382684Y-100781654D01*
X203290643Y-100930875D01*
X203290641Y-100930880D01*
X203235494Y-101097302D01*
X203235493Y-101097309D01*
X203225000Y-101200013D01*
X202074999Y-101200013D01*
X202074999Y-101100028D01*
X202074998Y-101100013D01*
X202064505Y-100997302D01*
X202009358Y-100830880D01*
X202009356Y-100830875D01*
X201917315Y-100681654D01*
X201793345Y-100557684D01*
X201644124Y-100465643D01*
X201644119Y-100465641D01*
X201477697Y-100410494D01*
X201477690Y-100410493D01*
X201374986Y-100400000D01*
X200950000Y-100400000D01*
X200950000Y-101300000D01*
X200450000Y-101300000D01*
X200450000Y-100400000D01*
X200025028Y-100400000D01*
X200025012Y-100400001D01*
X199922302Y-100410494D01*
X199755880Y-100465641D01*
X199755875Y-100465643D01*
X199606654Y-100557684D01*
X199482684Y-100681654D01*
X199390643Y-100830875D01*
X199390641Y-100830880D01*
X199335494Y-100997302D01*
X199335493Y-100997309D01*
X199325000Y-101100013D01*
X198464783Y-101100013D01*
X198464506Y-101097303D01*
X198409358Y-100930880D01*
X198409356Y-100930875D01*
X198317315Y-100781654D01*
X198193345Y-100657684D01*
X198044124Y-100565643D01*
X198044119Y-100565641D01*
X197877697Y-100510494D01*
X197877690Y-100510493D01*
X197774986Y-100500000D01*
X197350000Y-100500000D01*
X197350000Y-101400000D01*
X196850000Y-101400000D01*
X196850000Y-100500000D01*
X196425028Y-100500000D01*
X196425012Y-100500001D01*
X196322302Y-100510494D01*
X196155880Y-100565641D01*
X196155875Y-100565643D01*
X196006654Y-100657684D01*
X195912681Y-100751658D01*
X195851358Y-100785143D01*
X195781666Y-100780159D01*
X195737319Y-100751658D01*
X195718345Y-100732684D01*
X195569124Y-100640643D01*
X195569119Y-100640641D01*
X195402697Y-100585494D01*
X195402690Y-100585493D01*
X195299986Y-100575000D01*
X194850000Y-100575000D01*
X194350000Y-100575000D01*
X193900028Y-100575000D01*
X193900012Y-100575001D01*
X193797301Y-100585494D01*
X193739507Y-100604645D01*
X193669679Y-100607046D01*
X193609637Y-100571315D01*
X193578445Y-100508794D01*
X193582799Y-100447931D01*
X193589506Y-100427692D01*
X193589506Y-100427690D01*
X193599999Y-100324986D01*
X193600000Y-100324973D01*
X193600000Y-100112500D01*
X192450000Y-100112500D01*
X192450000Y-101487500D01*
X191950000Y-101487500D01*
X191950000Y-100112500D01*
X190050000Y-100112500D01*
X190050000Y-101487500D01*
X189550000Y-101487500D01*
X189550000Y-100112500D01*
X187650000Y-100112500D01*
X187650000Y-101487500D01*
X187150000Y-101487500D01*
X187150000Y-100112500D01*
X185250000Y-100112500D01*
X185250000Y-101487500D01*
X184750000Y-101487500D01*
X184750000Y-100112500D01*
X183558862Y-100112500D01*
X183491823Y-100092815D01*
X183471181Y-100076181D01*
X183470000Y-100075000D01*
X182650000Y-100075000D01*
X182650000Y-100987499D01*
X182150000Y-100987499D01*
X182150000Y-100075000D01*
X181000001Y-100075000D01*
X181000001Y-100287486D01*
X181010493Y-100390195D01*
X181026002Y-100436995D01*
X181026185Y-100442332D01*
X181028848Y-100446961D01*
X181027373Y-100476880D01*
X181028404Y-100506824D01*
X181025672Y-100511413D01*
X181025410Y-100516746D01*
X181007995Y-100541117D01*
X180992673Y-100566866D01*
X180987894Y-100569250D01*
X180984790Y-100573595D01*
X180954196Y-100591192D01*
X180850000Y-100632710D01*
X180350000Y-100632710D01*
X180350000Y-100600000D01*
X179950028Y-100600000D01*
X179950012Y-100600001D01*
X179847302Y-100610494D01*
X179680880Y-100665641D01*
X179680875Y-100665643D01*
X179531654Y-100757684D01*
X179411681Y-100877658D01*
X179350358Y-100911143D01*
X179280666Y-100906159D01*
X179224733Y-100864287D01*
X179200316Y-100798823D01*
X179200000Y-100789977D01*
X179200000Y-98924000D01*
X179219685Y-98856961D01*
X179272489Y-98811206D01*
X179324000Y-98800000D01*
X181024425Y-98800000D01*
X181091464Y-98819685D01*
X181137219Y-98872489D01*
X181147163Y-98941647D01*
X181129963Y-98989097D01*
X181065646Y-99093369D01*
X181065641Y-99093380D01*
X181010494Y-99259802D01*
X181010493Y-99259809D01*
X181000000Y-99362513D01*
X181000000Y-99575000D01*
X183841138Y-99575000D01*
X183908177Y-99594685D01*
X183928819Y-99611319D01*
X183930000Y-99612500D01*
X193599999Y-99612500D01*
X193599999Y-99400028D01*
X193599998Y-99400013D01*
X193589505Y-99297302D01*
X193534358Y-99130880D01*
X193534356Y-99130875D01*
X193442315Y-98981654D01*
X193418011Y-98957350D01*
X193384526Y-98896027D01*
X193389510Y-98826335D01*
X193400000Y-98810012D01*
X193400000Y-98430144D01*
X193419685Y-98363105D01*
X193472489Y-98317350D01*
X193523288Y-98306146D01*
X228223781Y-98107858D01*
X228290931Y-98127159D01*
G37*
%TD.AperFunction*%
%TD*%
%TA.AperFunction,Conductor*%
%TO.N,VCC*%
G36*
X136110289Y-94422566D02*
G01*
X136177252Y-94442493D01*
X136197515Y-94458883D01*
X136300094Y-94561462D01*
X136449416Y-94653564D01*
X136615953Y-94708749D01*
X136718741Y-94719250D01*
X138118758Y-94719249D01*
X138221547Y-94708749D01*
X138388084Y-94653564D01*
X138537406Y-94561462D01*
X138549819Y-94549049D01*
X138611142Y-94515564D01*
X138680834Y-94520548D01*
X138725181Y-94549049D01*
X138737594Y-94561462D01*
X138886916Y-94653564D01*
X139053453Y-94708749D01*
X139156241Y-94719250D01*
X140556258Y-94719249D01*
X140659047Y-94708749D01*
X140825584Y-94653564D01*
X140972405Y-94563004D01*
X141039796Y-94544565D01*
X141102594Y-94563004D01*
X141249416Y-94653564D01*
X141415953Y-94708749D01*
X141518741Y-94719250D01*
X142918758Y-94719249D01*
X143021547Y-94708749D01*
X143188084Y-94653564D01*
X143337406Y-94561462D01*
X143413128Y-94485739D01*
X143474448Y-94452255D01*
X143501248Y-94449423D01*
X146976451Y-94462051D01*
X147043418Y-94481979D01*
X147088981Y-94534949D01*
X147100000Y-94586050D01*
X147100000Y-99699370D01*
X147080315Y-99766409D01*
X147027511Y-99812164D01*
X146966272Y-99822988D01*
X146933168Y-99820382D01*
X146282962Y-100470589D01*
X146265925Y-100407007D01*
X146200099Y-100292993D01*
X146107007Y-100199901D01*
X145992993Y-100134075D01*
X145929408Y-100117037D01*
X146579616Y-99466830D01*
X146579615Y-99466829D01*
X146520660Y-99423996D01*
X146327817Y-99325736D01*
X146327814Y-99325735D01*
X146121981Y-99258857D01*
X145908220Y-99225000D01*
X145691780Y-99225000D01*
X145478018Y-99258857D01*
X145272185Y-99325735D01*
X145272182Y-99325736D01*
X145079346Y-99423992D01*
X145020383Y-99466830D01*
X145670591Y-100117037D01*
X145607007Y-100134075D01*
X145492993Y-100199901D01*
X145399901Y-100292993D01*
X145334075Y-100407007D01*
X145317037Y-100470590D01*
X144666830Y-99820383D01*
X144623992Y-99879346D01*
X144525736Y-100072182D01*
X144525735Y-100072185D01*
X144458857Y-100278018D01*
X144425000Y-100491779D01*
X144425000Y-100708220D01*
X144458857Y-100921981D01*
X144525735Y-101127814D01*
X144525736Y-101127817D01*
X144623996Y-101320660D01*
X144666829Y-101379615D01*
X144666830Y-101379616D01*
X145317037Y-100729409D01*
X145334075Y-100792993D01*
X145399901Y-100907007D01*
X145492993Y-101000099D01*
X145607007Y-101065925D01*
X145670590Y-101082962D01*
X145020382Y-101733168D01*
X145021822Y-101751462D01*
X145007457Y-101819839D01*
X144958405Y-101869596D01*
X144890240Y-101884934D01*
X144865090Y-101880687D01*
X141127403Y-100844943D01*
X141068055Y-100808071D01*
X141063249Y-100802355D01*
X141061464Y-100800098D01*
X141061462Y-100800094D01*
X140937406Y-100676038D01*
X140801888Y-100592450D01*
X140788090Y-100583939D01*
X140788085Y-100583937D01*
X140788084Y-100583936D01*
X140621547Y-100528751D01*
X140621545Y-100528750D01*
X140518766Y-100518250D01*
X139965332Y-100518250D01*
X139932218Y-100513747D01*
X138890886Y-100225185D01*
X138831538Y-100188313D01*
X138801546Y-100125208D01*
X138800000Y-100105688D01*
X138800000Y-99808382D01*
X138819685Y-99741343D01*
X138872489Y-99695588D01*
X138941647Y-99685644D01*
X138963005Y-99690676D01*
X139016055Y-99708255D01*
X139016059Y-99708256D01*
X139118769Y-99718749D01*
X139568749Y-99718749D01*
X140068750Y-99718749D01*
X140518722Y-99718749D01*
X140518736Y-99718748D01*
X140621447Y-99708255D01*
X140787869Y-99653108D01*
X140787874Y-99653106D01*
X140937095Y-99561065D01*
X141061064Y-99437096D01*
X141061066Y-99437093D01*
X141153106Y-99287874D01*
X141153108Y-99287869D01*
X141208255Y-99121447D01*
X141208256Y-99121440D01*
X141218749Y-99018736D01*
X141218750Y-99018723D01*
X141218750Y-98806250D01*
X140068750Y-98806250D01*
X140068750Y-99718749D01*
X139568749Y-99718749D01*
X139568750Y-99718748D01*
X139568750Y-98806250D01*
X138377612Y-98806250D01*
X138310573Y-98786565D01*
X138289931Y-98769931D01*
X138288750Y-98768750D01*
X136018751Y-98768750D01*
X136018751Y-98981221D01*
X136018752Y-98981241D01*
X136021163Y-99004847D01*
X136008392Y-99073540D01*
X135960511Y-99124424D01*
X135899576Y-99141434D01*
X131800000Y-99199999D01*
X131799999Y-99200000D01*
X131703098Y-102979178D01*
X131681702Y-103045691D01*
X131627742Y-103090078D01*
X131579139Y-103100000D01*
X118088274Y-103100000D01*
X118041190Y-103076431D01*
X118038005Y-103073357D01*
X117459348Y-102494701D01*
X117516717Y-102470939D01*
X117624880Y-102398666D01*
X117716866Y-102306680D01*
X117789139Y-102198517D01*
X117812901Y-102141149D01*
X118365275Y-102693523D01*
X118365275Y-102693522D01*
X118413603Y-102627007D01*
X118514674Y-102428645D01*
X118583473Y-102216906D01*
X118618300Y-101997021D01*
X118618300Y-101774378D01*
X118583473Y-101554493D01*
X118514674Y-101342754D01*
X118413603Y-101144392D01*
X118365275Y-101077876D01*
X118365275Y-101077875D01*
X117812901Y-101630250D01*
X117789139Y-101572883D01*
X117716866Y-101464720D01*
X117624880Y-101372734D01*
X117516717Y-101300461D01*
X117459347Y-101276698D01*
X118011723Y-100724323D01*
X117945207Y-100675996D01*
X117746845Y-100574925D01*
X117535106Y-100506126D01*
X117315221Y-100471300D01*
X117092579Y-100471300D01*
X116872693Y-100506126D01*
X116660954Y-100574925D01*
X116462591Y-100675997D01*
X116396076Y-100724322D01*
X116396075Y-100724323D01*
X116948451Y-101276698D01*
X116891083Y-101300461D01*
X116782920Y-101372734D01*
X116690934Y-101464720D01*
X116618661Y-101572883D01*
X116594898Y-101630251D01*
X116042523Y-101077875D01*
X116042522Y-101077876D01*
X115994197Y-101144391D01*
X115893125Y-101342754D01*
X115824326Y-101554493D01*
X115789500Y-101774378D01*
X115789500Y-101997021D01*
X115824326Y-102216906D01*
X115893125Y-102428645D01*
X115994196Y-102627007D01*
X116042523Y-102693522D01*
X116042523Y-102693523D01*
X116594898Y-102141148D01*
X116618661Y-102198517D01*
X116690934Y-102306680D01*
X116782920Y-102398666D01*
X116891083Y-102470939D01*
X116948450Y-102494701D01*
X116369794Y-103073356D01*
X116320999Y-103100000D01*
X109300000Y-103100000D01*
X109300000Y-109976000D01*
X109280315Y-110043039D01*
X109227511Y-110088794D01*
X109176000Y-110100000D01*
X104522878Y-110100000D01*
X104455839Y-110080315D01*
X104410084Y-110027511D01*
X104398883Y-109977127D01*
X104384544Y-108399765D01*
X104373202Y-107152155D01*
X105700000Y-107152155D01*
X105700000Y-107950000D01*
X106766988Y-107950000D01*
X106734075Y-108007007D01*
X106700000Y-108134174D01*
X106700000Y-108265826D01*
X106734075Y-108392993D01*
X106766988Y-108450000D01*
X105700000Y-108450000D01*
X105700000Y-109247844D01*
X105706401Y-109307372D01*
X105706403Y-109307379D01*
X105756645Y-109442086D01*
X105756649Y-109442093D01*
X105842809Y-109557187D01*
X105842812Y-109557190D01*
X105957906Y-109643350D01*
X105957913Y-109643354D01*
X106092620Y-109693596D01*
X106092627Y-109693598D01*
X106152155Y-109699999D01*
X106152172Y-109700000D01*
X106950000Y-109700000D01*
X106950000Y-108633012D01*
X107007007Y-108665925D01*
X107134174Y-108700000D01*
X107265826Y-108700000D01*
X107392993Y-108665925D01*
X107450000Y-108633012D01*
X107450000Y-109700000D01*
X108247828Y-109700000D01*
X108247844Y-109699999D01*
X108307372Y-109693598D01*
X108307379Y-109693596D01*
X108442086Y-109643354D01*
X108442093Y-109643350D01*
X108557187Y-109557190D01*
X108557190Y-109557187D01*
X108643350Y-109442093D01*
X108643354Y-109442086D01*
X108693596Y-109307379D01*
X108693598Y-109307372D01*
X108699999Y-109247844D01*
X108700000Y-109247827D01*
X108700000Y-108450000D01*
X107633012Y-108450000D01*
X107665925Y-108392993D01*
X107700000Y-108265826D01*
X107700000Y-108134174D01*
X107665925Y-108007007D01*
X107633012Y-107950000D01*
X108700000Y-107950000D01*
X108700000Y-107152172D01*
X108699999Y-107152155D01*
X108693598Y-107092627D01*
X108693596Y-107092620D01*
X108643354Y-106957913D01*
X108643350Y-106957906D01*
X108557190Y-106842812D01*
X108557187Y-106842809D01*
X108442093Y-106756649D01*
X108442086Y-106756645D01*
X108307379Y-106706403D01*
X108307372Y-106706401D01*
X108247844Y-106700000D01*
X107450000Y-106700000D01*
X107450000Y-107766988D01*
X107392993Y-107734075D01*
X107265826Y-107700000D01*
X107134174Y-107700000D01*
X107007007Y-107734075D01*
X106950000Y-107766988D01*
X106950000Y-106700000D01*
X106152155Y-106700000D01*
X106092627Y-106706401D01*
X106092620Y-106706403D01*
X105957913Y-106756645D01*
X105957906Y-106756649D01*
X105842812Y-106842809D01*
X105842809Y-106842812D01*
X105756649Y-106957906D01*
X105756645Y-106957913D01*
X105706403Y-107092620D01*
X105706401Y-107092627D01*
X105700000Y-107152155D01*
X104373202Y-107152155D01*
X104373182Y-107149978D01*
X104335464Y-103000943D01*
X104324313Y-101774378D01*
X105629500Y-101774378D01*
X105629500Y-101997021D01*
X105664326Y-102216906D01*
X105733125Y-102428645D01*
X105834196Y-102627007D01*
X105882523Y-102693522D01*
X105882523Y-102693523D01*
X106434898Y-102141148D01*
X106458661Y-102198517D01*
X106530934Y-102306680D01*
X106622920Y-102398666D01*
X106731083Y-102470939D01*
X106788450Y-102494701D01*
X106236075Y-103047075D01*
X106302592Y-103095403D01*
X106500954Y-103196474D01*
X106712693Y-103265273D01*
X106932579Y-103300100D01*
X107155221Y-103300100D01*
X107375106Y-103265273D01*
X107586845Y-103196474D01*
X107785207Y-103095403D01*
X107851722Y-103047075D01*
X107299348Y-102494701D01*
X107356717Y-102470939D01*
X107464880Y-102398666D01*
X107556866Y-102306680D01*
X107629139Y-102198517D01*
X107652901Y-102141148D01*
X108205275Y-102693522D01*
X108253603Y-102627007D01*
X108354674Y-102428645D01*
X108423473Y-102216906D01*
X108458300Y-101997021D01*
X108458300Y-101774378D01*
X108423473Y-101554493D01*
X108354674Y-101342754D01*
X108253603Y-101144392D01*
X108205275Y-101077876D01*
X108205275Y-101077875D01*
X107652901Y-101630250D01*
X107629139Y-101572883D01*
X107556866Y-101464720D01*
X107464880Y-101372734D01*
X107356717Y-101300461D01*
X107299347Y-101276698D01*
X107851723Y-100724323D01*
X107785207Y-100675996D01*
X107586845Y-100574925D01*
X107375106Y-100506126D01*
X107155221Y-100471300D01*
X106932579Y-100471300D01*
X106712693Y-100506126D01*
X106500954Y-100574925D01*
X106302591Y-100675997D01*
X106236076Y-100724322D01*
X106236075Y-100724323D01*
X106788451Y-101276698D01*
X106731083Y-101300461D01*
X106622920Y-101372734D01*
X106530934Y-101464720D01*
X106458661Y-101572883D01*
X106434898Y-101630251D01*
X105882523Y-101077875D01*
X105882522Y-101077876D01*
X105834197Y-101144391D01*
X105733125Y-101342754D01*
X105664326Y-101554493D01*
X105629500Y-101774378D01*
X104324313Y-101774378D01*
X104324279Y-101770639D01*
X104315207Y-100772710D01*
X104301138Y-99225127D01*
X104320212Y-99157912D01*
X104372598Y-99111679D01*
X104425133Y-99100000D01*
X129900000Y-99100000D01*
X129900000Y-98056263D01*
X136018750Y-98056263D01*
X136018750Y-98268750D01*
X137168750Y-98268750D01*
X137668750Y-98268750D01*
X138859888Y-98268750D01*
X138926927Y-98288435D01*
X138947569Y-98305069D01*
X138948750Y-98306250D01*
X139568750Y-98306250D01*
X139568750Y-97973750D01*
X140068750Y-97973750D01*
X140068750Y-98306250D01*
X141218749Y-98306250D01*
X141218749Y-98093778D01*
X141218748Y-98093763D01*
X141208255Y-97991051D01*
X141201550Y-97970816D01*
X141199147Y-97900987D01*
X141234878Y-97840945D01*
X141297398Y-97809752D01*
X141358259Y-97814104D01*
X141416052Y-97833255D01*
X141416059Y-97833256D01*
X141518769Y-97843749D01*
X141968749Y-97843749D01*
X142468750Y-97843749D01*
X142918722Y-97843749D01*
X142918736Y-97843748D01*
X143021447Y-97833255D01*
X143187869Y-97778108D01*
X143187874Y-97778106D01*
X143337095Y-97686065D01*
X143461065Y-97562095D01*
X143553106Y-97412874D01*
X143553108Y-97412869D01*
X143608255Y-97246447D01*
X143608256Y-97246440D01*
X143618749Y-97143736D01*
X143618750Y-97143723D01*
X143618750Y-96931250D01*
X142468750Y-96931250D01*
X142468750Y-97843749D01*
X141968749Y-97843749D01*
X141968750Y-97843748D01*
X141968750Y-96931250D01*
X140106250Y-96931250D01*
X140106250Y-97884888D01*
X140097605Y-97914328D01*
X140091082Y-97944315D01*
X140087327Y-97949330D01*
X140086565Y-97951927D01*
X140069931Y-97972569D01*
X140068750Y-97973750D01*
X139568750Y-97973750D01*
X139568750Y-97352612D01*
X139588435Y-97285573D01*
X139605069Y-97264931D01*
X139606250Y-97263750D01*
X139606250Y-96931250D01*
X137668750Y-96931250D01*
X137668750Y-98268750D01*
X137168750Y-98268750D01*
X137168750Y-96931250D01*
X136018751Y-96931250D01*
X136018751Y-97143736D01*
X136029244Y-97246447D01*
X136084391Y-97412869D01*
X136084395Y-97412878D01*
X136159661Y-97534904D01*
X136178101Y-97602296D01*
X136159661Y-97665096D01*
X136084395Y-97787121D01*
X136084391Y-97787130D01*
X136029244Y-97953552D01*
X136029243Y-97953559D01*
X136018750Y-98056263D01*
X129900000Y-98056263D01*
X129900000Y-96218763D01*
X136018750Y-96218763D01*
X136018750Y-96431250D01*
X137168750Y-96431250D01*
X137668750Y-96431250D01*
X139606250Y-96431250D01*
X140106250Y-96431250D01*
X141968750Y-96431250D01*
X142468750Y-96431250D01*
X143618749Y-96431250D01*
X143618749Y-96218778D01*
X143618748Y-96218763D01*
X143608255Y-96116052D01*
X143553108Y-95949630D01*
X143553106Y-95949625D01*
X143461065Y-95800404D01*
X143337095Y-95676434D01*
X143187874Y-95584393D01*
X143187869Y-95584391D01*
X143021447Y-95529244D01*
X143021440Y-95529243D01*
X142918736Y-95518750D01*
X142468750Y-95518750D01*
X142468750Y-96431250D01*
X141968750Y-96431250D01*
X141968750Y-95518750D01*
X141518778Y-95518750D01*
X141518762Y-95518751D01*
X141416052Y-95529244D01*
X141249630Y-95584391D01*
X141249625Y-95584393D01*
X141102597Y-95675082D01*
X141035204Y-95693522D01*
X140972403Y-95675082D01*
X140825374Y-95584393D01*
X140825369Y-95584391D01*
X140658947Y-95529244D01*
X140658940Y-95529243D01*
X140556236Y-95518750D01*
X140106250Y-95518750D01*
X140106250Y-96431250D01*
X139606250Y-96431250D01*
X139606250Y-95518750D01*
X139156278Y-95518750D01*
X139156262Y-95518751D01*
X139053552Y-95529244D01*
X138887130Y-95584391D01*
X138887125Y-95584393D01*
X138737904Y-95676434D01*
X138725181Y-95689158D01*
X138663858Y-95722643D01*
X138594166Y-95717659D01*
X138549819Y-95689158D01*
X138537095Y-95676434D01*
X138387874Y-95584393D01*
X138387869Y-95584391D01*
X138221447Y-95529244D01*
X138221440Y-95529243D01*
X138118736Y-95518750D01*
X137668750Y-95518750D01*
X137668750Y-96431250D01*
X137168750Y-96431250D01*
X137168750Y-95518750D01*
X136718778Y-95518750D01*
X136718762Y-95518751D01*
X136616052Y-95529244D01*
X136449630Y-95584391D01*
X136449625Y-95584393D01*
X136300404Y-95676434D01*
X136176434Y-95800404D01*
X136084393Y-95949625D01*
X136084391Y-95949630D01*
X136029244Y-96116052D01*
X136029243Y-96116059D01*
X136018750Y-96218763D01*
X129900000Y-96218763D01*
X129900000Y-94524451D01*
X129919685Y-94457412D01*
X129972489Y-94411657D01*
X130024449Y-94400452D01*
X136110289Y-94422566D01*
G37*
%TD.AperFunction*%
%TA.AperFunction,Conductor*%
G36*
X146933167Y-101379615D02*
G01*
X146966270Y-101377010D01*
X147034647Y-101391374D01*
X147084405Y-101440425D01*
X147100000Y-101500628D01*
X147100000Y-102336965D01*
X147080315Y-102404004D01*
X147027511Y-102449759D01*
X146958353Y-102459703D01*
X146942886Y-102456462D01*
X146011665Y-102198413D01*
X145952317Y-102161541D01*
X145922325Y-102098436D01*
X145931211Y-102029133D01*
X145976154Y-101975637D01*
X146025381Y-101956443D01*
X146121981Y-101941142D01*
X146327814Y-101874264D01*
X146327817Y-101874263D01*
X146520656Y-101776006D01*
X146579615Y-101733168D01*
X146579616Y-101733168D01*
X145929409Y-101082962D01*
X145992993Y-101065925D01*
X146107007Y-101000099D01*
X146200099Y-100907007D01*
X146265925Y-100792993D01*
X146282962Y-100729410D01*
X146933167Y-101379615D01*
G37*
%TD.AperFunction*%
%TD*%
%TA.AperFunction,Conductor*%
%TO.N,GND*%
G36*
X143343039Y-113719685D02*
G01*
X143388794Y-113772489D01*
X143400000Y-113824000D01*
X143400000Y-114779485D01*
X143380315Y-114846524D01*
X143344892Y-114882586D01*
X143299994Y-114912586D01*
X143299988Y-114912591D01*
X142515348Y-115697233D01*
X142399992Y-115812589D01*
X142356289Y-115856292D01*
X142312586Y-115899994D01*
X142312585Y-115899996D01*
X142243233Y-116003789D01*
X142241586Y-116008393D01*
X142196614Y-116116964D01*
X142196612Y-116116972D01*
X142172500Y-116238192D01*
X142172500Y-116317794D01*
X142152815Y-116384833D01*
X142130155Y-116411113D01*
X141835064Y-116669319D01*
X141810819Y-116680533D01*
X141788344Y-116694977D01*
X141775644Y-116696802D01*
X141771649Y-116698651D01*
X141753409Y-116700000D01*
X141543050Y-116700000D01*
X141476011Y-116680315D01*
X141430256Y-116627511D01*
X141420312Y-116558353D01*
X141426868Y-116532667D01*
X141473596Y-116407380D01*
X141473598Y-116407372D01*
X141479999Y-116347844D01*
X141480000Y-116347827D01*
X141480000Y-115450000D01*
X140504000Y-115450000D01*
X140436961Y-115430315D01*
X140391206Y-115377511D01*
X140380000Y-115326000D01*
X140380000Y-115074000D01*
X140399685Y-115006961D01*
X140452489Y-114961206D01*
X140504000Y-114950000D01*
X141480000Y-114950000D01*
X141480000Y-114052172D01*
X141479999Y-114052155D01*
X141473598Y-113992627D01*
X141473596Y-113992619D01*
X141426868Y-113867333D01*
X141421884Y-113797641D01*
X141455369Y-113736318D01*
X141516693Y-113702834D01*
X141543050Y-113700000D01*
X143276000Y-113700000D01*
X143343039Y-113719685D01*
G37*
%TD.AperFunction*%
%TD*%
M02*
