%TF.GenerationSoftware,KiCad,Pcbnew,9.0.5*%
%TF.CreationDate,2025-10-18T17:09:32-07:00*%
%TF.ProjectId,Flyback_CCM_Converter,466c7962-6163-46b5-9f43-434d5f436f6e,rev?*%
%TF.SameCoordinates,Original*%
%TF.FileFunction,Soldermask,Top*%
%TF.FilePolarity,Negative*%
%FSLAX46Y46*%
G04 Gerber Fmt 4.6, Leading zero omitted, Abs format (unit mm)*
G04 Created by KiCad (PCBNEW 9.0.5) date 2025-10-18 17:09:32*
%MOMM*%
%LPD*%
G01*
G04 APERTURE LIST*
G04 Aperture macros list*
%AMRoundRect*
0 Rectangle with rounded corners*
0 $1 Rounding radius*
0 $2 $3 $4 $5 $6 $7 $8 $9 X,Y pos of 4 corners*
0 Add a 4 corners polygon primitive as box body*
4,1,4,$2,$3,$4,$5,$6,$7,$8,$9,$2,$3,0*
0 Add four circle primitives for the rounded corners*
1,1,$1+$1,$2,$3*
1,1,$1+$1,$4,$5*
1,1,$1+$1,$6,$7*
1,1,$1+$1,$8,$9*
0 Add four rect primitives between the rounded corners*
20,1,$1+$1,$2,$3,$4,$5,0*
20,1,$1+$1,$4,$5,$6,$7,0*
20,1,$1+$1,$6,$7,$8,$9,0*
20,1,$1+$1,$8,$9,$2,$3,0*%
G04 Aperture macros list end*
%ADD10RoundRect,0.162500X-0.162500X0.447500X-0.162500X-0.447500X0.162500X-0.447500X0.162500X0.447500X0*%
%ADD11C,1.828800*%
%ADD12C,1.750000*%
%ADD13R,2.000000X2.000000*%
%ADD14RoundRect,0.250000X0.625000X-0.400000X0.625000X0.400000X-0.625000X0.400000X-0.625000X-0.400000X0*%
%ADD15RoundRect,0.237500X-0.237500X0.250000X-0.237500X-0.250000X0.237500X-0.250000X0.237500X0.250000X0*%
%ADD16RoundRect,0.250000X0.400000X0.625000X-0.400000X0.625000X-0.400000X-0.625000X0.400000X-0.625000X0*%
%ADD17RoundRect,0.250000X0.650000X-0.412500X0.650000X0.412500X-0.650000X0.412500X-0.650000X-0.412500X0*%
%ADD18R,1.200000X2.200000*%
%ADD19R,5.800000X6.400000*%
%ADD20RoundRect,0.250000X-0.475000X0.337500X-0.475000X-0.337500X0.475000X-0.337500X0.475000X0.337500X0*%
%ADD21RoundRect,0.250000X0.412500X0.650000X-0.412500X0.650000X-0.412500X-0.650000X0.412500X-0.650000X0*%
%ADD22RoundRect,0.237500X-0.250000X-0.237500X0.250000X-0.237500X0.250000X0.237500X-0.250000X0.237500X0*%
%ADD23RoundRect,0.237500X0.237500X-0.250000X0.237500X0.250000X-0.237500X0.250000X-0.237500X-0.250000X0*%
%ADD24RoundRect,0.237500X0.300000X0.237500X-0.300000X0.237500X-0.300000X-0.237500X0.300000X-0.237500X0*%
%ADD25RoundRect,0.250000X-0.412500X-0.650000X0.412500X-0.650000X0.412500X0.650000X-0.412500X0.650000X0*%
%ADD26R,1.981200X0.558800*%
%ADD27RoundRect,0.250000X-0.400000X-0.625000X0.400000X-0.625000X0.400000X0.625000X-0.400000X0.625000X0*%
%ADD28R,1.651000X2.184400*%
%ADD29RoundRect,0.237500X0.250000X0.237500X-0.250000X0.237500X-0.250000X-0.237500X0.250000X-0.237500X0*%
%ADD30RoundRect,0.250000X-0.650000X0.412500X-0.650000X-0.412500X0.650000X-0.412500X0.650000X0.412500X0*%
%ADD31RoundRect,0.250000X-0.450000X0.350000X-0.450000X-0.350000X0.450000X-0.350000X0.450000X0.350000X0*%
%ADD32RoundRect,0.250000X-0.600000X1.400000X-0.600000X-1.400000X0.600000X-1.400000X0.600000X1.400000X0*%
%ADD33RoundRect,0.250000X0.350000X-0.850000X0.350000X0.850000X-0.350000X0.850000X-0.350000X-0.850000X0*%
%ADD34RoundRect,0.249997X2.650003X-2.950003X2.650003X2.950003X-2.650003X2.950003X-2.650003X-2.950003X0*%
%ADD35RoundRect,0.250000X-0.625000X0.400000X-0.625000X-0.400000X0.625000X-0.400000X0.625000X0.400000X0*%
G04 APERTURE END LIST*
D10*
%TO.C,Q2*%
X146150000Y-132890000D03*
X144250000Y-132890000D03*
X145200000Y-135510000D03*
%TD*%
D11*
%TO.C,+12V*%
X107043900Y-101885700D03*
X117203900Y-101885700D03*
%TD*%
%TO.C,+5V*%
X227000000Y-101800000D03*
X216840000Y-101800000D03*
%TD*%
D12*
%TO.C,T1*%
X145800000Y-100600000D03*
X145800000Y-105680000D03*
X163300000Y-105600000D03*
X166040000Y-105670000D03*
X163300000Y-100600000D03*
X166090000Y-100580000D03*
X163300000Y-110600000D03*
X166070000Y-110730000D03*
X163300000Y-95600000D03*
X166070000Y-95500000D03*
%TD*%
D13*
%TO.C,TP3*%
X227200000Y-108200000D03*
%TD*%
%TO.C,TP1*%
X107200000Y-108200000D03*
%TD*%
%TO.C,TP4*%
X226600000Y-125200000D03*
%TD*%
%TO.C,TP2*%
X106962500Y-125285700D03*
%TD*%
D11*
%TO.C,GND*%
X216640000Y-131400000D03*
X226800000Y-131400000D03*
%TD*%
%TO.C,GND*%
X117003900Y-131485700D03*
X106843900Y-131485700D03*
%TD*%
D14*
%TO.C,Rosc1*%
X145000000Y-117850000D03*
X145000000Y-120950000D03*
%TD*%
D13*
%TO.C,TP7*%
X156800000Y-123200000D03*
%TD*%
D15*
%TO.C,Rcomp_2*%
X149800000Y-127300000D03*
X149800000Y-125475000D03*
%TD*%
D16*
%TO.C,Rb1*%
X151700000Y-128400000D03*
X154800000Y-128400000D03*
%TD*%
D14*
%TO.C,R_isense1*%
X147800000Y-120450000D03*
X147800000Y-123550000D03*
%TD*%
D17*
%TO.C,C_isense1*%
X150200000Y-120637500D03*
X150200000Y-123762500D03*
%TD*%
%TO.C,Ccomp_3*%
X147800000Y-125475000D03*
X147800000Y-128600000D03*
%TD*%
D18*
%TO.C,Q1*%
X140480000Y-116100000D03*
D19*
X138200000Y-109800000D03*
D18*
X135920000Y-116100000D03*
%TD*%
D20*
%TO.C,C_ss1*%
X142400000Y-137675000D03*
X142400000Y-135600000D03*
%TD*%
D21*
%TO.C,Cosc1*%
X139675000Y-120800000D03*
X142800000Y-120800000D03*
%TD*%
%TO.C,Ccomp_2*%
X151637500Y-126000000D03*
X154762500Y-126000000D03*
%TD*%
D16*
%TO.C,R_ss1*%
X139237500Y-133400000D03*
X142337500Y-133400000D03*
%TD*%
D22*
%TO.C,Rcomp_1*%
X158400000Y-127600000D03*
X156575000Y-127600000D03*
%TD*%
D23*
%TO.C,Rdiv_3*%
X135237500Y-130175000D03*
X135237500Y-132000000D03*
%TD*%
D16*
%TO.C,Rdiv_1*%
X137137500Y-128600000D03*
X140237500Y-128600000D03*
%TD*%
D24*
%TO.C,C14*%
X136137500Y-125400000D03*
X137862500Y-125400000D03*
%TD*%
D25*
%TO.C,Ccomp_1*%
X149600000Y-130675000D03*
X146475000Y-130675000D03*
%TD*%
D13*
%TO.C,TP6*%
X142637500Y-130400000D03*
%TD*%
D26*
%TO.C,U1*%
X140072400Y-126610000D03*
X140072400Y-125340000D03*
X140072400Y-124070000D03*
X140072400Y-122800000D03*
X145000000Y-122800000D03*
X145000000Y-124070000D03*
X145000000Y-125340000D03*
X145000000Y-126610000D03*
%TD*%
D16*
%TO.C,Rdiv_2*%
X137137500Y-131000000D03*
X140237500Y-131000000D03*
%TD*%
D27*
%TO.C,R_isense2*%
X156200000Y-117200000D03*
X153100000Y-117200000D03*
%TD*%
D28*
%TO.C,CR1*%
X153200000Y-123454200D03*
X153200000Y-119745800D03*
%TD*%
D29*
%TO.C,Rcomp_3*%
X156487500Y-126000000D03*
X158312500Y-126000000D03*
%TD*%
D14*
%TO.C,Rg_1*%
X135625000Y-119150000D03*
X135625000Y-122250000D03*
%TD*%
%TO.C,Rg_2*%
X133225000Y-119200000D03*
X133225000Y-122300000D03*
%TD*%
D17*
%TO.C,Cin_5*%
X127400000Y-98437500D03*
X127400000Y-101562500D03*
%TD*%
%TO.C,Cin_1*%
X122600000Y-98437500D03*
X122600000Y-101562500D03*
%TD*%
D30*
%TO.C,Cin_3*%
X125000000Y-106562500D03*
X125000000Y-103437500D03*
%TD*%
D17*
%TO.C,Cin_4*%
X125037500Y-98437500D03*
X125037500Y-101562500D03*
%TD*%
D30*
%TO.C,C17*%
X127400000Y-106600000D03*
X127400000Y-103475000D03*
%TD*%
D17*
%TO.C,Cout_1*%
X182400000Y-99825000D03*
X182400000Y-96700000D03*
%TD*%
D31*
%TO.C,Rpreload16*%
X202800000Y-113300000D03*
X202800000Y-115300000D03*
%TD*%
%TO.C,Rpreload17*%
X204800000Y-101900000D03*
X204800000Y-103900000D03*
%TD*%
D30*
%TO.C,Cout_9*%
X189800000Y-101737500D03*
X189800000Y-104862500D03*
%TD*%
D31*
%TO.C,Rpreload18*%
X204800000Y-105700000D03*
X204800000Y-107700000D03*
%TD*%
%TO.C,Rpreload9*%
X198800000Y-101900000D03*
X198800000Y-103900000D03*
%TD*%
D17*
%TO.C,Cout_5*%
X192200000Y-99862500D03*
X192200000Y-96737500D03*
%TD*%
D30*
%TO.C,Cout_4*%
X185000000Y-101737500D03*
X185000000Y-104862500D03*
%TD*%
D31*
%TO.C,Rpreload12*%
X198800000Y-113300000D03*
X198800000Y-115300000D03*
%TD*%
D17*
%TO.C,C_snub1*%
X137000000Y-104562500D03*
X137000000Y-101437500D03*
%TD*%
D31*
%TO.C,Rpreload26*%
X208800000Y-105700000D03*
X208800000Y-107700000D03*
%TD*%
D30*
%TO.C,Cout_8*%
X187400000Y-101737500D03*
X187400000Y-104862500D03*
%TD*%
D31*
%TO.C,Rpreload30*%
X210800000Y-105700000D03*
X210800000Y-107700000D03*
%TD*%
%TO.C,Rpreload14*%
X202800000Y-105700000D03*
X202800000Y-107700000D03*
%TD*%
D32*
%TO.C,D4*%
X180600000Y-102750000D03*
X180600000Y-108250000D03*
%TD*%
D13*
%TO.C,TP8*%
X134200000Y-103800000D03*
%TD*%
D30*
%TO.C,Cout_10*%
X192200000Y-101737500D03*
X192200000Y-104862500D03*
%TD*%
D31*
%TO.C,Rpreload24*%
X206800000Y-113300000D03*
X206800000Y-115300000D03*
%TD*%
%TO.C,Rpreload31*%
X210800000Y-109500000D03*
X210800000Y-111500000D03*
%TD*%
%TO.C,Rpreload19*%
X204800000Y-109500000D03*
X204800000Y-111500000D03*
%TD*%
%TO.C,Rpreload10*%
X198800000Y-105700000D03*
X198800000Y-107700000D03*
%TD*%
%TO.C,Rpreload32*%
X210800000Y-113300000D03*
X210800000Y-115300000D03*
%TD*%
D30*
%TO.C,Cout_2*%
X194600000Y-101737500D03*
X194600000Y-104862500D03*
%TD*%
D33*
%TO.C,R8*%
X170395000Y-102475000D03*
D34*
X172675000Y-96175000D03*
D33*
X174955000Y-102475000D03*
%TD*%
D17*
%TO.C,Cout_7*%
X187400000Y-99862500D03*
X187400000Y-96737500D03*
%TD*%
D31*
%TO.C,Rpreload6*%
X200800000Y-105700000D03*
X200800000Y-107700000D03*
%TD*%
%TO.C,Rpreload11*%
X198800000Y-109500000D03*
X198800000Y-111500000D03*
%TD*%
%TO.C,Rpreload1*%
X196800000Y-101900000D03*
X196800000Y-103900000D03*
%TD*%
%TO.C,Rpreload8*%
X200800000Y-113300000D03*
X200800000Y-115300000D03*
%TD*%
%TO.C,Rpreload21*%
X206800000Y-101900000D03*
X206800000Y-103900000D03*
%TD*%
D17*
%TO.C,Cout_6*%
X189800000Y-99862500D03*
X189800000Y-96737500D03*
%TD*%
D35*
%TO.C,R_snub1*%
X139600000Y-101450000D03*
X139600000Y-104550000D03*
%TD*%
D17*
%TO.C,Cout_3*%
X185000000Y-99862500D03*
X185000000Y-96737500D03*
%TD*%
D31*
%TO.C,Rpreload13*%
X202800000Y-101900000D03*
X202800000Y-103900000D03*
%TD*%
%TO.C,Rpreload20*%
X204800000Y-113300000D03*
X204800000Y-115300000D03*
%TD*%
%TO.C,Rpreload15*%
X202800000Y-109500000D03*
X202800000Y-111500000D03*
%TD*%
%TO.C,Rpreload4*%
X196800000Y-113300000D03*
X196800000Y-115300000D03*
%TD*%
%TO.C,Rpreload27*%
X208800000Y-109500000D03*
X208800000Y-111500000D03*
%TD*%
%TO.C,Rpreload5*%
X200800000Y-101900000D03*
X200800000Y-103900000D03*
%TD*%
%TO.C,Rpreload25*%
X208800000Y-101900000D03*
X208800000Y-103900000D03*
%TD*%
%TO.C,Rpreload3*%
X196800000Y-109500000D03*
X196800000Y-111500000D03*
%TD*%
%TO.C,Rpreload28*%
X208800000Y-113300000D03*
X208800000Y-115300000D03*
%TD*%
%TO.C,Rpreload2*%
X196800000Y-105700000D03*
X196800000Y-107700000D03*
%TD*%
D14*
%TO.C,R11*%
X180600000Y-114250000D03*
X180600000Y-111150000D03*
%TD*%
D31*
%TO.C,Rpreload23*%
X206800000Y-109500000D03*
X206800000Y-111500000D03*
%TD*%
%TO.C,Rpreload7*%
X200800000Y-109500000D03*
X200800000Y-111500000D03*
%TD*%
D13*
%TO.C,TP5*%
X130600000Y-121800000D03*
%TD*%
D31*
%TO.C,Rpreload29*%
X210800000Y-101900000D03*
X210800000Y-103900000D03*
%TD*%
%TO.C,Rpreload22*%
X206800000Y-105700000D03*
X206800000Y-107700000D03*
%TD*%
D30*
%TO.C,Cin_2*%
X122600000Y-106525000D03*
X122600000Y-103400000D03*
%TD*%
M02*
