%TF.GenerationSoftware,KiCad,Pcbnew,9.0.5*%
%TF.CreationDate,2025-10-30T21:41:21-07:00*%
%TF.ProjectId,Flyback_CCM_Converter,466c7962-6163-46b5-9f43-434d5f436f6e,rev?*%
%TF.SameCoordinates,Original*%
%TF.FileFunction,Soldermask,Top*%
%TF.FilePolarity,Negative*%
%FSLAX46Y46*%
G04 Gerber Fmt 4.6, Leading zero omitted, Abs format (unit mm)*
G04 Created by KiCad (PCBNEW 9.0.5) date 2025-10-30 21:41:21*
%MOMM*%
%LPD*%
G01*
G04 APERTURE LIST*
G04 Aperture macros list*
%AMRoundRect*
0 Rectangle with rounded corners*
0 $1 Rounding radius*
0 $2 $3 $4 $5 $6 $7 $8 $9 X,Y pos of 4 corners*
0 Add a 4 corners polygon primitive as box body*
4,1,4,$2,$3,$4,$5,$6,$7,$8,$9,$2,$3,0*
0 Add four circle primitives for the rounded corners*
1,1,$1+$1,$2,$3*
1,1,$1+$1,$4,$5*
1,1,$1+$1,$6,$7*
1,1,$1+$1,$8,$9*
0 Add four rect primitives between the rounded corners*
20,1,$1+$1,$2,$3,$4,$5,0*
20,1,$1+$1,$4,$5,$6,$7,0*
20,1,$1+$1,$6,$7,$8,$9,0*
20,1,$1+$1,$8,$9,$2,$3,0*%
G04 Aperture macros list end*
%ADD10RoundRect,0.250000X0.650000X-0.412500X0.650000X0.412500X-0.650000X0.412500X-0.650000X-0.412500X0*%
%ADD11RoundRect,0.250000X-0.475000X0.337500X-0.475000X-0.337500X0.475000X-0.337500X0.475000X0.337500X0*%
%ADD12RoundRect,0.250000X0.412500X0.650000X-0.412500X0.650000X-0.412500X-0.650000X0.412500X-0.650000X0*%
%ADD13R,2.000000X2.000000*%
%ADD14RoundRect,0.250000X0.625000X-0.400000X0.625000X0.400000X-0.625000X0.400000X-0.625000X-0.400000X0*%
%ADD15RoundRect,0.162500X0.447500X0.162500X-0.447500X0.162500X-0.447500X-0.162500X0.447500X-0.162500X0*%
%ADD16RoundRect,0.250000X-0.412500X-0.650000X0.412500X-0.650000X0.412500X0.650000X-0.412500X0.650000X0*%
%ADD17RoundRect,0.237500X-0.237500X0.250000X-0.237500X-0.250000X0.237500X-0.250000X0.237500X0.250000X0*%
%ADD18RoundRect,0.237500X-0.237500X0.300000X-0.237500X-0.300000X0.237500X-0.300000X0.237500X0.300000X0*%
%ADD19RoundRect,0.250000X0.400000X0.625000X-0.400000X0.625000X-0.400000X-0.625000X0.400000X-0.625000X0*%
%ADD20RoundRect,0.237500X-0.250000X-0.237500X0.250000X-0.237500X0.250000X0.237500X-0.250000X0.237500X0*%
%ADD21R,1.651000X2.184400*%
%ADD22RoundRect,0.237500X0.250000X0.237500X-0.250000X0.237500X-0.250000X-0.237500X0.250000X-0.237500X0*%
%ADD23R,1.981200X0.558800*%
%ADD24R,1.200000X2.200000*%
%ADD25R,5.800000X6.400000*%
%ADD26RoundRect,0.250000X0.600000X-1.400000X0.600000X1.400000X-0.600000X1.400000X-0.600000X-1.400000X0*%
%ADD27RoundRect,0.250000X-0.600000X1.400000X-0.600000X-1.400000X0.600000X-1.400000X0.600000X1.400000X0*%
%ADD28RoundRect,0.250000X-0.625000X0.400000X-0.625000X-0.400000X0.625000X-0.400000X0.625000X0.400000X0*%
%ADD29RoundRect,0.250000X-0.650000X0.412500X-0.650000X-0.412500X0.650000X-0.412500X0.650000X0.412500X0*%
%ADD30RoundRect,0.162500X0.162500X-0.837500X0.162500X0.837500X-0.162500X0.837500X-0.162500X-0.837500X0*%
%ADD31C,1.750000*%
%ADD32C,1.828800*%
%ADD33RoundRect,0.250000X0.350000X-0.850000X0.350000X0.850000X-0.350000X0.850000X-0.350000X-0.850000X0*%
%ADD34RoundRect,0.249997X2.650003X-2.950003X2.650003X2.950003X-2.650003X2.950003X-2.650003X-2.950003X0*%
%ADD35RoundRect,0.250000X-0.400000X-0.625000X0.400000X-0.625000X0.400000X0.625000X-0.400000X0.625000X0*%
%ADD36RoundRect,0.250000X0.450000X-0.350000X0.450000X0.350000X-0.450000X0.350000X-0.450000X-0.350000X0*%
G04 APERTURE END LIST*
D10*
%TO.C,Ccomp_3*%
X147800000Y-128600000D03*
X147800000Y-125475000D03*
%TD*%
D11*
%TO.C,C_ss1*%
X142400000Y-135600000D03*
X142400000Y-137675000D03*
%TD*%
D10*
%TO.C,C_isense1*%
X150200000Y-123762500D03*
X150200000Y-120637500D03*
%TD*%
D12*
%TO.C,Ccomp_2*%
X154762500Y-126000000D03*
X151637500Y-126000000D03*
%TD*%
D13*
%TO.C,TP9*%
X151600000Y-133500000D03*
%TD*%
D12*
%TO.C,Cosc1*%
X139675000Y-120800000D03*
X142800000Y-120800000D03*
%TD*%
D14*
%TO.C,Rosc1*%
X145000000Y-117850000D03*
X145000000Y-120950000D03*
%TD*%
D15*
%TO.C,Q2*%
X147710000Y-135050000D03*
X147710000Y-133150000D03*
X145090000Y-134100000D03*
%TD*%
D16*
%TO.C,Ccomp_1*%
X146475000Y-130675000D03*
X149600000Y-130675000D03*
%TD*%
D13*
%TO.C,TP6*%
X142637500Y-130400000D03*
%TD*%
D17*
%TO.C,Rcomp_2*%
X149800000Y-125475000D03*
X149800000Y-127300000D03*
%TD*%
D18*
%TO.C,C14*%
X138000000Y-127037500D03*
X138000000Y-128762500D03*
%TD*%
D13*
%TO.C,TP7*%
X156800000Y-123200000D03*
%TD*%
D19*
%TO.C,R_ss1*%
X142337500Y-133400000D03*
X139237500Y-133400000D03*
%TD*%
D20*
%TO.C,Rcomp_1*%
X156575000Y-127600000D03*
X158400000Y-127600000D03*
%TD*%
D18*
%TO.C,C17*%
X136500000Y-125337500D03*
X136500000Y-127062500D03*
%TD*%
D19*
%TO.C,R_isense2*%
X153100000Y-117100000D03*
X150000000Y-117100000D03*
%TD*%
D21*
%TO.C,CR1*%
X153200000Y-119745800D03*
X153200000Y-123454200D03*
%TD*%
D19*
%TO.C,Rb1*%
X154800000Y-128400000D03*
X151700000Y-128400000D03*
%TD*%
D22*
%TO.C,Rcomp_3*%
X158312500Y-126000000D03*
X156487500Y-126000000D03*
%TD*%
D14*
%TO.C,R_isense1*%
X147800000Y-123550000D03*
X147800000Y-120450000D03*
%TD*%
D23*
%TO.C,U1*%
X145000000Y-126610000D03*
X145000000Y-125340000D03*
X145000000Y-124070000D03*
X145000000Y-122800000D03*
X140072400Y-122800000D03*
X140072400Y-124070000D03*
X140072400Y-125340000D03*
X140072400Y-126610000D03*
%TD*%
D14*
%TO.C,Rg_1*%
X135600000Y-118250000D03*
X135600000Y-121350000D03*
%TD*%
D24*
%TO.C,Q1*%
X140380000Y-115200000D03*
D25*
X138100000Y-108900000D03*
D24*
X135820000Y-115200000D03*
%TD*%
D26*
%TO.C,D5*%
X127400000Y-124505000D03*
X127400000Y-130005000D03*
%TD*%
D27*
%TO.C,D6*%
X129700000Y-124550000D03*
X129700000Y-130050000D03*
%TD*%
D28*
%TO.C,Rpreload33*%
X197100000Y-121350000D03*
X197100000Y-124450000D03*
%TD*%
D29*
%TO.C,Cout_9*%
X189800000Y-101737500D03*
X189800000Y-104862500D03*
%TD*%
D28*
%TO.C,Rpreload16*%
X208300000Y-106550000D03*
X208300000Y-109650000D03*
%TD*%
D30*
%TO.C,Q3*%
X120550000Y-118810000D03*
X122450000Y-118810000D03*
X121500000Y-115390000D03*
%TD*%
D28*
%TO.C,Rpreload9*%
X200700000Y-121250000D03*
X200700000Y-124350000D03*
%TD*%
%TO.C,Rpreload14*%
X204600000Y-121250000D03*
X204600000Y-124350000D03*
%TD*%
D31*
%TO.C,T1*%
X145800000Y-100600000D03*
X145800000Y-105680000D03*
X163300000Y-105600000D03*
X166040000Y-105670000D03*
X163300000Y-100600000D03*
X166090000Y-100580000D03*
X163300000Y-110600000D03*
X166070000Y-110730000D03*
X163300000Y-95600000D03*
X166070000Y-95500000D03*
%TD*%
D28*
%TO.C,Rpreload12*%
X204600000Y-111450000D03*
X204600000Y-114550000D03*
%TD*%
%TO.C,Rpreload21*%
X212400000Y-106550000D03*
X212400000Y-109650000D03*
%TD*%
D10*
%TO.C,Cout_5*%
X192200000Y-99862500D03*
X192200000Y-96737500D03*
%TD*%
D13*
%TO.C,TP4*%
X226600000Y-125200000D03*
%TD*%
D28*
%TO.C,Rpreload5*%
X200700000Y-101550000D03*
X200700000Y-104650000D03*
%TD*%
D29*
%TO.C,Cout_4*%
X185000000Y-101737500D03*
X185000000Y-104862500D03*
%TD*%
D14*
%TO.C,Rg_2*%
X133200000Y-121400000D03*
X133200000Y-118300000D03*
%TD*%
D12*
%TO.C,C_snub1*%
X127712500Y-108900000D03*
X124587500Y-108900000D03*
%TD*%
D29*
%TO.C,Cout_8*%
X187400000Y-101737500D03*
X187400000Y-104862500D03*
%TD*%
D28*
%TO.C,Rpreload6*%
X200700000Y-106450000D03*
X200700000Y-109550000D03*
%TD*%
D30*
%TO.C,Q4*%
X126150000Y-118810000D03*
X128050000Y-118810000D03*
X127100000Y-115390000D03*
%TD*%
D28*
%TO.C,Rpreload10*%
X204600000Y-101650000D03*
X204600000Y-104750000D03*
%TD*%
D32*
%TO.C,J4*%
X226800000Y-131400000D03*
X216640000Y-131400000D03*
%TD*%
D27*
%TO.C,D4*%
X180600000Y-102750000D03*
X180600000Y-108250000D03*
%TD*%
D13*
%TO.C,TP8*%
X132100000Y-111800000D03*
%TD*%
D10*
%TO.C,Cin_1*%
X137418750Y-96681250D03*
X137418750Y-93556250D03*
%TD*%
D28*
%TO.C,Rpreload20*%
X212400000Y-101650000D03*
X212400000Y-104750000D03*
%TD*%
D29*
%TO.C,Cin_3*%
X139818750Y-98556250D03*
X139818750Y-101681250D03*
%TD*%
%TO.C,Cout_10*%
X192200000Y-101737500D03*
X192200000Y-104862500D03*
%TD*%
D28*
%TO.C,Rpreload24*%
X212400000Y-121250000D03*
X212400000Y-124350000D03*
%TD*%
D29*
%TO.C,Cout_2*%
X194600000Y-101737500D03*
X194600000Y-104862500D03*
%TD*%
D33*
%TO.C,R8*%
X170395000Y-102475000D03*
D34*
X172675000Y-96175000D03*
D33*
X174955000Y-102475000D03*
%TD*%
D10*
%TO.C,Cout_7*%
X187400000Y-99862500D03*
X187400000Y-96737500D03*
%TD*%
D32*
%TO.C,+5V1*%
X227000000Y-101800000D03*
X216840000Y-101800000D03*
%TD*%
D13*
%TO.C,TP1*%
X107200000Y-108200000D03*
%TD*%
D28*
%TO.C,Rpreload15*%
X208300000Y-101650000D03*
X208300000Y-104750000D03*
%TD*%
D32*
%TO.C,+12*%
X107043900Y-101885700D03*
X117203900Y-101885700D03*
%TD*%
D28*
%TO.C,Rpreload1*%
X197100000Y-101650000D03*
X197100000Y-104750000D03*
%TD*%
D10*
%TO.C,Cout_1*%
X182400000Y-99825000D03*
X182400000Y-96700000D03*
%TD*%
D28*
%TO.C,Rpreload23*%
X212400000Y-116350000D03*
X212400000Y-119450000D03*
%TD*%
%TO.C,Rpreload13*%
X204600000Y-116350000D03*
X204600000Y-119450000D03*
%TD*%
D10*
%TO.C,Cin_4*%
X139856250Y-96681250D03*
X139856250Y-93556250D03*
%TD*%
%TO.C,Cout_6*%
X189800000Y-99862500D03*
X189800000Y-96737500D03*
%TD*%
D28*
%TO.C,Rpreload19*%
X208300000Y-121250000D03*
X208300000Y-124350000D03*
%TD*%
%TO.C,Rpreload22*%
X212400000Y-111450000D03*
X212400000Y-114550000D03*
%TD*%
%TO.C,Rpreload8*%
X200700000Y-116350000D03*
X200700000Y-119450000D03*
%TD*%
D35*
%TO.C,R_snub1*%
X129600000Y-108900000D03*
X132700000Y-108900000D03*
%TD*%
D10*
%TO.C,Cout_3*%
X185000000Y-99862500D03*
X185000000Y-96737500D03*
%TD*%
D13*
%TO.C,TP3*%
X227200000Y-108200000D03*
%TD*%
D28*
%TO.C,Rpreload4*%
X197100000Y-116450000D03*
X197100000Y-119550000D03*
%TD*%
%TO.C,Rpreload11*%
X204600000Y-106550000D03*
X204600000Y-109650000D03*
%TD*%
D36*
%TO.C,Rb2*%
X123400000Y-124300000D03*
X123400000Y-122300000D03*
%TD*%
D32*
%TO.C,J3*%
X106843900Y-131485700D03*
X117003900Y-131485700D03*
%TD*%
D28*
%TO.C,Rpreload3*%
X197100000Y-111550000D03*
X197100000Y-114650000D03*
%TD*%
%TO.C,Rpreload2*%
X197100000Y-106600000D03*
X197100000Y-109700000D03*
%TD*%
D14*
%TO.C,R11*%
X180600000Y-114250000D03*
X180600000Y-111150000D03*
%TD*%
D13*
%TO.C,TP5*%
X121000000Y-112400000D03*
%TD*%
D28*
%TO.C,Rpreload17*%
X208300000Y-111450000D03*
X208300000Y-114550000D03*
%TD*%
%TO.C,Rpreload7*%
X200700000Y-111350000D03*
X200700000Y-114450000D03*
%TD*%
%TO.C,Rpreload18*%
X208300000Y-116350000D03*
X208300000Y-119450000D03*
%TD*%
D13*
%TO.C,TP2*%
X106962500Y-125285700D03*
%TD*%
D10*
%TO.C,Cin_5*%
X142218750Y-96681250D03*
X142218750Y-93556250D03*
%TD*%
D29*
%TO.C,Cin_2*%
X137418750Y-98518750D03*
X137418750Y-101643750D03*
%TD*%
M02*
