M48
; DRILL file {KiCad 9.0.5} date 2025-10-30T21:44:05-0700
; FORMAT={-:-/ absolute / metric / decimal}
; #@! TF.CreationDate,2025-10-30T21:44:05-07:00
; #@! TF.GenerationSoftware,Kicad,Pcbnew,9.0.5
; #@! TF.FileFunction,Plated,1,2,PTH
FMAT,2
METRIC
; #@! TA.AperFunction,Plated,PTH,ViaDrill
T1C0.300
; #@! TA.AperFunction,Plated,PTH,ComponentDrill
T2C1.000
; #@! TA.AperFunction,Plated,PTH,ComponentDrill
T3C1.321
%
G90
G05
T1
X123.15Y-108.3
X123.15Y-109.3
X126.6Y-113.7
X127.6Y-113.7
X129.2Y-132.6
X130.2Y-132.6
X135.3Y-126.8
X135.3Y-127.8
X136.6Y-128.3
X136.6Y-129.3
X136.819Y-91.956
X136.819Y-103.319
X137.819Y-91.956
X137.819Y-103.319
X138.2Y-120.2
X138.2Y-121.2
X138.2Y-122.8
X139.219Y-91.956
X139.219Y-103.319
X140.219Y-91.956
X140.219Y-103.319
X140.8Y-137.2
X140.8Y-138.2
X141.2Y-128.1
X141.6Y-118.7
X141.619Y-91.956
X141.8Y-114.1
X141.8Y-115.9
X142.619Y-91.956
X142.9Y-114.1
X142.9Y-114.9
X143.8Y-133.0
X143.8Y-134.0
X149.637Y-119.2
X150.637Y-119.2
X154.237Y-130.0
X155.237Y-130.0
X180.0Y-115.7
X181.0Y-115.7
X182.0Y-95.1
X183.0Y-95.1
X184.4Y-95.1
X184.4Y-106.3
X185.4Y-95.1
X185.4Y-106.3
X186.8Y-95.1
X186.8Y-106.3
X187.8Y-95.1
X187.8Y-106.3
X189.2Y-95.1
X189.2Y-106.3
X190.2Y-95.1
X190.2Y-106.3
X191.6Y-106.3
X191.8Y-95.1
X192.6Y-106.3
X192.8Y-95.1
X194.0Y-106.3
X194.8Y-123.8
X194.8Y-124.8
X195.0Y-106.3
X198.9Y-123.8
X198.9Y-124.8
X202.7Y-123.8
X202.7Y-124.8
X206.5Y-123.8
X206.5Y-124.8
X210.3Y-123.8
X210.3Y-124.8
T2
X106.962Y-125.286
X107.2Y-108.2
X121.0Y-112.4
X132.1Y-111.8
X142.637Y-130.4
X145.8Y-100.6
X145.8Y-105.68
X151.6Y-133.5
X156.8Y-123.2
X163.3Y-95.6
X163.3Y-100.6
X163.3Y-105.6
X163.3Y-110.6
X166.04Y-105.67
X166.07Y-95.5
X166.07Y-110.73
X166.09Y-100.58
X226.6Y-125.2
X227.2Y-108.2
T3
X106.844Y-131.486
X107.044Y-101.886
X117.004Y-131.486
X117.204Y-101.886
X216.64Y-131.4
X216.84Y-101.8
X226.8Y-131.4
X227.0Y-101.8
M30
