%TF.GenerationSoftware,KiCad,Pcbnew,9.0.5*%
%TF.CreationDate,2025-10-30T21:43:39-07:00*%
%TF.ProjectId,Flyback_CCM_Converter,466c7962-6163-46b5-9f43-434d5f436f6e,rev?*%
%TF.SameCoordinates,Original*%
%TF.FileFunction,Copper,L2,Bot*%
%TF.FilePolarity,Positive*%
%FSLAX46Y46*%
G04 Gerber Fmt 4.6, Leading zero omitted, Abs format (unit mm)*
G04 Created by KiCad (PCBNEW 9.0.5) date 2025-10-30 21:43:39*
%MOMM*%
%LPD*%
G01*
G04 APERTURE LIST*
G04 Aperture macros list*
%AMRoundRect*
0 Rectangle with rounded corners*
0 $1 Rounding radius*
0 $2 $3 $4 $5 $6 $7 $8 $9 X,Y pos of 4 corners*
0 Add a 4 corners polygon primitive as box body*
4,1,4,$2,$3,$4,$5,$6,$7,$8,$9,$2,$3,0*
0 Add four circle primitives for the rounded corners*
1,1,$1+$1,$2,$3*
1,1,$1+$1,$4,$5*
1,1,$1+$1,$6,$7*
1,1,$1+$1,$8,$9*
0 Add four rect primitives between the rounded corners*
20,1,$1+$1,$2,$3,$4,$5,0*
20,1,$1+$1,$4,$5,$6,$7,0*
20,1,$1+$1,$6,$7,$8,$9,0*
20,1,$1+$1,$8,$9,$2,$3,0*%
G04 Aperture macros list end*
%TA.AperFunction,ComponentPad*%
%ADD10R,2.000000X2.000000*%
%TD*%
%TA.AperFunction,ComponentPad*%
%ADD11C,1.750000*%
%TD*%
%TA.AperFunction,ComponentPad*%
%ADD12C,1.828800*%
%TD*%
%TA.AperFunction,SMDPad,CuDef*%
%ADD13R,1.651000X2.184400*%
%TD*%
%TA.AperFunction,SMDPad,CuDef*%
%ADD14RoundRect,0.250000X0.600000X-1.400000X0.600000X1.400000X-0.600000X1.400000X-0.600000X-1.400000X0*%
%TD*%
%TA.AperFunction,ViaPad*%
%ADD15C,0.600000*%
%TD*%
%TA.AperFunction,Conductor*%
%ADD16C,0.254000*%
%TD*%
%TA.AperFunction,Conductor*%
%ADD17C,1.016000*%
%TD*%
%TA.AperFunction,Conductor*%
%ADD18C,0.508000*%
%TD*%
G04 APERTURE END LIST*
D10*
%TO.P,TP9,1,1*%
%TO.N,/COMP*%
X151600000Y-133500000D03*
%TD*%
%TO.P,TP6,1,1*%
%TO.N,Net-(U1-VREF)*%
X142637500Y-130400000D03*
%TD*%
%TO.P,TP7,1,1*%
%TO.N,/ISENSE*%
X156800000Y-123200000D03*
%TD*%
D11*
%TO.P,T1,1,AA*%
%TO.N,VCC*%
X145800000Y-100600000D03*
%TO.P,T1,2,AB*%
%TO.N,Net-(Q1-D)*%
X145800000Y-105680000D03*
%TO.P,T1,3,SA*%
%TO.N,GND*%
X163300000Y-105600000D03*
X166040000Y-105670000D03*
%TO.P,T1,4,SB*%
%TO.N,Net-(T1-SB)*%
X163300000Y-100600000D03*
X166090000Y-100580000D03*
%TO.P,T1,NC1*%
%TO.N,N/C*%
X163300000Y-110600000D03*
X166070000Y-110730000D03*
%TO.P,T1,NC2*%
X163300000Y-95600000D03*
X166070000Y-95500000D03*
%TD*%
D10*
%TO.P,TP4,1,1*%
%TO.N,GND*%
X226600000Y-125200000D03*
%TD*%
D12*
%TO.P,J4,1,1*%
%TO.N,GND*%
X226800000Y-131400000D03*
%TO.P,J4,2,2*%
X216640000Y-131400000D03*
%TD*%
D10*
%TO.P,TP8,1,1*%
%TO.N,Net-(Q1-D)*%
X132100000Y-111800000D03*
%TD*%
D12*
%TO.P,+5V1,1,1*%
%TO.N,+5V*%
X227000000Y-101800000D03*
%TO.P,+5V1,2,2*%
X216840000Y-101800000D03*
%TD*%
D10*
%TO.P,TP1,1,1*%
%TO.N,VCC*%
X107200000Y-108200000D03*
%TD*%
D12*
%TO.P,+12,1,1*%
%TO.N,VCC*%
X107043900Y-101885700D03*
%TO.P,+12,2,2*%
X117203900Y-101885700D03*
%TD*%
D10*
%TO.P,TP3,1,1*%
%TO.N,+5V*%
X227200000Y-108200000D03*
%TD*%
D12*
%TO.P,J3,1,1*%
%TO.N,GND*%
X106843900Y-131485700D03*
%TO.P,J3,2,2*%
X117003900Y-131485700D03*
%TD*%
D10*
%TO.P,TP5,1,1*%
%TO.N,Net-(Q3-E)*%
X121000000Y-112400000D03*
%TD*%
%TO.P,TP2,1,1*%
%TO.N,GND*%
X106962500Y-125285700D03*
%TD*%
D13*
%TO.P,CR3,1*%
%TO.N,Net-(D2-K)*%
X154000000Y-105000000D03*
%TO.P,CR3,2*%
%TO.N,Net-(Q1-D)*%
X154000000Y-108708400D03*
%TD*%
D14*
%TO.P,D3,1,K*%
%TO.N,Net-(D3-K)*%
X150340000Y-101426600D03*
%TO.P,D3,2,A*%
%TO.N,VCC*%
X150340000Y-95926600D03*
%TD*%
%TO.P,D2,1,K*%
%TO.N,Net-(D2-K)*%
X153940000Y-101426600D03*
%TO.P,D2,2,A*%
%TO.N,VCC*%
X153940000Y-95926600D03*
%TD*%
%TO.P,D1,1,K*%
%TO.N,Net-(D1-K)*%
X157540000Y-101595000D03*
%TO.P,D1,2,A*%
%TO.N,VCC*%
X157540000Y-96095000D03*
%TD*%
D13*
%TO.P,CR2,1*%
%TO.N,Net-(D1-K)*%
X157600000Y-105000000D03*
%TO.P,CR2,2*%
%TO.N,Net-(Q1-D)*%
X157600000Y-108708400D03*
%TD*%
%TO.P,CR4,1*%
%TO.N,Net-(D3-K)*%
X150200000Y-105000000D03*
%TO.P,CR4,2*%
%TO.N,Net-(Q1-D)*%
X150200000Y-108708400D03*
%TD*%
D15*
%TO.N,GND*%
X141800000Y-115900000D03*
X141800000Y-114100000D03*
X130200000Y-132600000D03*
X129200000Y-132600000D03*
X143800000Y-133000000D03*
%TO.N,Net-(U1-VREF)*%
X141600000Y-118700000D03*
X141200000Y-128100000D03*
%TO.N,GND*%
X155237500Y-130000000D03*
X154237500Y-130000000D03*
X138200000Y-120200000D03*
X143800000Y-134000000D03*
X136600000Y-128300000D03*
X140800000Y-137200000D03*
X150637500Y-119200000D03*
X149637500Y-119200000D03*
X138200000Y-122800000D03*
X138200000Y-121200000D03*
X140800000Y-138200000D03*
X136600000Y-129300000D03*
X142900000Y-114900000D03*
X126600000Y-113700000D03*
X206500000Y-123800000D03*
X194800000Y-124800000D03*
X142900000Y-114100000D03*
X206500000Y-124800000D03*
X182000000Y-95100000D03*
X184400000Y-106300000D03*
X140218750Y-91956250D03*
X187800000Y-95100000D03*
X135300000Y-126800000D03*
X190200000Y-95100000D03*
X190200000Y-106300000D03*
X180000000Y-115700000D03*
X191600000Y-106300000D03*
X186800000Y-106300000D03*
X191800000Y-95100000D03*
X136818750Y-103318750D03*
X198900000Y-123800000D03*
X137818750Y-91956250D03*
X136818750Y-91956250D03*
X198900000Y-124800000D03*
X183000000Y-95100000D03*
X186800000Y-95100000D03*
X127600000Y-113700000D03*
X194000000Y-106300000D03*
X123150000Y-108300000D03*
X181000000Y-115700000D03*
X184400000Y-95100000D03*
X185400000Y-95100000D03*
X142618750Y-91956250D03*
X139218750Y-103318750D03*
X194800000Y-123800000D03*
X135300000Y-127800000D03*
X189200000Y-95100000D03*
X185400000Y-106300000D03*
X123150000Y-109300000D03*
X195000000Y-106300000D03*
X189200000Y-106300000D03*
X187800000Y-106300000D03*
X202700000Y-123800000D03*
X192800000Y-95100000D03*
X210300000Y-124800000D03*
X192600000Y-106300000D03*
X210300000Y-123800000D03*
X140218750Y-103318750D03*
X137818750Y-103318750D03*
X202700000Y-124800000D03*
X141618750Y-91956250D03*
X139218750Y-91956250D03*
%TD*%
D16*
%TO.N,Net-(U1-VREF)*%
X141600000Y-127700000D02*
X141200000Y-128100000D01*
X141600000Y-118700000D02*
X141600000Y-127700000D01*
D17*
%TO.N,VCC*%
X145800000Y-97400000D02*
X147105000Y-96095000D01*
X145800000Y-100600000D02*
X145800000Y-97400000D01*
X147105000Y-96095000D02*
X157540000Y-96095000D01*
%TO.N,Net-(Q1-D)*%
X153693600Y-110106400D02*
X154000000Y-109800000D01*
X154665464Y-110106400D02*
X156934536Y-110106400D01*
X150200000Y-109440936D02*
X150865464Y-110106400D01*
X148106400Y-110106400D02*
X149534536Y-110106400D01*
X149534536Y-110106400D02*
X150200000Y-109440936D01*
X145800000Y-107800000D02*
X148106400Y-110106400D01*
X150200000Y-108708400D02*
X150200000Y-109440936D01*
X157540000Y-109167536D02*
X157540000Y-108435000D01*
X153940000Y-108435000D02*
X153940000Y-109167536D01*
X150865464Y-110106400D02*
X153693600Y-110106400D01*
X145800000Y-105680000D02*
X145800000Y-107800000D01*
X150340000Y-108435000D02*
X150340000Y-109167536D01*
X154000000Y-109440936D02*
X154665464Y-110106400D01*
X156934536Y-110106400D02*
X157600000Y-109440936D01*
X154000000Y-109800000D02*
X154000000Y-108708400D01*
X154000000Y-108708400D02*
X154000000Y-109440936D01*
X157600000Y-109440936D02*
X157600000Y-108708400D01*
D18*
X149800000Y-109200000D02*
X150200000Y-108800000D01*
D17*
%TO.N,Net-(D1-K)*%
X157540000Y-101595000D02*
X157540000Y-104726600D01*
%TO.N,Net-(D2-K)*%
X153940000Y-101426600D02*
X153940000Y-104726600D01*
%TO.N,Net-(D3-K)*%
X150340000Y-101426600D02*
X150340000Y-104726600D01*
%TD*%
%TA.AperFunction,Conductor*%
%TO.N,GND*%
G36*
X229942539Y-90120185D02*
G01*
X229988294Y-90172989D01*
X229999500Y-90224500D01*
X229999500Y-139775500D01*
X229979815Y-139842539D01*
X229927011Y-139888294D01*
X229875500Y-139899500D01*
X104124500Y-139899500D01*
X104057461Y-139879815D01*
X104011706Y-139827011D01*
X104000500Y-139775500D01*
X104000500Y-131374378D01*
X105429500Y-131374378D01*
X105429500Y-131597021D01*
X105464326Y-131816906D01*
X105533125Y-132028645D01*
X105634196Y-132227007D01*
X105682523Y-132293522D01*
X105682523Y-132293523D01*
X106234898Y-131741148D01*
X106258661Y-131798517D01*
X106330934Y-131906680D01*
X106422920Y-131998666D01*
X106531083Y-132070939D01*
X106588450Y-132094701D01*
X106036075Y-132647075D01*
X106102592Y-132695403D01*
X106300954Y-132796474D01*
X106512693Y-132865273D01*
X106732579Y-132900100D01*
X106955221Y-132900100D01*
X107175106Y-132865273D01*
X107386845Y-132796474D01*
X107585207Y-132695403D01*
X107651722Y-132647075D01*
X107099348Y-132094701D01*
X107156717Y-132070939D01*
X107264880Y-131998666D01*
X107356866Y-131906680D01*
X107429139Y-131798517D01*
X107452901Y-131741148D01*
X108005275Y-132293522D01*
X108053603Y-132227007D01*
X108154674Y-132028645D01*
X108223473Y-131816906D01*
X108258300Y-131597021D01*
X108258300Y-131374378D01*
X115589500Y-131374378D01*
X115589500Y-131597021D01*
X115624326Y-131816906D01*
X115693125Y-132028645D01*
X115794196Y-132227007D01*
X115842523Y-132293522D01*
X115842523Y-132293523D01*
X116394898Y-131741148D01*
X116418661Y-131798517D01*
X116490934Y-131906680D01*
X116582920Y-131998666D01*
X116691083Y-132070939D01*
X116748450Y-132094701D01*
X116196075Y-132647075D01*
X116262592Y-132695403D01*
X116460954Y-132796474D01*
X116672693Y-132865273D01*
X116892579Y-132900100D01*
X117115221Y-132900100D01*
X117335106Y-132865273D01*
X117546845Y-132796474D01*
X117745207Y-132695403D01*
X117811722Y-132647075D01*
X117811723Y-132647075D01*
X117701135Y-132536487D01*
X117616783Y-132452135D01*
X150099500Y-132452135D01*
X150099500Y-134547870D01*
X150099501Y-134547876D01*
X150105908Y-134607483D01*
X150156202Y-134742328D01*
X150156206Y-134742335D01*
X150242452Y-134857544D01*
X150242455Y-134857547D01*
X150357664Y-134943793D01*
X150357671Y-134943797D01*
X150492517Y-134994091D01*
X150492516Y-134994091D01*
X150499444Y-134994835D01*
X150552127Y-135000500D01*
X152647872Y-135000499D01*
X152707483Y-134994091D01*
X152842331Y-134943796D01*
X152957546Y-134857546D01*
X153043796Y-134742331D01*
X153094091Y-134607483D01*
X153100500Y-134547873D01*
X153100499Y-132452128D01*
X153094091Y-132392517D01*
X153057168Y-132293522D01*
X153043797Y-132257671D01*
X153043793Y-132257664D01*
X152957547Y-132142455D01*
X152957544Y-132142452D01*
X152842335Y-132056206D01*
X152842328Y-132056202D01*
X152707482Y-132005908D01*
X152707483Y-132005908D01*
X152647883Y-131999501D01*
X152647881Y-131999500D01*
X152647873Y-131999500D01*
X152647864Y-131999500D01*
X150552129Y-131999500D01*
X150552123Y-131999501D01*
X150492516Y-132005908D01*
X150357671Y-132056202D01*
X150357664Y-132056206D01*
X150242455Y-132142452D01*
X150242452Y-132142455D01*
X150156206Y-132257664D01*
X150156202Y-132257671D01*
X150105908Y-132392517D01*
X150099501Y-132452116D01*
X150099501Y-132452123D01*
X150099500Y-132452135D01*
X117616783Y-132452135D01*
X117259348Y-132094701D01*
X117316717Y-132070939D01*
X117424880Y-131998666D01*
X117516866Y-131906680D01*
X117589139Y-131798517D01*
X117612901Y-131741148D01*
X118165275Y-132293522D01*
X118213603Y-132227007D01*
X118314674Y-132028645D01*
X118383473Y-131816906D01*
X118418300Y-131597021D01*
X118418300Y-131374378D01*
X118383473Y-131154493D01*
X118314674Y-130942754D01*
X118213603Y-130744392D01*
X118165275Y-130677876D01*
X118165275Y-130677875D01*
X117612901Y-131230250D01*
X117589139Y-131172883D01*
X117516866Y-131064720D01*
X117424880Y-130972734D01*
X117316717Y-130900461D01*
X117259347Y-130876698D01*
X117811723Y-130324323D01*
X117745207Y-130275996D01*
X117546845Y-130174925D01*
X117335106Y-130106126D01*
X117115221Y-130071300D01*
X116892579Y-130071300D01*
X116672693Y-130106126D01*
X116460954Y-130174925D01*
X116262591Y-130275997D01*
X116196076Y-130324322D01*
X116196075Y-130324323D01*
X116748451Y-130876698D01*
X116691083Y-130900461D01*
X116582920Y-130972734D01*
X116490934Y-131064720D01*
X116418661Y-131172883D01*
X116394898Y-131230251D01*
X115842523Y-130677875D01*
X115842522Y-130677876D01*
X115794197Y-130744391D01*
X115693125Y-130942754D01*
X115624326Y-131154493D01*
X115589500Y-131374378D01*
X108258300Y-131374378D01*
X108223473Y-131154493D01*
X108154674Y-130942754D01*
X108053603Y-130744392D01*
X108005275Y-130677876D01*
X108005275Y-130677875D01*
X107452901Y-131230250D01*
X107429139Y-131172883D01*
X107356866Y-131064720D01*
X107264880Y-130972734D01*
X107156717Y-130900461D01*
X107099347Y-130876698D01*
X107651723Y-130324323D01*
X107585207Y-130275996D01*
X107386845Y-130174925D01*
X107175106Y-130106126D01*
X106955221Y-130071300D01*
X106732579Y-130071300D01*
X106512693Y-130106126D01*
X106300954Y-130174925D01*
X106102591Y-130275997D01*
X106036076Y-130324322D01*
X106036075Y-130324323D01*
X106588451Y-130876698D01*
X106531083Y-130900461D01*
X106422920Y-130972734D01*
X106330934Y-131064720D01*
X106258661Y-131172883D01*
X106234898Y-131230251D01*
X105682523Y-130677875D01*
X105682522Y-130677876D01*
X105634197Y-130744391D01*
X105533125Y-130942754D01*
X105464326Y-131154493D01*
X105429500Y-131374378D01*
X104000500Y-131374378D01*
X104000500Y-128021153D01*
X140399500Y-128021153D01*
X140399500Y-128178846D01*
X140430261Y-128333489D01*
X140430264Y-128333501D01*
X140490602Y-128479172D01*
X140490609Y-128479185D01*
X140578210Y-128610288D01*
X140578213Y-128610292D01*
X140689707Y-128721786D01*
X140689711Y-128721789D01*
X140820814Y-128809390D01*
X140820827Y-128809397D01*
X140966498Y-128869735D01*
X140966503Y-128869737D01*
X141116131Y-128899500D01*
X141121153Y-128900499D01*
X141121156Y-128900500D01*
X141138499Y-128900500D01*
X141205538Y-128920185D01*
X141251293Y-128972989D01*
X141261237Y-129042147D01*
X141237765Y-129098810D01*
X141217738Y-129125562D01*
X141193704Y-129157668D01*
X141193702Y-129157671D01*
X141143408Y-129292517D01*
X141137001Y-129352116D01*
X141137001Y-129352123D01*
X141137000Y-129352135D01*
X141137000Y-131447870D01*
X141137001Y-131447876D01*
X141143408Y-131507483D01*
X141193702Y-131642328D01*
X141193706Y-131642335D01*
X141279952Y-131757544D01*
X141279955Y-131757547D01*
X141395164Y-131843793D01*
X141395171Y-131843797D01*
X141530017Y-131894091D01*
X141530016Y-131894091D01*
X141536944Y-131894835D01*
X141589627Y-131900500D01*
X143685372Y-131900499D01*
X143744983Y-131894091D01*
X143879831Y-131843796D01*
X143995046Y-131757546D01*
X144081296Y-131642331D01*
X144131591Y-131507483D01*
X144138000Y-131447873D01*
X144138000Y-131288678D01*
X215225600Y-131288678D01*
X215225600Y-131511321D01*
X215260426Y-131731206D01*
X215329225Y-131942945D01*
X215430296Y-132141307D01*
X215478623Y-132207822D01*
X215478623Y-132207823D01*
X216030998Y-131655448D01*
X216054761Y-131712817D01*
X216127034Y-131820980D01*
X216219020Y-131912966D01*
X216327183Y-131985239D01*
X216384550Y-132009001D01*
X215832175Y-132561375D01*
X215898692Y-132609703D01*
X216097054Y-132710774D01*
X216308793Y-132779573D01*
X216528679Y-132814400D01*
X216751321Y-132814400D01*
X216971206Y-132779573D01*
X217182945Y-132710774D01*
X217381307Y-132609703D01*
X217447822Y-132561375D01*
X216895448Y-132009001D01*
X216952817Y-131985239D01*
X217060980Y-131912966D01*
X217152966Y-131820980D01*
X217225239Y-131712817D01*
X217249001Y-131655448D01*
X217801375Y-132207822D01*
X217849703Y-132141307D01*
X217950774Y-131942945D01*
X218019573Y-131731206D01*
X218054400Y-131511321D01*
X218054400Y-131288678D01*
X225385600Y-131288678D01*
X225385600Y-131511321D01*
X225420426Y-131731206D01*
X225489225Y-131942945D01*
X225590296Y-132141307D01*
X225638623Y-132207822D01*
X225638623Y-132207823D01*
X226190998Y-131655448D01*
X226214761Y-131712817D01*
X226287034Y-131820980D01*
X226379020Y-131912966D01*
X226487183Y-131985239D01*
X226544550Y-132009001D01*
X225992175Y-132561375D01*
X226058692Y-132609703D01*
X226257054Y-132710774D01*
X226468793Y-132779573D01*
X226688679Y-132814400D01*
X226911321Y-132814400D01*
X227131206Y-132779573D01*
X227342945Y-132710774D01*
X227541307Y-132609703D01*
X227607822Y-132561375D01*
X227055448Y-132009001D01*
X227112817Y-131985239D01*
X227220980Y-131912966D01*
X227312966Y-131820980D01*
X227385239Y-131712817D01*
X227409001Y-131655448D01*
X227961375Y-132207822D01*
X228009703Y-132141307D01*
X228110774Y-131942945D01*
X228179573Y-131731206D01*
X228214400Y-131511321D01*
X228214400Y-131288678D01*
X228179573Y-131068793D01*
X228110774Y-130857054D01*
X228009703Y-130658692D01*
X227961375Y-130592176D01*
X227961375Y-130592175D01*
X227409001Y-131144550D01*
X227385239Y-131087183D01*
X227312966Y-130979020D01*
X227220980Y-130887034D01*
X227112817Y-130814761D01*
X227055447Y-130790998D01*
X227607823Y-130238623D01*
X227541307Y-130190296D01*
X227342945Y-130089225D01*
X227131206Y-130020426D01*
X226911321Y-129985600D01*
X226688679Y-129985600D01*
X226468793Y-130020426D01*
X226257054Y-130089225D01*
X226058691Y-130190297D01*
X225992176Y-130238622D01*
X225992175Y-130238623D01*
X226544551Y-130790998D01*
X226487183Y-130814761D01*
X226379020Y-130887034D01*
X226287034Y-130979020D01*
X226214761Y-131087183D01*
X226190998Y-131144551D01*
X225638623Y-130592175D01*
X225638622Y-130592176D01*
X225590297Y-130658691D01*
X225489225Y-130857054D01*
X225420426Y-131068793D01*
X225385600Y-131288678D01*
X218054400Y-131288678D01*
X218019573Y-131068793D01*
X217950774Y-130857054D01*
X217849703Y-130658692D01*
X217801375Y-130592176D01*
X217801375Y-130592175D01*
X217249001Y-131144550D01*
X217225239Y-131087183D01*
X217152966Y-130979020D01*
X217060980Y-130887034D01*
X216952817Y-130814761D01*
X216895447Y-130790998D01*
X217447823Y-130238623D01*
X217381307Y-130190296D01*
X217182945Y-130089225D01*
X216971206Y-130020426D01*
X216751321Y-129985600D01*
X216528679Y-129985600D01*
X216308793Y-130020426D01*
X216097054Y-130089225D01*
X215898691Y-130190297D01*
X215832176Y-130238622D01*
X215832175Y-130238623D01*
X216384551Y-130790998D01*
X216327183Y-130814761D01*
X216219020Y-130887034D01*
X216127034Y-130979020D01*
X216054761Y-131087183D01*
X216030998Y-131144551D01*
X215478623Y-130592175D01*
X215478622Y-130592176D01*
X215430297Y-130658691D01*
X215329225Y-130857054D01*
X215260426Y-131068793D01*
X215225600Y-131288678D01*
X144138000Y-131288678D01*
X144137999Y-129352128D01*
X144131591Y-129292517D01*
X144081296Y-129157669D01*
X144081295Y-129157668D01*
X144081293Y-129157664D01*
X143995047Y-129042455D01*
X143995044Y-129042452D01*
X143879835Y-128956206D01*
X143879828Y-128956202D01*
X143744982Y-128905908D01*
X143744983Y-128905908D01*
X143685383Y-128899501D01*
X143685381Y-128899500D01*
X143685373Y-128899500D01*
X143685365Y-128899500D01*
X141831940Y-128899500D01*
X141764901Y-128879815D01*
X141719146Y-128827011D01*
X141709202Y-128757853D01*
X141738227Y-128694297D01*
X141744245Y-128687832D01*
X141821789Y-128610289D01*
X141909394Y-128479179D01*
X141969737Y-128333497D01*
X141991156Y-128225813D01*
X142023539Y-128163907D01*
X142025021Y-128162396D01*
X142087411Y-128100008D01*
X142156083Y-127997233D01*
X142203385Y-127883035D01*
X142227500Y-127761804D01*
X142227500Y-127638197D01*
X142227500Y-122152135D01*
X155299500Y-122152135D01*
X155299500Y-124247870D01*
X155299501Y-124247876D01*
X155305908Y-124307483D01*
X155356202Y-124442328D01*
X155356206Y-124442335D01*
X155442452Y-124557544D01*
X155442455Y-124557547D01*
X155557664Y-124643793D01*
X155557671Y-124643797D01*
X155692517Y-124694091D01*
X155692516Y-124694091D01*
X155699444Y-124694835D01*
X155752127Y-124700500D01*
X157847872Y-124700499D01*
X157907483Y-124694091D01*
X158042331Y-124643796D01*
X158157546Y-124557546D01*
X158243796Y-124442331D01*
X158294091Y-124307483D01*
X158300500Y-124247873D01*
X158300500Y-124152155D01*
X225100000Y-124152155D01*
X225100000Y-124950000D01*
X226166988Y-124950000D01*
X226134075Y-125007007D01*
X226100000Y-125134174D01*
X226100000Y-125265826D01*
X226134075Y-125392993D01*
X226166988Y-125450000D01*
X225100000Y-125450000D01*
X225100000Y-126247844D01*
X225106401Y-126307372D01*
X225106403Y-126307379D01*
X225156645Y-126442086D01*
X225156649Y-126442093D01*
X225242809Y-126557187D01*
X225242812Y-126557190D01*
X225357906Y-126643350D01*
X225357913Y-126643354D01*
X225492620Y-126693596D01*
X225492627Y-126693598D01*
X225552155Y-126699999D01*
X225552172Y-126700000D01*
X226350000Y-126700000D01*
X226350000Y-125633012D01*
X226407007Y-125665925D01*
X226534174Y-125700000D01*
X226665826Y-125700000D01*
X226792993Y-125665925D01*
X226850000Y-125633012D01*
X226850000Y-126700000D01*
X227647828Y-126700000D01*
X227647844Y-126699999D01*
X227707372Y-126693598D01*
X227707379Y-126693596D01*
X227842086Y-126643354D01*
X227842093Y-126643350D01*
X227957187Y-126557190D01*
X227957190Y-126557187D01*
X228043350Y-126442093D01*
X228043354Y-126442086D01*
X228093596Y-126307379D01*
X228093598Y-126307372D01*
X228099999Y-126247844D01*
X228100000Y-126247827D01*
X228100000Y-125450000D01*
X227033012Y-125450000D01*
X227065925Y-125392993D01*
X227100000Y-125265826D01*
X227100000Y-125134174D01*
X227065925Y-125007007D01*
X227033012Y-124950000D01*
X228100000Y-124950000D01*
X228100000Y-124152172D01*
X228099999Y-124152155D01*
X228093598Y-124092627D01*
X228093596Y-124092620D01*
X228043354Y-123957913D01*
X228043350Y-123957906D01*
X227957190Y-123842812D01*
X227957187Y-123842809D01*
X227842093Y-123756649D01*
X227842086Y-123756645D01*
X227707379Y-123706403D01*
X227707372Y-123706401D01*
X227647844Y-123700000D01*
X226850000Y-123700000D01*
X226850000Y-124766988D01*
X226792993Y-124734075D01*
X226665826Y-124700000D01*
X226534174Y-124700000D01*
X226407007Y-124734075D01*
X226350000Y-124766988D01*
X226350000Y-123700000D01*
X225552155Y-123700000D01*
X225492627Y-123706401D01*
X225492620Y-123706403D01*
X225357913Y-123756645D01*
X225357906Y-123756649D01*
X225242812Y-123842809D01*
X225242809Y-123842812D01*
X225156649Y-123957906D01*
X225156645Y-123957913D01*
X225106403Y-124092620D01*
X225106401Y-124092627D01*
X225100000Y-124152155D01*
X158300500Y-124152155D01*
X158300499Y-122152128D01*
X158294091Y-122092517D01*
X158243796Y-121957669D01*
X158243795Y-121957668D01*
X158243793Y-121957664D01*
X158157547Y-121842455D01*
X158157544Y-121842452D01*
X158042335Y-121756206D01*
X158042328Y-121756202D01*
X157907482Y-121705908D01*
X157907483Y-121705908D01*
X157847883Y-121699501D01*
X157847881Y-121699500D01*
X157847873Y-121699500D01*
X157847864Y-121699500D01*
X155752129Y-121699500D01*
X155752123Y-121699501D01*
X155692516Y-121705908D01*
X155557671Y-121756202D01*
X155557664Y-121756206D01*
X155442455Y-121842452D01*
X155442452Y-121842455D01*
X155356206Y-121957664D01*
X155356202Y-121957671D01*
X155305908Y-122092517D01*
X155299501Y-122152116D01*
X155299501Y-122152123D01*
X155299500Y-122152135D01*
X142227500Y-122152135D01*
X142227500Y-119239356D01*
X142247185Y-119172317D01*
X142248398Y-119170465D01*
X142309394Y-119079179D01*
X142369737Y-118933497D01*
X142400500Y-118778842D01*
X142400500Y-118621158D01*
X142400500Y-118621155D01*
X142400499Y-118621153D01*
X142369738Y-118466510D01*
X142369737Y-118466503D01*
X142369735Y-118466498D01*
X142309397Y-118320827D01*
X142309390Y-118320814D01*
X142221789Y-118189711D01*
X142221786Y-118189707D01*
X142110292Y-118078213D01*
X142110288Y-118078210D01*
X141979185Y-117990609D01*
X141979172Y-117990602D01*
X141833501Y-117930264D01*
X141833489Y-117930261D01*
X141678845Y-117899500D01*
X141678842Y-117899500D01*
X141521158Y-117899500D01*
X141521155Y-117899500D01*
X141366510Y-117930261D01*
X141366498Y-117930264D01*
X141220827Y-117990602D01*
X141220814Y-117990609D01*
X141089711Y-118078210D01*
X141089707Y-118078213D01*
X140978213Y-118189707D01*
X140978210Y-118189711D01*
X140890609Y-118320814D01*
X140890602Y-118320827D01*
X140830264Y-118466498D01*
X140830261Y-118466510D01*
X140799500Y-118621153D01*
X140799500Y-118778846D01*
X140830261Y-118933489D01*
X140830264Y-118933501D01*
X140890603Y-119079174D01*
X140890604Y-119079175D01*
X140890606Y-119079179D01*
X140951602Y-119170465D01*
X140972480Y-119237142D01*
X140972500Y-119239356D01*
X140972500Y-127244924D01*
X140952815Y-127311963D01*
X140900011Y-127357718D01*
X140895953Y-127359485D01*
X140820824Y-127390604D01*
X140820814Y-127390609D01*
X140689711Y-127478210D01*
X140689707Y-127478213D01*
X140578213Y-127589707D01*
X140578210Y-127589711D01*
X140490609Y-127720814D01*
X140490602Y-127720827D01*
X140430264Y-127866498D01*
X140430261Y-127866510D01*
X140399500Y-128021153D01*
X104000500Y-128021153D01*
X104000500Y-124237855D01*
X105462500Y-124237855D01*
X105462500Y-125035700D01*
X106529488Y-125035700D01*
X106496575Y-125092707D01*
X106462500Y-125219874D01*
X106462500Y-125351526D01*
X106496575Y-125478693D01*
X106529488Y-125535700D01*
X105462500Y-125535700D01*
X105462500Y-126333544D01*
X105468901Y-126393072D01*
X105468903Y-126393079D01*
X105519145Y-126527786D01*
X105519149Y-126527793D01*
X105605309Y-126642887D01*
X105605312Y-126642890D01*
X105720406Y-126729050D01*
X105720413Y-126729054D01*
X105855120Y-126779296D01*
X105855127Y-126779298D01*
X105914655Y-126785699D01*
X105914672Y-126785700D01*
X106712500Y-126785700D01*
X106712500Y-125718712D01*
X106769507Y-125751625D01*
X106896674Y-125785700D01*
X107028326Y-125785700D01*
X107155493Y-125751625D01*
X107212500Y-125718712D01*
X107212500Y-126785700D01*
X108010328Y-126785700D01*
X108010344Y-126785699D01*
X108069872Y-126779298D01*
X108069879Y-126779296D01*
X108204586Y-126729054D01*
X108204593Y-126729050D01*
X108319687Y-126642890D01*
X108319690Y-126642887D01*
X108405850Y-126527793D01*
X108405854Y-126527786D01*
X108456096Y-126393079D01*
X108456098Y-126393072D01*
X108462499Y-126333544D01*
X108462500Y-126333527D01*
X108462500Y-125535700D01*
X107395512Y-125535700D01*
X107428425Y-125478693D01*
X107462500Y-125351526D01*
X107462500Y-125219874D01*
X107428425Y-125092707D01*
X107395512Y-125035700D01*
X108462500Y-125035700D01*
X108462500Y-124237872D01*
X108462499Y-124237855D01*
X108456098Y-124178327D01*
X108456096Y-124178320D01*
X108405854Y-124043613D01*
X108405850Y-124043606D01*
X108319690Y-123928512D01*
X108319687Y-123928509D01*
X108204593Y-123842349D01*
X108204586Y-123842345D01*
X108069879Y-123792103D01*
X108069872Y-123792101D01*
X108010344Y-123785700D01*
X107212500Y-123785700D01*
X107212500Y-124852688D01*
X107155493Y-124819775D01*
X107028326Y-124785700D01*
X106896674Y-124785700D01*
X106769507Y-124819775D01*
X106712500Y-124852688D01*
X106712500Y-123785700D01*
X105914655Y-123785700D01*
X105855127Y-123792101D01*
X105855120Y-123792103D01*
X105720413Y-123842345D01*
X105720406Y-123842349D01*
X105605312Y-123928509D01*
X105605309Y-123928512D01*
X105519149Y-124043606D01*
X105519145Y-124043613D01*
X105468903Y-124178320D01*
X105468901Y-124178327D01*
X105462500Y-124237855D01*
X104000500Y-124237855D01*
X104000500Y-111352135D01*
X119499500Y-111352135D01*
X119499500Y-113447870D01*
X119499501Y-113447876D01*
X119505908Y-113507483D01*
X119556202Y-113642328D01*
X119556206Y-113642335D01*
X119642452Y-113757544D01*
X119642455Y-113757547D01*
X119757664Y-113843793D01*
X119757671Y-113843797D01*
X119892517Y-113894091D01*
X119892516Y-113894091D01*
X119899444Y-113894835D01*
X119952127Y-113900500D01*
X122047872Y-113900499D01*
X122107483Y-113894091D01*
X122242331Y-113843796D01*
X122357546Y-113757546D01*
X122443796Y-113642331D01*
X122494091Y-113507483D01*
X122500500Y-113447873D01*
X122500499Y-111352128D01*
X122494091Y-111292517D01*
X122481220Y-111258009D01*
X122443797Y-111157671D01*
X122443793Y-111157664D01*
X122357547Y-111042455D01*
X122357544Y-111042452D01*
X122242335Y-110956206D01*
X122242328Y-110956202D01*
X122107482Y-110905908D01*
X122107483Y-110905908D01*
X122047883Y-110899501D01*
X122047881Y-110899500D01*
X122047873Y-110899500D01*
X122047864Y-110899500D01*
X119952129Y-110899500D01*
X119952123Y-110899501D01*
X119892516Y-110905908D01*
X119757671Y-110956202D01*
X119757664Y-110956206D01*
X119642455Y-111042452D01*
X119642452Y-111042455D01*
X119556206Y-111157664D01*
X119556202Y-111157671D01*
X119505908Y-111292517D01*
X119502855Y-111320919D01*
X119499501Y-111352123D01*
X119499500Y-111352135D01*
X104000500Y-111352135D01*
X104000500Y-110752135D01*
X130599500Y-110752135D01*
X130599500Y-112847870D01*
X130599501Y-112847876D01*
X130605908Y-112907483D01*
X130656202Y-113042328D01*
X130656206Y-113042335D01*
X130742452Y-113157544D01*
X130742455Y-113157547D01*
X130857664Y-113243793D01*
X130857671Y-113243797D01*
X130992517Y-113294091D01*
X130992516Y-113294091D01*
X130999444Y-113294835D01*
X131052127Y-113300500D01*
X133147872Y-113300499D01*
X133207483Y-113294091D01*
X133342331Y-113243796D01*
X133457546Y-113157546D01*
X133543796Y-113042331D01*
X133594091Y-112907483D01*
X133600500Y-112847873D01*
X133600499Y-110752128D01*
X133594091Y-110692517D01*
X133543796Y-110557669D01*
X133543795Y-110557668D01*
X133543793Y-110557664D01*
X133457547Y-110442455D01*
X133457544Y-110442452D01*
X133342335Y-110356206D01*
X133342328Y-110356202D01*
X133207482Y-110305908D01*
X133207483Y-110305908D01*
X133147883Y-110299501D01*
X133147881Y-110299500D01*
X133147873Y-110299500D01*
X133147864Y-110299500D01*
X131052129Y-110299500D01*
X131052123Y-110299501D01*
X130992516Y-110305908D01*
X130857671Y-110356202D01*
X130857664Y-110356206D01*
X130742455Y-110442452D01*
X130742452Y-110442455D01*
X130656206Y-110557664D01*
X130656202Y-110557671D01*
X130605908Y-110692517D01*
X130599806Y-110749281D01*
X130599501Y-110752123D01*
X130599500Y-110752135D01*
X104000500Y-110752135D01*
X104000500Y-107152135D01*
X105699500Y-107152135D01*
X105699500Y-109247870D01*
X105699501Y-109247876D01*
X105705908Y-109307483D01*
X105756202Y-109442328D01*
X105756206Y-109442335D01*
X105842452Y-109557544D01*
X105842455Y-109557547D01*
X105957664Y-109643793D01*
X105957671Y-109643797D01*
X106092517Y-109694091D01*
X106092516Y-109694091D01*
X106099444Y-109694835D01*
X106152127Y-109700500D01*
X108247872Y-109700499D01*
X108307483Y-109694091D01*
X108442331Y-109643796D01*
X108557546Y-109557546D01*
X108643796Y-109442331D01*
X108694091Y-109307483D01*
X108700500Y-109247873D01*
X108700499Y-107152128D01*
X108694091Y-107092517D01*
X108676368Y-107045000D01*
X108643797Y-106957671D01*
X108643793Y-106957664D01*
X108557547Y-106842455D01*
X108557544Y-106842452D01*
X108442335Y-106756206D01*
X108442328Y-106756202D01*
X108307482Y-106705908D01*
X108307483Y-106705908D01*
X108247883Y-106699501D01*
X108247881Y-106699500D01*
X108247873Y-106699500D01*
X108247864Y-106699500D01*
X106152129Y-106699500D01*
X106152123Y-106699501D01*
X106092516Y-106705908D01*
X105957671Y-106756202D01*
X105957664Y-106756206D01*
X105842455Y-106842452D01*
X105842452Y-106842455D01*
X105756206Y-106957664D01*
X105756202Y-106957671D01*
X105705908Y-107092517D01*
X105699501Y-107152116D01*
X105699501Y-107152123D01*
X105699500Y-107152135D01*
X104000500Y-107152135D01*
X104000500Y-105571746D01*
X144424500Y-105571746D01*
X144424500Y-105788253D01*
X144458370Y-106002098D01*
X144525272Y-106208006D01*
X144525273Y-106208009D01*
X144618338Y-106390656D01*
X144623567Y-106400919D01*
X144750828Y-106576078D01*
X144750830Y-106576080D01*
X144755181Y-106580431D01*
X144788666Y-106641754D01*
X144791500Y-106668112D01*
X144791500Y-107899333D01*
X144830254Y-108094160D01*
X144830256Y-108094168D01*
X144906277Y-108277701D01*
X144906282Y-108277710D01*
X145016646Y-108442880D01*
X145016649Y-108442884D01*
X147463515Y-110889750D01*
X147463519Y-110889753D01*
X147628689Y-111000117D01*
X147628695Y-111000120D01*
X147628696Y-111000121D01*
X147812231Y-111076144D01*
X147999867Y-111113467D01*
X148007066Y-111114899D01*
X148007070Y-111114900D01*
X148007071Y-111114900D01*
X149633866Y-111114900D01*
X149633867Y-111114899D01*
X149828705Y-111076144D01*
X150012240Y-111000121D01*
X150131109Y-110920694D01*
X150197786Y-110899817D01*
X150265166Y-110918301D01*
X150268887Y-110920692D01*
X150387760Y-111000121D01*
X150571295Y-111076144D01*
X150758931Y-111113467D01*
X150766130Y-111114899D01*
X150766134Y-111114900D01*
X150766135Y-111114900D01*
X153792930Y-111114900D01*
X153792931Y-111114899D01*
X153987769Y-111076144D01*
X154132080Y-111016367D01*
X154201548Y-111008899D01*
X154226980Y-111016366D01*
X154371295Y-111076144D01*
X154558931Y-111113467D01*
X154566130Y-111114899D01*
X154566134Y-111114900D01*
X154566135Y-111114900D01*
X157033866Y-111114900D01*
X157033867Y-111114899D01*
X157228705Y-111076144D01*
X157412240Y-111000121D01*
X157577417Y-110889753D01*
X157717889Y-110749281D01*
X157975423Y-110491746D01*
X161924500Y-110491746D01*
X161924500Y-110708253D01*
X161958370Y-110922098D01*
X162025272Y-111128006D01*
X162025273Y-111128009D01*
X162109095Y-111292516D01*
X162123567Y-111320919D01*
X162250828Y-111496078D01*
X162403922Y-111649172D01*
X162579081Y-111776433D01*
X162584457Y-111779172D01*
X162771990Y-111874726D01*
X162771993Y-111874727D01*
X162869573Y-111906432D01*
X162977903Y-111941630D01*
X163191746Y-111975500D01*
X163191747Y-111975500D01*
X163408253Y-111975500D01*
X163408254Y-111975500D01*
X163622097Y-111941630D01*
X163828009Y-111874726D01*
X164020919Y-111776433D01*
X164196078Y-111649172D01*
X164349172Y-111496078D01*
X164476433Y-111320919D01*
X164547696Y-111181057D01*
X164595671Y-111130262D01*
X164663492Y-111113467D01*
X164729627Y-111136005D01*
X164773078Y-111190720D01*
X164776112Y-111199035D01*
X164795272Y-111258006D01*
X164795273Y-111258009D01*
X164893567Y-111450919D01*
X165020828Y-111626078D01*
X165173922Y-111779172D01*
X165349081Y-111906433D01*
X165418157Y-111941629D01*
X165541990Y-112004726D01*
X165541993Y-112004727D01*
X165644947Y-112038178D01*
X165747903Y-112071630D01*
X165961746Y-112105500D01*
X165961747Y-112105500D01*
X166178253Y-112105500D01*
X166178254Y-112105500D01*
X166392097Y-112071630D01*
X166598009Y-112004726D01*
X166790919Y-111906433D01*
X166966078Y-111779172D01*
X167119172Y-111626078D01*
X167246433Y-111450919D01*
X167344726Y-111258009D01*
X167411630Y-111052097D01*
X167445500Y-110838254D01*
X167445500Y-110621746D01*
X167411630Y-110407903D01*
X167369390Y-110277901D01*
X167344727Y-110201993D01*
X167344726Y-110201990D01*
X167278487Y-110071990D01*
X167246433Y-110009081D01*
X167119172Y-109833922D01*
X166966078Y-109680828D01*
X166790919Y-109553567D01*
X166785543Y-109550828D01*
X166598009Y-109455273D01*
X166598006Y-109455272D01*
X166392098Y-109388370D01*
X166285175Y-109371435D01*
X166178254Y-109354500D01*
X165961746Y-109354500D01*
X165890465Y-109365790D01*
X165747901Y-109388370D01*
X165541993Y-109455272D01*
X165541990Y-109455273D01*
X165349080Y-109553567D01*
X165249145Y-109626174D01*
X165173922Y-109680828D01*
X165173920Y-109680830D01*
X165173919Y-109680830D01*
X165020830Y-109833919D01*
X165020830Y-109833920D01*
X165020828Y-109833922D01*
X165010263Y-109848464D01*
X164893565Y-110009083D01*
X164822302Y-110148942D01*
X164774327Y-110199737D01*
X164706506Y-110216532D01*
X164640371Y-110193994D01*
X164596921Y-110139278D01*
X164593887Y-110130963D01*
X164574728Y-110071996D01*
X164574726Y-110071990D01*
X164491210Y-109908083D01*
X164476433Y-109879081D01*
X164349172Y-109703922D01*
X164196078Y-109550828D01*
X164020919Y-109423567D01*
X163828009Y-109325273D01*
X163828006Y-109325272D01*
X163622098Y-109258370D01*
X163515175Y-109241435D01*
X163408254Y-109224500D01*
X163191746Y-109224500D01*
X163120465Y-109235790D01*
X162977901Y-109258370D01*
X162771993Y-109325272D01*
X162771990Y-109325273D01*
X162579080Y-109423567D01*
X162535440Y-109455274D01*
X162403922Y-109550828D01*
X162403920Y-109550830D01*
X162403919Y-109550830D01*
X162250830Y-109703919D01*
X162250830Y-109703920D01*
X162250828Y-109703922D01*
X162196174Y-109779145D01*
X162123567Y-109879080D01*
X162025273Y-110071990D01*
X162025272Y-110071993D01*
X161958370Y-110277901D01*
X161924500Y-110491746D01*
X157975423Y-110491746D01*
X158129751Y-110337417D01*
X158191074Y-110303933D01*
X158217432Y-110301099D01*
X158473371Y-110301099D01*
X158473372Y-110301099D01*
X158532983Y-110294691D01*
X158667831Y-110244396D01*
X158783046Y-110158146D01*
X158869296Y-110042931D01*
X158919591Y-109908083D01*
X158926000Y-109848473D01*
X158926000Y-109721400D01*
X158945685Y-109654361D01*
X158998489Y-109608606D01*
X159014726Y-109605073D01*
X159022400Y-109597400D01*
X159022400Y-107152135D01*
X225699500Y-107152135D01*
X225699500Y-109247870D01*
X225699501Y-109247876D01*
X225705908Y-109307483D01*
X225756202Y-109442328D01*
X225756206Y-109442335D01*
X225842452Y-109557544D01*
X225842455Y-109557547D01*
X225957664Y-109643793D01*
X225957671Y-109643797D01*
X226092517Y-109694091D01*
X226092516Y-109694091D01*
X226099444Y-109694835D01*
X226152127Y-109700500D01*
X228247872Y-109700499D01*
X228307483Y-109694091D01*
X228442331Y-109643796D01*
X228557546Y-109557546D01*
X228643796Y-109442331D01*
X228694091Y-109307483D01*
X228700500Y-109247873D01*
X228700499Y-107152128D01*
X228694091Y-107092517D01*
X228676368Y-107045000D01*
X228643797Y-106957671D01*
X228643793Y-106957664D01*
X228557547Y-106842455D01*
X228557544Y-106842452D01*
X228442335Y-106756206D01*
X228442328Y-106756202D01*
X228307482Y-106705908D01*
X228307483Y-106705908D01*
X228247883Y-106699501D01*
X228247881Y-106699500D01*
X228247873Y-106699500D01*
X228247864Y-106699500D01*
X226152129Y-106699500D01*
X226152123Y-106699501D01*
X226092516Y-106705908D01*
X225957671Y-106756202D01*
X225957664Y-106756206D01*
X225842455Y-106842452D01*
X225842452Y-106842455D01*
X225756206Y-106957664D01*
X225756202Y-106957671D01*
X225705908Y-107092517D01*
X225699501Y-107152116D01*
X225699501Y-107152123D01*
X225699500Y-107152135D01*
X159022400Y-107152135D01*
X159022400Y-105491779D01*
X161925000Y-105491779D01*
X161925000Y-105708220D01*
X161958857Y-105921981D01*
X162025735Y-106127814D01*
X162025736Y-106127817D01*
X162123996Y-106320660D01*
X162166829Y-106379615D01*
X162166830Y-106379616D01*
X162817037Y-105729409D01*
X162834075Y-105792993D01*
X162899901Y-105907007D01*
X162992993Y-106000099D01*
X163107007Y-106065925D01*
X163170590Y-106082962D01*
X162520382Y-106733168D01*
X162579342Y-106776005D01*
X162772182Y-106874263D01*
X162772185Y-106874264D01*
X162978018Y-106941142D01*
X163191780Y-106975000D01*
X163408220Y-106975000D01*
X163621981Y-106941142D01*
X163827814Y-106874264D01*
X163827817Y-106874263D01*
X164020656Y-106776006D01*
X164079615Y-106733168D01*
X164079616Y-106733168D01*
X163429409Y-106082962D01*
X163492993Y-106065925D01*
X163607007Y-106000099D01*
X163700099Y-105907007D01*
X163765925Y-105792993D01*
X163782962Y-105729410D01*
X164433168Y-106379616D01*
X164433168Y-106379615D01*
X164476007Y-106320653D01*
X164541771Y-106191585D01*
X164589745Y-106140788D01*
X164657566Y-106123993D01*
X164723701Y-106146530D01*
X164761917Y-106194295D01*
X164763525Y-106193476D01*
X164863996Y-106390660D01*
X164906829Y-106449615D01*
X164906830Y-106449616D01*
X165557037Y-105799409D01*
X165574075Y-105862993D01*
X165639901Y-105977007D01*
X165732993Y-106070099D01*
X165847007Y-106135925D01*
X165910590Y-106152962D01*
X165260382Y-106803168D01*
X165319342Y-106846005D01*
X165512182Y-106944263D01*
X165512185Y-106944264D01*
X165718018Y-107011142D01*
X165931780Y-107045000D01*
X166148220Y-107045000D01*
X166266077Y-107026333D01*
X166361981Y-107011142D01*
X166567814Y-106944264D01*
X166567817Y-106944263D01*
X166760656Y-106846006D01*
X166819615Y-106803168D01*
X166819616Y-106803168D01*
X166169409Y-106152962D01*
X166232993Y-106135925D01*
X166347007Y-106070099D01*
X166440099Y-105977007D01*
X166505925Y-105862993D01*
X166522962Y-105799410D01*
X167173168Y-106449616D01*
X167173168Y-106449615D01*
X167216006Y-106390656D01*
X167314263Y-106197817D01*
X167314264Y-106197814D01*
X167381142Y-105991981D01*
X167415000Y-105778220D01*
X167415000Y-105561779D01*
X167381142Y-105348018D01*
X167314264Y-105142185D01*
X167314263Y-105142182D01*
X167216005Y-104949342D01*
X167173168Y-104890383D01*
X167173168Y-104890382D01*
X166522962Y-105540589D01*
X166505925Y-105477007D01*
X166440099Y-105362993D01*
X166347007Y-105269901D01*
X166232993Y-105204075D01*
X166169408Y-105187037D01*
X166819616Y-104536830D01*
X166819615Y-104536829D01*
X166760660Y-104493996D01*
X166567817Y-104395736D01*
X166567814Y-104395735D01*
X166361981Y-104328857D01*
X166148220Y-104295000D01*
X165931780Y-104295000D01*
X165718018Y-104328857D01*
X165512185Y-104395735D01*
X165512182Y-104395736D01*
X165319346Y-104493992D01*
X165260383Y-104536830D01*
X165910591Y-105187037D01*
X165847007Y-105204075D01*
X165732993Y-105269901D01*
X165639901Y-105362993D01*
X165574075Y-105477007D01*
X165557037Y-105540590D01*
X164906830Y-104890383D01*
X164863992Y-104949346D01*
X164798228Y-105078415D01*
X164750253Y-105129211D01*
X164682432Y-105146006D01*
X164616297Y-105123468D01*
X164578089Y-105075701D01*
X164576475Y-105076524D01*
X164476005Y-104879342D01*
X164433168Y-104820383D01*
X164433168Y-104820382D01*
X163782962Y-105470589D01*
X163765925Y-105407007D01*
X163700099Y-105292993D01*
X163607007Y-105199901D01*
X163492993Y-105134075D01*
X163429408Y-105117037D01*
X164050039Y-104496408D01*
X164079616Y-104466830D01*
X164079615Y-104466829D01*
X164020660Y-104423996D01*
X163827817Y-104325736D01*
X163827814Y-104325735D01*
X163621981Y-104258857D01*
X163408220Y-104225000D01*
X163191780Y-104225000D01*
X162978018Y-104258857D01*
X162772185Y-104325735D01*
X162772182Y-104325736D01*
X162579346Y-104423992D01*
X162520383Y-104466830D01*
X163170591Y-105117037D01*
X163107007Y-105134075D01*
X162992993Y-105199901D01*
X162899901Y-105292993D01*
X162834075Y-105407007D01*
X162817037Y-105470590D01*
X162166830Y-104820383D01*
X162123992Y-104879346D01*
X162025736Y-105072182D01*
X162025735Y-105072185D01*
X161958857Y-105278018D01*
X161925000Y-105491779D01*
X159022400Y-105491779D01*
X159022400Y-104111000D01*
X159010927Y-104099527D01*
X158982960Y-104091315D01*
X158937205Y-104038511D01*
X158925999Y-103987000D01*
X158925999Y-103859929D01*
X158925998Y-103859923D01*
X158925997Y-103859916D01*
X158919591Y-103800317D01*
X158869296Y-103665469D01*
X158869295Y-103665468D01*
X158869293Y-103665464D01*
X158777732Y-103543155D01*
X158780415Y-103541146D01*
X158754721Y-103494091D01*
X158759705Y-103424399D01*
X158770349Y-103402636D01*
X158784515Y-103379670D01*
X158824814Y-103314334D01*
X158879999Y-103147797D01*
X158890500Y-103045009D01*
X158890499Y-100491746D01*
X161924500Y-100491746D01*
X161924500Y-100708254D01*
X161940057Y-100806475D01*
X161958370Y-100922098D01*
X162025272Y-101128006D01*
X162025273Y-101128009D01*
X162113376Y-101300919D01*
X162123567Y-101320919D01*
X162250828Y-101496078D01*
X162403922Y-101649172D01*
X162579081Y-101776433D01*
X162673697Y-101824642D01*
X162771990Y-101874726D01*
X162771993Y-101874727D01*
X162874947Y-101908178D01*
X162977903Y-101941630D01*
X163191746Y-101975500D01*
X163191747Y-101975500D01*
X163408253Y-101975500D01*
X163408254Y-101975500D01*
X163622097Y-101941630D01*
X163828009Y-101874726D01*
X164020919Y-101776433D01*
X164196078Y-101649172D01*
X164349172Y-101496078D01*
X164476433Y-101320919D01*
X164574726Y-101128009D01*
X164580317Y-101110800D01*
X164619753Y-101053124D01*
X164684111Y-101025925D01*
X164752958Y-101037837D01*
X164804435Y-101085080D01*
X164812939Y-101103703D01*
X164813410Y-101103509D01*
X164815273Y-101108009D01*
X164891121Y-101256867D01*
X164913567Y-101300919D01*
X165040828Y-101476078D01*
X165193922Y-101629172D01*
X165369081Y-101756433D01*
X165463697Y-101804642D01*
X165561990Y-101854726D01*
X165561993Y-101854727D01*
X165664947Y-101888178D01*
X165767903Y-101921630D01*
X165981746Y-101955500D01*
X165981747Y-101955500D01*
X166198253Y-101955500D01*
X166198254Y-101955500D01*
X166412097Y-101921630D01*
X166618009Y-101854726D01*
X166810919Y-101756433D01*
X166904221Y-101688645D01*
X215425100Y-101688645D01*
X215425100Y-101911355D01*
X215429895Y-101941629D01*
X215459940Y-102131324D01*
X215459940Y-102131327D01*
X215528759Y-102343130D01*
X215572427Y-102428833D01*
X215629869Y-102541569D01*
X215760775Y-102721745D01*
X215918255Y-102879225D01*
X216098431Y-103010131D01*
X216166897Y-103045016D01*
X216296869Y-103111240D01*
X216508673Y-103180059D01*
X216508674Y-103180059D01*
X216508677Y-103180060D01*
X216728645Y-103214900D01*
X216728646Y-103214900D01*
X216951354Y-103214900D01*
X216951355Y-103214900D01*
X217171323Y-103180060D01*
X217171326Y-103180059D01*
X217171327Y-103180059D01*
X217383130Y-103111240D01*
X217383130Y-103111239D01*
X217383133Y-103111239D01*
X217581569Y-103010131D01*
X217761745Y-102879225D01*
X217919225Y-102721745D01*
X218050131Y-102541569D01*
X218151239Y-102343133D01*
X218192214Y-102217024D01*
X218220059Y-102131327D01*
X218220059Y-102131326D01*
X218220060Y-102131323D01*
X218254900Y-101911355D01*
X218254900Y-101688645D01*
X225585100Y-101688645D01*
X225585100Y-101911355D01*
X225589895Y-101941629D01*
X225619940Y-102131324D01*
X225619940Y-102131327D01*
X225688759Y-102343130D01*
X225732427Y-102428833D01*
X225789869Y-102541569D01*
X225920775Y-102721745D01*
X226078255Y-102879225D01*
X226258431Y-103010131D01*
X226326897Y-103045016D01*
X226456869Y-103111240D01*
X226668673Y-103180059D01*
X226668674Y-103180059D01*
X226668677Y-103180060D01*
X226888645Y-103214900D01*
X226888646Y-103214900D01*
X227111354Y-103214900D01*
X227111355Y-103214900D01*
X227331323Y-103180060D01*
X227331326Y-103180059D01*
X227331327Y-103180059D01*
X227543130Y-103111240D01*
X227543130Y-103111239D01*
X227543133Y-103111239D01*
X227741569Y-103010131D01*
X227921745Y-102879225D01*
X228079225Y-102721745D01*
X228210131Y-102541569D01*
X228311239Y-102343133D01*
X228352214Y-102217024D01*
X228380059Y-102131327D01*
X228380059Y-102131326D01*
X228380060Y-102131323D01*
X228414900Y-101911355D01*
X228414900Y-101688645D01*
X228380060Y-101468677D01*
X228380059Y-101468673D01*
X228380059Y-101468672D01*
X228311240Y-101256869D01*
X228253797Y-101144131D01*
X228210131Y-101058431D01*
X228079225Y-100878255D01*
X227921745Y-100720775D01*
X227741569Y-100589869D01*
X227711325Y-100574459D01*
X227543130Y-100488759D01*
X227331326Y-100419940D01*
X227166347Y-100393810D01*
X227111355Y-100385100D01*
X226888645Y-100385100D01*
X226815322Y-100396713D01*
X226668675Y-100419940D01*
X226668672Y-100419940D01*
X226456869Y-100488759D01*
X226258430Y-100589869D01*
X226155633Y-100664556D01*
X226078255Y-100720775D01*
X226078253Y-100720777D01*
X226078252Y-100720777D01*
X225920777Y-100878252D01*
X225920777Y-100878253D01*
X225920775Y-100878255D01*
X225903453Y-100902097D01*
X225789869Y-101058430D01*
X225688759Y-101256869D01*
X225619940Y-101468672D01*
X225619940Y-101468675D01*
X225606366Y-101554377D01*
X225585100Y-101688645D01*
X218254900Y-101688645D01*
X218220060Y-101468677D01*
X218220059Y-101468673D01*
X218220059Y-101468672D01*
X218151240Y-101256869D01*
X218093797Y-101144131D01*
X218050131Y-101058431D01*
X217919225Y-100878255D01*
X217761745Y-100720775D01*
X217581569Y-100589869D01*
X217551325Y-100574459D01*
X217383130Y-100488759D01*
X217171326Y-100419940D01*
X217006347Y-100393810D01*
X216951355Y-100385100D01*
X216728645Y-100385100D01*
X216655322Y-100396713D01*
X216508675Y-100419940D01*
X216508672Y-100419940D01*
X216296869Y-100488759D01*
X216098430Y-100589869D01*
X215995633Y-100664556D01*
X215918255Y-100720775D01*
X215918253Y-100720777D01*
X215918252Y-100720777D01*
X215760777Y-100878252D01*
X215760777Y-100878253D01*
X215760775Y-100878255D01*
X215743453Y-100902097D01*
X215629869Y-101058430D01*
X215528759Y-101256869D01*
X215459940Y-101468672D01*
X215459940Y-101468675D01*
X215446366Y-101554377D01*
X215425100Y-101688645D01*
X166904221Y-101688645D01*
X166986078Y-101629172D01*
X167139172Y-101476078D01*
X167266433Y-101300919D01*
X167364726Y-101108009D01*
X167431630Y-100902097D01*
X167465500Y-100688254D01*
X167465500Y-100471746D01*
X167431630Y-100257903D01*
X167394945Y-100144998D01*
X167364727Y-100051993D01*
X167364726Y-100051990D01*
X167314642Y-99953697D01*
X167266433Y-99859081D01*
X167139172Y-99683922D01*
X166986078Y-99530828D01*
X166810919Y-99403567D01*
X166618009Y-99305273D01*
X166618006Y-99305272D01*
X166412098Y-99238370D01*
X166305175Y-99221435D01*
X166198254Y-99204500D01*
X165981746Y-99204500D01*
X165910465Y-99215790D01*
X165767901Y-99238370D01*
X165561993Y-99305272D01*
X165561990Y-99305273D01*
X165369080Y-99403567D01*
X165312740Y-99444501D01*
X165193922Y-99530828D01*
X165193920Y-99530830D01*
X165193919Y-99530830D01*
X165040830Y-99683919D01*
X165040830Y-99683920D01*
X165040828Y-99683922D01*
X164986174Y-99759145D01*
X164913567Y-99859080D01*
X164815273Y-100051990D01*
X164815273Y-100051992D01*
X164809680Y-100069205D01*
X164770240Y-100126879D01*
X164705881Y-100154075D01*
X164637035Y-100142159D01*
X164585561Y-100094913D01*
X164577062Y-100076295D01*
X164576590Y-100076491D01*
X164574726Y-100071990D01*
X164476432Y-99879080D01*
X164473952Y-99875666D01*
X164349172Y-99703922D01*
X164196078Y-99550828D01*
X164020919Y-99423567D01*
X163981667Y-99403567D01*
X163828009Y-99325273D01*
X163828006Y-99325272D01*
X163622098Y-99258370D01*
X163495824Y-99238370D01*
X163408254Y-99224500D01*
X163191746Y-99224500D01*
X163120465Y-99235790D01*
X162977901Y-99258370D01*
X162771993Y-99325272D01*
X162771990Y-99325273D01*
X162579080Y-99423567D01*
X162479145Y-99496174D01*
X162403922Y-99550828D01*
X162403920Y-99550830D01*
X162403919Y-99550830D01*
X162250830Y-99703919D01*
X162250830Y-99703920D01*
X162250828Y-99703922D01*
X162196174Y-99779145D01*
X162123567Y-99879080D01*
X162025273Y-100071990D01*
X162025272Y-100071993D01*
X161958370Y-100277901D01*
X161958370Y-100277903D01*
X161924500Y-100491746D01*
X158890499Y-100491746D01*
X158890499Y-100144992D01*
X158879999Y-100042203D01*
X158824814Y-99875666D01*
X158732712Y-99726344D01*
X158608656Y-99602288D01*
X158515888Y-99545069D01*
X158459336Y-99510187D01*
X158459331Y-99510185D01*
X158457862Y-99509698D01*
X158292797Y-99455001D01*
X158292795Y-99455000D01*
X158190010Y-99444500D01*
X156889998Y-99444500D01*
X156889981Y-99444501D01*
X156787203Y-99455000D01*
X156787200Y-99455001D01*
X156620668Y-99510185D01*
X156620663Y-99510187D01*
X156471342Y-99602289D01*
X156347289Y-99726342D01*
X156255187Y-99875663D01*
X156255185Y-99875668D01*
X156254054Y-99879081D01*
X156200001Y-100042203D01*
X156200001Y-100042204D01*
X156200000Y-100042204D01*
X156189500Y-100144983D01*
X156189500Y-103045001D01*
X156189501Y-103045018D01*
X156200000Y-103147796D01*
X156200001Y-103147799D01*
X156248864Y-103295256D01*
X156255186Y-103314334D01*
X156342822Y-103456416D01*
X156347289Y-103463657D01*
X156348226Y-103464594D01*
X156348663Y-103465395D01*
X156351766Y-103469319D01*
X156351095Y-103469849D01*
X156381711Y-103525917D01*
X156376727Y-103595609D01*
X156359812Y-103626586D01*
X156330703Y-103665469D01*
X156330702Y-103665471D01*
X156280408Y-103800317D01*
X156274001Y-103859916D01*
X156274001Y-103859923D01*
X156274000Y-103859935D01*
X156274000Y-103987000D01*
X156254315Y-104054039D01*
X156201511Y-104099794D01*
X156185273Y-104103326D01*
X156177600Y-104111000D01*
X156177600Y-108973900D01*
X156157915Y-109040939D01*
X156105111Y-109086694D01*
X156053600Y-109097900D01*
X155546400Y-109097900D01*
X155479361Y-109078215D01*
X155433606Y-109025411D01*
X155422400Y-108973900D01*
X155422400Y-104111000D01*
X155410927Y-104099527D01*
X155382960Y-104091315D01*
X155337205Y-104038511D01*
X155325999Y-103987000D01*
X155325999Y-103859929D01*
X155325998Y-103859923D01*
X155325997Y-103859916D01*
X155319591Y-103800317D01*
X155269296Y-103665469D01*
X155269295Y-103665468D01*
X155269293Y-103665464D01*
X155216999Y-103595609D01*
X155183046Y-103550254D01*
X155122987Y-103505294D01*
X155081118Y-103449362D01*
X155076134Y-103379670D01*
X155109616Y-103318351D01*
X155132712Y-103295256D01*
X155224814Y-103145934D01*
X155279999Y-102979397D01*
X155290500Y-102876609D01*
X155290499Y-99976592D01*
X155279999Y-99873803D01*
X155224814Y-99707266D01*
X155132712Y-99557944D01*
X155008656Y-99433888D01*
X154859334Y-99341786D01*
X154692797Y-99286601D01*
X154692795Y-99286600D01*
X154590010Y-99276100D01*
X153289998Y-99276100D01*
X153289981Y-99276101D01*
X153187203Y-99286600D01*
X153187200Y-99286601D01*
X153020668Y-99341785D01*
X153020663Y-99341787D01*
X152871342Y-99433889D01*
X152747289Y-99557942D01*
X152655187Y-99707263D01*
X152655186Y-99707266D01*
X152600001Y-99873803D01*
X152600001Y-99873804D01*
X152600000Y-99873804D01*
X152589500Y-99976583D01*
X152589500Y-102876601D01*
X152589501Y-102876618D01*
X152600000Y-102979396D01*
X152600001Y-102979399D01*
X152655185Y-103145931D01*
X152655187Y-103145936D01*
X152747289Y-103295257D01*
X152821938Y-103369906D01*
X152855423Y-103431229D01*
X152850439Y-103500921D01*
X152821946Y-103545260D01*
X152816955Y-103550250D01*
X152730706Y-103665464D01*
X152730702Y-103665471D01*
X152680408Y-103800317D01*
X152674001Y-103859916D01*
X152674001Y-103859923D01*
X152674000Y-103859935D01*
X152674000Y-103987000D01*
X152654315Y-104054039D01*
X152601511Y-104099794D01*
X152585273Y-104103326D01*
X152577600Y-104111000D01*
X152577600Y-108973900D01*
X152557915Y-109040939D01*
X152505111Y-109086694D01*
X152453600Y-109097900D01*
X151746400Y-109097900D01*
X151679361Y-109078215D01*
X151633606Y-109025411D01*
X151622400Y-108973900D01*
X151622400Y-104111000D01*
X151610927Y-104099527D01*
X151582960Y-104091315D01*
X151537205Y-104038511D01*
X151525999Y-103987000D01*
X151525999Y-103859929D01*
X151525998Y-103859923D01*
X151525997Y-103859916D01*
X151519591Y-103800317D01*
X151469296Y-103665469D01*
X151469295Y-103665468D01*
X151469293Y-103665464D01*
X151402343Y-103576031D01*
X151377925Y-103510567D01*
X151392776Y-103442294D01*
X151413922Y-103414045D01*
X151532712Y-103295256D01*
X151624814Y-103145934D01*
X151679999Y-102979397D01*
X151690500Y-102876609D01*
X151690499Y-99976592D01*
X151679999Y-99873803D01*
X151624814Y-99707266D01*
X151532712Y-99557944D01*
X151408656Y-99433888D01*
X151259334Y-99341786D01*
X151092797Y-99286601D01*
X151092795Y-99286600D01*
X150990010Y-99276100D01*
X149689998Y-99276100D01*
X149689981Y-99276101D01*
X149587203Y-99286600D01*
X149587200Y-99286601D01*
X149420668Y-99341785D01*
X149420663Y-99341787D01*
X149271342Y-99433889D01*
X149147289Y-99557942D01*
X149055187Y-99707263D01*
X149055186Y-99707266D01*
X149000001Y-99873803D01*
X149000001Y-99873804D01*
X149000000Y-99873804D01*
X148989500Y-99976583D01*
X148989500Y-102876601D01*
X148989501Y-102876618D01*
X149000000Y-102979396D01*
X149000001Y-102979399D01*
X149055185Y-103145931D01*
X149055186Y-103145934D01*
X149129094Y-103265759D01*
X149151080Y-103301403D01*
X149149724Y-103302239D01*
X149172651Y-103359065D01*
X149159613Y-103427707D01*
X149123557Y-103470450D01*
X149016952Y-103550255D01*
X148930706Y-103665464D01*
X148930702Y-103665471D01*
X148880408Y-103800317D01*
X148874001Y-103859916D01*
X148874001Y-103859923D01*
X148874000Y-103859935D01*
X148874000Y-103987000D01*
X148854315Y-104054039D01*
X148801511Y-104099794D01*
X148785273Y-104103326D01*
X148777600Y-104111000D01*
X148777600Y-108973900D01*
X148775049Y-108982585D01*
X148776338Y-108991547D01*
X148765359Y-109015587D01*
X148757915Y-109040939D01*
X148751074Y-109046866D01*
X148747313Y-109055103D01*
X148725078Y-109069392D01*
X148705111Y-109086694D01*
X148694596Y-109088981D01*
X148688535Y-109092877D01*
X148653600Y-109097900D01*
X148575496Y-109097900D01*
X148508457Y-109078215D01*
X148487815Y-109061581D01*
X146844819Y-107418585D01*
X146811334Y-107357262D01*
X146808500Y-107330904D01*
X146808500Y-106668112D01*
X146828185Y-106601073D01*
X146844819Y-106580431D01*
X146849172Y-106576078D01*
X146976433Y-106400919D01*
X147074726Y-106208009D01*
X147141630Y-106002097D01*
X147175500Y-105788254D01*
X147175500Y-105571746D01*
X147141630Y-105357903D01*
X147090293Y-105199901D01*
X147074727Y-105151993D01*
X147074726Y-105151990D01*
X146976432Y-104959080D01*
X146969357Y-104949342D01*
X146849172Y-104783922D01*
X146696078Y-104630828D01*
X146520919Y-104503567D01*
X146502127Y-104493992D01*
X146328009Y-104405273D01*
X146328006Y-104405272D01*
X146122098Y-104338370D01*
X146015175Y-104321435D01*
X145908254Y-104304500D01*
X145691746Y-104304500D01*
X145620465Y-104315790D01*
X145477901Y-104338370D01*
X145271993Y-104405272D01*
X145271990Y-104405273D01*
X145079080Y-104503567D01*
X144979145Y-104576174D01*
X144903922Y-104630828D01*
X144903920Y-104630830D01*
X144903919Y-104630830D01*
X144750830Y-104783919D01*
X144750830Y-104783920D01*
X144750828Y-104783922D01*
X144696174Y-104859145D01*
X144623567Y-104959080D01*
X144525273Y-105151990D01*
X144525272Y-105151993D01*
X144458370Y-105357901D01*
X144424500Y-105571746D01*
X104000500Y-105571746D01*
X104000500Y-101774345D01*
X105629000Y-101774345D01*
X105629000Y-101997054D01*
X105663840Y-102217024D01*
X105663840Y-102217027D01*
X105732659Y-102428830D01*
X105732661Y-102428833D01*
X105833769Y-102627269D01*
X105964675Y-102807445D01*
X106122155Y-102964925D01*
X106302331Y-103095831D01*
X106467638Y-103180059D01*
X106500769Y-103196940D01*
X106712573Y-103265759D01*
X106712574Y-103265759D01*
X106712577Y-103265760D01*
X106932545Y-103300600D01*
X106932546Y-103300600D01*
X107155254Y-103300600D01*
X107155255Y-103300600D01*
X107375223Y-103265760D01*
X107375226Y-103265759D01*
X107375227Y-103265759D01*
X107587030Y-103196940D01*
X107587030Y-103196939D01*
X107587033Y-103196939D01*
X107785469Y-103095831D01*
X107965645Y-102964925D01*
X108123125Y-102807445D01*
X108254031Y-102627269D01*
X108355139Y-102428833D01*
X108382985Y-102343133D01*
X108423959Y-102217027D01*
X108423959Y-102217026D01*
X108423960Y-102217023D01*
X108458800Y-101997055D01*
X108458800Y-101774345D01*
X115789000Y-101774345D01*
X115789000Y-101997054D01*
X115823840Y-102217024D01*
X115823840Y-102217027D01*
X115892659Y-102428830D01*
X115892661Y-102428833D01*
X115993769Y-102627269D01*
X116124675Y-102807445D01*
X116282155Y-102964925D01*
X116462331Y-103095831D01*
X116627638Y-103180059D01*
X116660769Y-103196940D01*
X116872573Y-103265759D01*
X116872574Y-103265759D01*
X116872577Y-103265760D01*
X117092545Y-103300600D01*
X117092546Y-103300600D01*
X117315254Y-103300600D01*
X117315255Y-103300600D01*
X117535223Y-103265760D01*
X117535226Y-103265759D01*
X117535227Y-103265759D01*
X117747030Y-103196940D01*
X117747030Y-103196939D01*
X117747033Y-103196939D01*
X117945469Y-103095831D01*
X118125645Y-102964925D01*
X118283125Y-102807445D01*
X118414031Y-102627269D01*
X118515139Y-102428833D01*
X118542985Y-102343133D01*
X118583959Y-102217027D01*
X118583959Y-102217026D01*
X118583960Y-102217023D01*
X118618800Y-101997055D01*
X118618800Y-101774345D01*
X118583960Y-101554377D01*
X118583959Y-101554373D01*
X118583959Y-101554372D01*
X118515140Y-101342569D01*
X118414030Y-101144130D01*
X118283125Y-100963955D01*
X118125645Y-100806475D01*
X117945469Y-100675569D01*
X117777273Y-100589869D01*
X117747030Y-100574459D01*
X117535226Y-100505640D01*
X117447502Y-100491746D01*
X144424500Y-100491746D01*
X144424500Y-100708254D01*
X144440057Y-100806475D01*
X144458370Y-100922098D01*
X144525272Y-101128006D01*
X144525273Y-101128009D01*
X144613376Y-101300919D01*
X144623567Y-101320919D01*
X144750828Y-101496078D01*
X144903922Y-101649172D01*
X145079081Y-101776433D01*
X145173697Y-101824642D01*
X145271990Y-101874726D01*
X145271993Y-101874727D01*
X145374947Y-101908178D01*
X145477903Y-101941630D01*
X145691746Y-101975500D01*
X145691747Y-101975500D01*
X145908253Y-101975500D01*
X145908254Y-101975500D01*
X146122097Y-101941630D01*
X146328009Y-101874726D01*
X146520919Y-101776433D01*
X146696078Y-101649172D01*
X146849172Y-101496078D01*
X146976433Y-101320919D01*
X147074726Y-101128009D01*
X147141630Y-100922097D01*
X147175500Y-100708254D01*
X147175500Y-100491746D01*
X147141630Y-100277903D01*
X147076188Y-100076491D01*
X147074727Y-100071993D01*
X147074726Y-100071990D01*
X146976432Y-99879080D01*
X146973952Y-99875666D01*
X146849172Y-99703922D01*
X146844819Y-99699569D01*
X146811334Y-99638246D01*
X146808500Y-99611888D01*
X146808500Y-97869096D01*
X146828185Y-97802057D01*
X146844819Y-97781415D01*
X147486416Y-97139819D01*
X147547739Y-97106334D01*
X147574097Y-97103500D01*
X148865501Y-97103500D01*
X148932540Y-97123185D01*
X148978295Y-97175989D01*
X148989501Y-97227500D01*
X148989501Y-97376618D01*
X149000000Y-97479396D01*
X149000001Y-97479399D01*
X149055185Y-97645931D01*
X149055186Y-97645934D01*
X149147288Y-97795256D01*
X149271344Y-97919312D01*
X149420666Y-98011414D01*
X149587203Y-98066599D01*
X149689991Y-98077100D01*
X150990008Y-98077099D01*
X151092797Y-98066599D01*
X151259334Y-98011414D01*
X151408656Y-97919312D01*
X151532712Y-97795256D01*
X151624814Y-97645934D01*
X151679999Y-97479397D01*
X151690500Y-97376609D01*
X151690500Y-97227500D01*
X151710185Y-97160461D01*
X151762989Y-97114706D01*
X151814500Y-97103500D01*
X152465501Y-97103500D01*
X152532540Y-97123185D01*
X152578295Y-97175989D01*
X152589501Y-97227500D01*
X152589501Y-97376618D01*
X152600000Y-97479396D01*
X152600001Y-97479399D01*
X152655185Y-97645931D01*
X152655186Y-97645934D01*
X152747288Y-97795256D01*
X152871344Y-97919312D01*
X153020666Y-98011414D01*
X153187203Y-98066599D01*
X153289991Y-98077100D01*
X154590008Y-98077099D01*
X154692797Y-98066599D01*
X154859334Y-98011414D01*
X155008656Y-97919312D01*
X155132712Y-97795256D01*
X155224814Y-97645934D01*
X155279999Y-97479397D01*
X155290500Y-97376609D01*
X155290500Y-97227500D01*
X155310185Y-97160461D01*
X155362989Y-97114706D01*
X155414500Y-97103500D01*
X156065501Y-97103500D01*
X156132540Y-97123185D01*
X156178295Y-97175989D01*
X156189501Y-97227500D01*
X156189501Y-97545018D01*
X156200000Y-97647796D01*
X156200001Y-97647799D01*
X156244278Y-97781415D01*
X156255186Y-97814334D01*
X156347288Y-97963656D01*
X156471344Y-98087712D01*
X156620666Y-98179814D01*
X156787203Y-98234999D01*
X156889991Y-98245500D01*
X158190008Y-98245499D01*
X158292797Y-98234999D01*
X158459334Y-98179814D01*
X158608656Y-98087712D01*
X158732712Y-97963656D01*
X158824814Y-97814334D01*
X158879999Y-97647797D01*
X158890500Y-97545009D01*
X158890499Y-95491746D01*
X161924500Y-95491746D01*
X161924500Y-95708253D01*
X161958370Y-95922098D01*
X162025272Y-96128006D01*
X162025273Y-96128009D01*
X162072614Y-96220919D01*
X162123567Y-96320919D01*
X162250828Y-96496078D01*
X162403922Y-96649172D01*
X162579081Y-96776433D01*
X162673697Y-96824642D01*
X162771990Y-96874726D01*
X162771993Y-96874727D01*
X162874947Y-96908178D01*
X162977903Y-96941630D01*
X163191746Y-96975500D01*
X163191747Y-96975500D01*
X163408253Y-96975500D01*
X163408254Y-96975500D01*
X163622097Y-96941630D01*
X163828009Y-96874726D01*
X164020919Y-96776433D01*
X164196078Y-96649172D01*
X164349172Y-96496078D01*
X164476433Y-96320919D01*
X164574726Y-96128009D01*
X164587935Y-96087353D01*
X164627370Y-96029679D01*
X164691728Y-96002480D01*
X164760575Y-96014392D01*
X164812052Y-96061635D01*
X164816350Y-96069376D01*
X164893563Y-96220914D01*
X164893567Y-96220919D01*
X165020828Y-96396078D01*
X165173922Y-96549172D01*
X165349081Y-96676433D01*
X165443697Y-96724642D01*
X165541990Y-96774726D01*
X165541993Y-96774727D01*
X165644947Y-96808178D01*
X165747903Y-96841630D01*
X165961746Y-96875500D01*
X165961747Y-96875500D01*
X166178253Y-96875500D01*
X166178254Y-96875500D01*
X166392097Y-96841630D01*
X166598009Y-96774726D01*
X166790919Y-96676433D01*
X166966078Y-96549172D01*
X167119172Y-96396078D01*
X167246433Y-96220919D01*
X167344726Y-96028009D01*
X167411630Y-95822097D01*
X167445500Y-95608254D01*
X167445500Y-95391746D01*
X167411630Y-95177903D01*
X167366291Y-95038361D01*
X167344727Y-94971993D01*
X167344726Y-94971990D01*
X167246432Y-94779080D01*
X167119172Y-94603922D01*
X166966078Y-94450828D01*
X166790919Y-94323567D01*
X166598009Y-94225273D01*
X166598006Y-94225272D01*
X166392098Y-94158370D01*
X166285175Y-94141435D01*
X166178254Y-94124500D01*
X165961746Y-94124500D01*
X165890465Y-94135790D01*
X165747901Y-94158370D01*
X165541993Y-94225272D01*
X165541990Y-94225273D01*
X165349080Y-94323567D01*
X165279941Y-94373800D01*
X165173922Y-94450828D01*
X165173920Y-94450830D01*
X165173919Y-94450830D01*
X165020830Y-94603919D01*
X165020830Y-94603920D01*
X165020828Y-94603922D01*
X164966174Y-94679145D01*
X164893567Y-94779080D01*
X164795273Y-94971990D01*
X164795272Y-94971993D01*
X164782064Y-95012646D01*
X164742626Y-95070322D01*
X164678268Y-95097520D01*
X164609422Y-95085605D01*
X164557946Y-95038361D01*
X164553648Y-95030623D01*
X164476432Y-94879080D01*
X164349172Y-94703922D01*
X164196078Y-94550828D01*
X164020919Y-94423567D01*
X163828009Y-94325273D01*
X163828006Y-94325272D01*
X163622098Y-94258370D01*
X163515175Y-94241435D01*
X163408254Y-94224500D01*
X163191746Y-94224500D01*
X163180104Y-94226344D01*
X162977901Y-94258370D01*
X162771993Y-94325272D01*
X162771990Y-94325273D01*
X162579080Y-94423567D01*
X162506090Y-94476598D01*
X162403922Y-94550828D01*
X162403920Y-94550830D01*
X162403919Y-94550830D01*
X162250830Y-94703919D01*
X162250830Y-94703920D01*
X162250828Y-94703922D01*
X162196222Y-94779080D01*
X162123567Y-94879080D01*
X162025273Y-95071990D01*
X162025272Y-95071993D01*
X161958370Y-95277901D01*
X161924500Y-95491746D01*
X158890499Y-95491746D01*
X158890499Y-94644992D01*
X158886303Y-94603920D01*
X158879999Y-94542203D01*
X158879998Y-94542200D01*
X158824814Y-94375666D01*
X158732712Y-94226344D01*
X158608656Y-94102288D01*
X158459334Y-94010186D01*
X158292797Y-93955001D01*
X158292795Y-93955000D01*
X158190010Y-93944500D01*
X156889998Y-93944500D01*
X156889981Y-93944501D01*
X156787203Y-93955000D01*
X156787200Y-93955001D01*
X156620668Y-94010185D01*
X156620663Y-94010187D01*
X156471342Y-94102289D01*
X156347289Y-94226342D01*
X156255187Y-94375663D01*
X156255186Y-94375666D01*
X156200001Y-94542203D01*
X156200001Y-94542204D01*
X156200000Y-94542204D01*
X156189500Y-94644983D01*
X156189500Y-94962500D01*
X156169815Y-95029539D01*
X156117011Y-95075294D01*
X156065500Y-95086500D01*
X155414499Y-95086500D01*
X155347460Y-95066815D01*
X155301705Y-95014011D01*
X155290499Y-94962500D01*
X155290499Y-94476598D01*
X155290498Y-94476581D01*
X155279999Y-94373803D01*
X155279998Y-94373800D01*
X155241748Y-94258370D01*
X155224814Y-94207266D01*
X155132712Y-94057944D01*
X155008656Y-93933888D01*
X154859334Y-93841786D01*
X154692797Y-93786601D01*
X154692795Y-93786600D01*
X154590010Y-93776100D01*
X153289998Y-93776100D01*
X153289981Y-93776101D01*
X153187203Y-93786600D01*
X153187200Y-93786601D01*
X153020668Y-93841785D01*
X153020663Y-93841787D01*
X152871342Y-93933889D01*
X152747289Y-94057942D01*
X152655187Y-94207263D01*
X152655185Y-94207268D01*
X152648865Y-94226342D01*
X152600001Y-94373803D01*
X152600001Y-94373804D01*
X152600000Y-94373804D01*
X152589500Y-94476583D01*
X152589500Y-94962500D01*
X152569815Y-95029539D01*
X152517011Y-95075294D01*
X152465500Y-95086500D01*
X151814499Y-95086500D01*
X151747460Y-95066815D01*
X151701705Y-95014011D01*
X151690499Y-94962500D01*
X151690499Y-94476598D01*
X151690498Y-94476581D01*
X151679999Y-94373803D01*
X151679998Y-94373800D01*
X151641748Y-94258370D01*
X151624814Y-94207266D01*
X151532712Y-94057944D01*
X151408656Y-93933888D01*
X151259334Y-93841786D01*
X151092797Y-93786601D01*
X151092795Y-93786600D01*
X150990010Y-93776100D01*
X149689998Y-93776100D01*
X149689981Y-93776101D01*
X149587203Y-93786600D01*
X149587200Y-93786601D01*
X149420668Y-93841785D01*
X149420663Y-93841787D01*
X149271342Y-93933889D01*
X149147289Y-94057942D01*
X149055187Y-94207263D01*
X149055185Y-94207268D01*
X149048865Y-94226342D01*
X149000001Y-94373803D01*
X149000001Y-94373804D01*
X149000000Y-94373804D01*
X148989500Y-94476583D01*
X148989500Y-94962500D01*
X148969815Y-95029539D01*
X148917011Y-95075294D01*
X148865500Y-95086500D01*
X147005666Y-95086500D01*
X146810838Y-95125253D01*
X146810838Y-95125254D01*
X146810835Y-95125255D01*
X146810831Y-95125256D01*
X146734809Y-95156745D01*
X146734807Y-95156745D01*
X146627294Y-95201278D01*
X146462123Y-95311642D01*
X146462115Y-95311648D01*
X145277688Y-96496078D01*
X145157119Y-96616647D01*
X145097334Y-96676432D01*
X145016645Y-96757120D01*
X144906282Y-96922289D01*
X144906277Y-96922298D01*
X144830256Y-97105830D01*
X144830254Y-97105838D01*
X144791500Y-97300666D01*
X144791500Y-99611888D01*
X144771815Y-99678927D01*
X144755181Y-99699569D01*
X144750830Y-99703919D01*
X144750830Y-99703920D01*
X144750828Y-99703922D01*
X144696174Y-99779145D01*
X144623567Y-99879080D01*
X144525273Y-100071990D01*
X144525272Y-100071993D01*
X144458370Y-100277901D01*
X144458370Y-100277903D01*
X144424500Y-100491746D01*
X117447502Y-100491746D01*
X117370247Y-100479510D01*
X117315255Y-100470800D01*
X117092545Y-100470800D01*
X117019222Y-100482413D01*
X116872575Y-100505640D01*
X116872572Y-100505640D01*
X116660769Y-100574459D01*
X116462330Y-100675569D01*
X116359533Y-100750256D01*
X116282155Y-100806475D01*
X116282153Y-100806477D01*
X116282152Y-100806477D01*
X116124677Y-100963952D01*
X116124677Y-100963953D01*
X116124675Y-100963955D01*
X116079651Y-101025925D01*
X115993769Y-101144130D01*
X115892659Y-101342569D01*
X115823840Y-101554372D01*
X115823840Y-101554375D01*
X115789000Y-101774345D01*
X108458800Y-101774345D01*
X108423960Y-101554377D01*
X108423959Y-101554373D01*
X108423959Y-101554372D01*
X108355140Y-101342569D01*
X108254030Y-101144130D01*
X108123125Y-100963955D01*
X107965645Y-100806475D01*
X107785469Y-100675569D01*
X107587030Y-100574459D01*
X107375226Y-100505640D01*
X107210247Y-100479510D01*
X107155255Y-100470800D01*
X106932545Y-100470800D01*
X106859222Y-100482413D01*
X106712575Y-100505640D01*
X106712572Y-100505640D01*
X106500769Y-100574459D01*
X106302330Y-100675569D01*
X106199533Y-100750256D01*
X106122155Y-100806475D01*
X106122153Y-100806477D01*
X106122152Y-100806477D01*
X105964677Y-100963952D01*
X105964677Y-100963953D01*
X105964675Y-100963955D01*
X105919651Y-101025925D01*
X105833769Y-101144130D01*
X105732659Y-101342569D01*
X105663840Y-101554372D01*
X105663840Y-101554375D01*
X105629000Y-101774345D01*
X104000500Y-101774345D01*
X104000500Y-90224500D01*
X104020185Y-90157461D01*
X104072989Y-90111706D01*
X104124500Y-90100500D01*
X229875500Y-90100500D01*
X229942539Y-90120185D01*
G37*
%TD.AperFunction*%
%TD*%
M02*
