%TF.GenerationSoftware,KiCad,Pcbnew,9.0.5*%
%TF.CreationDate,2025-10-30T21:43:39-07:00*%
%TF.ProjectId,Flyback_CCM_Converter,466c7962-6163-46b5-9f43-434d5f436f6e,rev?*%
%TF.SameCoordinates,Original*%
%TF.FileFunction,Legend,Top*%
%TF.FilePolarity,Positive*%
%FSLAX46Y46*%
G04 Gerber Fmt 4.6, Leading zero omitted, Abs format (unit mm)*
G04 Created by KiCad (PCBNEW 9.0.5) date 2025-10-30 21:43:39*
%MOMM*%
%LPD*%
G01*
G04 APERTURE LIST*
%ADD10C,0.300000*%
%ADD11C,0.063500*%
%ADD12C,0.150000*%
%ADD13C,0.031750*%
%ADD14C,0.120000*%
%ADD15C,0.152400*%
%ADD16C,0.100000*%
%ADD17C,0.200000*%
%ADD18C,0.508000*%
G04 APERTURE END LIST*
D10*
X180083082Y-131499568D02*
X180297368Y-131570996D01*
X180297368Y-131570996D02*
X180654510Y-131570996D01*
X180654510Y-131570996D02*
X180797368Y-131499568D01*
X180797368Y-131499568D02*
X180868796Y-131428139D01*
X180868796Y-131428139D02*
X180940225Y-131285282D01*
X180940225Y-131285282D02*
X180940225Y-131142425D01*
X180940225Y-131142425D02*
X180868796Y-130999568D01*
X180868796Y-130999568D02*
X180797368Y-130928139D01*
X180797368Y-130928139D02*
X180654510Y-130856710D01*
X180654510Y-130856710D02*
X180368796Y-130785282D01*
X180368796Y-130785282D02*
X180225939Y-130713853D01*
X180225939Y-130713853D02*
X180154510Y-130642425D01*
X180154510Y-130642425D02*
X180083082Y-130499568D01*
X180083082Y-130499568D02*
X180083082Y-130356710D01*
X180083082Y-130356710D02*
X180154510Y-130213853D01*
X180154510Y-130213853D02*
X180225939Y-130142425D01*
X180225939Y-130142425D02*
X180368796Y-130070996D01*
X180368796Y-130070996D02*
X180725939Y-130070996D01*
X180725939Y-130070996D02*
X180940225Y-130142425D01*
X182225939Y-131570996D02*
X182225939Y-130785282D01*
X182225939Y-130785282D02*
X182154510Y-130642425D01*
X182154510Y-130642425D02*
X182011653Y-130570996D01*
X182011653Y-130570996D02*
X181725939Y-130570996D01*
X181725939Y-130570996D02*
X181583081Y-130642425D01*
X182225939Y-131499568D02*
X182083081Y-131570996D01*
X182083081Y-131570996D02*
X181725939Y-131570996D01*
X181725939Y-131570996D02*
X181583081Y-131499568D01*
X181583081Y-131499568D02*
X181511653Y-131356710D01*
X181511653Y-131356710D02*
X181511653Y-131213853D01*
X181511653Y-131213853D02*
X181583081Y-131070996D01*
X181583081Y-131070996D02*
X181725939Y-130999568D01*
X181725939Y-130999568D02*
X182083081Y-130999568D01*
X182083081Y-130999568D02*
X182225939Y-130928139D01*
X182940224Y-131570996D02*
X182940224Y-130070996D01*
X183083082Y-130999568D02*
X183511653Y-131570996D01*
X183511653Y-130570996D02*
X182940224Y-131142425D01*
X184154510Y-131570996D02*
X184154510Y-130570996D01*
X184154510Y-130070996D02*
X184083082Y-130142425D01*
X184083082Y-130142425D02*
X184154510Y-130213853D01*
X184154510Y-130213853D02*
X184225939Y-130142425D01*
X184225939Y-130142425D02*
X184154510Y-130070996D01*
X184154510Y-130070996D02*
X184154510Y-130213853D01*
X184868796Y-131570996D02*
X184868796Y-130070996D01*
X184868796Y-130642425D02*
X185011654Y-130570996D01*
X185011654Y-130570996D02*
X185297368Y-130570996D01*
X185297368Y-130570996D02*
X185440225Y-130642425D01*
X185440225Y-130642425D02*
X185511654Y-130713853D01*
X185511654Y-130713853D02*
X185583082Y-130856710D01*
X185583082Y-130856710D02*
X185583082Y-131285282D01*
X185583082Y-131285282D02*
X185511654Y-131428139D01*
X185511654Y-131428139D02*
X185440225Y-131499568D01*
X185440225Y-131499568D02*
X185297368Y-131570996D01*
X185297368Y-131570996D02*
X185011654Y-131570996D01*
X185011654Y-131570996D02*
X184868796Y-131499568D01*
X187368796Y-131570996D02*
X187368796Y-130070996D01*
X188225939Y-131570996D02*
X187583082Y-130713853D01*
X188225939Y-130070996D02*
X187368796Y-130928139D01*
X189511654Y-131570996D02*
X189511654Y-130785282D01*
X189511654Y-130785282D02*
X189440225Y-130642425D01*
X189440225Y-130642425D02*
X189297368Y-130570996D01*
X189297368Y-130570996D02*
X189011654Y-130570996D01*
X189011654Y-130570996D02*
X188868796Y-130642425D01*
X189511654Y-131499568D02*
X189368796Y-131570996D01*
X189368796Y-131570996D02*
X189011654Y-131570996D01*
X189011654Y-131570996D02*
X188868796Y-131499568D01*
X188868796Y-131499568D02*
X188797368Y-131356710D01*
X188797368Y-131356710D02*
X188797368Y-131213853D01*
X188797368Y-131213853D02*
X188868796Y-131070996D01*
X188868796Y-131070996D02*
X189011654Y-130999568D01*
X189011654Y-130999568D02*
X189368796Y-130999568D01*
X189368796Y-130999568D02*
X189511654Y-130928139D01*
X190225939Y-131570996D02*
X190225939Y-130570996D01*
X190225939Y-130856710D02*
X190297368Y-130713853D01*
X190297368Y-130713853D02*
X190368797Y-130642425D01*
X190368797Y-130642425D02*
X190511654Y-130570996D01*
X190511654Y-130570996D02*
X190654511Y-130570996D01*
X191154510Y-131570996D02*
X191154510Y-130570996D01*
X191154510Y-130070996D02*
X191083082Y-130142425D01*
X191083082Y-130142425D02*
X191154510Y-130213853D01*
X191154510Y-130213853D02*
X191225939Y-130142425D01*
X191225939Y-130142425D02*
X191154510Y-130070996D01*
X191154510Y-130070996D02*
X191154510Y-130213853D01*
X191868796Y-131570996D02*
X191868796Y-130570996D01*
X191868796Y-130713853D02*
X191940225Y-130642425D01*
X191940225Y-130642425D02*
X192083082Y-130570996D01*
X192083082Y-130570996D02*
X192297368Y-130570996D01*
X192297368Y-130570996D02*
X192440225Y-130642425D01*
X192440225Y-130642425D02*
X192511654Y-130785282D01*
X192511654Y-130785282D02*
X192511654Y-131570996D01*
X192511654Y-130785282D02*
X192583082Y-130642425D01*
X192583082Y-130642425D02*
X192725939Y-130570996D01*
X192725939Y-130570996D02*
X192940225Y-130570996D01*
X192940225Y-130570996D02*
X193083082Y-130642425D01*
X193083082Y-130642425D02*
X193154511Y-130785282D01*
X193154511Y-130785282D02*
X193154511Y-131570996D01*
X180154510Y-133200198D02*
X180654510Y-133200198D01*
X180868796Y-133985912D02*
X180154510Y-133985912D01*
X180154510Y-133985912D02*
X180154510Y-132485912D01*
X180154510Y-132485912D02*
X180868796Y-132485912D01*
X181511653Y-133985912D02*
X181511653Y-132485912D01*
X181511653Y-132485912D02*
X182368796Y-133985912D01*
X182368796Y-133985912D02*
X182368796Y-132485912D01*
X183083082Y-133843055D02*
X183154511Y-133914484D01*
X183154511Y-133914484D02*
X183083082Y-133985912D01*
X183083082Y-133985912D02*
X183011654Y-133914484D01*
X183011654Y-133914484D02*
X183083082Y-133843055D01*
X183083082Y-133843055D02*
X183083082Y-133985912D01*
X184511654Y-132485912D02*
X183797368Y-132485912D01*
X183797368Y-132485912D02*
X183725940Y-133200198D01*
X183725940Y-133200198D02*
X183797368Y-133128769D01*
X183797368Y-133128769D02*
X183940226Y-133057341D01*
X183940226Y-133057341D02*
X184297368Y-133057341D01*
X184297368Y-133057341D02*
X184440226Y-133128769D01*
X184440226Y-133128769D02*
X184511654Y-133200198D01*
X184511654Y-133200198D02*
X184583083Y-133343055D01*
X184583083Y-133343055D02*
X184583083Y-133700198D01*
X184583083Y-133700198D02*
X184511654Y-133843055D01*
X184511654Y-133843055D02*
X184440226Y-133914484D01*
X184440226Y-133914484D02*
X184297368Y-133985912D01*
X184297368Y-133985912D02*
X183940226Y-133985912D01*
X183940226Y-133985912D02*
X183797368Y-133914484D01*
X183797368Y-133914484D02*
X183725940Y-133843055D01*
X185154511Y-132628769D02*
X185225939Y-132557341D01*
X185225939Y-132557341D02*
X185368797Y-132485912D01*
X185368797Y-132485912D02*
X185725939Y-132485912D01*
X185725939Y-132485912D02*
X185868797Y-132557341D01*
X185868797Y-132557341D02*
X185940225Y-132628769D01*
X185940225Y-132628769D02*
X186011654Y-132771626D01*
X186011654Y-132771626D02*
X186011654Y-132914484D01*
X186011654Y-132914484D02*
X185940225Y-133128769D01*
X185940225Y-133128769D02*
X185083082Y-133985912D01*
X185083082Y-133985912D02*
X186011654Y-133985912D01*
X187368796Y-132485912D02*
X186654510Y-132485912D01*
X186654510Y-132485912D02*
X186583082Y-133200198D01*
X186583082Y-133200198D02*
X186654510Y-133128769D01*
X186654510Y-133128769D02*
X186797368Y-133057341D01*
X186797368Y-133057341D02*
X187154510Y-133057341D01*
X187154510Y-133057341D02*
X187297368Y-133128769D01*
X187297368Y-133128769D02*
X187368796Y-133200198D01*
X187368796Y-133200198D02*
X187440225Y-133343055D01*
X187440225Y-133343055D02*
X187440225Y-133700198D01*
X187440225Y-133700198D02*
X187368796Y-133843055D01*
X187368796Y-133843055D02*
X187297368Y-133914484D01*
X187297368Y-133914484D02*
X187154510Y-133985912D01*
X187154510Y-133985912D02*
X186797368Y-133985912D01*
X186797368Y-133985912D02*
X186654510Y-133914484D01*
X186654510Y-133914484D02*
X186583082Y-133843055D01*
X188083081Y-133843055D02*
X188154510Y-133914484D01*
X188154510Y-133914484D02*
X188083081Y-133985912D01*
X188083081Y-133985912D02*
X188011653Y-133914484D01*
X188011653Y-133914484D02*
X188083081Y-133843055D01*
X188083081Y-133843055D02*
X188083081Y-133985912D01*
X188654510Y-132485912D02*
X189654510Y-132485912D01*
X189654510Y-132485912D02*
X189011653Y-133985912D01*
X190154510Y-132628769D02*
X190225938Y-132557341D01*
X190225938Y-132557341D02*
X190368796Y-132485912D01*
X190368796Y-132485912D02*
X190725938Y-132485912D01*
X190725938Y-132485912D02*
X190868796Y-132557341D01*
X190868796Y-132557341D02*
X190940224Y-132628769D01*
X190940224Y-132628769D02*
X191011653Y-132771626D01*
X191011653Y-132771626D02*
X191011653Y-132914484D01*
X191011653Y-132914484D02*
X190940224Y-133128769D01*
X190940224Y-133128769D02*
X190083081Y-133985912D01*
X190083081Y-133985912D02*
X191011653Y-133985912D01*
X192297367Y-132485912D02*
X192011652Y-132485912D01*
X192011652Y-132485912D02*
X191868795Y-132557341D01*
X191868795Y-132557341D02*
X191797367Y-132628769D01*
X191797367Y-132628769D02*
X191654509Y-132843055D01*
X191654509Y-132843055D02*
X191583081Y-133128769D01*
X191583081Y-133128769D02*
X191583081Y-133700198D01*
X191583081Y-133700198D02*
X191654509Y-133843055D01*
X191654509Y-133843055D02*
X191725938Y-133914484D01*
X191725938Y-133914484D02*
X191868795Y-133985912D01*
X191868795Y-133985912D02*
X192154509Y-133985912D01*
X192154509Y-133985912D02*
X192297367Y-133914484D01*
X192297367Y-133914484D02*
X192368795Y-133843055D01*
X192368795Y-133843055D02*
X192440224Y-133700198D01*
X192440224Y-133700198D02*
X192440224Y-133343055D01*
X192440224Y-133343055D02*
X192368795Y-133200198D01*
X192368795Y-133200198D02*
X192297367Y-133128769D01*
X192297367Y-133128769D02*
X192154509Y-133057341D01*
X192154509Y-133057341D02*
X191868795Y-133057341D01*
X191868795Y-133057341D02*
X191725938Y-133128769D01*
X191725938Y-133128769D02*
X191654509Y-133200198D01*
X191654509Y-133200198D02*
X191583081Y-133343055D01*
X193083080Y-133843055D02*
X193154509Y-133914484D01*
X193154509Y-133914484D02*
X193083080Y-133985912D01*
X193083080Y-133985912D02*
X193011652Y-133914484D01*
X193011652Y-133914484D02*
X193083080Y-133843055D01*
X193083080Y-133843055D02*
X193083080Y-133985912D01*
X194011652Y-133128769D02*
X193868795Y-133057341D01*
X193868795Y-133057341D02*
X193797366Y-132985912D01*
X193797366Y-132985912D02*
X193725938Y-132843055D01*
X193725938Y-132843055D02*
X193725938Y-132771626D01*
X193725938Y-132771626D02*
X193797366Y-132628769D01*
X193797366Y-132628769D02*
X193868795Y-132557341D01*
X193868795Y-132557341D02*
X194011652Y-132485912D01*
X194011652Y-132485912D02*
X194297366Y-132485912D01*
X194297366Y-132485912D02*
X194440224Y-132557341D01*
X194440224Y-132557341D02*
X194511652Y-132628769D01*
X194511652Y-132628769D02*
X194583081Y-132771626D01*
X194583081Y-132771626D02*
X194583081Y-132843055D01*
X194583081Y-132843055D02*
X194511652Y-132985912D01*
X194511652Y-132985912D02*
X194440224Y-133057341D01*
X194440224Y-133057341D02*
X194297366Y-133128769D01*
X194297366Y-133128769D02*
X194011652Y-133128769D01*
X194011652Y-133128769D02*
X193868795Y-133200198D01*
X193868795Y-133200198D02*
X193797366Y-133271626D01*
X193797366Y-133271626D02*
X193725938Y-133414484D01*
X193725938Y-133414484D02*
X193725938Y-133700198D01*
X193725938Y-133700198D02*
X193797366Y-133843055D01*
X193797366Y-133843055D02*
X193868795Y-133914484D01*
X193868795Y-133914484D02*
X194011652Y-133985912D01*
X194011652Y-133985912D02*
X194297366Y-133985912D01*
X194297366Y-133985912D02*
X194440224Y-133914484D01*
X194440224Y-133914484D02*
X194511652Y-133843055D01*
X194511652Y-133843055D02*
X194583081Y-133700198D01*
X194583081Y-133700198D02*
X194583081Y-133414484D01*
X194583081Y-133414484D02*
X194511652Y-133271626D01*
X194511652Y-133271626D02*
X194440224Y-133200198D01*
X194440224Y-133200198D02*
X194297366Y-133128769D01*
X196011652Y-133985912D02*
X195154509Y-133985912D01*
X195583080Y-133985912D02*
X195583080Y-132485912D01*
X195583080Y-132485912D02*
X195440223Y-132700198D01*
X195440223Y-132700198D02*
X195297366Y-132843055D01*
X195297366Y-132843055D02*
X195154509Y-132914484D01*
X196654508Y-133843055D02*
X196725937Y-133914484D01*
X196725937Y-133914484D02*
X196654508Y-133985912D01*
X196654508Y-133985912D02*
X196583080Y-133914484D01*
X196583080Y-133914484D02*
X196654508Y-133843055D01*
X196654508Y-133843055D02*
X196654508Y-133985912D01*
X197868794Y-133200198D02*
X197368794Y-133200198D01*
X197368794Y-133985912D02*
X197368794Y-132485912D01*
X197368794Y-132485912D02*
X198083080Y-132485912D01*
X198583080Y-133557341D02*
X199297366Y-133557341D01*
X198440223Y-133985912D02*
X198940223Y-132485912D01*
X198940223Y-132485912D02*
X199440223Y-133985912D01*
X199868794Y-132628769D02*
X199940222Y-132557341D01*
X199940222Y-132557341D02*
X200083080Y-132485912D01*
X200083080Y-132485912D02*
X200440222Y-132485912D01*
X200440222Y-132485912D02*
X200583080Y-132557341D01*
X200583080Y-132557341D02*
X200654508Y-132628769D01*
X200654508Y-132628769D02*
X200725937Y-132771626D01*
X200725937Y-132771626D02*
X200725937Y-132914484D01*
X200725937Y-132914484D02*
X200654508Y-133128769D01*
X200654508Y-133128769D02*
X199797365Y-133985912D01*
X199797365Y-133985912D02*
X200725937Y-133985912D01*
X202083079Y-132485912D02*
X201368793Y-132485912D01*
X201368793Y-132485912D02*
X201297365Y-133200198D01*
X201297365Y-133200198D02*
X201368793Y-133128769D01*
X201368793Y-133128769D02*
X201511651Y-133057341D01*
X201511651Y-133057341D02*
X201868793Y-133057341D01*
X201868793Y-133057341D02*
X202011651Y-133128769D01*
X202011651Y-133128769D02*
X202083079Y-133200198D01*
X202083079Y-133200198D02*
X202154508Y-133343055D01*
X202154508Y-133343055D02*
X202154508Y-133700198D01*
X202154508Y-133700198D02*
X202083079Y-133843055D01*
X202083079Y-133843055D02*
X202011651Y-133914484D01*
X202011651Y-133914484D02*
X201868793Y-133985912D01*
X201868793Y-133985912D02*
X201511651Y-133985912D01*
X201511651Y-133985912D02*
X201368793Y-133914484D01*
X201368793Y-133914484D02*
X201297365Y-133843055D01*
X180654510Y-135615114D02*
X180154510Y-135615114D01*
X180154510Y-136400828D02*
X180154510Y-134900828D01*
X180154510Y-134900828D02*
X180868796Y-134900828D01*
X181654510Y-136400828D02*
X181511653Y-136329400D01*
X181511653Y-136329400D02*
X181440224Y-136186542D01*
X181440224Y-136186542D02*
X181440224Y-134900828D01*
X182083081Y-135400828D02*
X182440224Y-136400828D01*
X182797367Y-135400828D02*
X182440224Y-136400828D01*
X182440224Y-136400828D02*
X182297367Y-136757971D01*
X182297367Y-136757971D02*
X182225938Y-136829400D01*
X182225938Y-136829400D02*
X182083081Y-136900828D01*
X183368795Y-136400828D02*
X183368795Y-134900828D01*
X183368795Y-135472257D02*
X183511653Y-135400828D01*
X183511653Y-135400828D02*
X183797367Y-135400828D01*
X183797367Y-135400828D02*
X183940224Y-135472257D01*
X183940224Y-135472257D02*
X184011653Y-135543685D01*
X184011653Y-135543685D02*
X184083081Y-135686542D01*
X184083081Y-135686542D02*
X184083081Y-136115114D01*
X184083081Y-136115114D02*
X184011653Y-136257971D01*
X184011653Y-136257971D02*
X183940224Y-136329400D01*
X183940224Y-136329400D02*
X183797367Y-136400828D01*
X183797367Y-136400828D02*
X183511653Y-136400828D01*
X183511653Y-136400828D02*
X183368795Y-136329400D01*
X185368796Y-136400828D02*
X185368796Y-135615114D01*
X185368796Y-135615114D02*
X185297367Y-135472257D01*
X185297367Y-135472257D02*
X185154510Y-135400828D01*
X185154510Y-135400828D02*
X184868796Y-135400828D01*
X184868796Y-135400828D02*
X184725938Y-135472257D01*
X185368796Y-136329400D02*
X185225938Y-136400828D01*
X185225938Y-136400828D02*
X184868796Y-136400828D01*
X184868796Y-136400828D02*
X184725938Y-136329400D01*
X184725938Y-136329400D02*
X184654510Y-136186542D01*
X184654510Y-136186542D02*
X184654510Y-136043685D01*
X184654510Y-136043685D02*
X184725938Y-135900828D01*
X184725938Y-135900828D02*
X184868796Y-135829400D01*
X184868796Y-135829400D02*
X185225938Y-135829400D01*
X185225938Y-135829400D02*
X185368796Y-135757971D01*
X186725939Y-136329400D02*
X186583081Y-136400828D01*
X186583081Y-136400828D02*
X186297367Y-136400828D01*
X186297367Y-136400828D02*
X186154510Y-136329400D01*
X186154510Y-136329400D02*
X186083081Y-136257971D01*
X186083081Y-136257971D02*
X186011653Y-136115114D01*
X186011653Y-136115114D02*
X186011653Y-135686542D01*
X186011653Y-135686542D02*
X186083081Y-135543685D01*
X186083081Y-135543685D02*
X186154510Y-135472257D01*
X186154510Y-135472257D02*
X186297367Y-135400828D01*
X186297367Y-135400828D02*
X186583081Y-135400828D01*
X186583081Y-135400828D02*
X186725939Y-135472257D01*
X187368795Y-136400828D02*
X187368795Y-134900828D01*
X187511653Y-135829400D02*
X187940224Y-136400828D01*
X187940224Y-135400828D02*
X187368795Y-135972257D01*
X190583081Y-136257971D02*
X190511653Y-136329400D01*
X190511653Y-136329400D02*
X190297367Y-136400828D01*
X190297367Y-136400828D02*
X190154510Y-136400828D01*
X190154510Y-136400828D02*
X189940224Y-136329400D01*
X189940224Y-136329400D02*
X189797367Y-136186542D01*
X189797367Y-136186542D02*
X189725938Y-136043685D01*
X189725938Y-136043685D02*
X189654510Y-135757971D01*
X189654510Y-135757971D02*
X189654510Y-135543685D01*
X189654510Y-135543685D02*
X189725938Y-135257971D01*
X189725938Y-135257971D02*
X189797367Y-135115114D01*
X189797367Y-135115114D02*
X189940224Y-134972257D01*
X189940224Y-134972257D02*
X190154510Y-134900828D01*
X190154510Y-134900828D02*
X190297367Y-134900828D01*
X190297367Y-134900828D02*
X190511653Y-134972257D01*
X190511653Y-134972257D02*
X190583081Y-135043685D01*
X192083081Y-136257971D02*
X192011653Y-136329400D01*
X192011653Y-136329400D02*
X191797367Y-136400828D01*
X191797367Y-136400828D02*
X191654510Y-136400828D01*
X191654510Y-136400828D02*
X191440224Y-136329400D01*
X191440224Y-136329400D02*
X191297367Y-136186542D01*
X191297367Y-136186542D02*
X191225938Y-136043685D01*
X191225938Y-136043685D02*
X191154510Y-135757971D01*
X191154510Y-135757971D02*
X191154510Y-135543685D01*
X191154510Y-135543685D02*
X191225938Y-135257971D01*
X191225938Y-135257971D02*
X191297367Y-135115114D01*
X191297367Y-135115114D02*
X191440224Y-134972257D01*
X191440224Y-134972257D02*
X191654510Y-134900828D01*
X191654510Y-134900828D02*
X191797367Y-134900828D01*
X191797367Y-134900828D02*
X192011653Y-134972257D01*
X192011653Y-134972257D02*
X192083081Y-135043685D01*
X192725938Y-136400828D02*
X192725938Y-134900828D01*
X192725938Y-134900828D02*
X193225938Y-135972257D01*
X193225938Y-135972257D02*
X193725938Y-134900828D01*
X193725938Y-134900828D02*
X193725938Y-136400828D01*
D11*
X139510571Y-136483327D02*
X139486380Y-136507518D01*
X139486380Y-136507518D02*
X139413809Y-136531708D01*
X139413809Y-136531708D02*
X139365428Y-136531708D01*
X139365428Y-136531708D02*
X139292856Y-136507518D01*
X139292856Y-136507518D02*
X139244475Y-136459137D01*
X139244475Y-136459137D02*
X139220285Y-136410756D01*
X139220285Y-136410756D02*
X139196094Y-136313994D01*
X139196094Y-136313994D02*
X139196094Y-136241422D01*
X139196094Y-136241422D02*
X139220285Y-136144660D01*
X139220285Y-136144660D02*
X139244475Y-136096279D01*
X139244475Y-136096279D02*
X139292856Y-136047898D01*
X139292856Y-136047898D02*
X139365428Y-136023708D01*
X139365428Y-136023708D02*
X139413809Y-136023708D01*
X139413809Y-136023708D02*
X139486380Y-136047898D01*
X139486380Y-136047898D02*
X139510571Y-136072089D01*
X139607333Y-136580089D02*
X139994380Y-136580089D01*
X140091142Y-136507518D02*
X140139523Y-136531708D01*
X140139523Y-136531708D02*
X140236285Y-136531708D01*
X140236285Y-136531708D02*
X140284666Y-136507518D01*
X140284666Y-136507518D02*
X140308857Y-136459137D01*
X140308857Y-136459137D02*
X140308857Y-136434946D01*
X140308857Y-136434946D02*
X140284666Y-136386565D01*
X140284666Y-136386565D02*
X140236285Y-136362375D01*
X140236285Y-136362375D02*
X140163714Y-136362375D01*
X140163714Y-136362375D02*
X140115333Y-136338184D01*
X140115333Y-136338184D02*
X140091142Y-136289803D01*
X140091142Y-136289803D02*
X140091142Y-136265613D01*
X140091142Y-136265613D02*
X140115333Y-136217232D01*
X140115333Y-136217232D02*
X140163714Y-136193041D01*
X140163714Y-136193041D02*
X140236285Y-136193041D01*
X140236285Y-136193041D02*
X140284666Y-136217232D01*
X140502380Y-136507518D02*
X140550761Y-136531708D01*
X140550761Y-136531708D02*
X140647523Y-136531708D01*
X140647523Y-136531708D02*
X140695904Y-136507518D01*
X140695904Y-136507518D02*
X140720095Y-136459137D01*
X140720095Y-136459137D02*
X140720095Y-136434946D01*
X140720095Y-136434946D02*
X140695904Y-136386565D01*
X140695904Y-136386565D02*
X140647523Y-136362375D01*
X140647523Y-136362375D02*
X140574952Y-136362375D01*
X140574952Y-136362375D02*
X140526571Y-136338184D01*
X140526571Y-136338184D02*
X140502380Y-136289803D01*
X140502380Y-136289803D02*
X140502380Y-136265613D01*
X140502380Y-136265613D02*
X140526571Y-136217232D01*
X140526571Y-136217232D02*
X140574952Y-136193041D01*
X140574952Y-136193041D02*
X140647523Y-136193041D01*
X140647523Y-136193041D02*
X140695904Y-136217232D01*
X141203904Y-136531708D02*
X140913618Y-136531708D01*
X141058761Y-136531708D02*
X141058761Y-136023708D01*
X141058761Y-136023708D02*
X141010380Y-136096279D01*
X141010380Y-136096279D02*
X140961999Y-136144660D01*
X140961999Y-136144660D02*
X140913618Y-136168851D01*
X147824380Y-118783327D02*
X147800189Y-118807518D01*
X147800189Y-118807518D02*
X147727618Y-118831708D01*
X147727618Y-118831708D02*
X147679237Y-118831708D01*
X147679237Y-118831708D02*
X147606665Y-118807518D01*
X147606665Y-118807518D02*
X147558284Y-118759137D01*
X147558284Y-118759137D02*
X147534094Y-118710756D01*
X147534094Y-118710756D02*
X147509903Y-118613994D01*
X147509903Y-118613994D02*
X147509903Y-118541422D01*
X147509903Y-118541422D02*
X147534094Y-118444660D01*
X147534094Y-118444660D02*
X147558284Y-118396279D01*
X147558284Y-118396279D02*
X147606665Y-118347898D01*
X147606665Y-118347898D02*
X147679237Y-118323708D01*
X147679237Y-118323708D02*
X147727618Y-118323708D01*
X147727618Y-118323708D02*
X147800189Y-118347898D01*
X147800189Y-118347898D02*
X147824380Y-118372089D01*
X147921142Y-118880089D02*
X148308189Y-118880089D01*
X148429142Y-118831708D02*
X148429142Y-118493041D01*
X148429142Y-118323708D02*
X148404951Y-118347898D01*
X148404951Y-118347898D02*
X148429142Y-118372089D01*
X148429142Y-118372089D02*
X148453332Y-118347898D01*
X148453332Y-118347898D02*
X148429142Y-118323708D01*
X148429142Y-118323708D02*
X148429142Y-118372089D01*
X148646856Y-118807518D02*
X148695237Y-118831708D01*
X148695237Y-118831708D02*
X148791999Y-118831708D01*
X148791999Y-118831708D02*
X148840380Y-118807518D01*
X148840380Y-118807518D02*
X148864571Y-118759137D01*
X148864571Y-118759137D02*
X148864571Y-118734946D01*
X148864571Y-118734946D02*
X148840380Y-118686565D01*
X148840380Y-118686565D02*
X148791999Y-118662375D01*
X148791999Y-118662375D02*
X148719428Y-118662375D01*
X148719428Y-118662375D02*
X148671047Y-118638184D01*
X148671047Y-118638184D02*
X148646856Y-118589803D01*
X148646856Y-118589803D02*
X148646856Y-118565613D01*
X148646856Y-118565613D02*
X148671047Y-118517232D01*
X148671047Y-118517232D02*
X148719428Y-118493041D01*
X148719428Y-118493041D02*
X148791999Y-118493041D01*
X148791999Y-118493041D02*
X148840380Y-118517232D01*
X149275809Y-118807518D02*
X149227428Y-118831708D01*
X149227428Y-118831708D02*
X149130666Y-118831708D01*
X149130666Y-118831708D02*
X149082285Y-118807518D01*
X149082285Y-118807518D02*
X149058094Y-118759137D01*
X149058094Y-118759137D02*
X149058094Y-118565613D01*
X149058094Y-118565613D02*
X149082285Y-118517232D01*
X149082285Y-118517232D02*
X149130666Y-118493041D01*
X149130666Y-118493041D02*
X149227428Y-118493041D01*
X149227428Y-118493041D02*
X149275809Y-118517232D01*
X149275809Y-118517232D02*
X149299999Y-118565613D01*
X149299999Y-118565613D02*
X149299999Y-118613994D01*
X149299999Y-118613994D02*
X149058094Y-118662375D01*
X149517714Y-118493041D02*
X149517714Y-118831708D01*
X149517714Y-118541422D02*
X149541904Y-118517232D01*
X149541904Y-118517232D02*
X149590285Y-118493041D01*
X149590285Y-118493041D02*
X149662857Y-118493041D01*
X149662857Y-118493041D02*
X149711238Y-118517232D01*
X149711238Y-118517232D02*
X149735428Y-118565613D01*
X149735428Y-118565613D02*
X149735428Y-118831708D01*
X149953142Y-118807518D02*
X150001523Y-118831708D01*
X150001523Y-118831708D02*
X150098285Y-118831708D01*
X150098285Y-118831708D02*
X150146666Y-118807518D01*
X150146666Y-118807518D02*
X150170857Y-118759137D01*
X150170857Y-118759137D02*
X150170857Y-118734946D01*
X150170857Y-118734946D02*
X150146666Y-118686565D01*
X150146666Y-118686565D02*
X150098285Y-118662375D01*
X150098285Y-118662375D02*
X150025714Y-118662375D01*
X150025714Y-118662375D02*
X149977333Y-118638184D01*
X149977333Y-118638184D02*
X149953142Y-118589803D01*
X149953142Y-118589803D02*
X149953142Y-118565613D01*
X149953142Y-118565613D02*
X149977333Y-118517232D01*
X149977333Y-118517232D02*
X150025714Y-118493041D01*
X150025714Y-118493041D02*
X150098285Y-118493041D01*
X150098285Y-118493041D02*
X150146666Y-118517232D01*
X150582095Y-118807518D02*
X150533714Y-118831708D01*
X150533714Y-118831708D02*
X150436952Y-118831708D01*
X150436952Y-118831708D02*
X150388571Y-118807518D01*
X150388571Y-118807518D02*
X150364380Y-118759137D01*
X150364380Y-118759137D02*
X150364380Y-118565613D01*
X150364380Y-118565613D02*
X150388571Y-118517232D01*
X150388571Y-118517232D02*
X150436952Y-118493041D01*
X150436952Y-118493041D02*
X150533714Y-118493041D01*
X150533714Y-118493041D02*
X150582095Y-118517232D01*
X150582095Y-118517232D02*
X150606285Y-118565613D01*
X150606285Y-118565613D02*
X150606285Y-118613994D01*
X150606285Y-118613994D02*
X150364380Y-118662375D01*
X151090095Y-118831708D02*
X150799809Y-118831708D01*
X150944952Y-118831708D02*
X150944952Y-118323708D01*
X150944952Y-118323708D02*
X150896571Y-118396279D01*
X150896571Y-118396279D02*
X150848190Y-118444660D01*
X150848190Y-118444660D02*
X150799809Y-118468851D01*
X152505809Y-131183327D02*
X152481618Y-131207518D01*
X152481618Y-131207518D02*
X152409047Y-131231708D01*
X152409047Y-131231708D02*
X152360666Y-131231708D01*
X152360666Y-131231708D02*
X152288094Y-131207518D01*
X152288094Y-131207518D02*
X152239713Y-131159137D01*
X152239713Y-131159137D02*
X152215523Y-131110756D01*
X152215523Y-131110756D02*
X152191332Y-131013994D01*
X152191332Y-131013994D02*
X152191332Y-130941422D01*
X152191332Y-130941422D02*
X152215523Y-130844660D01*
X152215523Y-130844660D02*
X152239713Y-130796279D01*
X152239713Y-130796279D02*
X152288094Y-130747898D01*
X152288094Y-130747898D02*
X152360666Y-130723708D01*
X152360666Y-130723708D02*
X152409047Y-130723708D01*
X152409047Y-130723708D02*
X152481618Y-130747898D01*
X152481618Y-130747898D02*
X152505809Y-130772089D01*
X152941237Y-131207518D02*
X152892856Y-131231708D01*
X152892856Y-131231708D02*
X152796094Y-131231708D01*
X152796094Y-131231708D02*
X152747713Y-131207518D01*
X152747713Y-131207518D02*
X152723523Y-131183327D01*
X152723523Y-131183327D02*
X152699332Y-131134946D01*
X152699332Y-131134946D02*
X152699332Y-130989803D01*
X152699332Y-130989803D02*
X152723523Y-130941422D01*
X152723523Y-130941422D02*
X152747713Y-130917232D01*
X152747713Y-130917232D02*
X152796094Y-130893041D01*
X152796094Y-130893041D02*
X152892856Y-130893041D01*
X152892856Y-130893041D02*
X152941237Y-130917232D01*
X153231523Y-131231708D02*
X153183142Y-131207518D01*
X153183142Y-131207518D02*
X153158952Y-131183327D01*
X153158952Y-131183327D02*
X153134761Y-131134946D01*
X153134761Y-131134946D02*
X153134761Y-130989803D01*
X153134761Y-130989803D02*
X153158952Y-130941422D01*
X153158952Y-130941422D02*
X153183142Y-130917232D01*
X153183142Y-130917232D02*
X153231523Y-130893041D01*
X153231523Y-130893041D02*
X153304095Y-130893041D01*
X153304095Y-130893041D02*
X153352476Y-130917232D01*
X153352476Y-130917232D02*
X153376666Y-130941422D01*
X153376666Y-130941422D02*
X153400857Y-130989803D01*
X153400857Y-130989803D02*
X153400857Y-131134946D01*
X153400857Y-131134946D02*
X153376666Y-131183327D01*
X153376666Y-131183327D02*
X153352476Y-131207518D01*
X153352476Y-131207518D02*
X153304095Y-131231708D01*
X153304095Y-131231708D02*
X153231523Y-131231708D01*
X153618571Y-131231708D02*
X153618571Y-130893041D01*
X153618571Y-130941422D02*
X153642761Y-130917232D01*
X153642761Y-130917232D02*
X153691142Y-130893041D01*
X153691142Y-130893041D02*
X153763714Y-130893041D01*
X153763714Y-130893041D02*
X153812095Y-130917232D01*
X153812095Y-130917232D02*
X153836285Y-130965613D01*
X153836285Y-130965613D02*
X153836285Y-131231708D01*
X153836285Y-130965613D02*
X153860476Y-130917232D01*
X153860476Y-130917232D02*
X153908857Y-130893041D01*
X153908857Y-130893041D02*
X153981428Y-130893041D01*
X153981428Y-130893041D02*
X154029809Y-130917232D01*
X154029809Y-130917232D02*
X154053999Y-130965613D01*
X154053999Y-130965613D02*
X154053999Y-131231708D01*
X154295904Y-130893041D02*
X154295904Y-131401041D01*
X154295904Y-130917232D02*
X154344285Y-130893041D01*
X154344285Y-130893041D02*
X154441047Y-130893041D01*
X154441047Y-130893041D02*
X154489428Y-130917232D01*
X154489428Y-130917232D02*
X154513618Y-130941422D01*
X154513618Y-130941422D02*
X154537809Y-130989803D01*
X154537809Y-130989803D02*
X154537809Y-131134946D01*
X154537809Y-131134946D02*
X154513618Y-131183327D01*
X154513618Y-131183327D02*
X154489428Y-131207518D01*
X154489428Y-131207518D02*
X154441047Y-131231708D01*
X154441047Y-131231708D02*
X154344285Y-131231708D01*
X154344285Y-131231708D02*
X154295904Y-131207518D01*
X154634571Y-131280089D02*
X155021618Y-131280089D01*
X155118380Y-130772089D02*
X155142571Y-130747898D01*
X155142571Y-130747898D02*
X155190952Y-130723708D01*
X155190952Y-130723708D02*
X155311904Y-130723708D01*
X155311904Y-130723708D02*
X155360285Y-130747898D01*
X155360285Y-130747898D02*
X155384476Y-130772089D01*
X155384476Y-130772089D02*
X155408666Y-130820470D01*
X155408666Y-130820470D02*
X155408666Y-130868851D01*
X155408666Y-130868851D02*
X155384476Y-130941422D01*
X155384476Y-130941422D02*
X155094190Y-131231708D01*
X155094190Y-131231708D02*
X155408666Y-131231708D01*
D12*
X150238095Y-135454819D02*
X150809523Y-135454819D01*
X150523809Y-136454819D02*
X150523809Y-135454819D01*
X151142857Y-136454819D02*
X151142857Y-135454819D01*
X151142857Y-135454819D02*
X151523809Y-135454819D01*
X151523809Y-135454819D02*
X151619047Y-135502438D01*
X151619047Y-135502438D02*
X151666666Y-135550057D01*
X151666666Y-135550057D02*
X151714285Y-135645295D01*
X151714285Y-135645295D02*
X151714285Y-135788152D01*
X151714285Y-135788152D02*
X151666666Y-135883390D01*
X151666666Y-135883390D02*
X151619047Y-135931009D01*
X151619047Y-135931009D02*
X151523809Y-135978628D01*
X151523809Y-135978628D02*
X151142857Y-135978628D01*
X152190476Y-136454819D02*
X152380952Y-136454819D01*
X152380952Y-136454819D02*
X152476190Y-136407200D01*
X152476190Y-136407200D02*
X152523809Y-136359580D01*
X152523809Y-136359580D02*
X152619047Y-136216723D01*
X152619047Y-136216723D02*
X152666666Y-136026247D01*
X152666666Y-136026247D02*
X152666666Y-135645295D01*
X152666666Y-135645295D02*
X152619047Y-135550057D01*
X152619047Y-135550057D02*
X152571428Y-135502438D01*
X152571428Y-135502438D02*
X152476190Y-135454819D01*
X152476190Y-135454819D02*
X152285714Y-135454819D01*
X152285714Y-135454819D02*
X152190476Y-135502438D01*
X152190476Y-135502438D02*
X152142857Y-135550057D01*
X152142857Y-135550057D02*
X152095238Y-135645295D01*
X152095238Y-135645295D02*
X152095238Y-135883390D01*
X152095238Y-135883390D02*
X152142857Y-135978628D01*
X152142857Y-135978628D02*
X152190476Y-136026247D01*
X152190476Y-136026247D02*
X152285714Y-136073866D01*
X152285714Y-136073866D02*
X152476190Y-136073866D01*
X152476190Y-136073866D02*
X152571428Y-136026247D01*
X152571428Y-136026247D02*
X152619047Y-135978628D01*
X152619047Y-135978628D02*
X152666666Y-135883390D01*
D11*
X139162190Y-119383327D02*
X139137999Y-119407518D01*
X139137999Y-119407518D02*
X139065428Y-119431708D01*
X139065428Y-119431708D02*
X139017047Y-119431708D01*
X139017047Y-119431708D02*
X138944475Y-119407518D01*
X138944475Y-119407518D02*
X138896094Y-119359137D01*
X138896094Y-119359137D02*
X138871904Y-119310756D01*
X138871904Y-119310756D02*
X138847713Y-119213994D01*
X138847713Y-119213994D02*
X138847713Y-119141422D01*
X138847713Y-119141422D02*
X138871904Y-119044660D01*
X138871904Y-119044660D02*
X138896094Y-118996279D01*
X138896094Y-118996279D02*
X138944475Y-118947898D01*
X138944475Y-118947898D02*
X139017047Y-118923708D01*
X139017047Y-118923708D02*
X139065428Y-118923708D01*
X139065428Y-118923708D02*
X139137999Y-118947898D01*
X139137999Y-118947898D02*
X139162190Y-118972089D01*
X139452475Y-119431708D02*
X139404094Y-119407518D01*
X139404094Y-119407518D02*
X139379904Y-119383327D01*
X139379904Y-119383327D02*
X139355713Y-119334946D01*
X139355713Y-119334946D02*
X139355713Y-119189803D01*
X139355713Y-119189803D02*
X139379904Y-119141422D01*
X139379904Y-119141422D02*
X139404094Y-119117232D01*
X139404094Y-119117232D02*
X139452475Y-119093041D01*
X139452475Y-119093041D02*
X139525047Y-119093041D01*
X139525047Y-119093041D02*
X139573428Y-119117232D01*
X139573428Y-119117232D02*
X139597618Y-119141422D01*
X139597618Y-119141422D02*
X139621809Y-119189803D01*
X139621809Y-119189803D02*
X139621809Y-119334946D01*
X139621809Y-119334946D02*
X139597618Y-119383327D01*
X139597618Y-119383327D02*
X139573428Y-119407518D01*
X139573428Y-119407518D02*
X139525047Y-119431708D01*
X139525047Y-119431708D02*
X139452475Y-119431708D01*
X139815332Y-119407518D02*
X139863713Y-119431708D01*
X139863713Y-119431708D02*
X139960475Y-119431708D01*
X139960475Y-119431708D02*
X140008856Y-119407518D01*
X140008856Y-119407518D02*
X140033047Y-119359137D01*
X140033047Y-119359137D02*
X140033047Y-119334946D01*
X140033047Y-119334946D02*
X140008856Y-119286565D01*
X140008856Y-119286565D02*
X139960475Y-119262375D01*
X139960475Y-119262375D02*
X139887904Y-119262375D01*
X139887904Y-119262375D02*
X139839523Y-119238184D01*
X139839523Y-119238184D02*
X139815332Y-119189803D01*
X139815332Y-119189803D02*
X139815332Y-119165613D01*
X139815332Y-119165613D02*
X139839523Y-119117232D01*
X139839523Y-119117232D02*
X139887904Y-119093041D01*
X139887904Y-119093041D02*
X139960475Y-119093041D01*
X139960475Y-119093041D02*
X140008856Y-119117232D01*
X140468475Y-119407518D02*
X140420094Y-119431708D01*
X140420094Y-119431708D02*
X140323332Y-119431708D01*
X140323332Y-119431708D02*
X140274951Y-119407518D01*
X140274951Y-119407518D02*
X140250761Y-119383327D01*
X140250761Y-119383327D02*
X140226570Y-119334946D01*
X140226570Y-119334946D02*
X140226570Y-119189803D01*
X140226570Y-119189803D02*
X140250761Y-119141422D01*
X140250761Y-119141422D02*
X140274951Y-119117232D01*
X140274951Y-119117232D02*
X140323332Y-119093041D01*
X140323332Y-119093041D02*
X140420094Y-119093041D01*
X140420094Y-119093041D02*
X140468475Y-119117232D01*
X140952285Y-119431708D02*
X140661999Y-119431708D01*
X140807142Y-119431708D02*
X140807142Y-118923708D01*
X140807142Y-118923708D02*
X140758761Y-118996279D01*
X140758761Y-118996279D02*
X140710380Y-119044660D01*
X140710380Y-119044660D02*
X140661999Y-119068851D01*
X146831708Y-118737809D02*
X146589803Y-118907143D01*
X146831708Y-119028095D02*
X146323708Y-119028095D01*
X146323708Y-119028095D02*
X146323708Y-118834571D01*
X146323708Y-118834571D02*
X146347898Y-118786190D01*
X146347898Y-118786190D02*
X146372089Y-118762000D01*
X146372089Y-118762000D02*
X146420470Y-118737809D01*
X146420470Y-118737809D02*
X146493041Y-118737809D01*
X146493041Y-118737809D02*
X146541422Y-118762000D01*
X146541422Y-118762000D02*
X146565613Y-118786190D01*
X146565613Y-118786190D02*
X146589803Y-118834571D01*
X146589803Y-118834571D02*
X146589803Y-119028095D01*
X146831708Y-118447524D02*
X146807518Y-118495905D01*
X146807518Y-118495905D02*
X146783327Y-118520095D01*
X146783327Y-118520095D02*
X146734946Y-118544286D01*
X146734946Y-118544286D02*
X146589803Y-118544286D01*
X146589803Y-118544286D02*
X146541422Y-118520095D01*
X146541422Y-118520095D02*
X146517232Y-118495905D01*
X146517232Y-118495905D02*
X146493041Y-118447524D01*
X146493041Y-118447524D02*
X146493041Y-118374952D01*
X146493041Y-118374952D02*
X146517232Y-118326571D01*
X146517232Y-118326571D02*
X146541422Y-118302381D01*
X146541422Y-118302381D02*
X146589803Y-118278190D01*
X146589803Y-118278190D02*
X146734946Y-118278190D01*
X146734946Y-118278190D02*
X146783327Y-118302381D01*
X146783327Y-118302381D02*
X146807518Y-118326571D01*
X146807518Y-118326571D02*
X146831708Y-118374952D01*
X146831708Y-118374952D02*
X146831708Y-118447524D01*
X146807518Y-118084667D02*
X146831708Y-118036286D01*
X146831708Y-118036286D02*
X146831708Y-117939524D01*
X146831708Y-117939524D02*
X146807518Y-117891143D01*
X146807518Y-117891143D02*
X146759137Y-117866952D01*
X146759137Y-117866952D02*
X146734946Y-117866952D01*
X146734946Y-117866952D02*
X146686565Y-117891143D01*
X146686565Y-117891143D02*
X146662375Y-117939524D01*
X146662375Y-117939524D02*
X146662375Y-118012095D01*
X146662375Y-118012095D02*
X146638184Y-118060476D01*
X146638184Y-118060476D02*
X146589803Y-118084667D01*
X146589803Y-118084667D02*
X146565613Y-118084667D01*
X146565613Y-118084667D02*
X146517232Y-118060476D01*
X146517232Y-118060476D02*
X146493041Y-118012095D01*
X146493041Y-118012095D02*
X146493041Y-117939524D01*
X146493041Y-117939524D02*
X146517232Y-117891143D01*
X146807518Y-117431524D02*
X146831708Y-117479905D01*
X146831708Y-117479905D02*
X146831708Y-117576667D01*
X146831708Y-117576667D02*
X146807518Y-117625048D01*
X146807518Y-117625048D02*
X146783327Y-117649238D01*
X146783327Y-117649238D02*
X146734946Y-117673429D01*
X146734946Y-117673429D02*
X146589803Y-117673429D01*
X146589803Y-117673429D02*
X146541422Y-117649238D01*
X146541422Y-117649238D02*
X146517232Y-117625048D01*
X146517232Y-117625048D02*
X146493041Y-117576667D01*
X146493041Y-117576667D02*
X146493041Y-117479905D01*
X146493041Y-117479905D02*
X146517232Y-117431524D01*
X146831708Y-116947714D02*
X146831708Y-117238000D01*
X146831708Y-117092857D02*
X146323708Y-117092857D01*
X146323708Y-117092857D02*
X146396279Y-117141238D01*
X146396279Y-117141238D02*
X146444660Y-117189619D01*
X146444660Y-117189619D02*
X146468851Y-117238000D01*
X147351619Y-136980089D02*
X147303238Y-136955898D01*
X147303238Y-136955898D02*
X147254857Y-136907518D01*
X147254857Y-136907518D02*
X147182285Y-136834946D01*
X147182285Y-136834946D02*
X147133904Y-136810756D01*
X147133904Y-136810756D02*
X147085523Y-136810756D01*
X147109714Y-136931708D02*
X147061333Y-136907518D01*
X147061333Y-136907518D02*
X147012952Y-136859137D01*
X147012952Y-136859137D02*
X146988761Y-136762375D01*
X146988761Y-136762375D02*
X146988761Y-136593041D01*
X146988761Y-136593041D02*
X147012952Y-136496279D01*
X147012952Y-136496279D02*
X147061333Y-136447898D01*
X147061333Y-136447898D02*
X147109714Y-136423708D01*
X147109714Y-136423708D02*
X147206476Y-136423708D01*
X147206476Y-136423708D02*
X147254857Y-136447898D01*
X147254857Y-136447898D02*
X147303238Y-136496279D01*
X147303238Y-136496279D02*
X147327428Y-136593041D01*
X147327428Y-136593041D02*
X147327428Y-136762375D01*
X147327428Y-136762375D02*
X147303238Y-136859137D01*
X147303238Y-136859137D02*
X147254857Y-136907518D01*
X147254857Y-136907518D02*
X147206476Y-136931708D01*
X147206476Y-136931708D02*
X147109714Y-136931708D01*
X147520951Y-136472089D02*
X147545142Y-136447898D01*
X147545142Y-136447898D02*
X147593523Y-136423708D01*
X147593523Y-136423708D02*
X147714475Y-136423708D01*
X147714475Y-136423708D02*
X147762856Y-136447898D01*
X147762856Y-136447898D02*
X147787047Y-136472089D01*
X147787047Y-136472089D02*
X147811237Y-136520470D01*
X147811237Y-136520470D02*
X147811237Y-136568851D01*
X147811237Y-136568851D02*
X147787047Y-136641422D01*
X147787047Y-136641422D02*
X147496761Y-136931708D01*
X147496761Y-136931708D02*
X147811237Y-136931708D01*
X142358951Y-128125708D02*
X142649237Y-128125708D01*
X142504094Y-128633708D02*
X142504094Y-128125708D01*
X142818571Y-128633708D02*
X142818571Y-128125708D01*
X142818571Y-128125708D02*
X143012095Y-128125708D01*
X143012095Y-128125708D02*
X143060476Y-128149898D01*
X143060476Y-128149898D02*
X143084666Y-128174089D01*
X143084666Y-128174089D02*
X143108857Y-128222470D01*
X143108857Y-128222470D02*
X143108857Y-128295041D01*
X143108857Y-128295041D02*
X143084666Y-128343422D01*
X143084666Y-128343422D02*
X143060476Y-128367613D01*
X143060476Y-128367613D02*
X143012095Y-128391803D01*
X143012095Y-128391803D02*
X142818571Y-128391803D01*
X143544285Y-128125708D02*
X143447523Y-128125708D01*
X143447523Y-128125708D02*
X143399142Y-128149898D01*
X143399142Y-128149898D02*
X143374952Y-128174089D01*
X143374952Y-128174089D02*
X143326571Y-128246660D01*
X143326571Y-128246660D02*
X143302380Y-128343422D01*
X143302380Y-128343422D02*
X143302380Y-128536946D01*
X143302380Y-128536946D02*
X143326571Y-128585327D01*
X143326571Y-128585327D02*
X143350761Y-128609518D01*
X143350761Y-128609518D02*
X143399142Y-128633708D01*
X143399142Y-128633708D02*
X143495904Y-128633708D01*
X143495904Y-128633708D02*
X143544285Y-128609518D01*
X143544285Y-128609518D02*
X143568476Y-128585327D01*
X143568476Y-128585327D02*
X143592666Y-128536946D01*
X143592666Y-128536946D02*
X143592666Y-128415994D01*
X143592666Y-128415994D02*
X143568476Y-128367613D01*
X143568476Y-128367613D02*
X143544285Y-128343422D01*
X143544285Y-128343422D02*
X143495904Y-128319232D01*
X143495904Y-128319232D02*
X143399142Y-128319232D01*
X143399142Y-128319232D02*
X143350761Y-128343422D01*
X143350761Y-128343422D02*
X143326571Y-128367613D01*
X143326571Y-128367613D02*
X143302380Y-128415994D01*
X139383327Y-129026571D02*
X139407518Y-129050762D01*
X139407518Y-129050762D02*
X139431708Y-129123333D01*
X139431708Y-129123333D02*
X139431708Y-129171714D01*
X139431708Y-129171714D02*
X139407518Y-129244286D01*
X139407518Y-129244286D02*
X139359137Y-129292667D01*
X139359137Y-129292667D02*
X139310756Y-129316857D01*
X139310756Y-129316857D02*
X139213994Y-129341048D01*
X139213994Y-129341048D02*
X139141422Y-129341048D01*
X139141422Y-129341048D02*
X139044660Y-129316857D01*
X139044660Y-129316857D02*
X138996279Y-129292667D01*
X138996279Y-129292667D02*
X138947898Y-129244286D01*
X138947898Y-129244286D02*
X138923708Y-129171714D01*
X138923708Y-129171714D02*
X138923708Y-129123333D01*
X138923708Y-129123333D02*
X138947898Y-129050762D01*
X138947898Y-129050762D02*
X138972089Y-129026571D01*
X139431708Y-128542762D02*
X139431708Y-128833048D01*
X139431708Y-128687905D02*
X138923708Y-128687905D01*
X138923708Y-128687905D02*
X138996279Y-128736286D01*
X138996279Y-128736286D02*
X139044660Y-128784667D01*
X139044660Y-128784667D02*
X139068851Y-128833048D01*
X139093041Y-128107333D02*
X139431708Y-128107333D01*
X138899518Y-128228285D02*
X139262375Y-128349238D01*
X139262375Y-128349238D02*
X139262375Y-128034761D01*
X156158951Y-120925708D02*
X156449237Y-120925708D01*
X156304094Y-121433708D02*
X156304094Y-120925708D01*
X156618571Y-121433708D02*
X156618571Y-120925708D01*
X156618571Y-120925708D02*
X156812095Y-120925708D01*
X156812095Y-120925708D02*
X156860476Y-120949898D01*
X156860476Y-120949898D02*
X156884666Y-120974089D01*
X156884666Y-120974089D02*
X156908857Y-121022470D01*
X156908857Y-121022470D02*
X156908857Y-121095041D01*
X156908857Y-121095041D02*
X156884666Y-121143422D01*
X156884666Y-121143422D02*
X156860476Y-121167613D01*
X156860476Y-121167613D02*
X156812095Y-121191803D01*
X156812095Y-121191803D02*
X156618571Y-121191803D01*
X157078190Y-120925708D02*
X157416857Y-120925708D01*
X157416857Y-120925708D02*
X157199142Y-121433708D01*
D13*
X137055286Y-133115854D02*
X136970619Y-132994901D01*
X136910143Y-133115854D02*
X136910143Y-132861854D01*
X136910143Y-132861854D02*
X137006905Y-132861854D01*
X137006905Y-132861854D02*
X137031095Y-132873949D01*
X137031095Y-132873949D02*
X137043190Y-132886044D01*
X137043190Y-132886044D02*
X137055286Y-132910235D01*
X137055286Y-132910235D02*
X137055286Y-132946520D01*
X137055286Y-132946520D02*
X137043190Y-132970711D01*
X137043190Y-132970711D02*
X137031095Y-132982806D01*
X137031095Y-132982806D02*
X137006905Y-132994901D01*
X137006905Y-132994901D02*
X136910143Y-132994901D01*
X137103667Y-133140044D02*
X137297190Y-133140044D01*
X137345571Y-133103759D02*
X137369762Y-133115854D01*
X137369762Y-133115854D02*
X137418143Y-133115854D01*
X137418143Y-133115854D02*
X137442333Y-133103759D01*
X137442333Y-133103759D02*
X137454429Y-133079568D01*
X137454429Y-133079568D02*
X137454429Y-133067473D01*
X137454429Y-133067473D02*
X137442333Y-133043282D01*
X137442333Y-133043282D02*
X137418143Y-133031187D01*
X137418143Y-133031187D02*
X137381857Y-133031187D01*
X137381857Y-133031187D02*
X137357667Y-133019092D01*
X137357667Y-133019092D02*
X137345571Y-132994901D01*
X137345571Y-132994901D02*
X137345571Y-132982806D01*
X137345571Y-132982806D02*
X137357667Y-132958616D01*
X137357667Y-132958616D02*
X137381857Y-132946520D01*
X137381857Y-132946520D02*
X137418143Y-132946520D01*
X137418143Y-132946520D02*
X137442333Y-132958616D01*
X137551190Y-133103759D02*
X137575381Y-133115854D01*
X137575381Y-133115854D02*
X137623762Y-133115854D01*
X137623762Y-133115854D02*
X137647952Y-133103759D01*
X137647952Y-133103759D02*
X137660048Y-133079568D01*
X137660048Y-133079568D02*
X137660048Y-133067473D01*
X137660048Y-133067473D02*
X137647952Y-133043282D01*
X137647952Y-133043282D02*
X137623762Y-133031187D01*
X137623762Y-133031187D02*
X137587476Y-133031187D01*
X137587476Y-133031187D02*
X137563286Y-133019092D01*
X137563286Y-133019092D02*
X137551190Y-132994901D01*
X137551190Y-132994901D02*
X137551190Y-132982806D01*
X137551190Y-132982806D02*
X137563286Y-132958616D01*
X137563286Y-132958616D02*
X137587476Y-132946520D01*
X137587476Y-132946520D02*
X137623762Y-132946520D01*
X137623762Y-132946520D02*
X137647952Y-132958616D01*
X137901952Y-133115854D02*
X137756809Y-133115854D01*
X137829381Y-133115854D02*
X137829381Y-132861854D01*
X137829381Y-132861854D02*
X137805190Y-132898139D01*
X137805190Y-132898139D02*
X137781000Y-132922330D01*
X137781000Y-132922330D02*
X137756809Y-132934425D01*
D11*
X157305809Y-129031708D02*
X157136475Y-128789803D01*
X157015523Y-129031708D02*
X157015523Y-128523708D01*
X157015523Y-128523708D02*
X157209047Y-128523708D01*
X157209047Y-128523708D02*
X157257428Y-128547898D01*
X157257428Y-128547898D02*
X157281618Y-128572089D01*
X157281618Y-128572089D02*
X157305809Y-128620470D01*
X157305809Y-128620470D02*
X157305809Y-128693041D01*
X157305809Y-128693041D02*
X157281618Y-128741422D01*
X157281618Y-128741422D02*
X157257428Y-128765613D01*
X157257428Y-128765613D02*
X157209047Y-128789803D01*
X157209047Y-128789803D02*
X157015523Y-128789803D01*
X157741237Y-129007518D02*
X157692856Y-129031708D01*
X157692856Y-129031708D02*
X157596094Y-129031708D01*
X157596094Y-129031708D02*
X157547713Y-129007518D01*
X157547713Y-129007518D02*
X157523523Y-128983327D01*
X157523523Y-128983327D02*
X157499332Y-128934946D01*
X157499332Y-128934946D02*
X157499332Y-128789803D01*
X157499332Y-128789803D02*
X157523523Y-128741422D01*
X157523523Y-128741422D02*
X157547713Y-128717232D01*
X157547713Y-128717232D02*
X157596094Y-128693041D01*
X157596094Y-128693041D02*
X157692856Y-128693041D01*
X157692856Y-128693041D02*
X157741237Y-128717232D01*
X158031523Y-129031708D02*
X157983142Y-129007518D01*
X157983142Y-129007518D02*
X157958952Y-128983327D01*
X157958952Y-128983327D02*
X157934761Y-128934946D01*
X157934761Y-128934946D02*
X157934761Y-128789803D01*
X157934761Y-128789803D02*
X157958952Y-128741422D01*
X157958952Y-128741422D02*
X157983142Y-128717232D01*
X157983142Y-128717232D02*
X158031523Y-128693041D01*
X158031523Y-128693041D02*
X158104095Y-128693041D01*
X158104095Y-128693041D02*
X158152476Y-128717232D01*
X158152476Y-128717232D02*
X158176666Y-128741422D01*
X158176666Y-128741422D02*
X158200857Y-128789803D01*
X158200857Y-128789803D02*
X158200857Y-128934946D01*
X158200857Y-128934946D02*
X158176666Y-128983327D01*
X158176666Y-128983327D02*
X158152476Y-129007518D01*
X158152476Y-129007518D02*
X158104095Y-129031708D01*
X158104095Y-129031708D02*
X158031523Y-129031708D01*
X158418571Y-129031708D02*
X158418571Y-128693041D01*
X158418571Y-128741422D02*
X158442761Y-128717232D01*
X158442761Y-128717232D02*
X158491142Y-128693041D01*
X158491142Y-128693041D02*
X158563714Y-128693041D01*
X158563714Y-128693041D02*
X158612095Y-128717232D01*
X158612095Y-128717232D02*
X158636285Y-128765613D01*
X158636285Y-128765613D02*
X158636285Y-129031708D01*
X158636285Y-128765613D02*
X158660476Y-128717232D01*
X158660476Y-128717232D02*
X158708857Y-128693041D01*
X158708857Y-128693041D02*
X158781428Y-128693041D01*
X158781428Y-128693041D02*
X158829809Y-128717232D01*
X158829809Y-128717232D02*
X158853999Y-128765613D01*
X158853999Y-128765613D02*
X158853999Y-129031708D01*
X159095904Y-128693041D02*
X159095904Y-129201041D01*
X159095904Y-128717232D02*
X159144285Y-128693041D01*
X159144285Y-128693041D02*
X159241047Y-128693041D01*
X159241047Y-128693041D02*
X159289428Y-128717232D01*
X159289428Y-128717232D02*
X159313618Y-128741422D01*
X159313618Y-128741422D02*
X159337809Y-128789803D01*
X159337809Y-128789803D02*
X159337809Y-128934946D01*
X159337809Y-128934946D02*
X159313618Y-128983327D01*
X159313618Y-128983327D02*
X159289428Y-129007518D01*
X159289428Y-129007518D02*
X159241047Y-129031708D01*
X159241047Y-129031708D02*
X159144285Y-129031708D01*
X159144285Y-129031708D02*
X159095904Y-129007518D01*
X159434571Y-129080089D02*
X159821618Y-129080089D01*
X160208666Y-129031708D02*
X159918380Y-129031708D01*
X160063523Y-129031708D02*
X160063523Y-128523708D01*
X160063523Y-128523708D02*
X160015142Y-128596279D01*
X160015142Y-128596279D02*
X159966761Y-128644660D01*
X159966761Y-128644660D02*
X159918380Y-128668851D01*
X154524380Y-117131708D02*
X154355046Y-116889803D01*
X154234094Y-117131708D02*
X154234094Y-116623708D01*
X154234094Y-116623708D02*
X154427618Y-116623708D01*
X154427618Y-116623708D02*
X154475999Y-116647898D01*
X154475999Y-116647898D02*
X154500189Y-116672089D01*
X154500189Y-116672089D02*
X154524380Y-116720470D01*
X154524380Y-116720470D02*
X154524380Y-116793041D01*
X154524380Y-116793041D02*
X154500189Y-116841422D01*
X154500189Y-116841422D02*
X154475999Y-116865613D01*
X154475999Y-116865613D02*
X154427618Y-116889803D01*
X154427618Y-116889803D02*
X154234094Y-116889803D01*
X154621142Y-117180089D02*
X155008189Y-117180089D01*
X155129142Y-117131708D02*
X155129142Y-116793041D01*
X155129142Y-116623708D02*
X155104951Y-116647898D01*
X155104951Y-116647898D02*
X155129142Y-116672089D01*
X155129142Y-116672089D02*
X155153332Y-116647898D01*
X155153332Y-116647898D02*
X155129142Y-116623708D01*
X155129142Y-116623708D02*
X155129142Y-116672089D01*
X155346856Y-117107518D02*
X155395237Y-117131708D01*
X155395237Y-117131708D02*
X155491999Y-117131708D01*
X155491999Y-117131708D02*
X155540380Y-117107518D01*
X155540380Y-117107518D02*
X155564571Y-117059137D01*
X155564571Y-117059137D02*
X155564571Y-117034946D01*
X155564571Y-117034946D02*
X155540380Y-116986565D01*
X155540380Y-116986565D02*
X155491999Y-116962375D01*
X155491999Y-116962375D02*
X155419428Y-116962375D01*
X155419428Y-116962375D02*
X155371047Y-116938184D01*
X155371047Y-116938184D02*
X155346856Y-116889803D01*
X155346856Y-116889803D02*
X155346856Y-116865613D01*
X155346856Y-116865613D02*
X155371047Y-116817232D01*
X155371047Y-116817232D02*
X155419428Y-116793041D01*
X155419428Y-116793041D02*
X155491999Y-116793041D01*
X155491999Y-116793041D02*
X155540380Y-116817232D01*
X155975809Y-117107518D02*
X155927428Y-117131708D01*
X155927428Y-117131708D02*
X155830666Y-117131708D01*
X155830666Y-117131708D02*
X155782285Y-117107518D01*
X155782285Y-117107518D02*
X155758094Y-117059137D01*
X155758094Y-117059137D02*
X155758094Y-116865613D01*
X155758094Y-116865613D02*
X155782285Y-116817232D01*
X155782285Y-116817232D02*
X155830666Y-116793041D01*
X155830666Y-116793041D02*
X155927428Y-116793041D01*
X155927428Y-116793041D02*
X155975809Y-116817232D01*
X155975809Y-116817232D02*
X155999999Y-116865613D01*
X155999999Y-116865613D02*
X155999999Y-116913994D01*
X155999999Y-116913994D02*
X155758094Y-116962375D01*
X156217714Y-116793041D02*
X156217714Y-117131708D01*
X156217714Y-116841422D02*
X156241904Y-116817232D01*
X156241904Y-116817232D02*
X156290285Y-116793041D01*
X156290285Y-116793041D02*
X156362857Y-116793041D01*
X156362857Y-116793041D02*
X156411238Y-116817232D01*
X156411238Y-116817232D02*
X156435428Y-116865613D01*
X156435428Y-116865613D02*
X156435428Y-117131708D01*
X156653142Y-117107518D02*
X156701523Y-117131708D01*
X156701523Y-117131708D02*
X156798285Y-117131708D01*
X156798285Y-117131708D02*
X156846666Y-117107518D01*
X156846666Y-117107518D02*
X156870857Y-117059137D01*
X156870857Y-117059137D02*
X156870857Y-117034946D01*
X156870857Y-117034946D02*
X156846666Y-116986565D01*
X156846666Y-116986565D02*
X156798285Y-116962375D01*
X156798285Y-116962375D02*
X156725714Y-116962375D01*
X156725714Y-116962375D02*
X156677333Y-116938184D01*
X156677333Y-116938184D02*
X156653142Y-116889803D01*
X156653142Y-116889803D02*
X156653142Y-116865613D01*
X156653142Y-116865613D02*
X156677333Y-116817232D01*
X156677333Y-116817232D02*
X156725714Y-116793041D01*
X156725714Y-116793041D02*
X156798285Y-116793041D01*
X156798285Y-116793041D02*
X156846666Y-116817232D01*
X157282095Y-117107518D02*
X157233714Y-117131708D01*
X157233714Y-117131708D02*
X157136952Y-117131708D01*
X157136952Y-117131708D02*
X157088571Y-117107518D01*
X157088571Y-117107518D02*
X157064380Y-117059137D01*
X157064380Y-117059137D02*
X157064380Y-116865613D01*
X157064380Y-116865613D02*
X157088571Y-116817232D01*
X157088571Y-116817232D02*
X157136952Y-116793041D01*
X157136952Y-116793041D02*
X157233714Y-116793041D01*
X157233714Y-116793041D02*
X157282095Y-116817232D01*
X157282095Y-116817232D02*
X157306285Y-116865613D01*
X157306285Y-116865613D02*
X157306285Y-116913994D01*
X157306285Y-116913994D02*
X157064380Y-116962375D01*
X157499809Y-116672089D02*
X157524000Y-116647898D01*
X157524000Y-116647898D02*
X157572381Y-116623708D01*
X157572381Y-116623708D02*
X157693333Y-116623708D01*
X157693333Y-116623708D02*
X157741714Y-116647898D01*
X157741714Y-116647898D02*
X157765905Y-116672089D01*
X157765905Y-116672089D02*
X157790095Y-116720470D01*
X157790095Y-116720470D02*
X157790095Y-116768851D01*
X157790095Y-116768851D02*
X157765905Y-116841422D01*
X157765905Y-116841422D02*
X157475619Y-117131708D01*
X157475619Y-117131708D02*
X157790095Y-117131708D01*
X150016672Y-121761333D02*
X149992482Y-121737142D01*
X149992482Y-121737142D02*
X149968291Y-121664571D01*
X149968291Y-121664571D02*
X149968291Y-121616190D01*
X149968291Y-121616190D02*
X149992482Y-121543618D01*
X149992482Y-121543618D02*
X150040862Y-121495237D01*
X150040862Y-121495237D02*
X150089243Y-121471047D01*
X150089243Y-121471047D02*
X150186005Y-121446856D01*
X150186005Y-121446856D02*
X150258577Y-121446856D01*
X150258577Y-121446856D02*
X150355339Y-121471047D01*
X150355339Y-121471047D02*
X150403720Y-121495237D01*
X150403720Y-121495237D02*
X150452101Y-121543618D01*
X150452101Y-121543618D02*
X150476291Y-121616190D01*
X150476291Y-121616190D02*
X150476291Y-121664571D01*
X150476291Y-121664571D02*
X150452101Y-121737142D01*
X150452101Y-121737142D02*
X150427910Y-121761333D01*
X149968291Y-122269333D02*
X150210196Y-122099999D01*
X149968291Y-121979047D02*
X150476291Y-121979047D01*
X150476291Y-121979047D02*
X150476291Y-122172571D01*
X150476291Y-122172571D02*
X150452101Y-122220952D01*
X150452101Y-122220952D02*
X150427910Y-122245142D01*
X150427910Y-122245142D02*
X150379529Y-122269333D01*
X150379529Y-122269333D02*
X150306958Y-122269333D01*
X150306958Y-122269333D02*
X150258577Y-122245142D01*
X150258577Y-122245142D02*
X150234386Y-122220952D01*
X150234386Y-122220952D02*
X150210196Y-122172571D01*
X150210196Y-122172571D02*
X150210196Y-121979047D01*
X149968291Y-122753142D02*
X149968291Y-122462856D01*
X149968291Y-122607999D02*
X150476291Y-122607999D01*
X150476291Y-122607999D02*
X150403720Y-122559618D01*
X150403720Y-122559618D02*
X150355339Y-122511237D01*
X150355339Y-122511237D02*
X150331148Y-122462856D01*
X152935524Y-130461708D02*
X152766190Y-130219803D01*
X152645238Y-130461708D02*
X152645238Y-129953708D01*
X152645238Y-129953708D02*
X152838762Y-129953708D01*
X152838762Y-129953708D02*
X152887143Y-129977898D01*
X152887143Y-129977898D02*
X152911333Y-130002089D01*
X152911333Y-130002089D02*
X152935524Y-130050470D01*
X152935524Y-130050470D02*
X152935524Y-130123041D01*
X152935524Y-130123041D02*
X152911333Y-130171422D01*
X152911333Y-130171422D02*
X152887143Y-130195613D01*
X152887143Y-130195613D02*
X152838762Y-130219803D01*
X152838762Y-130219803D02*
X152645238Y-130219803D01*
X153153238Y-130461708D02*
X153153238Y-129953708D01*
X153153238Y-130147232D02*
X153201619Y-130123041D01*
X153201619Y-130123041D02*
X153298381Y-130123041D01*
X153298381Y-130123041D02*
X153346762Y-130147232D01*
X153346762Y-130147232D02*
X153370952Y-130171422D01*
X153370952Y-130171422D02*
X153395143Y-130219803D01*
X153395143Y-130219803D02*
X153395143Y-130364946D01*
X153395143Y-130364946D02*
X153370952Y-130413327D01*
X153370952Y-130413327D02*
X153346762Y-130437518D01*
X153346762Y-130437518D02*
X153298381Y-130461708D01*
X153298381Y-130461708D02*
X153201619Y-130461708D01*
X153201619Y-130461708D02*
X153153238Y-130437518D01*
X153878952Y-130461708D02*
X153588666Y-130461708D01*
X153733809Y-130461708D02*
X153733809Y-129953708D01*
X153733809Y-129953708D02*
X153685428Y-130026279D01*
X153685428Y-130026279D02*
X153637047Y-130074660D01*
X153637047Y-130074660D02*
X153588666Y-130098851D01*
X159631708Y-125094190D02*
X159389803Y-125263524D01*
X159631708Y-125384476D02*
X159123708Y-125384476D01*
X159123708Y-125384476D02*
X159123708Y-125190952D01*
X159123708Y-125190952D02*
X159147898Y-125142571D01*
X159147898Y-125142571D02*
X159172089Y-125118381D01*
X159172089Y-125118381D02*
X159220470Y-125094190D01*
X159220470Y-125094190D02*
X159293041Y-125094190D01*
X159293041Y-125094190D02*
X159341422Y-125118381D01*
X159341422Y-125118381D02*
X159365613Y-125142571D01*
X159365613Y-125142571D02*
X159389803Y-125190952D01*
X159389803Y-125190952D02*
X159389803Y-125384476D01*
X159607518Y-124658762D02*
X159631708Y-124707143D01*
X159631708Y-124707143D02*
X159631708Y-124803905D01*
X159631708Y-124803905D02*
X159607518Y-124852286D01*
X159607518Y-124852286D02*
X159583327Y-124876476D01*
X159583327Y-124876476D02*
X159534946Y-124900667D01*
X159534946Y-124900667D02*
X159389803Y-124900667D01*
X159389803Y-124900667D02*
X159341422Y-124876476D01*
X159341422Y-124876476D02*
X159317232Y-124852286D01*
X159317232Y-124852286D02*
X159293041Y-124803905D01*
X159293041Y-124803905D02*
X159293041Y-124707143D01*
X159293041Y-124707143D02*
X159317232Y-124658762D01*
X159631708Y-124368476D02*
X159607518Y-124416857D01*
X159607518Y-124416857D02*
X159583327Y-124441047D01*
X159583327Y-124441047D02*
X159534946Y-124465238D01*
X159534946Y-124465238D02*
X159389803Y-124465238D01*
X159389803Y-124465238D02*
X159341422Y-124441047D01*
X159341422Y-124441047D02*
X159317232Y-124416857D01*
X159317232Y-124416857D02*
X159293041Y-124368476D01*
X159293041Y-124368476D02*
X159293041Y-124295904D01*
X159293041Y-124295904D02*
X159317232Y-124247523D01*
X159317232Y-124247523D02*
X159341422Y-124223333D01*
X159341422Y-124223333D02*
X159389803Y-124199142D01*
X159389803Y-124199142D02*
X159534946Y-124199142D01*
X159534946Y-124199142D02*
X159583327Y-124223333D01*
X159583327Y-124223333D02*
X159607518Y-124247523D01*
X159607518Y-124247523D02*
X159631708Y-124295904D01*
X159631708Y-124295904D02*
X159631708Y-124368476D01*
X159631708Y-123981428D02*
X159293041Y-123981428D01*
X159341422Y-123981428D02*
X159317232Y-123957238D01*
X159317232Y-123957238D02*
X159293041Y-123908857D01*
X159293041Y-123908857D02*
X159293041Y-123836285D01*
X159293041Y-123836285D02*
X159317232Y-123787904D01*
X159317232Y-123787904D02*
X159365613Y-123763714D01*
X159365613Y-123763714D02*
X159631708Y-123763714D01*
X159365613Y-123763714D02*
X159317232Y-123739523D01*
X159317232Y-123739523D02*
X159293041Y-123691142D01*
X159293041Y-123691142D02*
X159293041Y-123618571D01*
X159293041Y-123618571D02*
X159317232Y-123570190D01*
X159317232Y-123570190D02*
X159365613Y-123546000D01*
X159365613Y-123546000D02*
X159631708Y-123546000D01*
X159293041Y-123304095D02*
X159801041Y-123304095D01*
X159317232Y-123304095D02*
X159293041Y-123255714D01*
X159293041Y-123255714D02*
X159293041Y-123158952D01*
X159293041Y-123158952D02*
X159317232Y-123110571D01*
X159317232Y-123110571D02*
X159341422Y-123086381D01*
X159341422Y-123086381D02*
X159389803Y-123062190D01*
X159389803Y-123062190D02*
X159534946Y-123062190D01*
X159534946Y-123062190D02*
X159583327Y-123086381D01*
X159583327Y-123086381D02*
X159607518Y-123110571D01*
X159607518Y-123110571D02*
X159631708Y-123158952D01*
X159631708Y-123158952D02*
X159631708Y-123255714D01*
X159631708Y-123255714D02*
X159607518Y-123304095D01*
X159680089Y-122965429D02*
X159680089Y-122578381D01*
X159123708Y-122505809D02*
X159123708Y-122191333D01*
X159123708Y-122191333D02*
X159317232Y-122360666D01*
X159317232Y-122360666D02*
X159317232Y-122288095D01*
X159317232Y-122288095D02*
X159341422Y-122239714D01*
X159341422Y-122239714D02*
X159365613Y-122215523D01*
X159365613Y-122215523D02*
X159413994Y-122191333D01*
X159413994Y-122191333D02*
X159534946Y-122191333D01*
X159534946Y-122191333D02*
X159583327Y-122215523D01*
X159583327Y-122215523D02*
X159607518Y-122239714D01*
X159607518Y-122239714D02*
X159631708Y-122288095D01*
X159631708Y-122288095D02*
X159631708Y-122433238D01*
X159631708Y-122433238D02*
X159607518Y-122481619D01*
X159607518Y-122481619D02*
X159583327Y-122505809D01*
X137912952Y-121723708D02*
X137912952Y-122134946D01*
X137912952Y-122134946D02*
X137937142Y-122183327D01*
X137937142Y-122183327D02*
X137961333Y-122207518D01*
X137961333Y-122207518D02*
X138009714Y-122231708D01*
X138009714Y-122231708D02*
X138106476Y-122231708D01*
X138106476Y-122231708D02*
X138154857Y-122207518D01*
X138154857Y-122207518D02*
X138179047Y-122183327D01*
X138179047Y-122183327D02*
X138203238Y-122134946D01*
X138203238Y-122134946D02*
X138203238Y-121723708D01*
X138711237Y-122231708D02*
X138420951Y-122231708D01*
X138566094Y-122231708D02*
X138566094Y-121723708D01*
X138566094Y-121723708D02*
X138517713Y-121796279D01*
X138517713Y-121796279D02*
X138469332Y-121844660D01*
X138469332Y-121844660D02*
X138420951Y-121868851D01*
D12*
X145253999Y-128856980D02*
X145253999Y-128618885D01*
X145492094Y-128714123D02*
X145253999Y-128618885D01*
X145253999Y-128618885D02*
X145015904Y-128714123D01*
X145396856Y-128428409D02*
X145253999Y-128618885D01*
X145253999Y-128618885D02*
X145111142Y-128428409D01*
X145254000Y-127766619D02*
X145254000Y-128004714D01*
X145015905Y-127909476D02*
X145254000Y-128004714D01*
X145254000Y-128004714D02*
X145492095Y-127909476D01*
X145111143Y-128195190D02*
X145254000Y-128004714D01*
X145254000Y-128004714D02*
X145396857Y-128195190D01*
D11*
X135092000Y-122931708D02*
X134922666Y-122689803D01*
X134801714Y-122931708D02*
X134801714Y-122423708D01*
X134801714Y-122423708D02*
X134995238Y-122423708D01*
X134995238Y-122423708D02*
X135043619Y-122447898D01*
X135043619Y-122447898D02*
X135067809Y-122472089D01*
X135067809Y-122472089D02*
X135092000Y-122520470D01*
X135092000Y-122520470D02*
X135092000Y-122593041D01*
X135092000Y-122593041D02*
X135067809Y-122641422D01*
X135067809Y-122641422D02*
X135043619Y-122665613D01*
X135043619Y-122665613D02*
X134995238Y-122689803D01*
X134995238Y-122689803D02*
X134801714Y-122689803D01*
X135527428Y-122593041D02*
X135527428Y-123004279D01*
X135527428Y-123004279D02*
X135503238Y-123052660D01*
X135503238Y-123052660D02*
X135479047Y-123076851D01*
X135479047Y-123076851D02*
X135430666Y-123101041D01*
X135430666Y-123101041D02*
X135358095Y-123101041D01*
X135358095Y-123101041D02*
X135309714Y-123076851D01*
X135527428Y-122907518D02*
X135479047Y-122931708D01*
X135479047Y-122931708D02*
X135382285Y-122931708D01*
X135382285Y-122931708D02*
X135333904Y-122907518D01*
X135333904Y-122907518D02*
X135309714Y-122883327D01*
X135309714Y-122883327D02*
X135285523Y-122834946D01*
X135285523Y-122834946D02*
X135285523Y-122689803D01*
X135285523Y-122689803D02*
X135309714Y-122641422D01*
X135309714Y-122641422D02*
X135333904Y-122617232D01*
X135333904Y-122617232D02*
X135382285Y-122593041D01*
X135382285Y-122593041D02*
X135479047Y-122593041D01*
X135479047Y-122593041D02*
X135527428Y-122617232D01*
X135648381Y-122980089D02*
X136035428Y-122980089D01*
X136422476Y-122931708D02*
X136132190Y-122931708D01*
X136277333Y-122931708D02*
X136277333Y-122423708D01*
X136277333Y-122423708D02*
X136228952Y-122496279D01*
X136228952Y-122496279D02*
X136180571Y-122544660D01*
X136180571Y-122544660D02*
X136132190Y-122568851D01*
X134001619Y-109580089D02*
X133953238Y-109555898D01*
X133953238Y-109555898D02*
X133904857Y-109507518D01*
X133904857Y-109507518D02*
X133832285Y-109434946D01*
X133832285Y-109434946D02*
X133783904Y-109410756D01*
X133783904Y-109410756D02*
X133735523Y-109410756D01*
X133759714Y-109531708D02*
X133711333Y-109507518D01*
X133711333Y-109507518D02*
X133662952Y-109459137D01*
X133662952Y-109459137D02*
X133638761Y-109362375D01*
X133638761Y-109362375D02*
X133638761Y-109193041D01*
X133638761Y-109193041D02*
X133662952Y-109096279D01*
X133662952Y-109096279D02*
X133711333Y-109047898D01*
X133711333Y-109047898D02*
X133759714Y-109023708D01*
X133759714Y-109023708D02*
X133856476Y-109023708D01*
X133856476Y-109023708D02*
X133904857Y-109047898D01*
X133904857Y-109047898D02*
X133953238Y-109096279D01*
X133953238Y-109096279D02*
X133977428Y-109193041D01*
X133977428Y-109193041D02*
X133977428Y-109362375D01*
X133977428Y-109362375D02*
X133953238Y-109459137D01*
X133953238Y-109459137D02*
X133904857Y-109507518D01*
X133904857Y-109507518D02*
X133856476Y-109531708D01*
X133856476Y-109531708D02*
X133759714Y-109531708D01*
X134461237Y-109531708D02*
X134170951Y-109531708D01*
X134316094Y-109531708D02*
X134316094Y-109023708D01*
X134316094Y-109023708D02*
X134267713Y-109096279D01*
X134267713Y-109096279D02*
X134219332Y-109144660D01*
X134219332Y-109144660D02*
X134170951Y-109168851D01*
D12*
X125854819Y-127993094D02*
X124854819Y-127993094D01*
X124854819Y-127993094D02*
X124854819Y-127754999D01*
X124854819Y-127754999D02*
X124902438Y-127612142D01*
X124902438Y-127612142D02*
X124997676Y-127516904D01*
X124997676Y-127516904D02*
X125092914Y-127469285D01*
X125092914Y-127469285D02*
X125283390Y-127421666D01*
X125283390Y-127421666D02*
X125426247Y-127421666D01*
X125426247Y-127421666D02*
X125616723Y-127469285D01*
X125616723Y-127469285D02*
X125711961Y-127516904D01*
X125711961Y-127516904D02*
X125807200Y-127612142D01*
X125807200Y-127612142D02*
X125854819Y-127754999D01*
X125854819Y-127754999D02*
X125854819Y-127993094D01*
X124854819Y-126516904D02*
X124854819Y-126993094D01*
X124854819Y-126993094D02*
X125331009Y-127040713D01*
X125331009Y-127040713D02*
X125283390Y-126993094D01*
X125283390Y-126993094D02*
X125235771Y-126897856D01*
X125235771Y-126897856D02*
X125235771Y-126659761D01*
X125235771Y-126659761D02*
X125283390Y-126564523D01*
X125283390Y-126564523D02*
X125331009Y-126516904D01*
X125331009Y-126516904D02*
X125426247Y-126469285D01*
X125426247Y-126469285D02*
X125664342Y-126469285D01*
X125664342Y-126469285D02*
X125759580Y-126516904D01*
X125759580Y-126516904D02*
X125807200Y-126564523D01*
X125807200Y-126564523D02*
X125854819Y-126659761D01*
X125854819Y-126659761D02*
X125854819Y-126897856D01*
X125854819Y-126897856D02*
X125807200Y-126993094D01*
X125807200Y-126993094D02*
X125759580Y-127040713D01*
X132154819Y-128038094D02*
X131154819Y-128038094D01*
X131154819Y-128038094D02*
X131154819Y-127799999D01*
X131154819Y-127799999D02*
X131202438Y-127657142D01*
X131202438Y-127657142D02*
X131297676Y-127561904D01*
X131297676Y-127561904D02*
X131392914Y-127514285D01*
X131392914Y-127514285D02*
X131583390Y-127466666D01*
X131583390Y-127466666D02*
X131726247Y-127466666D01*
X131726247Y-127466666D02*
X131916723Y-127514285D01*
X131916723Y-127514285D02*
X132011961Y-127561904D01*
X132011961Y-127561904D02*
X132107200Y-127657142D01*
X132107200Y-127657142D02*
X132154819Y-127799999D01*
X132154819Y-127799999D02*
X132154819Y-128038094D01*
X131154819Y-126609523D02*
X131154819Y-126799999D01*
X131154819Y-126799999D02*
X131202438Y-126895237D01*
X131202438Y-126895237D02*
X131250057Y-126942856D01*
X131250057Y-126942856D02*
X131392914Y-127038094D01*
X131392914Y-127038094D02*
X131583390Y-127085713D01*
X131583390Y-127085713D02*
X131964342Y-127085713D01*
X131964342Y-127085713D02*
X132059580Y-127038094D01*
X132059580Y-127038094D02*
X132107200Y-126990475D01*
X132107200Y-126990475D02*
X132154819Y-126895237D01*
X132154819Y-126895237D02*
X132154819Y-126704761D01*
X132154819Y-126704761D02*
X132107200Y-126609523D01*
X132107200Y-126609523D02*
X132059580Y-126561904D01*
X132059580Y-126561904D02*
X131964342Y-126514285D01*
X131964342Y-126514285D02*
X131726247Y-126514285D01*
X131726247Y-126514285D02*
X131631009Y-126561904D01*
X131631009Y-126561904D02*
X131583390Y-126609523D01*
X131583390Y-126609523D02*
X131535771Y-126704761D01*
X131535771Y-126704761D02*
X131535771Y-126895237D01*
X131535771Y-126895237D02*
X131583390Y-126990475D01*
X131583390Y-126990475D02*
X131631009Y-127038094D01*
X131631009Y-127038094D02*
X131726247Y-127085713D01*
X188047618Y-123154819D02*
X187714285Y-122678628D01*
X187476190Y-123154819D02*
X187476190Y-122154819D01*
X187476190Y-122154819D02*
X187857142Y-122154819D01*
X187857142Y-122154819D02*
X187952380Y-122202438D01*
X187952380Y-122202438D02*
X187999999Y-122250057D01*
X187999999Y-122250057D02*
X188047618Y-122345295D01*
X188047618Y-122345295D02*
X188047618Y-122488152D01*
X188047618Y-122488152D02*
X187999999Y-122583390D01*
X187999999Y-122583390D02*
X187952380Y-122631009D01*
X187952380Y-122631009D02*
X187857142Y-122678628D01*
X187857142Y-122678628D02*
X187476190Y-122678628D01*
X188476190Y-122488152D02*
X188476190Y-123488152D01*
X188476190Y-122535771D02*
X188571428Y-122488152D01*
X188571428Y-122488152D02*
X188761904Y-122488152D01*
X188761904Y-122488152D02*
X188857142Y-122535771D01*
X188857142Y-122535771D02*
X188904761Y-122583390D01*
X188904761Y-122583390D02*
X188952380Y-122678628D01*
X188952380Y-122678628D02*
X188952380Y-122964342D01*
X188952380Y-122964342D02*
X188904761Y-123059580D01*
X188904761Y-123059580D02*
X188857142Y-123107200D01*
X188857142Y-123107200D02*
X188761904Y-123154819D01*
X188761904Y-123154819D02*
X188571428Y-123154819D01*
X188571428Y-123154819D02*
X188476190Y-123107200D01*
X189380952Y-123154819D02*
X189380952Y-122488152D01*
X189380952Y-122678628D02*
X189428571Y-122583390D01*
X189428571Y-122583390D02*
X189476190Y-122535771D01*
X189476190Y-122535771D02*
X189571428Y-122488152D01*
X189571428Y-122488152D02*
X189666666Y-122488152D01*
X190380952Y-123107200D02*
X190285714Y-123154819D01*
X190285714Y-123154819D02*
X190095238Y-123154819D01*
X190095238Y-123154819D02*
X190000000Y-123107200D01*
X190000000Y-123107200D02*
X189952381Y-123011961D01*
X189952381Y-123011961D02*
X189952381Y-122631009D01*
X189952381Y-122631009D02*
X190000000Y-122535771D01*
X190000000Y-122535771D02*
X190095238Y-122488152D01*
X190095238Y-122488152D02*
X190285714Y-122488152D01*
X190285714Y-122488152D02*
X190380952Y-122535771D01*
X190380952Y-122535771D02*
X190428571Y-122631009D01*
X190428571Y-122631009D02*
X190428571Y-122726247D01*
X190428571Y-122726247D02*
X189952381Y-122821485D01*
X191000000Y-123154819D02*
X190904762Y-123107200D01*
X190904762Y-123107200D02*
X190857143Y-123011961D01*
X190857143Y-123011961D02*
X190857143Y-122154819D01*
X191523810Y-123154819D02*
X191428572Y-123107200D01*
X191428572Y-123107200D02*
X191380953Y-123059580D01*
X191380953Y-123059580D02*
X191333334Y-122964342D01*
X191333334Y-122964342D02*
X191333334Y-122678628D01*
X191333334Y-122678628D02*
X191380953Y-122583390D01*
X191380953Y-122583390D02*
X191428572Y-122535771D01*
X191428572Y-122535771D02*
X191523810Y-122488152D01*
X191523810Y-122488152D02*
X191666667Y-122488152D01*
X191666667Y-122488152D02*
X191761905Y-122535771D01*
X191761905Y-122535771D02*
X191809524Y-122583390D01*
X191809524Y-122583390D02*
X191857143Y-122678628D01*
X191857143Y-122678628D02*
X191857143Y-122964342D01*
X191857143Y-122964342D02*
X191809524Y-123059580D01*
X191809524Y-123059580D02*
X191761905Y-123107200D01*
X191761905Y-123107200D02*
X191666667Y-123154819D01*
X191666667Y-123154819D02*
X191523810Y-123154819D01*
X192714286Y-123154819D02*
X192714286Y-122631009D01*
X192714286Y-122631009D02*
X192666667Y-122535771D01*
X192666667Y-122535771D02*
X192571429Y-122488152D01*
X192571429Y-122488152D02*
X192380953Y-122488152D01*
X192380953Y-122488152D02*
X192285715Y-122535771D01*
X192714286Y-123107200D02*
X192619048Y-123154819D01*
X192619048Y-123154819D02*
X192380953Y-123154819D01*
X192380953Y-123154819D02*
X192285715Y-123107200D01*
X192285715Y-123107200D02*
X192238096Y-123011961D01*
X192238096Y-123011961D02*
X192238096Y-122916723D01*
X192238096Y-122916723D02*
X192285715Y-122821485D01*
X192285715Y-122821485D02*
X192380953Y-122773866D01*
X192380953Y-122773866D02*
X192619048Y-122773866D01*
X192619048Y-122773866D02*
X192714286Y-122726247D01*
X193619048Y-123154819D02*
X193619048Y-122154819D01*
X193619048Y-123107200D02*
X193523810Y-123154819D01*
X193523810Y-123154819D02*
X193333334Y-123154819D01*
X193333334Y-123154819D02*
X193238096Y-123107200D01*
X193238096Y-123107200D02*
X193190477Y-123059580D01*
X193190477Y-123059580D02*
X193142858Y-122964342D01*
X193142858Y-122964342D02*
X193142858Y-122678628D01*
X193142858Y-122678628D02*
X193190477Y-122583390D01*
X193190477Y-122583390D02*
X193238096Y-122535771D01*
X193238096Y-122535771D02*
X193333334Y-122488152D01*
X193333334Y-122488152D02*
X193523810Y-122488152D01*
X193523810Y-122488152D02*
X193619048Y-122535771D01*
X194000001Y-122154819D02*
X194619048Y-122154819D01*
X194619048Y-122154819D02*
X194285715Y-122535771D01*
X194285715Y-122535771D02*
X194428572Y-122535771D01*
X194428572Y-122535771D02*
X194523810Y-122583390D01*
X194523810Y-122583390D02*
X194571429Y-122631009D01*
X194571429Y-122631009D02*
X194619048Y-122726247D01*
X194619048Y-122726247D02*
X194619048Y-122964342D01*
X194619048Y-122964342D02*
X194571429Y-123059580D01*
X194571429Y-123059580D02*
X194523810Y-123107200D01*
X194523810Y-123107200D02*
X194428572Y-123154819D01*
X194428572Y-123154819D02*
X194142858Y-123154819D01*
X194142858Y-123154819D02*
X194047620Y-123107200D01*
X194047620Y-123107200D02*
X194000001Y-123059580D01*
X194952382Y-122154819D02*
X195571429Y-122154819D01*
X195571429Y-122154819D02*
X195238096Y-122535771D01*
X195238096Y-122535771D02*
X195380953Y-122535771D01*
X195380953Y-122535771D02*
X195476191Y-122583390D01*
X195476191Y-122583390D02*
X195523810Y-122631009D01*
X195523810Y-122631009D02*
X195571429Y-122726247D01*
X195571429Y-122726247D02*
X195571429Y-122964342D01*
X195571429Y-122964342D02*
X195523810Y-123059580D01*
X195523810Y-123059580D02*
X195476191Y-123107200D01*
X195476191Y-123107200D02*
X195380953Y-123154819D01*
X195380953Y-123154819D02*
X195095239Y-123154819D01*
X195095239Y-123154819D02*
X195000001Y-123107200D01*
X195000001Y-123107200D02*
X194952382Y-123059580D01*
D11*
X189983327Y-109282952D02*
X190007518Y-109307143D01*
X190007518Y-109307143D02*
X190031708Y-109379714D01*
X190031708Y-109379714D02*
X190031708Y-109428095D01*
X190031708Y-109428095D02*
X190007518Y-109500667D01*
X190007518Y-109500667D02*
X189959137Y-109549048D01*
X189959137Y-109549048D02*
X189910756Y-109573238D01*
X189910756Y-109573238D02*
X189813994Y-109597429D01*
X189813994Y-109597429D02*
X189741422Y-109597429D01*
X189741422Y-109597429D02*
X189644660Y-109573238D01*
X189644660Y-109573238D02*
X189596279Y-109549048D01*
X189596279Y-109549048D02*
X189547898Y-109500667D01*
X189547898Y-109500667D02*
X189523708Y-109428095D01*
X189523708Y-109428095D02*
X189523708Y-109379714D01*
X189523708Y-109379714D02*
X189547898Y-109307143D01*
X189547898Y-109307143D02*
X189572089Y-109282952D01*
X190031708Y-108992667D02*
X190007518Y-109041048D01*
X190007518Y-109041048D02*
X189983327Y-109065238D01*
X189983327Y-109065238D02*
X189934946Y-109089429D01*
X189934946Y-109089429D02*
X189789803Y-109089429D01*
X189789803Y-109089429D02*
X189741422Y-109065238D01*
X189741422Y-109065238D02*
X189717232Y-109041048D01*
X189717232Y-109041048D02*
X189693041Y-108992667D01*
X189693041Y-108992667D02*
X189693041Y-108920095D01*
X189693041Y-108920095D02*
X189717232Y-108871714D01*
X189717232Y-108871714D02*
X189741422Y-108847524D01*
X189741422Y-108847524D02*
X189789803Y-108823333D01*
X189789803Y-108823333D02*
X189934946Y-108823333D01*
X189934946Y-108823333D02*
X189983327Y-108847524D01*
X189983327Y-108847524D02*
X190007518Y-108871714D01*
X190007518Y-108871714D02*
X190031708Y-108920095D01*
X190031708Y-108920095D02*
X190031708Y-108992667D01*
X189693041Y-108387905D02*
X190031708Y-108387905D01*
X189693041Y-108605619D02*
X189959137Y-108605619D01*
X189959137Y-108605619D02*
X190007518Y-108581429D01*
X190007518Y-108581429D02*
X190031708Y-108533048D01*
X190031708Y-108533048D02*
X190031708Y-108460476D01*
X190031708Y-108460476D02*
X190007518Y-108412095D01*
X190007518Y-108412095D02*
X189983327Y-108387905D01*
X189693041Y-108218572D02*
X189693041Y-108025048D01*
X189523708Y-108146000D02*
X189959137Y-108146000D01*
X189959137Y-108146000D02*
X190007518Y-108121810D01*
X190007518Y-108121810D02*
X190031708Y-108073429D01*
X190031708Y-108073429D02*
X190031708Y-108025048D01*
X190080089Y-107976667D02*
X190080089Y-107589619D01*
X190031708Y-107444476D02*
X190031708Y-107347714D01*
X190031708Y-107347714D02*
X190007518Y-107299333D01*
X190007518Y-107299333D02*
X189983327Y-107275142D01*
X189983327Y-107275142D02*
X189910756Y-107226761D01*
X189910756Y-107226761D02*
X189813994Y-107202571D01*
X189813994Y-107202571D02*
X189620470Y-107202571D01*
X189620470Y-107202571D02*
X189572089Y-107226761D01*
X189572089Y-107226761D02*
X189547898Y-107250952D01*
X189547898Y-107250952D02*
X189523708Y-107299333D01*
X189523708Y-107299333D02*
X189523708Y-107396095D01*
X189523708Y-107396095D02*
X189547898Y-107444476D01*
X189547898Y-107444476D02*
X189572089Y-107468666D01*
X189572089Y-107468666D02*
X189620470Y-107492857D01*
X189620470Y-107492857D02*
X189741422Y-107492857D01*
X189741422Y-107492857D02*
X189789803Y-107468666D01*
X189789803Y-107468666D02*
X189813994Y-107444476D01*
X189813994Y-107444476D02*
X189838184Y-107396095D01*
X189838184Y-107396095D02*
X189838184Y-107299333D01*
X189838184Y-107299333D02*
X189813994Y-107250952D01*
X189813994Y-107250952D02*
X189789803Y-107226761D01*
X189789803Y-107226761D02*
X189741422Y-107202571D01*
D12*
X119250057Y-119095238D02*
X119202438Y-119190476D01*
X119202438Y-119190476D02*
X119107200Y-119285714D01*
X119107200Y-119285714D02*
X118964342Y-119428571D01*
X118964342Y-119428571D02*
X118916723Y-119523809D01*
X118916723Y-119523809D02*
X118916723Y-119619047D01*
X119154819Y-119571428D02*
X119107200Y-119666666D01*
X119107200Y-119666666D02*
X119011961Y-119761904D01*
X119011961Y-119761904D02*
X118821485Y-119809523D01*
X118821485Y-119809523D02*
X118488152Y-119809523D01*
X118488152Y-119809523D02*
X118297676Y-119761904D01*
X118297676Y-119761904D02*
X118202438Y-119666666D01*
X118202438Y-119666666D02*
X118154819Y-119571428D01*
X118154819Y-119571428D02*
X118154819Y-119380952D01*
X118154819Y-119380952D02*
X118202438Y-119285714D01*
X118202438Y-119285714D02*
X118297676Y-119190476D01*
X118297676Y-119190476D02*
X118488152Y-119142857D01*
X118488152Y-119142857D02*
X118821485Y-119142857D01*
X118821485Y-119142857D02*
X119011961Y-119190476D01*
X119011961Y-119190476D02*
X119107200Y-119285714D01*
X119107200Y-119285714D02*
X119154819Y-119380952D01*
X119154819Y-119380952D02*
X119154819Y-119571428D01*
X118154819Y-118809523D02*
X118154819Y-118190476D01*
X118154819Y-118190476D02*
X118535771Y-118523809D01*
X118535771Y-118523809D02*
X118535771Y-118380952D01*
X118535771Y-118380952D02*
X118583390Y-118285714D01*
X118583390Y-118285714D02*
X118631009Y-118238095D01*
X118631009Y-118238095D02*
X118726247Y-118190476D01*
X118726247Y-118190476D02*
X118964342Y-118190476D01*
X118964342Y-118190476D02*
X119059580Y-118238095D01*
X119059580Y-118238095D02*
X119107200Y-118285714D01*
X119107200Y-118285714D02*
X119154819Y-118380952D01*
X119154819Y-118380952D02*
X119154819Y-118666666D01*
X119154819Y-118666666D02*
X119107200Y-118761904D01*
X119107200Y-118761904D02*
X119059580Y-118809523D01*
D11*
X166012951Y-114923708D02*
X166303237Y-114923708D01*
X166158094Y-115431708D02*
X166158094Y-114923708D01*
X166738666Y-115431708D02*
X166448380Y-115431708D01*
X166593523Y-115431708D02*
X166593523Y-114923708D01*
X166593523Y-114923708D02*
X166545142Y-114996279D01*
X166545142Y-114996279D02*
X166496761Y-115044660D01*
X166496761Y-115044660D02*
X166448380Y-115068851D01*
X192183327Y-93882952D02*
X192207518Y-93907143D01*
X192207518Y-93907143D02*
X192231708Y-93979714D01*
X192231708Y-93979714D02*
X192231708Y-94028095D01*
X192231708Y-94028095D02*
X192207518Y-94100667D01*
X192207518Y-94100667D02*
X192159137Y-94149048D01*
X192159137Y-94149048D02*
X192110756Y-94173238D01*
X192110756Y-94173238D02*
X192013994Y-94197429D01*
X192013994Y-94197429D02*
X191941422Y-94197429D01*
X191941422Y-94197429D02*
X191844660Y-94173238D01*
X191844660Y-94173238D02*
X191796279Y-94149048D01*
X191796279Y-94149048D02*
X191747898Y-94100667D01*
X191747898Y-94100667D02*
X191723708Y-94028095D01*
X191723708Y-94028095D02*
X191723708Y-93979714D01*
X191723708Y-93979714D02*
X191747898Y-93907143D01*
X191747898Y-93907143D02*
X191772089Y-93882952D01*
X192231708Y-93592667D02*
X192207518Y-93641048D01*
X192207518Y-93641048D02*
X192183327Y-93665238D01*
X192183327Y-93665238D02*
X192134946Y-93689429D01*
X192134946Y-93689429D02*
X191989803Y-93689429D01*
X191989803Y-93689429D02*
X191941422Y-93665238D01*
X191941422Y-93665238D02*
X191917232Y-93641048D01*
X191917232Y-93641048D02*
X191893041Y-93592667D01*
X191893041Y-93592667D02*
X191893041Y-93520095D01*
X191893041Y-93520095D02*
X191917232Y-93471714D01*
X191917232Y-93471714D02*
X191941422Y-93447524D01*
X191941422Y-93447524D02*
X191989803Y-93423333D01*
X191989803Y-93423333D02*
X192134946Y-93423333D01*
X192134946Y-93423333D02*
X192183327Y-93447524D01*
X192183327Y-93447524D02*
X192207518Y-93471714D01*
X192207518Y-93471714D02*
X192231708Y-93520095D01*
X192231708Y-93520095D02*
X192231708Y-93592667D01*
X191893041Y-92987905D02*
X192231708Y-92987905D01*
X191893041Y-93205619D02*
X192159137Y-93205619D01*
X192159137Y-93205619D02*
X192207518Y-93181429D01*
X192207518Y-93181429D02*
X192231708Y-93133048D01*
X192231708Y-93133048D02*
X192231708Y-93060476D01*
X192231708Y-93060476D02*
X192207518Y-93012095D01*
X192207518Y-93012095D02*
X192183327Y-92987905D01*
X191893041Y-92818572D02*
X191893041Y-92625048D01*
X191723708Y-92746000D02*
X192159137Y-92746000D01*
X192159137Y-92746000D02*
X192207518Y-92721810D01*
X192207518Y-92721810D02*
X192231708Y-92673429D01*
X192231708Y-92673429D02*
X192231708Y-92625048D01*
X192280089Y-92576667D02*
X192280089Y-92189619D01*
X191723708Y-91826761D02*
X191723708Y-92068666D01*
X191723708Y-92068666D02*
X191965613Y-92092857D01*
X191965613Y-92092857D02*
X191941422Y-92068666D01*
X191941422Y-92068666D02*
X191917232Y-92020285D01*
X191917232Y-92020285D02*
X191917232Y-91899333D01*
X191917232Y-91899333D02*
X191941422Y-91850952D01*
X191941422Y-91850952D02*
X191965613Y-91826761D01*
X191965613Y-91826761D02*
X192013994Y-91802571D01*
X192013994Y-91802571D02*
X192134946Y-91802571D01*
X192134946Y-91802571D02*
X192183327Y-91826761D01*
X192183327Y-91826761D02*
X192207518Y-91850952D01*
X192207518Y-91850952D02*
X192231708Y-91899333D01*
X192231708Y-91899333D02*
X192231708Y-92020285D01*
X192231708Y-92020285D02*
X192207518Y-92068666D01*
X192207518Y-92068666D02*
X192183327Y-92092857D01*
X225958951Y-122925708D02*
X226249237Y-122925708D01*
X226104094Y-123433708D02*
X226104094Y-122925708D01*
X226418571Y-123433708D02*
X226418571Y-122925708D01*
X226418571Y-122925708D02*
X226612095Y-122925708D01*
X226612095Y-122925708D02*
X226660476Y-122949898D01*
X226660476Y-122949898D02*
X226684666Y-122974089D01*
X226684666Y-122974089D02*
X226708857Y-123022470D01*
X226708857Y-123022470D02*
X226708857Y-123095041D01*
X226708857Y-123095041D02*
X226684666Y-123143422D01*
X226684666Y-123143422D02*
X226660476Y-123167613D01*
X226660476Y-123167613D02*
X226612095Y-123191803D01*
X226612095Y-123191803D02*
X226418571Y-123191803D01*
X227144285Y-123095041D02*
X227144285Y-123433708D01*
X227023333Y-122901518D02*
X226902380Y-123264375D01*
X226902380Y-123264375D02*
X227216857Y-123264375D01*
D12*
X201054819Y-99476191D02*
X200578628Y-99809524D01*
X201054819Y-100047619D02*
X200054819Y-100047619D01*
X200054819Y-100047619D02*
X200054819Y-99666667D01*
X200054819Y-99666667D02*
X200102438Y-99571429D01*
X200102438Y-99571429D02*
X200150057Y-99523810D01*
X200150057Y-99523810D02*
X200245295Y-99476191D01*
X200245295Y-99476191D02*
X200388152Y-99476191D01*
X200388152Y-99476191D02*
X200483390Y-99523810D01*
X200483390Y-99523810D02*
X200531009Y-99571429D01*
X200531009Y-99571429D02*
X200578628Y-99666667D01*
X200578628Y-99666667D02*
X200578628Y-100047619D01*
X200388152Y-99047619D02*
X201388152Y-99047619D01*
X200435771Y-99047619D02*
X200388152Y-98952381D01*
X200388152Y-98952381D02*
X200388152Y-98761905D01*
X200388152Y-98761905D02*
X200435771Y-98666667D01*
X200435771Y-98666667D02*
X200483390Y-98619048D01*
X200483390Y-98619048D02*
X200578628Y-98571429D01*
X200578628Y-98571429D02*
X200864342Y-98571429D01*
X200864342Y-98571429D02*
X200959580Y-98619048D01*
X200959580Y-98619048D02*
X201007200Y-98666667D01*
X201007200Y-98666667D02*
X201054819Y-98761905D01*
X201054819Y-98761905D02*
X201054819Y-98952381D01*
X201054819Y-98952381D02*
X201007200Y-99047619D01*
X201054819Y-98142857D02*
X200388152Y-98142857D01*
X200578628Y-98142857D02*
X200483390Y-98095238D01*
X200483390Y-98095238D02*
X200435771Y-98047619D01*
X200435771Y-98047619D02*
X200388152Y-97952381D01*
X200388152Y-97952381D02*
X200388152Y-97857143D01*
X201007200Y-97142857D02*
X201054819Y-97238095D01*
X201054819Y-97238095D02*
X201054819Y-97428571D01*
X201054819Y-97428571D02*
X201007200Y-97523809D01*
X201007200Y-97523809D02*
X200911961Y-97571428D01*
X200911961Y-97571428D02*
X200531009Y-97571428D01*
X200531009Y-97571428D02*
X200435771Y-97523809D01*
X200435771Y-97523809D02*
X200388152Y-97428571D01*
X200388152Y-97428571D02*
X200388152Y-97238095D01*
X200388152Y-97238095D02*
X200435771Y-97142857D01*
X200435771Y-97142857D02*
X200531009Y-97095238D01*
X200531009Y-97095238D02*
X200626247Y-97095238D01*
X200626247Y-97095238D02*
X200721485Y-97571428D01*
X201054819Y-96523809D02*
X201007200Y-96619047D01*
X201007200Y-96619047D02*
X200911961Y-96666666D01*
X200911961Y-96666666D02*
X200054819Y-96666666D01*
X201054819Y-95999999D02*
X201007200Y-96095237D01*
X201007200Y-96095237D02*
X200959580Y-96142856D01*
X200959580Y-96142856D02*
X200864342Y-96190475D01*
X200864342Y-96190475D02*
X200578628Y-96190475D01*
X200578628Y-96190475D02*
X200483390Y-96142856D01*
X200483390Y-96142856D02*
X200435771Y-96095237D01*
X200435771Y-96095237D02*
X200388152Y-95999999D01*
X200388152Y-95999999D02*
X200388152Y-95857142D01*
X200388152Y-95857142D02*
X200435771Y-95761904D01*
X200435771Y-95761904D02*
X200483390Y-95714285D01*
X200483390Y-95714285D02*
X200578628Y-95666666D01*
X200578628Y-95666666D02*
X200864342Y-95666666D01*
X200864342Y-95666666D02*
X200959580Y-95714285D01*
X200959580Y-95714285D02*
X201007200Y-95761904D01*
X201007200Y-95761904D02*
X201054819Y-95857142D01*
X201054819Y-95857142D02*
X201054819Y-95999999D01*
X201054819Y-94809523D02*
X200531009Y-94809523D01*
X200531009Y-94809523D02*
X200435771Y-94857142D01*
X200435771Y-94857142D02*
X200388152Y-94952380D01*
X200388152Y-94952380D02*
X200388152Y-95142856D01*
X200388152Y-95142856D02*
X200435771Y-95238094D01*
X201007200Y-94809523D02*
X201054819Y-94904761D01*
X201054819Y-94904761D02*
X201054819Y-95142856D01*
X201054819Y-95142856D02*
X201007200Y-95238094D01*
X201007200Y-95238094D02*
X200911961Y-95285713D01*
X200911961Y-95285713D02*
X200816723Y-95285713D01*
X200816723Y-95285713D02*
X200721485Y-95238094D01*
X200721485Y-95238094D02*
X200673866Y-95142856D01*
X200673866Y-95142856D02*
X200673866Y-94904761D01*
X200673866Y-94904761D02*
X200626247Y-94809523D01*
X201054819Y-93904761D02*
X200054819Y-93904761D01*
X201007200Y-93904761D02*
X201054819Y-93999999D01*
X201054819Y-93999999D02*
X201054819Y-94190475D01*
X201054819Y-94190475D02*
X201007200Y-94285713D01*
X201007200Y-94285713D02*
X200959580Y-94333332D01*
X200959580Y-94333332D02*
X200864342Y-94380951D01*
X200864342Y-94380951D02*
X200578628Y-94380951D01*
X200578628Y-94380951D02*
X200483390Y-94333332D01*
X200483390Y-94333332D02*
X200435771Y-94285713D01*
X200435771Y-94285713D02*
X200388152Y-94190475D01*
X200388152Y-94190475D02*
X200388152Y-93999999D01*
X200388152Y-93999999D02*
X200435771Y-93904761D01*
X200054819Y-92952380D02*
X200054819Y-93428570D01*
X200054819Y-93428570D02*
X200531009Y-93476189D01*
X200531009Y-93476189D02*
X200483390Y-93428570D01*
X200483390Y-93428570D02*
X200435771Y-93333332D01*
X200435771Y-93333332D02*
X200435771Y-93095237D01*
X200435771Y-93095237D02*
X200483390Y-92999999D01*
X200483390Y-92999999D02*
X200531009Y-92952380D01*
X200531009Y-92952380D02*
X200626247Y-92904761D01*
X200626247Y-92904761D02*
X200864342Y-92904761D01*
X200864342Y-92904761D02*
X200959580Y-92952380D01*
X200959580Y-92952380D02*
X201007200Y-92999999D01*
X201007200Y-92999999D02*
X201054819Y-93095237D01*
X201054819Y-93095237D02*
X201054819Y-93333332D01*
X201054819Y-93333332D02*
X201007200Y-93428570D01*
X201007200Y-93428570D02*
X200959580Y-93476189D01*
D11*
X185183327Y-109282952D02*
X185207518Y-109307143D01*
X185207518Y-109307143D02*
X185231708Y-109379714D01*
X185231708Y-109379714D02*
X185231708Y-109428095D01*
X185231708Y-109428095D02*
X185207518Y-109500667D01*
X185207518Y-109500667D02*
X185159137Y-109549048D01*
X185159137Y-109549048D02*
X185110756Y-109573238D01*
X185110756Y-109573238D02*
X185013994Y-109597429D01*
X185013994Y-109597429D02*
X184941422Y-109597429D01*
X184941422Y-109597429D02*
X184844660Y-109573238D01*
X184844660Y-109573238D02*
X184796279Y-109549048D01*
X184796279Y-109549048D02*
X184747898Y-109500667D01*
X184747898Y-109500667D02*
X184723708Y-109428095D01*
X184723708Y-109428095D02*
X184723708Y-109379714D01*
X184723708Y-109379714D02*
X184747898Y-109307143D01*
X184747898Y-109307143D02*
X184772089Y-109282952D01*
X185231708Y-108992667D02*
X185207518Y-109041048D01*
X185207518Y-109041048D02*
X185183327Y-109065238D01*
X185183327Y-109065238D02*
X185134946Y-109089429D01*
X185134946Y-109089429D02*
X184989803Y-109089429D01*
X184989803Y-109089429D02*
X184941422Y-109065238D01*
X184941422Y-109065238D02*
X184917232Y-109041048D01*
X184917232Y-109041048D02*
X184893041Y-108992667D01*
X184893041Y-108992667D02*
X184893041Y-108920095D01*
X184893041Y-108920095D02*
X184917232Y-108871714D01*
X184917232Y-108871714D02*
X184941422Y-108847524D01*
X184941422Y-108847524D02*
X184989803Y-108823333D01*
X184989803Y-108823333D02*
X185134946Y-108823333D01*
X185134946Y-108823333D02*
X185183327Y-108847524D01*
X185183327Y-108847524D02*
X185207518Y-108871714D01*
X185207518Y-108871714D02*
X185231708Y-108920095D01*
X185231708Y-108920095D02*
X185231708Y-108992667D01*
X184893041Y-108387905D02*
X185231708Y-108387905D01*
X184893041Y-108605619D02*
X185159137Y-108605619D01*
X185159137Y-108605619D02*
X185207518Y-108581429D01*
X185207518Y-108581429D02*
X185231708Y-108533048D01*
X185231708Y-108533048D02*
X185231708Y-108460476D01*
X185231708Y-108460476D02*
X185207518Y-108412095D01*
X185207518Y-108412095D02*
X185183327Y-108387905D01*
X184893041Y-108218572D02*
X184893041Y-108025048D01*
X184723708Y-108146000D02*
X185159137Y-108146000D01*
X185159137Y-108146000D02*
X185207518Y-108121810D01*
X185207518Y-108121810D02*
X185231708Y-108073429D01*
X185231708Y-108073429D02*
X185231708Y-108025048D01*
X185280089Y-107976667D02*
X185280089Y-107589619D01*
X184893041Y-107250952D02*
X185231708Y-107250952D01*
X184699518Y-107371904D02*
X185062375Y-107492857D01*
X185062375Y-107492857D02*
X185062375Y-107178380D01*
X133406708Y-117007999D02*
X133164803Y-117177333D01*
X133406708Y-117298285D02*
X132898708Y-117298285D01*
X132898708Y-117298285D02*
X132898708Y-117104761D01*
X132898708Y-117104761D02*
X132922898Y-117056380D01*
X132922898Y-117056380D02*
X132947089Y-117032190D01*
X132947089Y-117032190D02*
X132995470Y-117007999D01*
X132995470Y-117007999D02*
X133068041Y-117007999D01*
X133068041Y-117007999D02*
X133116422Y-117032190D01*
X133116422Y-117032190D02*
X133140613Y-117056380D01*
X133140613Y-117056380D02*
X133164803Y-117104761D01*
X133164803Y-117104761D02*
X133164803Y-117298285D01*
X133068041Y-116572571D02*
X133479279Y-116572571D01*
X133479279Y-116572571D02*
X133527660Y-116596761D01*
X133527660Y-116596761D02*
X133551851Y-116620952D01*
X133551851Y-116620952D02*
X133576041Y-116669333D01*
X133576041Y-116669333D02*
X133576041Y-116741904D01*
X133576041Y-116741904D02*
X133551851Y-116790285D01*
X133382518Y-116572571D02*
X133406708Y-116620952D01*
X133406708Y-116620952D02*
X133406708Y-116717714D01*
X133406708Y-116717714D02*
X133382518Y-116766095D01*
X133382518Y-116766095D02*
X133358327Y-116790285D01*
X133358327Y-116790285D02*
X133309946Y-116814476D01*
X133309946Y-116814476D02*
X133164803Y-116814476D01*
X133164803Y-116814476D02*
X133116422Y-116790285D01*
X133116422Y-116790285D02*
X133092232Y-116766095D01*
X133092232Y-116766095D02*
X133068041Y-116717714D01*
X133068041Y-116717714D02*
X133068041Y-116620952D01*
X133068041Y-116620952D02*
X133092232Y-116572571D01*
X133455089Y-116451619D02*
X133455089Y-116064571D01*
X132947089Y-115967809D02*
X132922898Y-115943618D01*
X132922898Y-115943618D02*
X132898708Y-115895237D01*
X132898708Y-115895237D02*
X132898708Y-115774285D01*
X132898708Y-115774285D02*
X132922898Y-115725904D01*
X132922898Y-115725904D02*
X132947089Y-115701713D01*
X132947089Y-115701713D02*
X132995470Y-115677523D01*
X132995470Y-115677523D02*
X133043851Y-115677523D01*
X133043851Y-115677523D02*
X133116422Y-115701713D01*
X133116422Y-115701713D02*
X133406708Y-115991999D01*
X133406708Y-115991999D02*
X133406708Y-115677523D01*
X122533327Y-110073237D02*
X122557518Y-110097428D01*
X122557518Y-110097428D02*
X122581708Y-110169999D01*
X122581708Y-110169999D02*
X122581708Y-110218380D01*
X122581708Y-110218380D02*
X122557518Y-110290952D01*
X122557518Y-110290952D02*
X122509137Y-110339333D01*
X122509137Y-110339333D02*
X122460756Y-110363523D01*
X122460756Y-110363523D02*
X122363994Y-110387714D01*
X122363994Y-110387714D02*
X122291422Y-110387714D01*
X122291422Y-110387714D02*
X122194660Y-110363523D01*
X122194660Y-110363523D02*
X122146279Y-110339333D01*
X122146279Y-110339333D02*
X122097898Y-110290952D01*
X122097898Y-110290952D02*
X122073708Y-110218380D01*
X122073708Y-110218380D02*
X122073708Y-110169999D01*
X122073708Y-110169999D02*
X122097898Y-110097428D01*
X122097898Y-110097428D02*
X122122089Y-110073237D01*
X122630089Y-109976476D02*
X122630089Y-109589428D01*
X122557518Y-109492666D02*
X122581708Y-109444285D01*
X122581708Y-109444285D02*
X122581708Y-109347523D01*
X122581708Y-109347523D02*
X122557518Y-109299142D01*
X122557518Y-109299142D02*
X122509137Y-109274951D01*
X122509137Y-109274951D02*
X122484946Y-109274951D01*
X122484946Y-109274951D02*
X122436565Y-109299142D01*
X122436565Y-109299142D02*
X122412375Y-109347523D01*
X122412375Y-109347523D02*
X122412375Y-109420094D01*
X122412375Y-109420094D02*
X122388184Y-109468475D01*
X122388184Y-109468475D02*
X122339803Y-109492666D01*
X122339803Y-109492666D02*
X122315613Y-109492666D01*
X122315613Y-109492666D02*
X122267232Y-109468475D01*
X122267232Y-109468475D02*
X122243041Y-109420094D01*
X122243041Y-109420094D02*
X122243041Y-109347523D01*
X122243041Y-109347523D02*
X122267232Y-109299142D01*
X122243041Y-109057237D02*
X122581708Y-109057237D01*
X122291422Y-109057237D02*
X122267232Y-109033047D01*
X122267232Y-109033047D02*
X122243041Y-108984666D01*
X122243041Y-108984666D02*
X122243041Y-108912094D01*
X122243041Y-108912094D02*
X122267232Y-108863713D01*
X122267232Y-108863713D02*
X122315613Y-108839523D01*
X122315613Y-108839523D02*
X122581708Y-108839523D01*
X122243041Y-108379904D02*
X122581708Y-108379904D01*
X122243041Y-108597618D02*
X122509137Y-108597618D01*
X122509137Y-108597618D02*
X122557518Y-108573428D01*
X122557518Y-108573428D02*
X122581708Y-108525047D01*
X122581708Y-108525047D02*
X122581708Y-108452475D01*
X122581708Y-108452475D02*
X122557518Y-108404094D01*
X122557518Y-108404094D02*
X122533327Y-108379904D01*
X122581708Y-108137999D02*
X122073708Y-108137999D01*
X122267232Y-108137999D02*
X122243041Y-108089618D01*
X122243041Y-108089618D02*
X122243041Y-107992856D01*
X122243041Y-107992856D02*
X122267232Y-107944475D01*
X122267232Y-107944475D02*
X122291422Y-107920285D01*
X122291422Y-107920285D02*
X122339803Y-107896094D01*
X122339803Y-107896094D02*
X122484946Y-107896094D01*
X122484946Y-107896094D02*
X122533327Y-107920285D01*
X122533327Y-107920285D02*
X122557518Y-107944475D01*
X122557518Y-107944475D02*
X122581708Y-107992856D01*
X122581708Y-107992856D02*
X122581708Y-108089618D01*
X122581708Y-108089618D02*
X122557518Y-108137999D01*
X122581708Y-107412285D02*
X122581708Y-107702571D01*
X122581708Y-107557428D02*
X122073708Y-107557428D01*
X122073708Y-107557428D02*
X122146279Y-107605809D01*
X122146279Y-107605809D02*
X122194660Y-107654190D01*
X122194660Y-107654190D02*
X122218851Y-107702571D01*
X187583327Y-109282952D02*
X187607518Y-109307143D01*
X187607518Y-109307143D02*
X187631708Y-109379714D01*
X187631708Y-109379714D02*
X187631708Y-109428095D01*
X187631708Y-109428095D02*
X187607518Y-109500667D01*
X187607518Y-109500667D02*
X187559137Y-109549048D01*
X187559137Y-109549048D02*
X187510756Y-109573238D01*
X187510756Y-109573238D02*
X187413994Y-109597429D01*
X187413994Y-109597429D02*
X187341422Y-109597429D01*
X187341422Y-109597429D02*
X187244660Y-109573238D01*
X187244660Y-109573238D02*
X187196279Y-109549048D01*
X187196279Y-109549048D02*
X187147898Y-109500667D01*
X187147898Y-109500667D02*
X187123708Y-109428095D01*
X187123708Y-109428095D02*
X187123708Y-109379714D01*
X187123708Y-109379714D02*
X187147898Y-109307143D01*
X187147898Y-109307143D02*
X187172089Y-109282952D01*
X187631708Y-108992667D02*
X187607518Y-109041048D01*
X187607518Y-109041048D02*
X187583327Y-109065238D01*
X187583327Y-109065238D02*
X187534946Y-109089429D01*
X187534946Y-109089429D02*
X187389803Y-109089429D01*
X187389803Y-109089429D02*
X187341422Y-109065238D01*
X187341422Y-109065238D02*
X187317232Y-109041048D01*
X187317232Y-109041048D02*
X187293041Y-108992667D01*
X187293041Y-108992667D02*
X187293041Y-108920095D01*
X187293041Y-108920095D02*
X187317232Y-108871714D01*
X187317232Y-108871714D02*
X187341422Y-108847524D01*
X187341422Y-108847524D02*
X187389803Y-108823333D01*
X187389803Y-108823333D02*
X187534946Y-108823333D01*
X187534946Y-108823333D02*
X187583327Y-108847524D01*
X187583327Y-108847524D02*
X187607518Y-108871714D01*
X187607518Y-108871714D02*
X187631708Y-108920095D01*
X187631708Y-108920095D02*
X187631708Y-108992667D01*
X187293041Y-108387905D02*
X187631708Y-108387905D01*
X187293041Y-108605619D02*
X187559137Y-108605619D01*
X187559137Y-108605619D02*
X187607518Y-108581429D01*
X187607518Y-108581429D02*
X187631708Y-108533048D01*
X187631708Y-108533048D02*
X187631708Y-108460476D01*
X187631708Y-108460476D02*
X187607518Y-108412095D01*
X187607518Y-108412095D02*
X187583327Y-108387905D01*
X187293041Y-108218572D02*
X187293041Y-108025048D01*
X187123708Y-108146000D02*
X187559137Y-108146000D01*
X187559137Y-108146000D02*
X187607518Y-108121810D01*
X187607518Y-108121810D02*
X187631708Y-108073429D01*
X187631708Y-108073429D02*
X187631708Y-108025048D01*
X187680089Y-107976667D02*
X187680089Y-107589619D01*
X187341422Y-107396095D02*
X187317232Y-107444476D01*
X187317232Y-107444476D02*
X187293041Y-107468666D01*
X187293041Y-107468666D02*
X187244660Y-107492857D01*
X187244660Y-107492857D02*
X187220470Y-107492857D01*
X187220470Y-107492857D02*
X187172089Y-107468666D01*
X187172089Y-107468666D02*
X187147898Y-107444476D01*
X187147898Y-107444476D02*
X187123708Y-107396095D01*
X187123708Y-107396095D02*
X187123708Y-107299333D01*
X187123708Y-107299333D02*
X187147898Y-107250952D01*
X187147898Y-107250952D02*
X187172089Y-107226761D01*
X187172089Y-107226761D02*
X187220470Y-107202571D01*
X187220470Y-107202571D02*
X187244660Y-107202571D01*
X187244660Y-107202571D02*
X187293041Y-107226761D01*
X187293041Y-107226761D02*
X187317232Y-107250952D01*
X187317232Y-107250952D02*
X187341422Y-107299333D01*
X187341422Y-107299333D02*
X187341422Y-107396095D01*
X187341422Y-107396095D02*
X187365613Y-107444476D01*
X187365613Y-107444476D02*
X187389803Y-107468666D01*
X187389803Y-107468666D02*
X187438184Y-107492857D01*
X187438184Y-107492857D02*
X187534946Y-107492857D01*
X187534946Y-107492857D02*
X187583327Y-107468666D01*
X187583327Y-107468666D02*
X187607518Y-107444476D01*
X187607518Y-107444476D02*
X187631708Y-107396095D01*
X187631708Y-107396095D02*
X187631708Y-107299333D01*
X187631708Y-107299333D02*
X187607518Y-107250952D01*
X187607518Y-107250952D02*
X187583327Y-107226761D01*
X187583327Y-107226761D02*
X187534946Y-107202571D01*
X187534946Y-107202571D02*
X187438184Y-107202571D01*
X187438184Y-107202571D02*
X187389803Y-107226761D01*
X187389803Y-107226761D02*
X187365613Y-107250952D01*
X187365613Y-107250952D02*
X187341422Y-107299333D01*
D12*
X125050057Y-119195238D02*
X125002438Y-119290476D01*
X125002438Y-119290476D02*
X124907200Y-119385714D01*
X124907200Y-119385714D02*
X124764342Y-119528571D01*
X124764342Y-119528571D02*
X124716723Y-119623809D01*
X124716723Y-119623809D02*
X124716723Y-119719047D01*
X124954819Y-119671428D02*
X124907200Y-119766666D01*
X124907200Y-119766666D02*
X124811961Y-119861904D01*
X124811961Y-119861904D02*
X124621485Y-119909523D01*
X124621485Y-119909523D02*
X124288152Y-119909523D01*
X124288152Y-119909523D02*
X124097676Y-119861904D01*
X124097676Y-119861904D02*
X124002438Y-119766666D01*
X124002438Y-119766666D02*
X123954819Y-119671428D01*
X123954819Y-119671428D02*
X123954819Y-119480952D01*
X123954819Y-119480952D02*
X124002438Y-119385714D01*
X124002438Y-119385714D02*
X124097676Y-119290476D01*
X124097676Y-119290476D02*
X124288152Y-119242857D01*
X124288152Y-119242857D02*
X124621485Y-119242857D01*
X124621485Y-119242857D02*
X124811961Y-119290476D01*
X124811961Y-119290476D02*
X124907200Y-119385714D01*
X124907200Y-119385714D02*
X124954819Y-119480952D01*
X124954819Y-119480952D02*
X124954819Y-119671428D01*
X124288152Y-118385714D02*
X124954819Y-118385714D01*
X123907200Y-118623809D02*
X124621485Y-118861904D01*
X124621485Y-118861904D02*
X124621485Y-118242857D01*
X205054819Y-99952381D02*
X204578628Y-100285714D01*
X205054819Y-100523809D02*
X204054819Y-100523809D01*
X204054819Y-100523809D02*
X204054819Y-100142857D01*
X204054819Y-100142857D02*
X204102438Y-100047619D01*
X204102438Y-100047619D02*
X204150057Y-100000000D01*
X204150057Y-100000000D02*
X204245295Y-99952381D01*
X204245295Y-99952381D02*
X204388152Y-99952381D01*
X204388152Y-99952381D02*
X204483390Y-100000000D01*
X204483390Y-100000000D02*
X204531009Y-100047619D01*
X204531009Y-100047619D02*
X204578628Y-100142857D01*
X204578628Y-100142857D02*
X204578628Y-100523809D01*
X204388152Y-99523809D02*
X205388152Y-99523809D01*
X204435771Y-99523809D02*
X204388152Y-99428571D01*
X204388152Y-99428571D02*
X204388152Y-99238095D01*
X204388152Y-99238095D02*
X204435771Y-99142857D01*
X204435771Y-99142857D02*
X204483390Y-99095238D01*
X204483390Y-99095238D02*
X204578628Y-99047619D01*
X204578628Y-99047619D02*
X204864342Y-99047619D01*
X204864342Y-99047619D02*
X204959580Y-99095238D01*
X204959580Y-99095238D02*
X205007200Y-99142857D01*
X205007200Y-99142857D02*
X205054819Y-99238095D01*
X205054819Y-99238095D02*
X205054819Y-99428571D01*
X205054819Y-99428571D02*
X205007200Y-99523809D01*
X205054819Y-98619047D02*
X204388152Y-98619047D01*
X204578628Y-98619047D02*
X204483390Y-98571428D01*
X204483390Y-98571428D02*
X204435771Y-98523809D01*
X204435771Y-98523809D02*
X204388152Y-98428571D01*
X204388152Y-98428571D02*
X204388152Y-98333333D01*
X205007200Y-97619047D02*
X205054819Y-97714285D01*
X205054819Y-97714285D02*
X205054819Y-97904761D01*
X205054819Y-97904761D02*
X205007200Y-97999999D01*
X205007200Y-97999999D02*
X204911961Y-98047618D01*
X204911961Y-98047618D02*
X204531009Y-98047618D01*
X204531009Y-98047618D02*
X204435771Y-97999999D01*
X204435771Y-97999999D02*
X204388152Y-97904761D01*
X204388152Y-97904761D02*
X204388152Y-97714285D01*
X204388152Y-97714285D02*
X204435771Y-97619047D01*
X204435771Y-97619047D02*
X204531009Y-97571428D01*
X204531009Y-97571428D02*
X204626247Y-97571428D01*
X204626247Y-97571428D02*
X204721485Y-98047618D01*
X205054819Y-96999999D02*
X205007200Y-97095237D01*
X205007200Y-97095237D02*
X204911961Y-97142856D01*
X204911961Y-97142856D02*
X204054819Y-97142856D01*
X205054819Y-96476189D02*
X205007200Y-96571427D01*
X205007200Y-96571427D02*
X204959580Y-96619046D01*
X204959580Y-96619046D02*
X204864342Y-96666665D01*
X204864342Y-96666665D02*
X204578628Y-96666665D01*
X204578628Y-96666665D02*
X204483390Y-96619046D01*
X204483390Y-96619046D02*
X204435771Y-96571427D01*
X204435771Y-96571427D02*
X204388152Y-96476189D01*
X204388152Y-96476189D02*
X204388152Y-96333332D01*
X204388152Y-96333332D02*
X204435771Y-96238094D01*
X204435771Y-96238094D02*
X204483390Y-96190475D01*
X204483390Y-96190475D02*
X204578628Y-96142856D01*
X204578628Y-96142856D02*
X204864342Y-96142856D01*
X204864342Y-96142856D02*
X204959580Y-96190475D01*
X204959580Y-96190475D02*
X205007200Y-96238094D01*
X205007200Y-96238094D02*
X205054819Y-96333332D01*
X205054819Y-96333332D02*
X205054819Y-96476189D01*
X205054819Y-95285713D02*
X204531009Y-95285713D01*
X204531009Y-95285713D02*
X204435771Y-95333332D01*
X204435771Y-95333332D02*
X204388152Y-95428570D01*
X204388152Y-95428570D02*
X204388152Y-95619046D01*
X204388152Y-95619046D02*
X204435771Y-95714284D01*
X205007200Y-95285713D02*
X205054819Y-95380951D01*
X205054819Y-95380951D02*
X205054819Y-95619046D01*
X205054819Y-95619046D02*
X205007200Y-95714284D01*
X205007200Y-95714284D02*
X204911961Y-95761903D01*
X204911961Y-95761903D02*
X204816723Y-95761903D01*
X204816723Y-95761903D02*
X204721485Y-95714284D01*
X204721485Y-95714284D02*
X204673866Y-95619046D01*
X204673866Y-95619046D02*
X204673866Y-95380951D01*
X204673866Y-95380951D02*
X204626247Y-95285713D01*
X205054819Y-94380951D02*
X204054819Y-94380951D01*
X205007200Y-94380951D02*
X205054819Y-94476189D01*
X205054819Y-94476189D02*
X205054819Y-94666665D01*
X205054819Y-94666665D02*
X205007200Y-94761903D01*
X205007200Y-94761903D02*
X204959580Y-94809522D01*
X204959580Y-94809522D02*
X204864342Y-94857141D01*
X204864342Y-94857141D02*
X204578628Y-94857141D01*
X204578628Y-94857141D02*
X204483390Y-94809522D01*
X204483390Y-94809522D02*
X204435771Y-94761903D01*
X204435771Y-94761903D02*
X204388152Y-94666665D01*
X204388152Y-94666665D02*
X204388152Y-94476189D01*
X204388152Y-94476189D02*
X204435771Y-94380951D01*
X205054819Y-93380951D02*
X205054819Y-93952379D01*
X205054819Y-93666665D02*
X204054819Y-93666665D01*
X204054819Y-93666665D02*
X204197676Y-93761903D01*
X204197676Y-93761903D02*
X204292914Y-93857141D01*
X204292914Y-93857141D02*
X204340533Y-93952379D01*
X204054819Y-92761903D02*
X204054819Y-92666665D01*
X204054819Y-92666665D02*
X204102438Y-92571427D01*
X204102438Y-92571427D02*
X204150057Y-92523808D01*
X204150057Y-92523808D02*
X204245295Y-92476189D01*
X204245295Y-92476189D02*
X204435771Y-92428570D01*
X204435771Y-92428570D02*
X204673866Y-92428570D01*
X204673866Y-92428570D02*
X204864342Y-92476189D01*
X204864342Y-92476189D02*
X204959580Y-92523808D01*
X204959580Y-92523808D02*
X205007200Y-92571427D01*
X205007200Y-92571427D02*
X205054819Y-92666665D01*
X205054819Y-92666665D02*
X205054819Y-92761903D01*
X205054819Y-92761903D02*
X205007200Y-92857141D01*
X205007200Y-92857141D02*
X204959580Y-92904760D01*
X204959580Y-92904760D02*
X204864342Y-92952379D01*
X204864342Y-92952379D02*
X204673866Y-92999998D01*
X204673866Y-92999998D02*
X204435771Y-92999998D01*
X204435771Y-92999998D02*
X204245295Y-92952379D01*
X204245295Y-92952379D02*
X204150057Y-92904760D01*
X204150057Y-92904760D02*
X204102438Y-92857141D01*
X204102438Y-92857141D02*
X204054819Y-92761903D01*
D11*
X222274566Y-127923708D02*
X222274566Y-128286565D01*
X222274566Y-128286565D02*
X222250375Y-128359137D01*
X222250375Y-128359137D02*
X222201994Y-128407518D01*
X222201994Y-128407518D02*
X222129423Y-128431708D01*
X222129423Y-128431708D02*
X222081042Y-128431708D01*
X222734185Y-128093041D02*
X222734185Y-128431708D01*
X222613233Y-127899518D02*
X222492280Y-128262375D01*
X222492280Y-128262375D02*
X222806757Y-128262375D01*
X179031708Y-105574952D02*
X178523708Y-105574952D01*
X178523708Y-105574952D02*
X178523708Y-105454000D01*
X178523708Y-105454000D02*
X178547898Y-105381428D01*
X178547898Y-105381428D02*
X178596279Y-105333047D01*
X178596279Y-105333047D02*
X178644660Y-105308857D01*
X178644660Y-105308857D02*
X178741422Y-105284666D01*
X178741422Y-105284666D02*
X178813994Y-105284666D01*
X178813994Y-105284666D02*
X178910756Y-105308857D01*
X178910756Y-105308857D02*
X178959137Y-105333047D01*
X178959137Y-105333047D02*
X179007518Y-105381428D01*
X179007518Y-105381428D02*
X179031708Y-105454000D01*
X179031708Y-105454000D02*
X179031708Y-105574952D01*
X178693041Y-104849238D02*
X179031708Y-104849238D01*
X178499518Y-104970190D02*
X178862375Y-105091143D01*
X178862375Y-105091143D02*
X178862375Y-104776666D01*
X131458951Y-109525708D02*
X131749237Y-109525708D01*
X131604094Y-110033708D02*
X131604094Y-109525708D01*
X131918571Y-110033708D02*
X131918571Y-109525708D01*
X131918571Y-109525708D02*
X132112095Y-109525708D01*
X132112095Y-109525708D02*
X132160476Y-109549898D01*
X132160476Y-109549898D02*
X132184666Y-109574089D01*
X132184666Y-109574089D02*
X132208857Y-109622470D01*
X132208857Y-109622470D02*
X132208857Y-109695041D01*
X132208857Y-109695041D02*
X132184666Y-109743422D01*
X132184666Y-109743422D02*
X132160476Y-109767613D01*
X132160476Y-109767613D02*
X132112095Y-109791803D01*
X132112095Y-109791803D02*
X131918571Y-109791803D01*
X132499142Y-109743422D02*
X132450761Y-109719232D01*
X132450761Y-109719232D02*
X132426571Y-109695041D01*
X132426571Y-109695041D02*
X132402380Y-109646660D01*
X132402380Y-109646660D02*
X132402380Y-109622470D01*
X132402380Y-109622470D02*
X132426571Y-109574089D01*
X132426571Y-109574089D02*
X132450761Y-109549898D01*
X132450761Y-109549898D02*
X132499142Y-109525708D01*
X132499142Y-109525708D02*
X132595904Y-109525708D01*
X132595904Y-109525708D02*
X132644285Y-109549898D01*
X132644285Y-109549898D02*
X132668476Y-109574089D01*
X132668476Y-109574089D02*
X132692666Y-109622470D01*
X132692666Y-109622470D02*
X132692666Y-109646660D01*
X132692666Y-109646660D02*
X132668476Y-109695041D01*
X132668476Y-109695041D02*
X132644285Y-109719232D01*
X132644285Y-109719232D02*
X132595904Y-109743422D01*
X132595904Y-109743422D02*
X132499142Y-109743422D01*
X132499142Y-109743422D02*
X132450761Y-109767613D01*
X132450761Y-109767613D02*
X132426571Y-109791803D01*
X132426571Y-109791803D02*
X132402380Y-109840184D01*
X132402380Y-109840184D02*
X132402380Y-109936946D01*
X132402380Y-109936946D02*
X132426571Y-109985327D01*
X132426571Y-109985327D02*
X132450761Y-110009518D01*
X132450761Y-110009518D02*
X132499142Y-110033708D01*
X132499142Y-110033708D02*
X132595904Y-110033708D01*
X132595904Y-110033708D02*
X132644285Y-110009518D01*
X132644285Y-110009518D02*
X132668476Y-109985327D01*
X132668476Y-109985327D02*
X132692666Y-109936946D01*
X132692666Y-109936946D02*
X132692666Y-109840184D01*
X132692666Y-109840184D02*
X132668476Y-109791803D01*
X132668476Y-109791803D02*
X132644285Y-109767613D01*
X132644285Y-109767613D02*
X132595904Y-109743422D01*
X136589797Y-90702077D02*
X136565606Y-90726268D01*
X136565606Y-90726268D02*
X136493035Y-90750458D01*
X136493035Y-90750458D02*
X136444654Y-90750458D01*
X136444654Y-90750458D02*
X136372082Y-90726268D01*
X136372082Y-90726268D02*
X136323701Y-90677887D01*
X136323701Y-90677887D02*
X136299511Y-90629506D01*
X136299511Y-90629506D02*
X136275320Y-90532744D01*
X136275320Y-90532744D02*
X136275320Y-90460172D01*
X136275320Y-90460172D02*
X136299511Y-90363410D01*
X136299511Y-90363410D02*
X136323701Y-90315029D01*
X136323701Y-90315029D02*
X136372082Y-90266648D01*
X136372082Y-90266648D02*
X136444654Y-90242458D01*
X136444654Y-90242458D02*
X136493035Y-90242458D01*
X136493035Y-90242458D02*
X136565606Y-90266648D01*
X136565606Y-90266648D02*
X136589797Y-90290839D01*
X136807511Y-90750458D02*
X136807511Y-90411791D01*
X136807511Y-90242458D02*
X136783320Y-90266648D01*
X136783320Y-90266648D02*
X136807511Y-90290839D01*
X136807511Y-90290839D02*
X136831701Y-90266648D01*
X136831701Y-90266648D02*
X136807511Y-90242458D01*
X136807511Y-90242458D02*
X136807511Y-90290839D01*
X137049416Y-90411791D02*
X137049416Y-90750458D01*
X137049416Y-90460172D02*
X137073606Y-90435982D01*
X137073606Y-90435982D02*
X137121987Y-90411791D01*
X137121987Y-90411791D02*
X137194559Y-90411791D01*
X137194559Y-90411791D02*
X137242940Y-90435982D01*
X137242940Y-90435982D02*
X137267130Y-90484363D01*
X137267130Y-90484363D02*
X137267130Y-90750458D01*
X137388083Y-90798839D02*
X137775130Y-90798839D01*
X138162178Y-90750458D02*
X137871892Y-90750458D01*
X138017035Y-90750458D02*
X138017035Y-90242458D01*
X138017035Y-90242458D02*
X137968654Y-90315029D01*
X137968654Y-90315029D02*
X137920273Y-90363410D01*
X137920273Y-90363410D02*
X137871892Y-90387601D01*
D12*
X212754819Y-99452381D02*
X212278628Y-99785714D01*
X212754819Y-100023809D02*
X211754819Y-100023809D01*
X211754819Y-100023809D02*
X211754819Y-99642857D01*
X211754819Y-99642857D02*
X211802438Y-99547619D01*
X211802438Y-99547619D02*
X211850057Y-99500000D01*
X211850057Y-99500000D02*
X211945295Y-99452381D01*
X211945295Y-99452381D02*
X212088152Y-99452381D01*
X212088152Y-99452381D02*
X212183390Y-99500000D01*
X212183390Y-99500000D02*
X212231009Y-99547619D01*
X212231009Y-99547619D02*
X212278628Y-99642857D01*
X212278628Y-99642857D02*
X212278628Y-100023809D01*
X212088152Y-99023809D02*
X213088152Y-99023809D01*
X212135771Y-99023809D02*
X212088152Y-98928571D01*
X212088152Y-98928571D02*
X212088152Y-98738095D01*
X212088152Y-98738095D02*
X212135771Y-98642857D01*
X212135771Y-98642857D02*
X212183390Y-98595238D01*
X212183390Y-98595238D02*
X212278628Y-98547619D01*
X212278628Y-98547619D02*
X212564342Y-98547619D01*
X212564342Y-98547619D02*
X212659580Y-98595238D01*
X212659580Y-98595238D02*
X212707200Y-98642857D01*
X212707200Y-98642857D02*
X212754819Y-98738095D01*
X212754819Y-98738095D02*
X212754819Y-98928571D01*
X212754819Y-98928571D02*
X212707200Y-99023809D01*
X212754819Y-98119047D02*
X212088152Y-98119047D01*
X212278628Y-98119047D02*
X212183390Y-98071428D01*
X212183390Y-98071428D02*
X212135771Y-98023809D01*
X212135771Y-98023809D02*
X212088152Y-97928571D01*
X212088152Y-97928571D02*
X212088152Y-97833333D01*
X212707200Y-97119047D02*
X212754819Y-97214285D01*
X212754819Y-97214285D02*
X212754819Y-97404761D01*
X212754819Y-97404761D02*
X212707200Y-97499999D01*
X212707200Y-97499999D02*
X212611961Y-97547618D01*
X212611961Y-97547618D02*
X212231009Y-97547618D01*
X212231009Y-97547618D02*
X212135771Y-97499999D01*
X212135771Y-97499999D02*
X212088152Y-97404761D01*
X212088152Y-97404761D02*
X212088152Y-97214285D01*
X212088152Y-97214285D02*
X212135771Y-97119047D01*
X212135771Y-97119047D02*
X212231009Y-97071428D01*
X212231009Y-97071428D02*
X212326247Y-97071428D01*
X212326247Y-97071428D02*
X212421485Y-97547618D01*
X212754819Y-96499999D02*
X212707200Y-96595237D01*
X212707200Y-96595237D02*
X212611961Y-96642856D01*
X212611961Y-96642856D02*
X211754819Y-96642856D01*
X212754819Y-95976189D02*
X212707200Y-96071427D01*
X212707200Y-96071427D02*
X212659580Y-96119046D01*
X212659580Y-96119046D02*
X212564342Y-96166665D01*
X212564342Y-96166665D02*
X212278628Y-96166665D01*
X212278628Y-96166665D02*
X212183390Y-96119046D01*
X212183390Y-96119046D02*
X212135771Y-96071427D01*
X212135771Y-96071427D02*
X212088152Y-95976189D01*
X212088152Y-95976189D02*
X212088152Y-95833332D01*
X212088152Y-95833332D02*
X212135771Y-95738094D01*
X212135771Y-95738094D02*
X212183390Y-95690475D01*
X212183390Y-95690475D02*
X212278628Y-95642856D01*
X212278628Y-95642856D02*
X212564342Y-95642856D01*
X212564342Y-95642856D02*
X212659580Y-95690475D01*
X212659580Y-95690475D02*
X212707200Y-95738094D01*
X212707200Y-95738094D02*
X212754819Y-95833332D01*
X212754819Y-95833332D02*
X212754819Y-95976189D01*
X212754819Y-94785713D02*
X212231009Y-94785713D01*
X212231009Y-94785713D02*
X212135771Y-94833332D01*
X212135771Y-94833332D02*
X212088152Y-94928570D01*
X212088152Y-94928570D02*
X212088152Y-95119046D01*
X212088152Y-95119046D02*
X212135771Y-95214284D01*
X212707200Y-94785713D02*
X212754819Y-94880951D01*
X212754819Y-94880951D02*
X212754819Y-95119046D01*
X212754819Y-95119046D02*
X212707200Y-95214284D01*
X212707200Y-95214284D02*
X212611961Y-95261903D01*
X212611961Y-95261903D02*
X212516723Y-95261903D01*
X212516723Y-95261903D02*
X212421485Y-95214284D01*
X212421485Y-95214284D02*
X212373866Y-95119046D01*
X212373866Y-95119046D02*
X212373866Y-94880951D01*
X212373866Y-94880951D02*
X212326247Y-94785713D01*
X212754819Y-93880951D02*
X211754819Y-93880951D01*
X212707200Y-93880951D02*
X212754819Y-93976189D01*
X212754819Y-93976189D02*
X212754819Y-94166665D01*
X212754819Y-94166665D02*
X212707200Y-94261903D01*
X212707200Y-94261903D02*
X212659580Y-94309522D01*
X212659580Y-94309522D02*
X212564342Y-94357141D01*
X212564342Y-94357141D02*
X212278628Y-94357141D01*
X212278628Y-94357141D02*
X212183390Y-94309522D01*
X212183390Y-94309522D02*
X212135771Y-94261903D01*
X212135771Y-94261903D02*
X212088152Y-94166665D01*
X212088152Y-94166665D02*
X212088152Y-93976189D01*
X212088152Y-93976189D02*
X212135771Y-93880951D01*
X211850057Y-93452379D02*
X211802438Y-93404760D01*
X211802438Y-93404760D02*
X211754819Y-93309522D01*
X211754819Y-93309522D02*
X211754819Y-93071427D01*
X211754819Y-93071427D02*
X211802438Y-92976189D01*
X211802438Y-92976189D02*
X211850057Y-92928570D01*
X211850057Y-92928570D02*
X211945295Y-92880951D01*
X211945295Y-92880951D02*
X212040533Y-92880951D01*
X212040533Y-92880951D02*
X212183390Y-92928570D01*
X212183390Y-92928570D02*
X212754819Y-93499998D01*
X212754819Y-93499998D02*
X212754819Y-92880951D01*
X211754819Y-92261903D02*
X211754819Y-92166665D01*
X211754819Y-92166665D02*
X211802438Y-92071427D01*
X211802438Y-92071427D02*
X211850057Y-92023808D01*
X211850057Y-92023808D02*
X211945295Y-91976189D01*
X211945295Y-91976189D02*
X212135771Y-91928570D01*
X212135771Y-91928570D02*
X212373866Y-91928570D01*
X212373866Y-91928570D02*
X212564342Y-91976189D01*
X212564342Y-91976189D02*
X212659580Y-92023808D01*
X212659580Y-92023808D02*
X212707200Y-92071427D01*
X212707200Y-92071427D02*
X212754819Y-92166665D01*
X212754819Y-92166665D02*
X212754819Y-92261903D01*
X212754819Y-92261903D02*
X212707200Y-92357141D01*
X212707200Y-92357141D02*
X212659580Y-92404760D01*
X212659580Y-92404760D02*
X212564342Y-92452379D01*
X212564342Y-92452379D02*
X212373866Y-92499998D01*
X212373866Y-92499998D02*
X212135771Y-92499998D01*
X212135771Y-92499998D02*
X211945295Y-92452379D01*
X211945295Y-92452379D02*
X211850057Y-92404760D01*
X211850057Y-92404760D02*
X211802438Y-92357141D01*
X211802438Y-92357141D02*
X211754819Y-92261903D01*
D11*
X139189797Y-104702077D02*
X139165606Y-104726268D01*
X139165606Y-104726268D02*
X139093035Y-104750458D01*
X139093035Y-104750458D02*
X139044654Y-104750458D01*
X139044654Y-104750458D02*
X138972082Y-104726268D01*
X138972082Y-104726268D02*
X138923701Y-104677887D01*
X138923701Y-104677887D02*
X138899511Y-104629506D01*
X138899511Y-104629506D02*
X138875320Y-104532744D01*
X138875320Y-104532744D02*
X138875320Y-104460172D01*
X138875320Y-104460172D02*
X138899511Y-104363410D01*
X138899511Y-104363410D02*
X138923701Y-104315029D01*
X138923701Y-104315029D02*
X138972082Y-104266648D01*
X138972082Y-104266648D02*
X139044654Y-104242458D01*
X139044654Y-104242458D02*
X139093035Y-104242458D01*
X139093035Y-104242458D02*
X139165606Y-104266648D01*
X139165606Y-104266648D02*
X139189797Y-104290839D01*
X139407511Y-104750458D02*
X139407511Y-104411791D01*
X139407511Y-104242458D02*
X139383320Y-104266648D01*
X139383320Y-104266648D02*
X139407511Y-104290839D01*
X139407511Y-104290839D02*
X139431701Y-104266648D01*
X139431701Y-104266648D02*
X139407511Y-104242458D01*
X139407511Y-104242458D02*
X139407511Y-104290839D01*
X139649416Y-104411791D02*
X139649416Y-104750458D01*
X139649416Y-104460172D02*
X139673606Y-104435982D01*
X139673606Y-104435982D02*
X139721987Y-104411791D01*
X139721987Y-104411791D02*
X139794559Y-104411791D01*
X139794559Y-104411791D02*
X139842940Y-104435982D01*
X139842940Y-104435982D02*
X139867130Y-104484363D01*
X139867130Y-104484363D02*
X139867130Y-104750458D01*
X139988083Y-104798839D02*
X140375130Y-104798839D01*
X140447702Y-104242458D02*
X140762178Y-104242458D01*
X140762178Y-104242458D02*
X140592845Y-104435982D01*
X140592845Y-104435982D02*
X140665416Y-104435982D01*
X140665416Y-104435982D02*
X140713797Y-104460172D01*
X140713797Y-104460172D02*
X140737988Y-104484363D01*
X140737988Y-104484363D02*
X140762178Y-104532744D01*
X140762178Y-104532744D02*
X140762178Y-104653696D01*
X140762178Y-104653696D02*
X140737988Y-104702077D01*
X140737988Y-104702077D02*
X140713797Y-104726268D01*
X140713797Y-104726268D02*
X140665416Y-104750458D01*
X140665416Y-104750458D02*
X140520273Y-104750458D01*
X140520273Y-104750458D02*
X140471892Y-104726268D01*
X140471892Y-104726268D02*
X140447702Y-104702077D01*
X192383327Y-109724857D02*
X192407518Y-109749048D01*
X192407518Y-109749048D02*
X192431708Y-109821619D01*
X192431708Y-109821619D02*
X192431708Y-109870000D01*
X192431708Y-109870000D02*
X192407518Y-109942572D01*
X192407518Y-109942572D02*
X192359137Y-109990953D01*
X192359137Y-109990953D02*
X192310756Y-110015143D01*
X192310756Y-110015143D02*
X192213994Y-110039334D01*
X192213994Y-110039334D02*
X192141422Y-110039334D01*
X192141422Y-110039334D02*
X192044660Y-110015143D01*
X192044660Y-110015143D02*
X191996279Y-109990953D01*
X191996279Y-109990953D02*
X191947898Y-109942572D01*
X191947898Y-109942572D02*
X191923708Y-109870000D01*
X191923708Y-109870000D02*
X191923708Y-109821619D01*
X191923708Y-109821619D02*
X191947898Y-109749048D01*
X191947898Y-109749048D02*
X191972089Y-109724857D01*
X192431708Y-109434572D02*
X192407518Y-109482953D01*
X192407518Y-109482953D02*
X192383327Y-109507143D01*
X192383327Y-109507143D02*
X192334946Y-109531334D01*
X192334946Y-109531334D02*
X192189803Y-109531334D01*
X192189803Y-109531334D02*
X192141422Y-109507143D01*
X192141422Y-109507143D02*
X192117232Y-109482953D01*
X192117232Y-109482953D02*
X192093041Y-109434572D01*
X192093041Y-109434572D02*
X192093041Y-109362000D01*
X192093041Y-109362000D02*
X192117232Y-109313619D01*
X192117232Y-109313619D02*
X192141422Y-109289429D01*
X192141422Y-109289429D02*
X192189803Y-109265238D01*
X192189803Y-109265238D02*
X192334946Y-109265238D01*
X192334946Y-109265238D02*
X192383327Y-109289429D01*
X192383327Y-109289429D02*
X192407518Y-109313619D01*
X192407518Y-109313619D02*
X192431708Y-109362000D01*
X192431708Y-109362000D02*
X192431708Y-109434572D01*
X192093041Y-108829810D02*
X192431708Y-108829810D01*
X192093041Y-109047524D02*
X192359137Y-109047524D01*
X192359137Y-109047524D02*
X192407518Y-109023334D01*
X192407518Y-109023334D02*
X192431708Y-108974953D01*
X192431708Y-108974953D02*
X192431708Y-108902381D01*
X192431708Y-108902381D02*
X192407518Y-108854000D01*
X192407518Y-108854000D02*
X192383327Y-108829810D01*
X192093041Y-108660477D02*
X192093041Y-108466953D01*
X191923708Y-108587905D02*
X192359137Y-108587905D01*
X192359137Y-108587905D02*
X192407518Y-108563715D01*
X192407518Y-108563715D02*
X192431708Y-108515334D01*
X192431708Y-108515334D02*
X192431708Y-108466953D01*
X192480089Y-108418572D02*
X192480089Y-108031524D01*
X192431708Y-107644476D02*
X192431708Y-107934762D01*
X192431708Y-107789619D02*
X191923708Y-107789619D01*
X191923708Y-107789619D02*
X191996279Y-107838000D01*
X191996279Y-107838000D02*
X192044660Y-107886381D01*
X192044660Y-107886381D02*
X192068851Y-107934762D01*
X191923708Y-107329999D02*
X191923708Y-107281618D01*
X191923708Y-107281618D02*
X191947898Y-107233237D01*
X191947898Y-107233237D02*
X191972089Y-107209047D01*
X191972089Y-107209047D02*
X192020470Y-107184856D01*
X192020470Y-107184856D02*
X192117232Y-107160666D01*
X192117232Y-107160666D02*
X192238184Y-107160666D01*
X192238184Y-107160666D02*
X192334946Y-107184856D01*
X192334946Y-107184856D02*
X192383327Y-107209047D01*
X192383327Y-107209047D02*
X192407518Y-107233237D01*
X192407518Y-107233237D02*
X192431708Y-107281618D01*
X192431708Y-107281618D02*
X192431708Y-107329999D01*
X192431708Y-107329999D02*
X192407518Y-107378380D01*
X192407518Y-107378380D02*
X192383327Y-107402571D01*
X192383327Y-107402571D02*
X192334946Y-107426761D01*
X192334946Y-107426761D02*
X192238184Y-107450952D01*
X192238184Y-107450952D02*
X192117232Y-107450952D01*
X192117232Y-107450952D02*
X192020470Y-107426761D01*
X192020470Y-107426761D02*
X191972089Y-107402571D01*
X191972089Y-107402571D02*
X191947898Y-107378380D01*
X191947898Y-107378380D02*
X191923708Y-107329999D01*
X194783327Y-109282952D02*
X194807518Y-109307143D01*
X194807518Y-109307143D02*
X194831708Y-109379714D01*
X194831708Y-109379714D02*
X194831708Y-109428095D01*
X194831708Y-109428095D02*
X194807518Y-109500667D01*
X194807518Y-109500667D02*
X194759137Y-109549048D01*
X194759137Y-109549048D02*
X194710756Y-109573238D01*
X194710756Y-109573238D02*
X194613994Y-109597429D01*
X194613994Y-109597429D02*
X194541422Y-109597429D01*
X194541422Y-109597429D02*
X194444660Y-109573238D01*
X194444660Y-109573238D02*
X194396279Y-109549048D01*
X194396279Y-109549048D02*
X194347898Y-109500667D01*
X194347898Y-109500667D02*
X194323708Y-109428095D01*
X194323708Y-109428095D02*
X194323708Y-109379714D01*
X194323708Y-109379714D02*
X194347898Y-109307143D01*
X194347898Y-109307143D02*
X194372089Y-109282952D01*
X194831708Y-108992667D02*
X194807518Y-109041048D01*
X194807518Y-109041048D02*
X194783327Y-109065238D01*
X194783327Y-109065238D02*
X194734946Y-109089429D01*
X194734946Y-109089429D02*
X194589803Y-109089429D01*
X194589803Y-109089429D02*
X194541422Y-109065238D01*
X194541422Y-109065238D02*
X194517232Y-109041048D01*
X194517232Y-109041048D02*
X194493041Y-108992667D01*
X194493041Y-108992667D02*
X194493041Y-108920095D01*
X194493041Y-108920095D02*
X194517232Y-108871714D01*
X194517232Y-108871714D02*
X194541422Y-108847524D01*
X194541422Y-108847524D02*
X194589803Y-108823333D01*
X194589803Y-108823333D02*
X194734946Y-108823333D01*
X194734946Y-108823333D02*
X194783327Y-108847524D01*
X194783327Y-108847524D02*
X194807518Y-108871714D01*
X194807518Y-108871714D02*
X194831708Y-108920095D01*
X194831708Y-108920095D02*
X194831708Y-108992667D01*
X194493041Y-108387905D02*
X194831708Y-108387905D01*
X194493041Y-108605619D02*
X194759137Y-108605619D01*
X194759137Y-108605619D02*
X194807518Y-108581429D01*
X194807518Y-108581429D02*
X194831708Y-108533048D01*
X194831708Y-108533048D02*
X194831708Y-108460476D01*
X194831708Y-108460476D02*
X194807518Y-108412095D01*
X194807518Y-108412095D02*
X194783327Y-108387905D01*
X194493041Y-108218572D02*
X194493041Y-108025048D01*
X194323708Y-108146000D02*
X194759137Y-108146000D01*
X194759137Y-108146000D02*
X194807518Y-108121810D01*
X194807518Y-108121810D02*
X194831708Y-108073429D01*
X194831708Y-108073429D02*
X194831708Y-108025048D01*
X194880089Y-107976667D02*
X194880089Y-107589619D01*
X194372089Y-107492857D02*
X194347898Y-107468666D01*
X194347898Y-107468666D02*
X194323708Y-107420285D01*
X194323708Y-107420285D02*
X194323708Y-107299333D01*
X194323708Y-107299333D02*
X194347898Y-107250952D01*
X194347898Y-107250952D02*
X194372089Y-107226761D01*
X194372089Y-107226761D02*
X194420470Y-107202571D01*
X194420470Y-107202571D02*
X194468851Y-107202571D01*
X194468851Y-107202571D02*
X194541422Y-107226761D01*
X194541422Y-107226761D02*
X194831708Y-107517047D01*
X194831708Y-107517047D02*
X194831708Y-107202571D01*
X168406708Y-97519666D02*
X168164803Y-97689000D01*
X168406708Y-97809952D02*
X167898708Y-97809952D01*
X167898708Y-97809952D02*
X167898708Y-97616428D01*
X167898708Y-97616428D02*
X167922898Y-97568047D01*
X167922898Y-97568047D02*
X167947089Y-97543857D01*
X167947089Y-97543857D02*
X167995470Y-97519666D01*
X167995470Y-97519666D02*
X168068041Y-97519666D01*
X168068041Y-97519666D02*
X168116422Y-97543857D01*
X168116422Y-97543857D02*
X168140613Y-97568047D01*
X168140613Y-97568047D02*
X168164803Y-97616428D01*
X168164803Y-97616428D02*
X168164803Y-97809952D01*
X168116422Y-97229381D02*
X168092232Y-97277762D01*
X168092232Y-97277762D02*
X168068041Y-97301952D01*
X168068041Y-97301952D02*
X168019660Y-97326143D01*
X168019660Y-97326143D02*
X167995470Y-97326143D01*
X167995470Y-97326143D02*
X167947089Y-97301952D01*
X167947089Y-97301952D02*
X167922898Y-97277762D01*
X167922898Y-97277762D02*
X167898708Y-97229381D01*
X167898708Y-97229381D02*
X167898708Y-97132619D01*
X167898708Y-97132619D02*
X167922898Y-97084238D01*
X167922898Y-97084238D02*
X167947089Y-97060047D01*
X167947089Y-97060047D02*
X167995470Y-97035857D01*
X167995470Y-97035857D02*
X168019660Y-97035857D01*
X168019660Y-97035857D02*
X168068041Y-97060047D01*
X168068041Y-97060047D02*
X168092232Y-97084238D01*
X168092232Y-97084238D02*
X168116422Y-97132619D01*
X168116422Y-97132619D02*
X168116422Y-97229381D01*
X168116422Y-97229381D02*
X168140613Y-97277762D01*
X168140613Y-97277762D02*
X168164803Y-97301952D01*
X168164803Y-97301952D02*
X168213184Y-97326143D01*
X168213184Y-97326143D02*
X168309946Y-97326143D01*
X168309946Y-97326143D02*
X168358327Y-97301952D01*
X168358327Y-97301952D02*
X168382518Y-97277762D01*
X168382518Y-97277762D02*
X168406708Y-97229381D01*
X168406708Y-97229381D02*
X168406708Y-97132619D01*
X168406708Y-97132619D02*
X168382518Y-97084238D01*
X168382518Y-97084238D02*
X168358327Y-97060047D01*
X168358327Y-97060047D02*
X168309946Y-97035857D01*
X168309946Y-97035857D02*
X168213184Y-97035857D01*
X168213184Y-97035857D02*
X168164803Y-97060047D01*
X168164803Y-97060047D02*
X168140613Y-97084238D01*
X168140613Y-97084238D02*
X168116422Y-97132619D01*
X187383327Y-94082952D02*
X187407518Y-94107143D01*
X187407518Y-94107143D02*
X187431708Y-94179714D01*
X187431708Y-94179714D02*
X187431708Y-94228095D01*
X187431708Y-94228095D02*
X187407518Y-94300667D01*
X187407518Y-94300667D02*
X187359137Y-94349048D01*
X187359137Y-94349048D02*
X187310756Y-94373238D01*
X187310756Y-94373238D02*
X187213994Y-94397429D01*
X187213994Y-94397429D02*
X187141422Y-94397429D01*
X187141422Y-94397429D02*
X187044660Y-94373238D01*
X187044660Y-94373238D02*
X186996279Y-94349048D01*
X186996279Y-94349048D02*
X186947898Y-94300667D01*
X186947898Y-94300667D02*
X186923708Y-94228095D01*
X186923708Y-94228095D02*
X186923708Y-94179714D01*
X186923708Y-94179714D02*
X186947898Y-94107143D01*
X186947898Y-94107143D02*
X186972089Y-94082952D01*
X187431708Y-93792667D02*
X187407518Y-93841048D01*
X187407518Y-93841048D02*
X187383327Y-93865238D01*
X187383327Y-93865238D02*
X187334946Y-93889429D01*
X187334946Y-93889429D02*
X187189803Y-93889429D01*
X187189803Y-93889429D02*
X187141422Y-93865238D01*
X187141422Y-93865238D02*
X187117232Y-93841048D01*
X187117232Y-93841048D02*
X187093041Y-93792667D01*
X187093041Y-93792667D02*
X187093041Y-93720095D01*
X187093041Y-93720095D02*
X187117232Y-93671714D01*
X187117232Y-93671714D02*
X187141422Y-93647524D01*
X187141422Y-93647524D02*
X187189803Y-93623333D01*
X187189803Y-93623333D02*
X187334946Y-93623333D01*
X187334946Y-93623333D02*
X187383327Y-93647524D01*
X187383327Y-93647524D02*
X187407518Y-93671714D01*
X187407518Y-93671714D02*
X187431708Y-93720095D01*
X187431708Y-93720095D02*
X187431708Y-93792667D01*
X187093041Y-93187905D02*
X187431708Y-93187905D01*
X187093041Y-93405619D02*
X187359137Y-93405619D01*
X187359137Y-93405619D02*
X187407518Y-93381429D01*
X187407518Y-93381429D02*
X187431708Y-93333048D01*
X187431708Y-93333048D02*
X187431708Y-93260476D01*
X187431708Y-93260476D02*
X187407518Y-93212095D01*
X187407518Y-93212095D02*
X187383327Y-93187905D01*
X187093041Y-93018572D02*
X187093041Y-92825048D01*
X186923708Y-92946000D02*
X187359137Y-92946000D01*
X187359137Y-92946000D02*
X187407518Y-92921810D01*
X187407518Y-92921810D02*
X187431708Y-92873429D01*
X187431708Y-92873429D02*
X187431708Y-92825048D01*
X187480089Y-92776667D02*
X187480089Y-92389619D01*
X186923708Y-92317047D02*
X186923708Y-91978380D01*
X186923708Y-91978380D02*
X187431708Y-92196095D01*
X221748852Y-98238184D02*
X222135900Y-98238184D01*
X221942376Y-98431708D02*
X221942376Y-98044660D01*
X222619709Y-97923708D02*
X222377804Y-97923708D01*
X222377804Y-97923708D02*
X222353613Y-98165613D01*
X222353613Y-98165613D02*
X222377804Y-98141422D01*
X222377804Y-98141422D02*
X222426185Y-98117232D01*
X222426185Y-98117232D02*
X222547137Y-98117232D01*
X222547137Y-98117232D02*
X222595518Y-98141422D01*
X222595518Y-98141422D02*
X222619709Y-98165613D01*
X222619709Y-98165613D02*
X222643899Y-98213994D01*
X222643899Y-98213994D02*
X222643899Y-98334946D01*
X222643899Y-98334946D02*
X222619709Y-98383327D01*
X222619709Y-98383327D02*
X222595518Y-98407518D01*
X222595518Y-98407518D02*
X222547137Y-98431708D01*
X222547137Y-98431708D02*
X222426185Y-98431708D01*
X222426185Y-98431708D02*
X222377804Y-98407518D01*
X222377804Y-98407518D02*
X222353613Y-98383327D01*
X222789042Y-97923708D02*
X222958376Y-98431708D01*
X222958376Y-98431708D02*
X223127709Y-97923708D01*
X223563138Y-98431708D02*
X223272852Y-98431708D01*
X223417995Y-98431708D02*
X223417995Y-97923708D01*
X223417995Y-97923708D02*
X223369614Y-97996279D01*
X223369614Y-97996279D02*
X223321233Y-98044660D01*
X223321233Y-98044660D02*
X223272852Y-98068851D01*
X109355051Y-107875508D02*
X109645337Y-107875508D01*
X109500194Y-108383508D02*
X109500194Y-107875508D01*
X109814671Y-108383508D02*
X109814671Y-107875508D01*
X109814671Y-107875508D02*
X110008195Y-107875508D01*
X110008195Y-107875508D02*
X110056576Y-107899698D01*
X110056576Y-107899698D02*
X110080766Y-107923889D01*
X110080766Y-107923889D02*
X110104957Y-107972270D01*
X110104957Y-107972270D02*
X110104957Y-108044841D01*
X110104957Y-108044841D02*
X110080766Y-108093222D01*
X110080766Y-108093222D02*
X110056576Y-108117413D01*
X110056576Y-108117413D02*
X110008195Y-108141603D01*
X110008195Y-108141603D02*
X109814671Y-108141603D01*
X110588766Y-108383508D02*
X110298480Y-108383508D01*
X110443623Y-108383508D02*
X110443623Y-107875508D01*
X110443623Y-107875508D02*
X110395242Y-107948079D01*
X110395242Y-107948079D02*
X110346861Y-107996460D01*
X110346861Y-107996460D02*
X110298480Y-108020651D01*
D12*
X208554819Y-99752381D02*
X208078628Y-100085714D01*
X208554819Y-100323809D02*
X207554819Y-100323809D01*
X207554819Y-100323809D02*
X207554819Y-99942857D01*
X207554819Y-99942857D02*
X207602438Y-99847619D01*
X207602438Y-99847619D02*
X207650057Y-99800000D01*
X207650057Y-99800000D02*
X207745295Y-99752381D01*
X207745295Y-99752381D02*
X207888152Y-99752381D01*
X207888152Y-99752381D02*
X207983390Y-99800000D01*
X207983390Y-99800000D02*
X208031009Y-99847619D01*
X208031009Y-99847619D02*
X208078628Y-99942857D01*
X208078628Y-99942857D02*
X208078628Y-100323809D01*
X207888152Y-99323809D02*
X208888152Y-99323809D01*
X207935771Y-99323809D02*
X207888152Y-99228571D01*
X207888152Y-99228571D02*
X207888152Y-99038095D01*
X207888152Y-99038095D02*
X207935771Y-98942857D01*
X207935771Y-98942857D02*
X207983390Y-98895238D01*
X207983390Y-98895238D02*
X208078628Y-98847619D01*
X208078628Y-98847619D02*
X208364342Y-98847619D01*
X208364342Y-98847619D02*
X208459580Y-98895238D01*
X208459580Y-98895238D02*
X208507200Y-98942857D01*
X208507200Y-98942857D02*
X208554819Y-99038095D01*
X208554819Y-99038095D02*
X208554819Y-99228571D01*
X208554819Y-99228571D02*
X208507200Y-99323809D01*
X208554819Y-98419047D02*
X207888152Y-98419047D01*
X208078628Y-98419047D02*
X207983390Y-98371428D01*
X207983390Y-98371428D02*
X207935771Y-98323809D01*
X207935771Y-98323809D02*
X207888152Y-98228571D01*
X207888152Y-98228571D02*
X207888152Y-98133333D01*
X208507200Y-97419047D02*
X208554819Y-97514285D01*
X208554819Y-97514285D02*
X208554819Y-97704761D01*
X208554819Y-97704761D02*
X208507200Y-97799999D01*
X208507200Y-97799999D02*
X208411961Y-97847618D01*
X208411961Y-97847618D02*
X208031009Y-97847618D01*
X208031009Y-97847618D02*
X207935771Y-97799999D01*
X207935771Y-97799999D02*
X207888152Y-97704761D01*
X207888152Y-97704761D02*
X207888152Y-97514285D01*
X207888152Y-97514285D02*
X207935771Y-97419047D01*
X207935771Y-97419047D02*
X208031009Y-97371428D01*
X208031009Y-97371428D02*
X208126247Y-97371428D01*
X208126247Y-97371428D02*
X208221485Y-97847618D01*
X208554819Y-96799999D02*
X208507200Y-96895237D01*
X208507200Y-96895237D02*
X208411961Y-96942856D01*
X208411961Y-96942856D02*
X207554819Y-96942856D01*
X208554819Y-96276189D02*
X208507200Y-96371427D01*
X208507200Y-96371427D02*
X208459580Y-96419046D01*
X208459580Y-96419046D02*
X208364342Y-96466665D01*
X208364342Y-96466665D02*
X208078628Y-96466665D01*
X208078628Y-96466665D02*
X207983390Y-96419046D01*
X207983390Y-96419046D02*
X207935771Y-96371427D01*
X207935771Y-96371427D02*
X207888152Y-96276189D01*
X207888152Y-96276189D02*
X207888152Y-96133332D01*
X207888152Y-96133332D02*
X207935771Y-96038094D01*
X207935771Y-96038094D02*
X207983390Y-95990475D01*
X207983390Y-95990475D02*
X208078628Y-95942856D01*
X208078628Y-95942856D02*
X208364342Y-95942856D01*
X208364342Y-95942856D02*
X208459580Y-95990475D01*
X208459580Y-95990475D02*
X208507200Y-96038094D01*
X208507200Y-96038094D02*
X208554819Y-96133332D01*
X208554819Y-96133332D02*
X208554819Y-96276189D01*
X208554819Y-95085713D02*
X208031009Y-95085713D01*
X208031009Y-95085713D02*
X207935771Y-95133332D01*
X207935771Y-95133332D02*
X207888152Y-95228570D01*
X207888152Y-95228570D02*
X207888152Y-95419046D01*
X207888152Y-95419046D02*
X207935771Y-95514284D01*
X208507200Y-95085713D02*
X208554819Y-95180951D01*
X208554819Y-95180951D02*
X208554819Y-95419046D01*
X208554819Y-95419046D02*
X208507200Y-95514284D01*
X208507200Y-95514284D02*
X208411961Y-95561903D01*
X208411961Y-95561903D02*
X208316723Y-95561903D01*
X208316723Y-95561903D02*
X208221485Y-95514284D01*
X208221485Y-95514284D02*
X208173866Y-95419046D01*
X208173866Y-95419046D02*
X208173866Y-95180951D01*
X208173866Y-95180951D02*
X208126247Y-95085713D01*
X208554819Y-94180951D02*
X207554819Y-94180951D01*
X208507200Y-94180951D02*
X208554819Y-94276189D01*
X208554819Y-94276189D02*
X208554819Y-94466665D01*
X208554819Y-94466665D02*
X208507200Y-94561903D01*
X208507200Y-94561903D02*
X208459580Y-94609522D01*
X208459580Y-94609522D02*
X208364342Y-94657141D01*
X208364342Y-94657141D02*
X208078628Y-94657141D01*
X208078628Y-94657141D02*
X207983390Y-94609522D01*
X207983390Y-94609522D02*
X207935771Y-94561903D01*
X207935771Y-94561903D02*
X207888152Y-94466665D01*
X207888152Y-94466665D02*
X207888152Y-94276189D01*
X207888152Y-94276189D02*
X207935771Y-94180951D01*
X208554819Y-93180951D02*
X208554819Y-93752379D01*
X208554819Y-93466665D02*
X207554819Y-93466665D01*
X207554819Y-93466665D02*
X207697676Y-93561903D01*
X207697676Y-93561903D02*
X207792914Y-93657141D01*
X207792914Y-93657141D02*
X207840533Y-93752379D01*
X207554819Y-92276189D02*
X207554819Y-92752379D01*
X207554819Y-92752379D02*
X208031009Y-92799998D01*
X208031009Y-92799998D02*
X207983390Y-92752379D01*
X207983390Y-92752379D02*
X207935771Y-92657141D01*
X207935771Y-92657141D02*
X207935771Y-92419046D01*
X207935771Y-92419046D02*
X207983390Y-92323808D01*
X207983390Y-92323808D02*
X208031009Y-92276189D01*
X208031009Y-92276189D02*
X208126247Y-92228570D01*
X208126247Y-92228570D02*
X208364342Y-92228570D01*
X208364342Y-92228570D02*
X208459580Y-92276189D01*
X208459580Y-92276189D02*
X208507200Y-92323808D01*
X208507200Y-92323808D02*
X208554819Y-92419046D01*
X208554819Y-92419046D02*
X208554819Y-92657141D01*
X208554819Y-92657141D02*
X208507200Y-92752379D01*
X208507200Y-92752379D02*
X208459580Y-92799998D01*
D11*
X111446566Y-98438184D02*
X111833614Y-98438184D01*
X111640090Y-98631708D02*
X111640090Y-98244660D01*
X112341613Y-98631708D02*
X112051327Y-98631708D01*
X112196470Y-98631708D02*
X112196470Y-98123708D01*
X112196470Y-98123708D02*
X112148089Y-98196279D01*
X112148089Y-98196279D02*
X112099708Y-98244660D01*
X112099708Y-98244660D02*
X112051327Y-98268851D01*
X112535137Y-98172089D02*
X112559328Y-98147898D01*
X112559328Y-98147898D02*
X112607709Y-98123708D01*
X112607709Y-98123708D02*
X112728661Y-98123708D01*
X112728661Y-98123708D02*
X112777042Y-98147898D01*
X112777042Y-98147898D02*
X112801233Y-98172089D01*
X112801233Y-98172089D02*
X112825423Y-98220470D01*
X112825423Y-98220470D02*
X112825423Y-98268851D01*
X112825423Y-98268851D02*
X112801233Y-98341422D01*
X112801233Y-98341422D02*
X112510947Y-98631708D01*
X112510947Y-98631708D02*
X112825423Y-98631708D01*
D12*
X197554819Y-99576191D02*
X197078628Y-99909524D01*
X197554819Y-100147619D02*
X196554819Y-100147619D01*
X196554819Y-100147619D02*
X196554819Y-99766667D01*
X196554819Y-99766667D02*
X196602438Y-99671429D01*
X196602438Y-99671429D02*
X196650057Y-99623810D01*
X196650057Y-99623810D02*
X196745295Y-99576191D01*
X196745295Y-99576191D02*
X196888152Y-99576191D01*
X196888152Y-99576191D02*
X196983390Y-99623810D01*
X196983390Y-99623810D02*
X197031009Y-99671429D01*
X197031009Y-99671429D02*
X197078628Y-99766667D01*
X197078628Y-99766667D02*
X197078628Y-100147619D01*
X196888152Y-99147619D02*
X197888152Y-99147619D01*
X196935771Y-99147619D02*
X196888152Y-99052381D01*
X196888152Y-99052381D02*
X196888152Y-98861905D01*
X196888152Y-98861905D02*
X196935771Y-98766667D01*
X196935771Y-98766667D02*
X196983390Y-98719048D01*
X196983390Y-98719048D02*
X197078628Y-98671429D01*
X197078628Y-98671429D02*
X197364342Y-98671429D01*
X197364342Y-98671429D02*
X197459580Y-98719048D01*
X197459580Y-98719048D02*
X197507200Y-98766667D01*
X197507200Y-98766667D02*
X197554819Y-98861905D01*
X197554819Y-98861905D02*
X197554819Y-99052381D01*
X197554819Y-99052381D02*
X197507200Y-99147619D01*
X197554819Y-98242857D02*
X196888152Y-98242857D01*
X197078628Y-98242857D02*
X196983390Y-98195238D01*
X196983390Y-98195238D02*
X196935771Y-98147619D01*
X196935771Y-98147619D02*
X196888152Y-98052381D01*
X196888152Y-98052381D02*
X196888152Y-97957143D01*
X197507200Y-97242857D02*
X197554819Y-97338095D01*
X197554819Y-97338095D02*
X197554819Y-97528571D01*
X197554819Y-97528571D02*
X197507200Y-97623809D01*
X197507200Y-97623809D02*
X197411961Y-97671428D01*
X197411961Y-97671428D02*
X197031009Y-97671428D01*
X197031009Y-97671428D02*
X196935771Y-97623809D01*
X196935771Y-97623809D02*
X196888152Y-97528571D01*
X196888152Y-97528571D02*
X196888152Y-97338095D01*
X196888152Y-97338095D02*
X196935771Y-97242857D01*
X196935771Y-97242857D02*
X197031009Y-97195238D01*
X197031009Y-97195238D02*
X197126247Y-97195238D01*
X197126247Y-97195238D02*
X197221485Y-97671428D01*
X197554819Y-96623809D02*
X197507200Y-96719047D01*
X197507200Y-96719047D02*
X197411961Y-96766666D01*
X197411961Y-96766666D02*
X196554819Y-96766666D01*
X197554819Y-96099999D02*
X197507200Y-96195237D01*
X197507200Y-96195237D02*
X197459580Y-96242856D01*
X197459580Y-96242856D02*
X197364342Y-96290475D01*
X197364342Y-96290475D02*
X197078628Y-96290475D01*
X197078628Y-96290475D02*
X196983390Y-96242856D01*
X196983390Y-96242856D02*
X196935771Y-96195237D01*
X196935771Y-96195237D02*
X196888152Y-96099999D01*
X196888152Y-96099999D02*
X196888152Y-95957142D01*
X196888152Y-95957142D02*
X196935771Y-95861904D01*
X196935771Y-95861904D02*
X196983390Y-95814285D01*
X196983390Y-95814285D02*
X197078628Y-95766666D01*
X197078628Y-95766666D02*
X197364342Y-95766666D01*
X197364342Y-95766666D02*
X197459580Y-95814285D01*
X197459580Y-95814285D02*
X197507200Y-95861904D01*
X197507200Y-95861904D02*
X197554819Y-95957142D01*
X197554819Y-95957142D02*
X197554819Y-96099999D01*
X197554819Y-94909523D02*
X197031009Y-94909523D01*
X197031009Y-94909523D02*
X196935771Y-94957142D01*
X196935771Y-94957142D02*
X196888152Y-95052380D01*
X196888152Y-95052380D02*
X196888152Y-95242856D01*
X196888152Y-95242856D02*
X196935771Y-95338094D01*
X197507200Y-94909523D02*
X197554819Y-95004761D01*
X197554819Y-95004761D02*
X197554819Y-95242856D01*
X197554819Y-95242856D02*
X197507200Y-95338094D01*
X197507200Y-95338094D02*
X197411961Y-95385713D01*
X197411961Y-95385713D02*
X197316723Y-95385713D01*
X197316723Y-95385713D02*
X197221485Y-95338094D01*
X197221485Y-95338094D02*
X197173866Y-95242856D01*
X197173866Y-95242856D02*
X197173866Y-95004761D01*
X197173866Y-95004761D02*
X197126247Y-94909523D01*
X197554819Y-94004761D02*
X196554819Y-94004761D01*
X197507200Y-94004761D02*
X197554819Y-94099999D01*
X197554819Y-94099999D02*
X197554819Y-94290475D01*
X197554819Y-94290475D02*
X197507200Y-94385713D01*
X197507200Y-94385713D02*
X197459580Y-94433332D01*
X197459580Y-94433332D02*
X197364342Y-94480951D01*
X197364342Y-94480951D02*
X197078628Y-94480951D01*
X197078628Y-94480951D02*
X196983390Y-94433332D01*
X196983390Y-94433332D02*
X196935771Y-94385713D01*
X196935771Y-94385713D02*
X196888152Y-94290475D01*
X196888152Y-94290475D02*
X196888152Y-94099999D01*
X196888152Y-94099999D02*
X196935771Y-94004761D01*
X197554819Y-93004761D02*
X197554819Y-93576189D01*
X197554819Y-93290475D02*
X196554819Y-93290475D01*
X196554819Y-93290475D02*
X196697676Y-93385713D01*
X196697676Y-93385713D02*
X196792914Y-93480951D01*
X196792914Y-93480951D02*
X196840533Y-93576189D01*
D11*
X182583327Y-94082952D02*
X182607518Y-94107143D01*
X182607518Y-94107143D02*
X182631708Y-94179714D01*
X182631708Y-94179714D02*
X182631708Y-94228095D01*
X182631708Y-94228095D02*
X182607518Y-94300667D01*
X182607518Y-94300667D02*
X182559137Y-94349048D01*
X182559137Y-94349048D02*
X182510756Y-94373238D01*
X182510756Y-94373238D02*
X182413994Y-94397429D01*
X182413994Y-94397429D02*
X182341422Y-94397429D01*
X182341422Y-94397429D02*
X182244660Y-94373238D01*
X182244660Y-94373238D02*
X182196279Y-94349048D01*
X182196279Y-94349048D02*
X182147898Y-94300667D01*
X182147898Y-94300667D02*
X182123708Y-94228095D01*
X182123708Y-94228095D02*
X182123708Y-94179714D01*
X182123708Y-94179714D02*
X182147898Y-94107143D01*
X182147898Y-94107143D02*
X182172089Y-94082952D01*
X182631708Y-93792667D02*
X182607518Y-93841048D01*
X182607518Y-93841048D02*
X182583327Y-93865238D01*
X182583327Y-93865238D02*
X182534946Y-93889429D01*
X182534946Y-93889429D02*
X182389803Y-93889429D01*
X182389803Y-93889429D02*
X182341422Y-93865238D01*
X182341422Y-93865238D02*
X182317232Y-93841048D01*
X182317232Y-93841048D02*
X182293041Y-93792667D01*
X182293041Y-93792667D02*
X182293041Y-93720095D01*
X182293041Y-93720095D02*
X182317232Y-93671714D01*
X182317232Y-93671714D02*
X182341422Y-93647524D01*
X182341422Y-93647524D02*
X182389803Y-93623333D01*
X182389803Y-93623333D02*
X182534946Y-93623333D01*
X182534946Y-93623333D02*
X182583327Y-93647524D01*
X182583327Y-93647524D02*
X182607518Y-93671714D01*
X182607518Y-93671714D02*
X182631708Y-93720095D01*
X182631708Y-93720095D02*
X182631708Y-93792667D01*
X182293041Y-93187905D02*
X182631708Y-93187905D01*
X182293041Y-93405619D02*
X182559137Y-93405619D01*
X182559137Y-93405619D02*
X182607518Y-93381429D01*
X182607518Y-93381429D02*
X182631708Y-93333048D01*
X182631708Y-93333048D02*
X182631708Y-93260476D01*
X182631708Y-93260476D02*
X182607518Y-93212095D01*
X182607518Y-93212095D02*
X182583327Y-93187905D01*
X182293041Y-93018572D02*
X182293041Y-92825048D01*
X182123708Y-92946000D02*
X182559137Y-92946000D01*
X182559137Y-92946000D02*
X182607518Y-92921810D01*
X182607518Y-92921810D02*
X182631708Y-92873429D01*
X182631708Y-92873429D02*
X182631708Y-92825048D01*
X182680089Y-92776667D02*
X182680089Y-92389619D01*
X182631708Y-92002571D02*
X182631708Y-92292857D01*
X182631708Y-92147714D02*
X182123708Y-92147714D01*
X182123708Y-92147714D02*
X182196279Y-92196095D01*
X182196279Y-92196095D02*
X182244660Y-92244476D01*
X182244660Y-92244476D02*
X182268851Y-92292857D01*
X139189797Y-90702077D02*
X139165606Y-90726268D01*
X139165606Y-90726268D02*
X139093035Y-90750458D01*
X139093035Y-90750458D02*
X139044654Y-90750458D01*
X139044654Y-90750458D02*
X138972082Y-90726268D01*
X138972082Y-90726268D02*
X138923701Y-90677887D01*
X138923701Y-90677887D02*
X138899511Y-90629506D01*
X138899511Y-90629506D02*
X138875320Y-90532744D01*
X138875320Y-90532744D02*
X138875320Y-90460172D01*
X138875320Y-90460172D02*
X138899511Y-90363410D01*
X138899511Y-90363410D02*
X138923701Y-90315029D01*
X138923701Y-90315029D02*
X138972082Y-90266648D01*
X138972082Y-90266648D02*
X139044654Y-90242458D01*
X139044654Y-90242458D02*
X139093035Y-90242458D01*
X139093035Y-90242458D02*
X139165606Y-90266648D01*
X139165606Y-90266648D02*
X139189797Y-90290839D01*
X139407511Y-90750458D02*
X139407511Y-90411791D01*
X139407511Y-90242458D02*
X139383320Y-90266648D01*
X139383320Y-90266648D02*
X139407511Y-90290839D01*
X139407511Y-90290839D02*
X139431701Y-90266648D01*
X139431701Y-90266648D02*
X139407511Y-90242458D01*
X139407511Y-90242458D02*
X139407511Y-90290839D01*
X139649416Y-90411791D02*
X139649416Y-90750458D01*
X139649416Y-90460172D02*
X139673606Y-90435982D01*
X139673606Y-90435982D02*
X139721987Y-90411791D01*
X139721987Y-90411791D02*
X139794559Y-90411791D01*
X139794559Y-90411791D02*
X139842940Y-90435982D01*
X139842940Y-90435982D02*
X139867130Y-90484363D01*
X139867130Y-90484363D02*
X139867130Y-90750458D01*
X139988083Y-90798839D02*
X140375130Y-90798839D01*
X140713797Y-90411791D02*
X140713797Y-90750458D01*
X140592845Y-90218268D02*
X140471892Y-90581125D01*
X140471892Y-90581125D02*
X140786369Y-90581125D01*
X189783327Y-93882952D02*
X189807518Y-93907143D01*
X189807518Y-93907143D02*
X189831708Y-93979714D01*
X189831708Y-93979714D02*
X189831708Y-94028095D01*
X189831708Y-94028095D02*
X189807518Y-94100667D01*
X189807518Y-94100667D02*
X189759137Y-94149048D01*
X189759137Y-94149048D02*
X189710756Y-94173238D01*
X189710756Y-94173238D02*
X189613994Y-94197429D01*
X189613994Y-94197429D02*
X189541422Y-94197429D01*
X189541422Y-94197429D02*
X189444660Y-94173238D01*
X189444660Y-94173238D02*
X189396279Y-94149048D01*
X189396279Y-94149048D02*
X189347898Y-94100667D01*
X189347898Y-94100667D02*
X189323708Y-94028095D01*
X189323708Y-94028095D02*
X189323708Y-93979714D01*
X189323708Y-93979714D02*
X189347898Y-93907143D01*
X189347898Y-93907143D02*
X189372089Y-93882952D01*
X189831708Y-93592667D02*
X189807518Y-93641048D01*
X189807518Y-93641048D02*
X189783327Y-93665238D01*
X189783327Y-93665238D02*
X189734946Y-93689429D01*
X189734946Y-93689429D02*
X189589803Y-93689429D01*
X189589803Y-93689429D02*
X189541422Y-93665238D01*
X189541422Y-93665238D02*
X189517232Y-93641048D01*
X189517232Y-93641048D02*
X189493041Y-93592667D01*
X189493041Y-93592667D02*
X189493041Y-93520095D01*
X189493041Y-93520095D02*
X189517232Y-93471714D01*
X189517232Y-93471714D02*
X189541422Y-93447524D01*
X189541422Y-93447524D02*
X189589803Y-93423333D01*
X189589803Y-93423333D02*
X189734946Y-93423333D01*
X189734946Y-93423333D02*
X189783327Y-93447524D01*
X189783327Y-93447524D02*
X189807518Y-93471714D01*
X189807518Y-93471714D02*
X189831708Y-93520095D01*
X189831708Y-93520095D02*
X189831708Y-93592667D01*
X189493041Y-92987905D02*
X189831708Y-92987905D01*
X189493041Y-93205619D02*
X189759137Y-93205619D01*
X189759137Y-93205619D02*
X189807518Y-93181429D01*
X189807518Y-93181429D02*
X189831708Y-93133048D01*
X189831708Y-93133048D02*
X189831708Y-93060476D01*
X189831708Y-93060476D02*
X189807518Y-93012095D01*
X189807518Y-93012095D02*
X189783327Y-92987905D01*
X189493041Y-92818572D02*
X189493041Y-92625048D01*
X189323708Y-92746000D02*
X189759137Y-92746000D01*
X189759137Y-92746000D02*
X189807518Y-92721810D01*
X189807518Y-92721810D02*
X189831708Y-92673429D01*
X189831708Y-92673429D02*
X189831708Y-92625048D01*
X189880089Y-92576667D02*
X189880089Y-92189619D01*
X189323708Y-91850952D02*
X189323708Y-91947714D01*
X189323708Y-91947714D02*
X189347898Y-91996095D01*
X189347898Y-91996095D02*
X189372089Y-92020285D01*
X189372089Y-92020285D02*
X189444660Y-92068666D01*
X189444660Y-92068666D02*
X189541422Y-92092857D01*
X189541422Y-92092857D02*
X189734946Y-92092857D01*
X189734946Y-92092857D02*
X189783327Y-92068666D01*
X189783327Y-92068666D02*
X189807518Y-92044476D01*
X189807518Y-92044476D02*
X189831708Y-91996095D01*
X189831708Y-91996095D02*
X189831708Y-91899333D01*
X189831708Y-91899333D02*
X189807518Y-91850952D01*
X189807518Y-91850952D02*
X189783327Y-91826761D01*
X189783327Y-91826761D02*
X189734946Y-91802571D01*
X189734946Y-91802571D02*
X189613994Y-91802571D01*
X189613994Y-91802571D02*
X189565613Y-91826761D01*
X189565613Y-91826761D02*
X189541422Y-91850952D01*
X189541422Y-91850952D02*
X189517232Y-91899333D01*
X189517232Y-91899333D02*
X189517232Y-91996095D01*
X189517232Y-91996095D02*
X189541422Y-92044476D01*
X189541422Y-92044476D02*
X189565613Y-92068666D01*
X189565613Y-92068666D02*
X189613994Y-92092857D01*
X129576762Y-107331708D02*
X129407428Y-107089803D01*
X129286476Y-107331708D02*
X129286476Y-106823708D01*
X129286476Y-106823708D02*
X129480000Y-106823708D01*
X129480000Y-106823708D02*
X129528381Y-106847898D01*
X129528381Y-106847898D02*
X129552571Y-106872089D01*
X129552571Y-106872089D02*
X129576762Y-106920470D01*
X129576762Y-106920470D02*
X129576762Y-106993041D01*
X129576762Y-106993041D02*
X129552571Y-107041422D01*
X129552571Y-107041422D02*
X129528381Y-107065613D01*
X129528381Y-107065613D02*
X129480000Y-107089803D01*
X129480000Y-107089803D02*
X129286476Y-107089803D01*
X129673524Y-107380089D02*
X130060571Y-107380089D01*
X130157333Y-107307518D02*
X130205714Y-107331708D01*
X130205714Y-107331708D02*
X130302476Y-107331708D01*
X130302476Y-107331708D02*
X130350857Y-107307518D01*
X130350857Y-107307518D02*
X130375048Y-107259137D01*
X130375048Y-107259137D02*
X130375048Y-107234946D01*
X130375048Y-107234946D02*
X130350857Y-107186565D01*
X130350857Y-107186565D02*
X130302476Y-107162375D01*
X130302476Y-107162375D02*
X130229905Y-107162375D01*
X130229905Y-107162375D02*
X130181524Y-107138184D01*
X130181524Y-107138184D02*
X130157333Y-107089803D01*
X130157333Y-107089803D02*
X130157333Y-107065613D01*
X130157333Y-107065613D02*
X130181524Y-107017232D01*
X130181524Y-107017232D02*
X130229905Y-106993041D01*
X130229905Y-106993041D02*
X130302476Y-106993041D01*
X130302476Y-106993041D02*
X130350857Y-107017232D01*
X130592762Y-106993041D02*
X130592762Y-107331708D01*
X130592762Y-107041422D02*
X130616952Y-107017232D01*
X130616952Y-107017232D02*
X130665333Y-106993041D01*
X130665333Y-106993041D02*
X130737905Y-106993041D01*
X130737905Y-106993041D02*
X130786286Y-107017232D01*
X130786286Y-107017232D02*
X130810476Y-107065613D01*
X130810476Y-107065613D02*
X130810476Y-107331708D01*
X131270095Y-106993041D02*
X131270095Y-107331708D01*
X131052381Y-106993041D02*
X131052381Y-107259137D01*
X131052381Y-107259137D02*
X131076571Y-107307518D01*
X131076571Y-107307518D02*
X131124952Y-107331708D01*
X131124952Y-107331708D02*
X131197524Y-107331708D01*
X131197524Y-107331708D02*
X131245905Y-107307518D01*
X131245905Y-107307518D02*
X131270095Y-107283327D01*
X131512000Y-107331708D02*
X131512000Y-106823708D01*
X131512000Y-107017232D02*
X131560381Y-106993041D01*
X131560381Y-106993041D02*
X131657143Y-106993041D01*
X131657143Y-106993041D02*
X131705524Y-107017232D01*
X131705524Y-107017232D02*
X131729714Y-107041422D01*
X131729714Y-107041422D02*
X131753905Y-107089803D01*
X131753905Y-107089803D02*
X131753905Y-107234946D01*
X131753905Y-107234946D02*
X131729714Y-107283327D01*
X131729714Y-107283327D02*
X131705524Y-107307518D01*
X131705524Y-107307518D02*
X131657143Y-107331708D01*
X131657143Y-107331708D02*
X131560381Y-107331708D01*
X131560381Y-107331708D02*
X131512000Y-107307518D01*
X132237714Y-107331708D02*
X131947428Y-107331708D01*
X132092571Y-107331708D02*
X132092571Y-106823708D01*
X132092571Y-106823708D02*
X132044190Y-106896279D01*
X132044190Y-106896279D02*
X131995809Y-106944660D01*
X131995809Y-106944660D02*
X131947428Y-106968851D01*
X185183327Y-94082952D02*
X185207518Y-94107143D01*
X185207518Y-94107143D02*
X185231708Y-94179714D01*
X185231708Y-94179714D02*
X185231708Y-94228095D01*
X185231708Y-94228095D02*
X185207518Y-94300667D01*
X185207518Y-94300667D02*
X185159137Y-94349048D01*
X185159137Y-94349048D02*
X185110756Y-94373238D01*
X185110756Y-94373238D02*
X185013994Y-94397429D01*
X185013994Y-94397429D02*
X184941422Y-94397429D01*
X184941422Y-94397429D02*
X184844660Y-94373238D01*
X184844660Y-94373238D02*
X184796279Y-94349048D01*
X184796279Y-94349048D02*
X184747898Y-94300667D01*
X184747898Y-94300667D02*
X184723708Y-94228095D01*
X184723708Y-94228095D02*
X184723708Y-94179714D01*
X184723708Y-94179714D02*
X184747898Y-94107143D01*
X184747898Y-94107143D02*
X184772089Y-94082952D01*
X185231708Y-93792667D02*
X185207518Y-93841048D01*
X185207518Y-93841048D02*
X185183327Y-93865238D01*
X185183327Y-93865238D02*
X185134946Y-93889429D01*
X185134946Y-93889429D02*
X184989803Y-93889429D01*
X184989803Y-93889429D02*
X184941422Y-93865238D01*
X184941422Y-93865238D02*
X184917232Y-93841048D01*
X184917232Y-93841048D02*
X184893041Y-93792667D01*
X184893041Y-93792667D02*
X184893041Y-93720095D01*
X184893041Y-93720095D02*
X184917232Y-93671714D01*
X184917232Y-93671714D02*
X184941422Y-93647524D01*
X184941422Y-93647524D02*
X184989803Y-93623333D01*
X184989803Y-93623333D02*
X185134946Y-93623333D01*
X185134946Y-93623333D02*
X185183327Y-93647524D01*
X185183327Y-93647524D02*
X185207518Y-93671714D01*
X185207518Y-93671714D02*
X185231708Y-93720095D01*
X185231708Y-93720095D02*
X185231708Y-93792667D01*
X184893041Y-93187905D02*
X185231708Y-93187905D01*
X184893041Y-93405619D02*
X185159137Y-93405619D01*
X185159137Y-93405619D02*
X185207518Y-93381429D01*
X185207518Y-93381429D02*
X185231708Y-93333048D01*
X185231708Y-93333048D02*
X185231708Y-93260476D01*
X185231708Y-93260476D02*
X185207518Y-93212095D01*
X185207518Y-93212095D02*
X185183327Y-93187905D01*
X184893041Y-93018572D02*
X184893041Y-92825048D01*
X184723708Y-92946000D02*
X185159137Y-92946000D01*
X185159137Y-92946000D02*
X185207518Y-92921810D01*
X185207518Y-92921810D02*
X185231708Y-92873429D01*
X185231708Y-92873429D02*
X185231708Y-92825048D01*
X185280089Y-92776667D02*
X185280089Y-92389619D01*
X184723708Y-92317047D02*
X184723708Y-92002571D01*
X184723708Y-92002571D02*
X184917232Y-92171904D01*
X184917232Y-92171904D02*
X184917232Y-92099333D01*
X184917232Y-92099333D02*
X184941422Y-92050952D01*
X184941422Y-92050952D02*
X184965613Y-92026761D01*
X184965613Y-92026761D02*
X185013994Y-92002571D01*
X185013994Y-92002571D02*
X185134946Y-92002571D01*
X185134946Y-92002571D02*
X185183327Y-92026761D01*
X185183327Y-92026761D02*
X185207518Y-92050952D01*
X185207518Y-92050952D02*
X185231708Y-92099333D01*
X185231708Y-92099333D02*
X185231708Y-92244476D01*
X185231708Y-92244476D02*
X185207518Y-92292857D01*
X185207518Y-92292857D02*
X185183327Y-92317047D01*
X224158951Y-107923708D02*
X224449237Y-107923708D01*
X224304094Y-108431708D02*
X224304094Y-107923708D01*
X224618571Y-108431708D02*
X224618571Y-107923708D01*
X224618571Y-107923708D02*
X224812095Y-107923708D01*
X224812095Y-107923708D02*
X224860476Y-107947898D01*
X224860476Y-107947898D02*
X224884666Y-107972089D01*
X224884666Y-107972089D02*
X224908857Y-108020470D01*
X224908857Y-108020470D02*
X224908857Y-108093041D01*
X224908857Y-108093041D02*
X224884666Y-108141422D01*
X224884666Y-108141422D02*
X224860476Y-108165613D01*
X224860476Y-108165613D02*
X224812095Y-108189803D01*
X224812095Y-108189803D02*
X224618571Y-108189803D01*
X225078190Y-107923708D02*
X225392666Y-107923708D01*
X225392666Y-107923708D02*
X225223333Y-108117232D01*
X225223333Y-108117232D02*
X225295904Y-108117232D01*
X225295904Y-108117232D02*
X225344285Y-108141422D01*
X225344285Y-108141422D02*
X225368476Y-108165613D01*
X225368476Y-108165613D02*
X225392666Y-108213994D01*
X225392666Y-108213994D02*
X225392666Y-108334946D01*
X225392666Y-108334946D02*
X225368476Y-108383327D01*
X225368476Y-108383327D02*
X225344285Y-108407518D01*
X225344285Y-108407518D02*
X225295904Y-108431708D01*
X225295904Y-108431708D02*
X225150761Y-108431708D01*
X225150761Y-108431708D02*
X225102380Y-108407518D01*
X225102380Y-108407518D02*
X225078190Y-108383327D01*
X111830666Y-127723708D02*
X111830666Y-128086565D01*
X111830666Y-128086565D02*
X111806475Y-128159137D01*
X111806475Y-128159137D02*
X111758094Y-128207518D01*
X111758094Y-128207518D02*
X111685523Y-128231708D01*
X111685523Y-128231708D02*
X111637142Y-128231708D01*
X112024190Y-127723708D02*
X112338666Y-127723708D01*
X112338666Y-127723708D02*
X112169333Y-127917232D01*
X112169333Y-127917232D02*
X112241904Y-127917232D01*
X112241904Y-127917232D02*
X112290285Y-127941422D01*
X112290285Y-127941422D02*
X112314476Y-127965613D01*
X112314476Y-127965613D02*
X112338666Y-128013994D01*
X112338666Y-128013994D02*
X112338666Y-128134946D01*
X112338666Y-128134946D02*
X112314476Y-128183327D01*
X112314476Y-128183327D02*
X112290285Y-128207518D01*
X112290285Y-128207518D02*
X112241904Y-128231708D01*
X112241904Y-128231708D02*
X112096761Y-128231708D01*
X112096761Y-128231708D02*
X112048380Y-128207518D01*
X112048380Y-128207518D02*
X112024190Y-128183327D01*
X179001708Y-113026571D02*
X178759803Y-113195905D01*
X179001708Y-113316857D02*
X178493708Y-113316857D01*
X178493708Y-113316857D02*
X178493708Y-113123333D01*
X178493708Y-113123333D02*
X178517898Y-113074952D01*
X178517898Y-113074952D02*
X178542089Y-113050762D01*
X178542089Y-113050762D02*
X178590470Y-113026571D01*
X178590470Y-113026571D02*
X178663041Y-113026571D01*
X178663041Y-113026571D02*
X178711422Y-113050762D01*
X178711422Y-113050762D02*
X178735613Y-113074952D01*
X178735613Y-113074952D02*
X178759803Y-113123333D01*
X178759803Y-113123333D02*
X178759803Y-113316857D01*
X179001708Y-112542762D02*
X179001708Y-112833048D01*
X179001708Y-112687905D02*
X178493708Y-112687905D01*
X178493708Y-112687905D02*
X178566279Y-112736286D01*
X178566279Y-112736286D02*
X178614660Y-112784667D01*
X178614660Y-112784667D02*
X178638851Y-112833048D01*
X179001708Y-112058952D02*
X179001708Y-112349238D01*
X179001708Y-112204095D02*
X178493708Y-112204095D01*
X178493708Y-112204095D02*
X178566279Y-112252476D01*
X178566279Y-112252476D02*
X178614660Y-112300857D01*
X178614660Y-112300857D02*
X178638851Y-112349238D01*
X120358951Y-110125708D02*
X120649237Y-110125708D01*
X120504094Y-110633708D02*
X120504094Y-110125708D01*
X120818571Y-110633708D02*
X120818571Y-110125708D01*
X120818571Y-110125708D02*
X121012095Y-110125708D01*
X121012095Y-110125708D02*
X121060476Y-110149898D01*
X121060476Y-110149898D02*
X121084666Y-110174089D01*
X121084666Y-110174089D02*
X121108857Y-110222470D01*
X121108857Y-110222470D02*
X121108857Y-110295041D01*
X121108857Y-110295041D02*
X121084666Y-110343422D01*
X121084666Y-110343422D02*
X121060476Y-110367613D01*
X121060476Y-110367613D02*
X121012095Y-110391803D01*
X121012095Y-110391803D02*
X120818571Y-110391803D01*
X121568476Y-110125708D02*
X121326571Y-110125708D01*
X121326571Y-110125708D02*
X121302380Y-110367613D01*
X121302380Y-110367613D02*
X121326571Y-110343422D01*
X121326571Y-110343422D02*
X121374952Y-110319232D01*
X121374952Y-110319232D02*
X121495904Y-110319232D01*
X121495904Y-110319232D02*
X121544285Y-110343422D01*
X121544285Y-110343422D02*
X121568476Y-110367613D01*
X121568476Y-110367613D02*
X121592666Y-110415994D01*
X121592666Y-110415994D02*
X121592666Y-110536946D01*
X121592666Y-110536946D02*
X121568476Y-110585327D01*
X121568476Y-110585327D02*
X121544285Y-110609518D01*
X121544285Y-110609518D02*
X121495904Y-110633708D01*
X121495904Y-110633708D02*
X121374952Y-110633708D01*
X121374952Y-110633708D02*
X121326571Y-110609518D01*
X121326571Y-110609518D02*
X121302380Y-110585327D01*
X106321451Y-123011408D02*
X106611737Y-123011408D01*
X106466594Y-123519408D02*
X106466594Y-123011408D01*
X106781071Y-123519408D02*
X106781071Y-123011408D01*
X106781071Y-123011408D02*
X106974595Y-123011408D01*
X106974595Y-123011408D02*
X107022976Y-123035598D01*
X107022976Y-123035598D02*
X107047166Y-123059789D01*
X107047166Y-123059789D02*
X107071357Y-123108170D01*
X107071357Y-123108170D02*
X107071357Y-123180741D01*
X107071357Y-123180741D02*
X107047166Y-123229122D01*
X107047166Y-123229122D02*
X107022976Y-123253313D01*
X107022976Y-123253313D02*
X106974595Y-123277503D01*
X106974595Y-123277503D02*
X106781071Y-123277503D01*
X107264880Y-123059789D02*
X107289071Y-123035598D01*
X107289071Y-123035598D02*
X107337452Y-123011408D01*
X107337452Y-123011408D02*
X107458404Y-123011408D01*
X107458404Y-123011408D02*
X107506785Y-123035598D01*
X107506785Y-123035598D02*
X107530976Y-123059789D01*
X107530976Y-123059789D02*
X107555166Y-123108170D01*
X107555166Y-123108170D02*
X107555166Y-123156551D01*
X107555166Y-123156551D02*
X107530976Y-123229122D01*
X107530976Y-123229122D02*
X107240690Y-123519408D01*
X107240690Y-123519408D02*
X107555166Y-123519408D01*
X141589797Y-90702077D02*
X141565606Y-90726268D01*
X141565606Y-90726268D02*
X141493035Y-90750458D01*
X141493035Y-90750458D02*
X141444654Y-90750458D01*
X141444654Y-90750458D02*
X141372082Y-90726268D01*
X141372082Y-90726268D02*
X141323701Y-90677887D01*
X141323701Y-90677887D02*
X141299511Y-90629506D01*
X141299511Y-90629506D02*
X141275320Y-90532744D01*
X141275320Y-90532744D02*
X141275320Y-90460172D01*
X141275320Y-90460172D02*
X141299511Y-90363410D01*
X141299511Y-90363410D02*
X141323701Y-90315029D01*
X141323701Y-90315029D02*
X141372082Y-90266648D01*
X141372082Y-90266648D02*
X141444654Y-90242458D01*
X141444654Y-90242458D02*
X141493035Y-90242458D01*
X141493035Y-90242458D02*
X141565606Y-90266648D01*
X141565606Y-90266648D02*
X141589797Y-90290839D01*
X141807511Y-90750458D02*
X141807511Y-90411791D01*
X141807511Y-90242458D02*
X141783320Y-90266648D01*
X141783320Y-90266648D02*
X141807511Y-90290839D01*
X141807511Y-90290839D02*
X141831701Y-90266648D01*
X141831701Y-90266648D02*
X141807511Y-90242458D01*
X141807511Y-90242458D02*
X141807511Y-90290839D01*
X142049416Y-90411791D02*
X142049416Y-90750458D01*
X142049416Y-90460172D02*
X142073606Y-90435982D01*
X142073606Y-90435982D02*
X142121987Y-90411791D01*
X142121987Y-90411791D02*
X142194559Y-90411791D01*
X142194559Y-90411791D02*
X142242940Y-90435982D01*
X142242940Y-90435982D02*
X142267130Y-90484363D01*
X142267130Y-90484363D02*
X142267130Y-90750458D01*
X142388083Y-90798839D02*
X142775130Y-90798839D01*
X143137988Y-90242458D02*
X142896083Y-90242458D01*
X142896083Y-90242458D02*
X142871892Y-90484363D01*
X142871892Y-90484363D02*
X142896083Y-90460172D01*
X142896083Y-90460172D02*
X142944464Y-90435982D01*
X142944464Y-90435982D02*
X143065416Y-90435982D01*
X143065416Y-90435982D02*
X143113797Y-90460172D01*
X143113797Y-90460172D02*
X143137988Y-90484363D01*
X143137988Y-90484363D02*
X143162178Y-90532744D01*
X143162178Y-90532744D02*
X143162178Y-90653696D01*
X143162178Y-90653696D02*
X143137988Y-90702077D01*
X143137988Y-90702077D02*
X143113797Y-90726268D01*
X143113797Y-90726268D02*
X143065416Y-90750458D01*
X143065416Y-90750458D02*
X142944464Y-90750458D01*
X142944464Y-90750458D02*
X142896083Y-90726268D01*
X142896083Y-90726268D02*
X142871892Y-90702077D01*
X136589797Y-104702077D02*
X136565606Y-104726268D01*
X136565606Y-104726268D02*
X136493035Y-104750458D01*
X136493035Y-104750458D02*
X136444654Y-104750458D01*
X136444654Y-104750458D02*
X136372082Y-104726268D01*
X136372082Y-104726268D02*
X136323701Y-104677887D01*
X136323701Y-104677887D02*
X136299511Y-104629506D01*
X136299511Y-104629506D02*
X136275320Y-104532744D01*
X136275320Y-104532744D02*
X136275320Y-104460172D01*
X136275320Y-104460172D02*
X136299511Y-104363410D01*
X136299511Y-104363410D02*
X136323701Y-104315029D01*
X136323701Y-104315029D02*
X136372082Y-104266648D01*
X136372082Y-104266648D02*
X136444654Y-104242458D01*
X136444654Y-104242458D02*
X136493035Y-104242458D01*
X136493035Y-104242458D02*
X136565606Y-104266648D01*
X136565606Y-104266648D02*
X136589797Y-104290839D01*
X136807511Y-104750458D02*
X136807511Y-104411791D01*
X136807511Y-104242458D02*
X136783320Y-104266648D01*
X136783320Y-104266648D02*
X136807511Y-104290839D01*
X136807511Y-104290839D02*
X136831701Y-104266648D01*
X136831701Y-104266648D02*
X136807511Y-104242458D01*
X136807511Y-104242458D02*
X136807511Y-104290839D01*
X137049416Y-104411791D02*
X137049416Y-104750458D01*
X137049416Y-104460172D02*
X137073606Y-104435982D01*
X137073606Y-104435982D02*
X137121987Y-104411791D01*
X137121987Y-104411791D02*
X137194559Y-104411791D01*
X137194559Y-104411791D02*
X137242940Y-104435982D01*
X137242940Y-104435982D02*
X137267130Y-104484363D01*
X137267130Y-104484363D02*
X137267130Y-104750458D01*
X137388083Y-104798839D02*
X137775130Y-104798839D01*
X137871892Y-104290839D02*
X137896083Y-104266648D01*
X137896083Y-104266648D02*
X137944464Y-104242458D01*
X137944464Y-104242458D02*
X138065416Y-104242458D01*
X138065416Y-104242458D02*
X138113797Y-104266648D01*
X138113797Y-104266648D02*
X138137988Y-104290839D01*
X138137988Y-104290839D02*
X138162178Y-104339220D01*
X138162178Y-104339220D02*
X138162178Y-104387601D01*
X138162178Y-104387601D02*
X138137988Y-104460172D01*
X138137988Y-104460172D02*
X137847702Y-104750458D01*
X137847702Y-104750458D02*
X138162178Y-104750458D01*
D14*
%TO.C,Ccomp_3*%
X146890000Y-127748752D02*
X146890000Y-126326248D01*
X148710000Y-127748752D02*
X148710000Y-126326248D01*
%TO.C,C_ss1*%
X141665000Y-136376248D02*
X141665000Y-136898752D01*
X143135000Y-136376248D02*
X143135000Y-136898752D01*
%TO.C,C_isense1*%
X149290000Y-122911252D02*
X149290000Y-121488748D01*
X151110000Y-122911252D02*
X151110000Y-121488748D01*
%TO.C,Ccomp_2*%
X153911252Y-125090000D02*
X152488748Y-125090000D01*
X153911252Y-126910000D02*
X152488748Y-126910000D01*
%TO.C,TP9*%
X150400000Y-132300000D02*
X152800000Y-132300000D01*
X150400000Y-134700000D02*
X150400000Y-132300000D01*
X152800000Y-132300000D02*
X152800000Y-134700000D01*
X152800000Y-134700000D02*
X150400000Y-134700000D01*
%TO.C,Cosc1*%
X141948752Y-121710000D02*
X140526248Y-121710000D01*
X141948752Y-119890000D02*
X140526248Y-119890000D01*
%TO.C,Rosc1*%
X145910000Y-120127064D02*
X145910000Y-118672936D01*
X144090000Y-120127064D02*
X144090000Y-118672936D01*
%TO.C,Q2*%
X145440000Y-135640000D02*
X145440000Y-134750000D01*
X145440000Y-135640000D02*
X147290000Y-135640000D01*
X145455000Y-132520000D02*
X147305000Y-132520000D01*
X145455000Y-133410000D02*
X145455000Y-132520000D01*
X147920000Y-135980000D02*
X147440000Y-135980000D01*
X147680000Y-135650000D01*
X147920000Y-135980000D01*
G36*
X147920000Y-135980000D02*
G01*
X147440000Y-135980000D01*
X147680000Y-135650000D01*
X147920000Y-135980000D01*
G37*
%TO.C,Ccomp_1*%
X147326248Y-129765000D02*
X148748752Y-129765000D01*
X147326248Y-131585000D02*
X148748752Y-131585000D01*
%TO.C,TP6*%
X141437500Y-129200000D02*
X143837500Y-129200000D01*
X141437500Y-131600000D02*
X141437500Y-129200000D01*
X143837500Y-129200000D02*
X143837500Y-131600000D01*
X143837500Y-131600000D02*
X141437500Y-131600000D01*
%TO.C,Rcomp_2*%
X149277500Y-126132776D02*
X149277500Y-126642224D01*
X150322500Y-126132776D02*
X150322500Y-126642224D01*
%TO.C,C14*%
X137490000Y-127753733D02*
X137490000Y-128046267D01*
X138510000Y-127753733D02*
X138510000Y-128046267D01*
%TO.C,TP7*%
X155600000Y-122000000D02*
X158000000Y-122000000D01*
X155600000Y-124400000D02*
X155600000Y-122000000D01*
X158000000Y-122000000D02*
X158000000Y-124400000D01*
X158000000Y-124400000D02*
X155600000Y-124400000D01*
%TO.C,R_ss1*%
X141514564Y-132490000D02*
X140060436Y-132490000D01*
X141514564Y-134310000D02*
X140060436Y-134310000D01*
%TO.C,Rcomp_1*%
X157232776Y-127077500D02*
X157742224Y-127077500D01*
X157232776Y-128122500D02*
X157742224Y-128122500D01*
%TO.C,C17*%
X137010000Y-126053733D02*
X137010000Y-126346267D01*
X135990000Y-126053733D02*
X135990000Y-126346267D01*
%TO.C,R_isense2*%
X152277064Y-116190000D02*
X150822936Y-116190000D01*
X152277064Y-118010000D02*
X150822936Y-118010000D01*
D15*
%TO.C,CR1*%
X151599800Y-118679000D02*
X151599800Y-124521000D01*
X151599800Y-124521000D02*
X152041760Y-124521000D01*
X152041760Y-118679000D02*
X151599800Y-118679000D01*
X153200000Y-117282000D02*
X152565000Y-118044000D01*
X153200000Y-117282000D02*
X152692000Y-118044000D01*
X153200000Y-117282000D02*
X152819000Y-118044000D01*
X153200000Y-117282000D02*
X152946000Y-118044000D01*
X153200000Y-117282000D02*
X153073000Y-118044000D01*
X153200000Y-117282000D02*
X153327000Y-118044000D01*
X153200000Y-117282000D02*
X153454000Y-118044000D01*
X153200000Y-117282000D02*
X153581000Y-118044000D01*
X153200000Y-117282000D02*
X153708000Y-118044000D01*
X153200000Y-117282000D02*
X153835000Y-118044000D01*
X153200000Y-118298000D02*
X153200000Y-117028000D01*
X153835000Y-117282000D02*
X152565000Y-117282000D01*
X153835000Y-118044000D02*
X152565000Y-118044000D01*
X154358240Y-124521000D02*
X154800200Y-124521000D01*
X154800200Y-118679000D02*
X154358240Y-118679000D01*
X154800200Y-124521000D02*
X154800200Y-118679000D01*
D14*
%TO.C,Rb1*%
X153977064Y-127490000D02*
X152522936Y-127490000D01*
X153977064Y-129310000D02*
X152522936Y-129310000D01*
%TO.C,Rcomp_3*%
X157654724Y-125477500D02*
X157145276Y-125477500D01*
X157654724Y-126522500D02*
X157145276Y-126522500D01*
%TO.C,R_isense1*%
X146890000Y-122727064D02*
X146890000Y-121272936D01*
X148710000Y-122727064D02*
X148710000Y-121272936D01*
D15*
%TO.C,U1*%
X141162547Y-127206900D02*
X143909853Y-127206900D01*
X143909853Y-122203100D02*
X141162547Y-122203100D01*
X142231400Y-127206900D02*
G75*
G02*
X142841000Y-127206900I304800J0D01*
G01*
D14*
%TO.C,Rg_1*%
X136510000Y-120527064D02*
X136510000Y-119072936D01*
X134690000Y-120527064D02*
X134690000Y-119072936D01*
D16*
%TO.C,Q1*%
X135800000Y-116689000D02*
G75*
G02*
X135700000Y-116690000I-50000J-500D01*
G01*
X135700000Y-116689000D02*
G75*
G02*
X135800000Y-116690000I50000J-500D01*
G01*
D17*
X141370000Y-112875000D02*
X141370000Y-106780000D01*
D16*
X135800000Y-116690000D02*
X135800000Y-116690000D01*
X135700000Y-116690000D02*
X135700000Y-116690000D01*
D17*
X134830000Y-112874000D02*
X141370000Y-112875000D01*
X134830000Y-106780000D02*
X134830000Y-112874000D01*
D14*
%TO.C,D5*%
X126290000Y-124505000D02*
X126290000Y-131915000D01*
X128510000Y-131915000D02*
X128510000Y-124505000D01*
X126290000Y-131915000D02*
X128510000Y-131915000D01*
%TO.C,D6*%
X130810000Y-122640000D02*
X128590000Y-122640000D01*
X128590000Y-122640000D02*
X128590000Y-130050000D01*
X130810000Y-130050000D02*
X130810000Y-122640000D01*
%TO.C,Rpreload33*%
X196190000Y-122172936D02*
X196190000Y-123627064D01*
X198010000Y-122172936D02*
X198010000Y-123627064D01*
%TO.C,Cout_9*%
X188890000Y-102588748D02*
X188890000Y-104011252D01*
X190710000Y-102588748D02*
X190710000Y-104011252D01*
%TO.C,Rpreload16*%
X207390000Y-107372936D02*
X207390000Y-108827064D01*
X209210000Y-107372936D02*
X209210000Y-108827064D01*
%TO.C,Q3*%
X119940000Y-116140000D02*
X119940000Y-117990000D01*
X119940000Y-116140000D02*
X120830000Y-116140000D01*
X122170000Y-116155000D02*
X123060000Y-116155000D01*
X123060000Y-116155000D02*
X123060000Y-118005000D01*
X119950000Y-118380000D02*
X119620000Y-118620000D01*
X119620000Y-118140000D01*
X119950000Y-118380000D01*
G36*
X119950000Y-118380000D02*
G01*
X119620000Y-118620000D01*
X119620000Y-118140000D01*
X119950000Y-118380000D01*
G37*
%TO.C,Rpreload9*%
X199790000Y-122072936D02*
X199790000Y-123527064D01*
X201610000Y-122072936D02*
X201610000Y-123527064D01*
%TO.C,Rpreload14*%
X203690000Y-122072936D02*
X203690000Y-123527064D01*
X205510000Y-122072936D02*
X205510000Y-123527064D01*
%TO.C,T1*%
X144300000Y-91600000D02*
X167300000Y-91600000D01*
X144300000Y-114600000D02*
X144300000Y-91600000D01*
X167300000Y-91600000D02*
X167300000Y-114600000D01*
X167300000Y-114600000D02*
X144300000Y-114600000D01*
X143800000Y-100600000D02*
G75*
G02*
X142800000Y-100600000I-500000J0D01*
G01*
X142800000Y-100600000D02*
G75*
G02*
X143800000Y-100600000I500000J0D01*
G01*
X168880000Y-105650000D02*
G75*
G02*
X167880000Y-105650000I-500000J0D01*
G01*
X167880000Y-105650000D02*
G75*
G02*
X168880000Y-105650000I500000J0D01*
G01*
%TO.C,Rpreload12*%
X203690000Y-112272936D02*
X203690000Y-113727064D01*
X205510000Y-112272936D02*
X205510000Y-113727064D01*
%TO.C,Rpreload21*%
X211490000Y-107372936D02*
X211490000Y-108827064D01*
X213310000Y-107372936D02*
X213310000Y-108827064D01*
%TO.C,Cout_5*%
X191290000Y-99011252D02*
X191290000Y-97588748D01*
X193110000Y-99011252D02*
X193110000Y-97588748D01*
%TO.C,TP4*%
X225400000Y-124000000D02*
X227800000Y-124000000D01*
X225400000Y-126400000D02*
X225400000Y-124000000D01*
X227800000Y-124000000D02*
X227800000Y-126400000D01*
X227800000Y-126400000D02*
X225400000Y-126400000D01*
%TO.C,Rpreload5*%
X199790000Y-102372936D02*
X199790000Y-103827064D01*
X201610000Y-102372936D02*
X201610000Y-103827064D01*
%TO.C,Cout_4*%
X184090000Y-102588748D02*
X184090000Y-104011252D01*
X185910000Y-102588748D02*
X185910000Y-104011252D01*
%TO.C,Rg_2*%
X132290000Y-120577064D02*
X132290000Y-119122936D01*
X134110000Y-120577064D02*
X134110000Y-119122936D01*
%TO.C,C_snub1*%
X126861252Y-107990000D02*
X125438748Y-107990000D01*
X126861252Y-109810000D02*
X125438748Y-109810000D01*
%TO.C,Cout_8*%
X186490000Y-102588748D02*
X186490000Y-104011252D01*
X188310000Y-102588748D02*
X188310000Y-104011252D01*
%TO.C,Rpreload6*%
X199790000Y-107272936D02*
X199790000Y-108727064D01*
X201610000Y-107272936D02*
X201610000Y-108727064D01*
%TO.C,Q4*%
X125540000Y-116140000D02*
X125540000Y-117990000D01*
X125540000Y-116140000D02*
X126430000Y-116140000D01*
X127770000Y-116155000D02*
X128660000Y-116155000D01*
X128660000Y-116155000D02*
X128660000Y-118005000D01*
X125550000Y-118380000D02*
X125220000Y-118620000D01*
X125220000Y-118140000D01*
X125550000Y-118380000D01*
G36*
X125550000Y-118380000D02*
G01*
X125220000Y-118620000D01*
X125220000Y-118140000D01*
X125550000Y-118380000D01*
G37*
%TO.C,Rpreload10*%
X203690000Y-102472936D02*
X203690000Y-103927064D01*
X205510000Y-102472936D02*
X205510000Y-103927064D01*
D15*
%TO.C,J4*%
X216360600Y-129291800D02*
X216360600Y-130184560D01*
X216360600Y-132615440D02*
X216360600Y-133508200D01*
X216360600Y-133508200D02*
X227079400Y-133508200D01*
X227079400Y-129291800D02*
X216360600Y-129291800D01*
X227079400Y-130184560D02*
X227079400Y-129291800D01*
X227079400Y-133508200D02*
X227079400Y-132615440D01*
D18*
X229238400Y-131400000D02*
G75*
G02*
X228476400Y-131400000I-381000J0D01*
G01*
X228476400Y-131400000D02*
G75*
G02*
X229238400Y-131400000I381000J0D01*
G01*
D14*
%TO.C,D4*%
X179490000Y-100840000D02*
X179490000Y-108250000D01*
X181710000Y-100840000D02*
X179490000Y-100840000D01*
X181710000Y-108250000D02*
X181710000Y-100840000D01*
%TO.C,TP8*%
X130900000Y-110600000D02*
X133300000Y-110600000D01*
X130900000Y-113000000D02*
X130900000Y-110600000D01*
X133300000Y-110600000D02*
X133300000Y-113000000D01*
X133300000Y-113000000D02*
X130900000Y-113000000D01*
%TO.C,Cin_1*%
X136508750Y-95830002D02*
X136508750Y-94407498D01*
X138328750Y-95830002D02*
X138328750Y-94407498D01*
%TO.C,Rpreload20*%
X211490000Y-102472936D02*
X211490000Y-103927064D01*
X213310000Y-102472936D02*
X213310000Y-103927064D01*
%TO.C,Cin_3*%
X138908750Y-99407498D02*
X138908750Y-100830002D01*
X140728750Y-99407498D02*
X140728750Y-100830002D01*
%TO.C,Cout_10*%
X191290000Y-102588748D02*
X191290000Y-104011252D01*
X193110000Y-102588748D02*
X193110000Y-104011252D01*
%TO.C,Rpreload24*%
X211490000Y-122072936D02*
X211490000Y-123527064D01*
X213310000Y-122072936D02*
X213310000Y-123527064D01*
%TO.C,Cout_2*%
X193690000Y-102588748D02*
X193690000Y-104011252D01*
X195510000Y-102588748D02*
X195510000Y-104011252D01*
%TO.C,R8*%
X169225000Y-94325000D02*
X169225000Y-100745000D01*
X169225000Y-100745000D02*
X169495000Y-100745000D01*
X176125000Y-94325000D02*
X176125000Y-100745000D01*
X176125000Y-100745000D02*
X175855000Y-100745000D01*
X169535000Y-102475000D02*
X169065000Y-102815000D01*
X169065000Y-102135000D01*
X169535000Y-102475000D01*
G36*
X169535000Y-102475000D02*
G01*
X169065000Y-102815000D01*
X169065000Y-102135000D01*
X169535000Y-102475000D01*
G37*
%TO.C,Cout_7*%
X186490000Y-99011252D02*
X186490000Y-97588748D01*
X188310000Y-99011252D02*
X188310000Y-97588748D01*
D15*
%TO.C,+5V1*%
X216560600Y-99691800D02*
X216560600Y-100584560D01*
X216560600Y-103015440D02*
X216560600Y-103908200D01*
X216560600Y-103908200D02*
X227279400Y-103908200D01*
X227279400Y-99691800D02*
X216560600Y-99691800D01*
X227279400Y-100584560D02*
X227279400Y-99691800D01*
X227279400Y-103908200D02*
X227279400Y-103015440D01*
D18*
X229438400Y-101800000D02*
G75*
G02*
X228676400Y-101800000I-381000J0D01*
G01*
X228676400Y-101800000D02*
G75*
G02*
X229438400Y-101800000I381000J0D01*
G01*
D14*
%TO.C,TP1*%
X106000000Y-107000000D02*
X108400000Y-107000000D01*
X106000000Y-109400000D02*
X106000000Y-107000000D01*
X108400000Y-107000000D02*
X108400000Y-109400000D01*
X108400000Y-109400000D02*
X106000000Y-109400000D01*
%TO.C,Rpreload15*%
X207390000Y-102472936D02*
X207390000Y-103927064D01*
X209210000Y-102472936D02*
X209210000Y-103927064D01*
D15*
%TO.C,+12*%
X106764500Y-99777500D02*
X106764500Y-100670260D01*
X106764500Y-103101140D02*
X106764500Y-103993900D01*
X106764500Y-103993900D02*
X117483300Y-103993900D01*
X117483300Y-99777500D02*
X106764500Y-99777500D01*
X117483300Y-100670260D02*
X117483300Y-99777500D01*
X117483300Y-103993900D02*
X117483300Y-103101140D01*
D18*
X105367500Y-101885700D02*
G75*
G02*
X104605500Y-101885700I-381000J0D01*
G01*
X104605500Y-101885700D02*
G75*
G02*
X105367500Y-101885700I381000J0D01*
G01*
D14*
%TO.C,Rpreload1*%
X196190000Y-102472936D02*
X196190000Y-103927064D01*
X198010000Y-102472936D02*
X198010000Y-103927064D01*
%TO.C,Cout_1*%
X181490000Y-98973752D02*
X181490000Y-97551248D01*
X183310000Y-98973752D02*
X183310000Y-97551248D01*
%TO.C,Rpreload23*%
X211490000Y-117172936D02*
X211490000Y-118627064D01*
X213310000Y-117172936D02*
X213310000Y-118627064D01*
%TO.C,Rpreload13*%
X203690000Y-117172936D02*
X203690000Y-118627064D01*
X205510000Y-117172936D02*
X205510000Y-118627064D01*
%TO.C,Cin_4*%
X138946250Y-95830002D02*
X138946250Y-94407498D01*
X140766250Y-95830002D02*
X140766250Y-94407498D01*
%TO.C,Cout_6*%
X188890000Y-99011252D02*
X188890000Y-97588748D01*
X190710000Y-99011252D02*
X190710000Y-97588748D01*
%TO.C,Rpreload19*%
X207390000Y-122072936D02*
X207390000Y-123527064D01*
X209210000Y-122072936D02*
X209210000Y-123527064D01*
%TO.C,Rpreload22*%
X211490000Y-112272936D02*
X211490000Y-113727064D01*
X213310000Y-112272936D02*
X213310000Y-113727064D01*
%TO.C,Rpreload8*%
X199790000Y-117172936D02*
X199790000Y-118627064D01*
X201610000Y-117172936D02*
X201610000Y-118627064D01*
%TO.C,R_snub1*%
X130422936Y-107990000D02*
X131877064Y-107990000D01*
X130422936Y-109810000D02*
X131877064Y-109810000D01*
%TO.C,Cout_3*%
X184090000Y-99011252D02*
X184090000Y-97588748D01*
X185910000Y-99011252D02*
X185910000Y-97588748D01*
%TO.C,TP3*%
X226000000Y-107000000D02*
X228400000Y-107000000D01*
X226000000Y-109400000D02*
X226000000Y-107000000D01*
X228400000Y-107000000D02*
X228400000Y-109400000D01*
X228400000Y-109400000D02*
X226000000Y-109400000D01*
%TO.C,Rpreload4*%
X196190000Y-117272936D02*
X196190000Y-118727064D01*
X198010000Y-117272936D02*
X198010000Y-118727064D01*
%TO.C,Rpreload11*%
X203690000Y-107372936D02*
X203690000Y-108827064D01*
X205510000Y-107372936D02*
X205510000Y-108827064D01*
%TO.C,Rb2*%
X124135000Y-123527064D02*
X124135000Y-123072936D01*
X122665000Y-123527064D02*
X122665000Y-123072936D01*
D15*
%TO.C,J3*%
X106564500Y-129377500D02*
X106564500Y-130270260D01*
X106564500Y-132701140D02*
X106564500Y-133593900D01*
X106564500Y-133593900D02*
X117283300Y-133593900D01*
X117283300Y-129377500D02*
X106564500Y-129377500D01*
X117283300Y-130270260D02*
X117283300Y-129377500D01*
X117283300Y-133593900D02*
X117283300Y-132701140D01*
D18*
X105167500Y-131485700D02*
G75*
G02*
X104405500Y-131485700I-381000J0D01*
G01*
X104405500Y-131485700D02*
G75*
G02*
X105167500Y-131485700I381000J0D01*
G01*
D14*
%TO.C,Rpreload3*%
X196190000Y-112372936D02*
X196190000Y-113827064D01*
X198010000Y-112372936D02*
X198010000Y-113827064D01*
%TO.C,Rpreload2*%
X196190000Y-107422936D02*
X196190000Y-108877064D01*
X198010000Y-107422936D02*
X198010000Y-108877064D01*
%TO.C,R11*%
X179690000Y-113427064D02*
X179690000Y-111972936D01*
X181510000Y-113427064D02*
X181510000Y-111972936D01*
%TO.C,TP5*%
X119800000Y-111200000D02*
X122200000Y-111200000D01*
X119800000Y-113600000D02*
X119800000Y-111200000D01*
X122200000Y-111200000D02*
X122200000Y-113600000D01*
X122200000Y-113600000D02*
X119800000Y-113600000D01*
%TO.C,Rpreload17*%
X207390000Y-112272936D02*
X207390000Y-113727064D01*
X209210000Y-112272936D02*
X209210000Y-113727064D01*
%TO.C,Rpreload7*%
X199790000Y-112172936D02*
X199790000Y-113627064D01*
X201610000Y-112172936D02*
X201610000Y-113627064D01*
%TO.C,Rpreload18*%
X207390000Y-117172936D02*
X207390000Y-118627064D01*
X209210000Y-117172936D02*
X209210000Y-118627064D01*
%TO.C,TP2*%
X105762500Y-124085700D02*
X108162500Y-124085700D01*
X105762500Y-126485700D02*
X105762500Y-124085700D01*
X108162500Y-124085700D02*
X108162500Y-126485700D01*
X108162500Y-126485700D02*
X105762500Y-126485700D01*
%TO.C,Cin_5*%
X141308750Y-95830002D02*
X141308750Y-94407498D01*
X143128750Y-95830002D02*
X143128750Y-94407498D01*
%TO.C,Cin_2*%
X136508750Y-99369998D02*
X136508750Y-100792502D01*
X138328750Y-99369998D02*
X138328750Y-100792502D01*
%TD*%
M02*
